<svg width="99" height="93" viewBox="0 0 99 93" fill="none" xmlns="http://www.w3.org/2000/svg">
<path d="M25.0461 85.33C24.4856 84.2091 11.2217 58.9891 17.7603 37.5053C21.4966 24.6151 28.4087 19.0107 33.6395 16.5821C39.8044 13.7798 45.5957 14.1535 48.9584 15.648C49.332 15.8348 49.7056 16.0216 50.0792 16.2084C54.7496 18.637 58.6727 24.0547 58.8595 30.2196C64.0904 26.8569 73.6179 22.9338 83.7059 28.3514C85.2004 29.0987 86.695 30.2196 88.1895 31.3404C95.4753 37.3185 98.2775 44.7911 96.2225 52.8242C93.2335 64.2199 80.53 73.7474 65.5848 76.3629C59.9804 77.2969 54.9364 77.8574 50.4529 78.231C39.8044 79.1651 32.8923 79.9123 28.9691 85.7036L26.9142 88.6926L25.0461 85.33Z" fill="#FFC0C9" stroke="#4D0D06" stroke-width="3" stroke-miterlimit="10"/>
<path d="M82.772 30.0329C84.0797 30.7802 85.5742 31.7143 86.882 32.8352C105.19 47.5935 89.3106 70.0113 65.2115 73.9344C45.7827 77.1103 33.4529 74.6817 27.1012 84.2093C27.1012 84.2093 13.6504 58.8024 19.8153 37.8792C25.9802 16.9559 41.2991 14.5273 48.0245 17.3295C48.3981 17.5163 48.5849 17.5163 48.9585 17.7032C54.1894 20.5054 58.2993 27.6043 56.0575 34.7033C56.0575 34.8901 68.5741 22.5603 82.772 30.0329ZM84.827 26.2966C75.2995 21.2526 66.5192 23.4944 60.5411 26.6703C59.2334 21.2526 55.497 16.5823 51.0135 14.3405C50.6398 14.1537 50.2662 13.9669 49.7057 13.78C44.8485 11.7251 38.3101 12.0987 32.7056 14.7141C27.1012 17.3295 19.8154 23.3076 15.7055 36.9451C8.98016 59.3629 22.6177 85.3302 23.1781 86.451L26.5407 92.9896L30.6507 86.8247C33.8265 81.9675 39.431 81.2202 50.453 80.2862C54.9366 79.9125 60.1674 79.3521 65.7719 78.418C81.6512 75.8026 95.1018 65.341 98.2776 53.198C100.519 44.4177 97.5304 36.011 89.4974 29.4725C88.0029 28.1648 86.3216 27.0439 84.827 26.2966Z" fill="#4D0D06"/>
<path d="M65.2114 73.9344C89.1237 69.8245 105.003 47.5935 86.8819 32.8351C71.1894 20.1317 56.0574 34.8901 56.0574 34.8901C71.0026 24.8021 84.6401 38.4396 84.2664 45.7254C83.8928 54.132 73.8048 65.5277 48.7716 66.275C23.7384 67.2091 27.1011 84.0224 27.1011 84.0224C33.4528 74.6817 45.7827 77.2971 65.2114 73.9344Z" fill="#F79FAF"/>
<path d="M53.2554 66.275C53.2554 65.7146 55.684 65.1541 59.6071 64.0332C63.3434 62.9123 68.7611 61.6046 73.6182 58.6156C76.0468 57.1211 78.1017 55.4397 79.5962 53.5716C80.3435 52.6375 80.9039 51.7034 81.4644 50.7694C82.0248 49.8353 82.3985 48.9012 82.5853 47.9671C83.7062 44.6045 82.7721 42.1759 83.3325 41.8022C83.5193 41.6154 84.2667 42.1759 84.8271 43.2968C85.3876 44.4177 85.948 46.2858 85.7612 48.5276C85.5744 49.6485 85.3875 50.9562 85.0139 52.0771C84.6403 53.3848 83.893 54.6925 83.1458 55.8134C81.4644 58.4288 79.0359 60.6706 76.0468 62.3519C70.2556 65.7146 64.2775 66.6486 60.1675 67.0223C55.8708 67.3959 53.2554 66.8355 53.2554 66.275Z" fill="#4D0D06"/>
<path d="M81.0906 37.8792C80.3433 38.4397 78.6619 37.3188 76.7937 36.0111C74.7388 34.7034 73.2443 33.3957 73.618 32.4616C73.8048 31.7143 76.2333 31.9011 78.6619 33.3957C80.7169 35.077 81.651 37.5056 81.0906 37.8792Z" fill="#4D0D06"/>
<path d="M23.7386 41.4285C23.365 41.4285 23.1782 39.7471 23.7386 37.5054C24.1122 35.0768 25.4199 31.9009 27.6617 28.7251C29.9034 25.5492 32.7057 23.4942 34.9475 22.5602C37.1893 21.4393 38.8706 21.4393 38.8706 21.9997C39.0574 22.3734 37.7497 23.1206 35.8816 24.4283C34.0134 25.736 31.7716 27.791 29.9035 30.5932C26.1672 36.0108 24.6727 41.6153 23.7386 41.4285Z" fill="#4D0D06"/>
<path d="M37.3762 26.6706C37.7498 27.4178 35.8817 29.286 34.0135 31.7146C32.1454 34.1432 30.6508 36.1981 29.9036 36.0113C29.1563 35.8245 29.3431 32.6486 31.7717 29.8464C32.8926 28.3519 34.2004 27.4178 35.3213 26.8574C36.2553 26.2969 37.1894 26.2969 37.3762 26.6706Z" fill="#4D0D06"/>
<path d="M19.0726 2.96207C19.211 3.37744 17.9649 4.06974 16.165 5.31587C15.7496 5.59279 15.1958 6.00817 14.6419 6.28508C14.0881 6.70046 13.6727 7.11584 13.1188 7.53122C12.565 7.9466 12.1497 8.50043 11.5958 9.05427C11.1805 9.6081 10.6266 10.1619 10.2112 10.8542C9.38048 12.1004 8.82667 13.485 8.41129 14.8695C8.13437 16.2541 7.85745 17.3618 7.71899 18.4695C7.44208 20.5464 7.5805 22.0694 7.16512 22.0694C6.74975 22.2079 5.91903 20.8233 5.64211 18.4695C5.50365 17.2233 5.50361 15.8388 5.78053 14.1772C6.19591 12.6542 6.74975 10.8542 7.85742 9.19272C8.41125 8.36197 8.96507 7.66967 9.65737 6.97738C10.3497 6.42354 10.9035 5.73125 11.5958 5.31587C12.2881 4.9005 12.9804 4.48512 13.5342 4.06974C14.2265 3.79282 14.7804 3.5159 15.3342 3.37745C17.4111 2.68515 18.9341 2.68515 19.0726 2.96207Z" fill="#4D0D06"/>
<path d="M9.79598 0.331454C9.93444 0.746831 9.10365 1.30067 7.85752 2.13142C6.61138 2.96218 5.08835 4.20831 3.98068 5.86982C3.42684 6.70057 3.01143 7.66978 2.73452 8.50054C2.4576 9.33129 2.31919 10.162 2.18073 10.8543C1.90381 12.2389 1.90381 13.2081 1.48843 13.3466C1.07306 13.4851 0.380762 12.5159 0.103844 10.8543C-0.0346148 10.0236 -0.0346148 8.91591 0.103844 7.80824C0.380762 6.70057 0.79614 5.45444 1.48843 4.20831C3.01148 1.8545 5.22678 0.608372 6.88829 0.192995C8.68825 -0.0839235 9.79598 -0.0839229 9.79598 0.331454Z" fill="#4D0D06"/>
</svg>
