<svg width="204" height="183" viewBox="0 0 204 183" fill="none" xmlns="http://www.w3.org/2000/svg">
<path fill-rule="evenodd" clip-rule="evenodd" d="M111.186 15.942C112.635 14.6538 114.085 14.0097 115.695 13.6876C116.983 13.3655 118.432 13.5266 119.56 13.8486C120.848 14.3317 121.975 14.9759 122.78 16.1031C124.069 17.8744 124.552 20.2899 124.069 23.3495C123.263 27.2142 121.009 31.5621 117.466 34.7827C114.407 37.5202 110.542 39.2916 106.033 39.4526C105.711 39.4526 105.55 39.4526 105.228 39.2916C104.745 38.9695 98.7867 36.071 96.0491 28.9856C93.1506 21.9002 94.4388 15.781 97.1763 12.2383C98.4646 10.628 99.9139 9.5008 101.685 9.0177C103.457 8.37358 105.228 8.53461 106.999 9.50079C108.61 10.306 110.381 12.5604 111.186 15.942Z" fill="#6C0B1B"/>
<path fill-rule="evenodd" clip-rule="evenodd" d="M80.268 2.73753C80.7511 1.93238 81.3953 1.44928 82.0394 0.966189C82.8445 0.483095 83.8107 0.161031 84.7769 0C85.7431 0 86.7093 0.161031 87.5144 0.644125C88.8027 1.44928 89.7689 2.89856 90.252 4.99197C90.7351 7.56847 90.413 10.7891 88.9637 13.5266C87.6755 15.9421 85.7431 18.0355 83.0056 19.1627C82.6835 19.3238 82.3614 19.3238 82.2004 19.3238C81.5563 19.3238 77.3695 18.6796 73.9878 15.298C70.4451 11.5943 69.801 7.56847 70.6062 4.66991C70.9282 3.38166 71.7334 2.09341 72.6996 1.44928C73.6657 0.644125 74.954 0.161033 76.4033 0.322064C77.5305 0.644127 78.9798 1.28825 80.268 2.73753Z" fill="#6C0B1B"/>
<path fill-rule="evenodd" clip-rule="evenodd" d="M170.768 72.7862C171.251 73.1082 171.573 73.4303 171.734 73.9134C172.378 76.0068 183.328 113.205 185.905 128.181C187.193 135.749 186.066 142.352 183.328 147.666C180.268 153.946 175.115 158.455 169.64 160.387C163.199 162.803 141.138 168.278 120.526 173.431C110.542 175.846 100.88 178.262 93.7946 180.194C83.6497 182.932 75.276 183.254 68.9958 181.965C61.7494 180.516 56.9185 177.134 54.503 172.626C53.6978 172.626 53.0537 172.465 52.4096 172.465C44.519 171.498 39.366 167.634 36.9506 162.481C32.7638 153.624 19.7202 102.255 19.7202 102.255C19.7202 101.933 19.7202 101.772 19.7202 101.45C19.7202 101.289 19.8812 101.128 19.8812 100.967C20.8474 99.0343 48.5448 47.6653 63.3597 40.902C78.4967 33.9776 144.197 54.2676 144.358 54.2676C144.52 54.2676 144.681 54.4286 144.842 54.5896V54.7506C145.003 55.2337 147.74 62.1581 151.283 71.0148C154.987 70.5317 158.529 70.2097 161.75 70.3707C165.615 71.1758 168.674 71.6589 170.768 72.7862Z" fill="#6C0B1B"/>
<path fill-rule="evenodd" clip-rule="evenodd" d="M58.6897 172.787C60.9441 175.685 64.6479 177.779 69.6398 178.745C75.437 179.872 83.1665 179.55 92.9894 176.973C100.558 175.041 109.898 172.626 119.721 170.21C140.172 165.057 162.233 159.582 168.513 157.328C173.183 155.556 177.531 151.853 180.268 146.378C182.684 141.708 183.65 135.749 182.523 128.986C180.429 116.909 172.861 90.3386 169.801 79.5495C167.547 84.8635 163.843 93.5592 162.072 99.1953C163.199 102.577 164.165 105.637 164.809 108.213C166.903 115.621 166.259 122.384 164.165 127.859C161.589 134.3 157.08 139.292 151.766 141.708C145.647 144.606 124.229 152.175 104.101 159.26C94.4387 162.642 85.2599 165.862 78.0135 168.439C70.445 171.176 64.1648 172.465 58.6897 172.787Z" fill="#EDCAC9"/>
<path fill-rule="evenodd" clip-rule="evenodd" d="M167.547 75.3626C166.098 74.8795 164.165 74.5575 162.072 74.5575C159.334 74.3964 156.275 74.5575 153.054 75.0405C155.309 81.1597 157.885 87.762 159.979 93.8812C162.555 87.1179 166.098 78.7443 167.547 75.3626Z" fill="#EDCAC9"/>
<path fill-rule="evenodd" clip-rule="evenodd" d="M117.627 85.6688C117.305 82.7702 116.822 80.1937 116.178 77.6172C115.373 74.8797 114.407 72.3032 113.118 70.0487C110.703 65.5398 107.482 62.6413 104.101 61.353C101.363 60.3868 98.4646 60.2258 95.8881 60.8699C93.1505 61.5141 90.574 63.1244 88.3196 65.2178C85.099 68.4384 83.0056 72.9473 82.5225 78.2613C82.5225 78.5834 82.3614 78.9054 82.2004 79.0665C81.7173 79.8716 80.5901 80.0327 79.7849 79.5496C73.5047 75.3628 67.7076 74.2355 62.8767 75.3628C59.8171 76.0069 57.0795 77.7782 54.9861 80.0327C52.8927 82.2871 51.2824 85.1857 50.4772 88.5673C49.028 94.3645 49.8331 101.45 54.0199 107.891C77.3695 113.527 90.252 115.943 95.405 111.434C98.7866 108.374 108.126 97.263 117.627 85.6688Z" fill="#F16B73"/>
<path fill-rule="evenodd" clip-rule="evenodd" d="M117.627 85.6688C117.305 82.7702 116.822 80.1937 116.178 77.6172C115.373 74.8797 114.407 72.3032 113.119 70.0487C110.703 65.5398 107.482 62.6413 104.101 61.353C101.363 60.3868 98.4647 60.2258 95.8882 60.8699C93.1507 61.5141 90.5742 63.1244 88.3197 65.2178C87.8366 65.7009 87.5146 66.184 87.0315 66.6671C98.3037 68.4384 114.407 75.0407 106.999 98.2292C110.381 94.5255 114.085 90.1776 117.627 85.6688Z" fill="#DA474E"/>
<path fill-rule="evenodd" clip-rule="evenodd" d="M49.6721 106.925C46.4515 100.484 45.9684 93.7202 47.4177 87.9231C48.3839 84.0583 50.1552 80.5156 52.7317 77.9391C55.3082 75.2016 58.5289 73.2692 62.3936 72.303C67.3856 71.1758 73.3437 71.981 79.624 75.5237C80.5902 70.5317 82.8446 66.1839 86.0652 62.9632C88.6417 60.3867 91.8623 58.4543 95.083 57.6492C98.4646 56.844 102.007 56.844 105.55 58.1323C109.576 59.7426 113.441 62.9632 116.339 68.2773C117.627 70.6927 118.755 73.5913 119.56 76.6509C120.043 78.2612 120.365 80.0326 120.687 81.9649C129.222 71.3369 137.434 61.1919 140.816 56.844C128.9 53.3013 77.0475 38.4865 64.6481 44.1226C52.2486 49.7587 29.0601 90.9827 23.7461 100.645C30.3484 102.255 36.9507 103.865 42.9088 105.314C45.3243 105.798 47.5787 106.442 49.6721 106.925Z" fill="#EDCAC9"/>
<path fill-rule="evenodd" clip-rule="evenodd" d="M99.9138 57.0051C101.846 57.0051 103.617 57.4882 105.389 58.1323C109.415 59.7426 113.279 62.9632 116.178 68.2773C117.466 70.6927 118.593 73.5913 119.399 76.6509C119.882 78.2612 120.204 80.0326 120.526 81.9649C129.06 71.3369 137.273 61.1919 140.655 56.844C128.738 53.3013 76.8863 38.4865 64.4869 44.1226C62.7155 44.9277 60.6221 46.538 58.3677 48.6314C58.6897 48.3094 61.4273 46.216 68.6737 46.538C74.7929 46.8601 91.7012 53.6234 99.9138 57.0051Z" fill="#D5A1A2"/>
<path fill-rule="evenodd" clip-rule="evenodd" d="M116.339 17.0693C114.729 17.3913 112.958 18.6796 111.669 20.773C111.347 21.2561 110.864 21.5781 110.22 21.7392C109.254 21.7392 108.449 21.095 108.288 20.1288C107.966 15.62 106.677 13.2045 104.906 12.3993C104.101 11.9163 103.296 11.9162 102.329 12.2383C101.363 12.5604 100.397 13.3655 99.5919 14.3317C97.4985 17.0693 96.5323 21.9002 98.9478 27.6973C101.041 32.8503 104.906 35.2658 106.033 35.9099C109.576 35.7489 112.474 34.2996 114.89 32.2062C117.788 29.6297 119.882 25.926 120.365 22.7053C120.687 20.6119 120.526 19.1627 119.721 18.1965C119.399 17.7134 118.916 17.3913 118.272 17.0693C117.788 16.9082 117.144 16.9082 116.339 17.0693Z" fill="#F16B73"/>
<path fill-rule="evenodd" clip-rule="evenodd" d="M83.9717 3.86466C83.1665 4.34776 82.5224 5.31395 82.3614 6.76323C82.2003 7.24632 81.8783 7.72942 81.3952 8.05148C80.59 8.53457 79.4628 8.05148 79.1407 7.24632C78.0135 4.99188 76.8863 3.86466 75.9201 3.86466C75.5981 3.86466 75.115 4.0257 74.7929 4.18673C74.3098 4.50879 73.9877 4.99188 73.8267 5.79704C73.3436 7.72942 73.8267 10.467 76.4032 13.2045C78.4966 15.4589 81.0731 15.942 81.8783 16.103C83.6496 15.2979 84.9379 13.8486 85.743 12.2383C86.8703 10.1449 87.0313 7.72942 86.7092 5.79704C86.5482 4.66982 86.0651 4.02569 85.582 3.70363C85.421 3.5426 85.0989 3.5426 84.9379 3.5426C84.6158 3.5426 84.2937 3.70363 83.9717 3.86466Z" fill="#F16B73"/>
<path fill-rule="evenodd" clip-rule="evenodd" d="M23.585 104.187C26.3225 114.976 36.4675 153.624 40.0102 161.031C41.9425 165.218 46.2904 168.278 52.8927 169.083C59.0119 169.888 66.9024 168.761 76.8863 165.218C83.9717 162.642 93.3115 159.421 102.973 156.039C122.941 148.954 144.197 141.547 150.317 138.648C154.826 136.555 158.69 132.207 160.945 126.571C162.877 121.579 163.36 115.621 161.589 109.018C160.945 106.442 159.817 103.382 158.69 99.8395C158.69 99.8395 158.69 99.6784 158.529 99.5174C155.953 91.7879 152.41 82.287 149.35 74.2355V74.0744C146.935 67.7942 144.842 62.4802 143.553 59.4206C139.689 64.2515 130.51 75.8458 121.17 87.279L121.009 87.44C111.347 99.3564 101.524 110.951 97.9814 114.01C91.5402 119.646 77.8525 117.231 53.2147 111.273H53.0537C49.8331 110.468 46.2904 109.662 42.5867 108.696C36.6285 107.247 30.5093 105.798 23.585 104.187Z" fill="white"/>
<path fill-rule="evenodd" clip-rule="evenodd" d="M23.585 104.187C24.2291 106.603 25.1953 110.306 26.3225 114.654L89.4468 126.41C89.4468 126.41 92.0233 118.197 99.7528 117.231C107.482 116.426 99.7528 118.197 99.7528 118.197C99.7528 118.197 108.771 119.485 118.432 124.155C128.094 128.825 136.146 130.435 135.18 134.3C134.214 138.165 106.677 145.411 101.524 147.344C96.3711 149.276 100.719 152.014 98.3035 154.107C95.888 156.2 72.8606 163.286 69.1568 164.574C67.3855 165.218 67.2245 166.667 67.7076 167.956C70.4451 167.312 73.5047 166.345 76.5643 165.218C83.6497 162.642 92.9895 159.421 102.651 156.039C122.619 148.954 143.875 141.547 149.995 138.648C154.503 136.555 158.368 132.207 160.623 126.571C162.555 121.579 163.038 115.621 161.267 109.018C160.623 106.442 159.495 103.382 158.368 99.8395C158.368 99.8395 158.368 99.6784 158.207 99.5174C155.631 91.7879 152.088 82.287 149.028 74.2355V74.0744C146.613 67.7942 144.52 62.4802 143.231 59.4206C139.367 64.2515 130.188 75.8458 120.848 87.279L120.687 87.44C119.56 88.7283 118.432 90.1776 117.466 91.4658C119.56 89.8555 121.814 88.5673 122.941 88.8893C125.84 89.8555 112.635 105.798 112.474 107.247C112.313 108.696 118.271 108.052 121.17 105.315C124.069 102.577 136.468 87.7621 140.011 85.9908C143.553 84.2194 147.418 86.4739 152.893 100.967C158.368 115.459 158.207 125.282 154.987 127.215C151.766 129.147 129.866 122.867 129.866 122.867L106.194 116.748L104.262 115.943C104.262 115.943 100.236 115.137 99.9138 111.756C99.1087 112.722 98.3035 113.366 97.6594 113.849C91.2181 119.485 77.5305 117.07 52.8927 111.112H52.7316C49.511 110.306 45.9683 109.501 42.2646 108.535C36.6285 107.247 30.5093 105.798 23.585 104.187Z" fill="#F5E6E7"/>
<path fill-rule="evenodd" clip-rule="evenodd" d="M51.7651 118.197C51.6041 119.968 53.2144 119.968 54.3416 119.646C54.3416 118.519 54.5026 118.358 53.5365 118.036C52.8923 117.714 52.2482 117.714 51.7651 118.197Z" fill="#6C0B1B"/>
<path fill-rule="evenodd" clip-rule="evenodd" d="M90.7347 123.189C91.3788 123.672 91.3788 123.672 92.345 123.672C92.506 123.511 92.8281 123.028 92.8281 122.706C92.667 121.579 90.5736 120.773 90.7347 123.189Z" fill="#6C0B1B"/>
<path fill-rule="evenodd" clip-rule="evenodd" d="M94.1165 119.485C95.7268 119.324 96.5319 118.358 98.6253 118.197C113.762 116.104 155.308 134.622 162.394 128.503C163.038 128.02 163.038 127.698 163.521 126.732C164.004 125.765 164.165 125.443 164.648 124.799C165.292 123.672 166.097 121.418 165.131 120.451C164.326 120.934 163.843 123.189 163.038 123.994C161.105 126.087 161.589 126.571 160.461 127.215C156.275 128.986 135.985 122.867 131.476 121.579C123.585 119.324 110.542 115.942 102.168 116.104C99.1084 116.104 94.4385 116.909 94.1165 119.485Z" fill="#6C0B1B"/>
<path fill-rule="evenodd" clip-rule="evenodd" d="M51.7651 170.21C52.4093 170.693 52.5703 170.854 53.6975 170.693C54.5027 170.693 55.1468 170.371 55.7909 170.21C56.9181 169.727 58.2064 169.083 59.1726 168.278C64.0035 164.735 68.1903 159.743 72.0551 155.234C72.8602 154.268 73.5044 153.302 74.3095 152.336C76.886 149.276 90.0906 131.402 89.6075 126.249C87.6751 126.41 86.7089 129.63 85.2597 132.046C80.9118 138.809 73.5044 149.759 68.1903 155.878C64.4866 160.065 59.9777 165.54 55.3078 168.439C54.8247 168.761 54.3416 169.083 53.5365 169.244C52.4093 169.566 52.2482 169.405 51.7651 170.21Z" fill="#6C0B1B"/>
<path fill-rule="evenodd" clip-rule="evenodd" d="M156.919 155.234C159.656 156.2 166.903 151.047 168.835 150.081C173.022 147.827 175.598 145.894 176.887 140.419C178.658 133.334 175.759 121.257 173.666 113.849C173.183 111.917 173.022 111.434 172.056 110.951C170.767 112.883 173.183 122.062 173.666 124.638C174.793 130.918 176.242 140.097 171.412 145.25C170.284 146.377 163.521 150.564 161.428 151.853C160.622 152.497 157.08 154.429 156.919 155.234Z" fill="#6C0B1B"/>
<path fill-rule="evenodd" clip-rule="evenodd" d="M94.5996 171.015C97.1761 172.303 126.323 163.608 132.12 161.836C134.535 161.031 142.426 159.099 143.231 157.328C140.494 156.2 122.136 161.997 118.271 162.964C114.084 164.091 110.059 165.379 106.033 166.506L97.1761 169.244C95.5658 169.888 94.9217 170.049 94.5996 171.015Z" fill="#6C0B1B"/>
<path fill-rule="evenodd" clip-rule="evenodd" d="M33.8909 104.831C33.0857 103.543 32.2806 103.865 30.9923 102.899C31.4754 100.645 35.6622 94.5254 36.9505 92.432C39.0439 89.0504 41.1373 85.6687 43.0697 81.965C45.0021 78.2613 46.6124 74.3965 48.5448 70.6928C49.5109 68.9214 50.6382 67.3111 51.6043 65.3788C53.3757 62.3192 53.0536 61.1919 50.7992 64.0905C46.2903 70.0487 42.9087 78.4223 38.8829 85.3466C36.7895 88.8893 34.6961 92.432 32.6026 95.8137C31.6365 97.424 30.3482 99.3564 29.7041 101.289C28.4158 105.637 33.8909 104.831 33.8909 104.831Z" fill="#6C0B1B"/>
<path fill-rule="evenodd" clip-rule="evenodd" d="M96.3711 50.2418C97.1763 51.369 100.88 51.8521 102.007 52.1742C106.999 53.1404 112.152 54.4286 116.822 56.6831C117.949 57.1662 118.754 57.1662 120.043 57.3272C122.458 57.8103 123.424 58.7765 125.518 59.4206L138.078 62.4802C139.527 62.6412 139.85 62.1581 140.816 61.514C141.621 61.0309 142.748 60.7089 142.909 60.2258C141.943 59.7427 140.816 60.0647 140.011 60.5478C138.722 61.1919 138.883 61.192 137.273 60.7089C135.341 60.2258 133.408 59.5816 131.476 59.2596C129.544 58.7765 127.611 58.2934 125.84 57.6493C123.746 56.8441 123.102 56.0389 120.526 55.5559C117.788 55.0728 117.305 54.5897 115.051 53.7845C111.186 52.4963 104.262 50.8859 100.075 50.2418H96.3711Z" fill="#6C0B1B"/>
<path fill-rule="evenodd" clip-rule="evenodd" d="M123.102 98.3901C124.229 98.068 125.195 96.2967 126.645 94.5253C129.704 90.9826 130.187 88.7282 134.374 84.0583C137.273 80.9987 140.493 77.9391 143.07 74.5575C144.197 73.1082 148.545 66.989 147.096 64.0904C146.452 64.0904 146.774 63.9294 146.291 64.7345L144.68 68.5993C143.875 70.3706 142.909 71.8199 141.782 72.9471C140.654 74.2354 139.688 75.5236 138.4 76.8119L133.086 82.448C132.12 83.2531 132.12 83.5752 131.476 84.3804C130.348 85.8296 129.382 86.9569 128.416 88.5672C126.484 92.1099 123.263 95.9746 123.102 98.3901Z" fill="#6C0B1B"/>
<path fill-rule="evenodd" clip-rule="evenodd" d="M110.381 147.505C112.152 149.276 127.289 143.801 129.382 143.157L145.324 137.843C146.291 137.521 146.613 137.36 146.452 136.232C144.68 135.588 119.881 144.123 114.406 145.572C112.635 146.216 110.703 146.377 110.381 147.505Z" fill="#6C0B1B"/>
<path fill-rule="evenodd" clip-rule="evenodd" d="M48.0616 118.036C47.9006 116.909 47.5785 117.231 45.002 116.587C43.5527 116.265 42.9086 115.942 41.6204 115.459C37.2725 114.171 30.0261 114.332 26.9665 112.4C26.3224 112.078 25.1952 110.789 24.8731 110.145C24.5511 109.662 24.5511 109.018 24.39 108.535C24.068 107.569 24.229 107.569 23.4238 107.247C22.1356 109.662 24.229 112.561 25.5172 113.688C28.7379 116.426 35.9843 116.426 40.1711 117.231C42.7476 117.714 45.6462 118.841 48.0616 118.036Z" fill="#6C0B1B"/>
<path fill-rule="evenodd" clip-rule="evenodd" d="M45.002 168.922C49.9939 171.337 67.7074 154.107 65.775 151.047C64.9698 151.208 64.0037 152.658 63.5206 153.302C62.5544 154.429 62.0713 155.073 61.2661 156.039C59.9779 157.489 57.8845 159.582 56.2742 160.709C54.3418 162.159 53.8587 162.964 50.9601 165.057C49.1888 166.184 48.2226 166.989 46.2902 167.634C45.324 168.117 45.163 167.956 45.002 168.922Z" fill="#6C0B1B"/>
<path fill-rule="evenodd" clip-rule="evenodd" d="M137.434 129.469C137.917 131.563 143.392 132.529 145.808 132.851C149.511 133.334 153.537 132.851 157.402 133.334C157.08 134.461 156.436 134.944 156.436 135.427C156.275 137.843 160.623 133.495 158.69 132.046C157.241 130.919 148.062 131.241 144.036 130.596C142.265 130.274 138.561 129.147 137.434 129.469Z" fill="#6C0B1B"/>
<path fill-rule="evenodd" clip-rule="evenodd" d="M116.661 60.0646C116.822 61.3529 118.271 61.5139 120.204 62.158L133.569 66.1838C133.086 67.472 132.12 67.9551 131.959 69.2434C133.247 69.2434 134.052 68.4382 134.535 67.7941C136.79 65.2176 137.756 65.5397 129.865 62.9632C127.772 62.319 118.432 59.2594 116.661 60.0646Z" fill="#6C0B1B"/>
<path fill-rule="evenodd" clip-rule="evenodd" d="M113.923 87.44C114.084 87.279 114.084 87.279 114.245 86.9569C115.212 84.3804 113.601 77.7781 111.991 75.2016C110.542 72.9472 106.838 67.9552 104.583 67.4721C104.261 68.5993 104.906 69.0824 105.55 69.8876C106.194 70.5317 106.677 71.1758 107.16 71.8199C108.287 73.2692 109.092 74.3965 110.059 76.1678C110.864 77.6171 111.669 79.5495 112.152 81.4818C112.635 83.0921 112.474 86.4738 113.923 87.44Z" fill="#6C0B1B"/>
<path fill-rule="evenodd" clip-rule="evenodd" d="M156.436 88.7282C156.436 90.8216 157.885 90.8216 158.529 89.3724C159.012 88.2451 161.589 80.1936 160.945 78.5833C159.012 78.2612 159.012 79.3884 157.885 82.7701C157.241 84.2194 156.436 86.9569 156.436 88.7282Z" fill="#6C0B1B"/>
<path fill-rule="evenodd" clip-rule="evenodd" d="M114.729 26.0871L106.999 31.7232C105.228 33.1725 106.516 35.91 113.601 30.2739C117.305 27.0533 116.178 25.443 114.729 26.0871Z" fill="#6C0B1B"/>
<path fill-rule="evenodd" clip-rule="evenodd" d="M170.445 106.764C173.183 106.281 171.251 102.094 170.445 101.933C167.869 101.289 168.996 105.798 170.445 106.764Z" fill="#6C0B1B"/>
<path fill-rule="evenodd" clip-rule="evenodd" d="M86.7092 170.693C85.904 171.015 84.7768 171.337 85.0989 172.465C85.2599 173.431 86.3871 173.109 87.5143 173.109C90.735 172.948 88.3195 170.21 86.7092 170.693Z" fill="#6C0B1B"/>
<path fill-rule="evenodd" clip-rule="evenodd" d="M106.999 148.31C103.778 149.437 104.745 151.369 106.194 151.047C106.677 150.886 107.804 150.242 108.126 149.759C108.609 148.793 108.126 147.988 106.999 148.31Z" fill="#6C0B1B"/>
<path fill-rule="evenodd" clip-rule="evenodd" d="M116.339 20.2899C114.729 20.934 115.373 23.8326 117.466 22.8664C118.593 22.3833 117.949 19.6458 116.339 20.2899Z" fill="#6C0B1B"/>
<path fill-rule="evenodd" clip-rule="evenodd" d="M97.498 65.2176C97.498 66.3449 97.6591 66.1838 98.7863 66.5059C99.7525 66.8279 100.397 66.6669 101.041 66.3449C101.524 64.2514 98.3032 64.4125 97.498 65.2176Z" fill="#6C0B1B"/>
<path fill-rule="evenodd" clip-rule="evenodd" d="M119.398 102.416C118.754 102.738 118.271 102.899 117.949 103.865C117.627 104.831 118.11 105.475 119.237 105.153C120.364 104.831 121.492 101.289 119.398 102.416Z" fill="#6C0B1B"/>
<path fill-rule="evenodd" clip-rule="evenodd" d="M54.5029 60.2258C55.7911 61.192 57.7235 59.4207 57.0794 58.4545C56.4352 57.4883 54.0198 58.4545 54.5029 60.2258Z" fill="#6C0B1B"/>
<path fill-rule="evenodd" clip-rule="evenodd" d="M12.4737 109.34C13.1178 108.052 12.3127 98.8733 12.6347 95.8137C13.2789 89.3724 16.3385 87.118 15.3723 85.0246C12.4737 84.0584 7.96483 93.3982 9.57514 103.543C9.73618 105.637 10.2193 109.662 12.4737 109.34Z" fill="#6C0B1B"/>
<path fill-rule="evenodd" clip-rule="evenodd" d="M195.083 139.936C195.083 138.004 195.405 137.038 194.117 136.071C192.185 136.394 192.346 139.453 191.863 141.224C191.38 143.318 190.896 145.25 190.413 147.183C188.642 152.98 185.743 157.167 185.743 157.489C185.26 159.099 186.549 159.904 189.286 156.845C192.346 153.785 195.083 144.606 195.083 139.936Z" fill="#6C0B1B"/>
<path fill-rule="evenodd" clip-rule="evenodd" d="M197.338 156.683C199.914 157.65 201.847 152.175 202.491 150.242C203.135 148.793 203.457 147.022 203.779 145.411C204.101 143.479 204.423 141.385 202.008 141.546C201.364 142.513 200.075 147.344 199.431 149.115C198.626 151.208 196.533 154.912 197.338 156.683Z" fill="#6C0B1B"/>
<path fill-rule="evenodd" clip-rule="evenodd" d="M4.74432 85.5077C-0.569716 84.5415 -0.891779 95.6527 1.20163 99.5174C1.84575 100.806 3.45607 100.806 3.6171 98.8733C3.93916 96.4578 2.65091 92.7541 3.6171 89.2114C4.26122 87.6011 5.38844 87.4401 4.74432 85.5077Z" fill="#6C0B1B"/>
<path fill-rule="evenodd" clip-rule="evenodd" d="M23.5851 104.187C26.3226 114.976 36.4676 153.624 40.0103 161.031C41.9427 165.218 46.2905 168.278 52.8928 169.083C59.012 169.888 66.9025 168.761 76.8865 165.218C83.9719 162.642 93.3117 159.421 102.974 156.039C122.941 148.954 144.198 141.547 150.317 138.648C154.826 136.555 158.69 132.207 160.945 126.571C162.877 121.579 163.36 115.62 161.589 109.018C158.207 96.4578 147.096 68.2773 143.553 59.4206C135.341 69.2435 104.745 107.73 97.6595 114.01C90.4131 120.451 73.6659 116.426 42.1037 108.696C36.6286 107.247 30.5095 105.798 23.5851 104.187ZM36.7897 162.481C32.6029 153.624 19.5593 102.255 19.5593 102.255C19.5593 101.933 19.5593 101.772 19.5593 101.45C19.7204 100.484 20.6865 100 21.6527 100.161C29.0602 101.933 36.4676 103.704 43.0699 105.314C73.3438 112.722 89.4469 116.587 95.4051 111.434C103.296 104.509 142.265 55.0727 142.426 54.9117C142.587 54.7506 142.909 54.4286 143.07 54.4286C144.037 54.1065 145.003 54.5896 145.325 55.3948C145.325 55.5558 160.462 93.0761 164.488 108.213C166.581 115.62 165.937 122.384 163.843 127.859C161.267 134.3 156.758 139.292 151.444 141.708C145.325 144.606 123.908 152.175 103.779 159.26C94.1168 162.642 84.9381 165.862 77.6916 168.439C67.2246 172.304 58.6899 173.27 52.0877 172.465C44.3582 171.498 39.2051 167.795 36.7897 162.481Z" fill="#6C0B1B"/>
<path fill-rule="evenodd" clip-rule="evenodd" d="M54.1809 172.142C53.6978 171.337 54.0199 170.21 54.9861 169.888C55.7912 169.405 56.9185 169.888 57.2405 170.693C59.1729 174.558 63.1987 177.618 69.6399 178.745C75.4371 179.872 83.1666 179.55 92.9895 176.973C100.558 175.041 109.898 172.626 119.721 170.21C140.172 165.057 162.233 159.582 168.513 157.328C173.183 155.556 177.531 151.853 180.268 146.377C182.684 141.708 183.65 135.749 182.523 128.986C180.43 116.909 172.861 90.3386 169.801 79.5495C167.547 85.0245 163.682 94.2033 161.75 99.6784C161.428 100.645 160.462 101.128 159.495 100.806C158.529 100.484 158.046 99.5173 158.368 98.5511C161.106 90.1775 168.352 73.7523 168.352 73.5913C168.513 73.1082 168.996 72.7861 169.479 72.6251C170.446 72.303 171.412 72.9472 171.573 73.7523C171.573 73.9134 183.006 112.722 185.744 128.181C187.032 135.749 185.905 142.352 183.167 147.666C180.107 153.946 174.954 158.455 169.479 160.387C163.038 162.803 140.977 168.278 120.365 173.431C110.381 175.846 100.719 178.262 93.6336 180.194C83.4886 182.932 75.115 183.254 68.8348 181.965C61.4273 180.677 56.5964 176.973 54.1809 172.142Z" fill="#6C0B1B"/>
<path fill-rule="evenodd" clip-rule="evenodd" d="M22.7797 102.577C22.2966 103.382 21.3305 103.704 20.3643 103.221C19.5591 102.738 19.237 101.772 19.7201 100.806C19.8812 100.645 48.2227 47.5043 63.3596 40.741C78.4966 33.8167 144.197 54.1066 144.358 54.1066C145.325 54.4287 145.808 55.3949 145.486 56.2C145.164 57.1662 144.197 57.6493 143.392 57.3272C143.231 57.3272 78.8186 37.5204 64.8089 43.8006C50.6382 50.4029 22.7797 102.416 22.7797 102.577Z" fill="#6C0B1B"/>
<path fill-rule="evenodd" clip-rule="evenodd" d="M170.768 72.7863C171.573 73.2694 171.895 74.2356 171.573 75.2018C171.09 76.0069 170.123 76.329 169.157 76.0069C167.547 75.2018 165.131 74.7187 162.072 74.5577C158.69 74.3966 154.825 74.7187 150.961 75.3628C149.995 75.5238 149.189 74.8797 149.028 73.9135C148.867 72.9473 149.511 72.1422 150.478 71.9811C154.664 71.337 158.851 71.015 162.394 71.176C165.615 71.176 168.674 71.6591 170.768 72.7863Z" fill="#6C0B1B"/>
<path fill-rule="evenodd" clip-rule="evenodd" d="M54.664 108.535C55.1471 109.34 54.986 110.468 54.1809 110.951C53.3757 111.434 52.2485 111.273 51.7654 110.468C46.7734 102.899 45.6462 94.6864 47.4176 87.9231C48.3838 84.0584 50.1551 80.5157 52.7316 77.9392C55.3081 75.2017 58.5287 73.2693 62.3935 72.3031C67.3855 71.1759 73.3436 71.981 79.6238 75.5237C80.59 70.5318 82.8445 66.1839 86.0651 62.9633C88.6416 60.3868 91.8622 58.4544 95.0828 57.6492C98.4645 56.8441 102.007 56.8441 105.55 58.1323C109.576 59.7426 113.44 62.9633 116.339 68.2773C117.627 70.6928 118.754 73.5913 119.56 76.6509C120.365 79.5495 120.848 82.7701 121.17 85.9908C121.17 86.957 120.526 87.7621 119.56 87.9231C118.593 87.9231 117.788 87.279 117.627 86.3128C117.466 83.2532 116.822 80.3547 116.178 77.6171C115.373 74.8796 114.407 72.3031 113.118 70.0487C110.703 65.5398 107.482 62.6412 104.101 61.353C101.363 60.3868 98.4645 60.2257 95.888 60.8699C93.1505 61.514 90.574 63.1243 88.3195 65.2177C85.0989 68.4383 83.0055 72.9472 82.5224 78.2613C82.5224 78.5833 82.3614 78.9054 82.2003 79.0664C81.7172 79.8716 80.59 80.0326 79.7849 79.5495C73.5046 75.3627 67.7075 74.2355 62.8766 75.3627C59.817 76.0068 57.0794 77.7782 54.986 80.0326C52.8926 82.287 51.2823 85.1856 50.4772 88.5673C49.1889 94.6865 50.1551 101.933 54.664 108.535Z" fill="#6C0B1B"/>
<path fill-rule="evenodd" clip-rule="evenodd" d="M111.186 15.9421C112.635 14.6539 114.085 14.0097 115.695 13.6877C116.983 13.3656 118.432 13.5266 119.56 13.8487C120.848 14.3318 121.975 14.9759 122.78 16.1031C124.069 17.8745 124.552 20.29 124.069 23.3496C123.263 27.2143 121.009 31.5621 117.466 34.7828C114.407 37.5203 110.542 39.2917 106.033 39.4527C105.711 39.4527 105.55 39.4527 105.228 39.2917C104.745 38.9696 98.7867 36.071 96.0491 28.9856C93.1506 21.9003 94.4388 15.7811 97.1763 12.2384C98.4646 10.6281 99.9139 9.50086 101.685 9.01776C103.457 8.37364 105.228 8.53467 106.999 9.50086C108.61 10.306 110.381 12.5605 111.186 15.9421ZM116.339 17.0693C114.729 17.3914 112.957 18.6796 111.669 20.7731C111.347 21.2561 110.864 21.5782 110.22 21.7392C109.254 21.7392 108.449 21.0951 108.288 20.1289C107.965 15.62 106.677 13.2046 104.906 12.3994C104.101 11.9163 103.296 11.9163 102.329 12.2384C101.363 12.5605 100.397 13.3656 99.5918 14.3318C97.4984 17.0693 96.5322 21.9003 98.9477 27.6974C101.041 32.8504 104.906 35.2659 106.033 35.91C109.576 35.749 112.474 34.2997 114.89 32.2063C117.788 29.6298 119.882 25.9261 120.365 22.7054C120.687 20.612 120.526 19.1627 119.721 18.1965C119.399 17.7135 118.916 17.3914 118.271 17.0693C117.788 16.9083 117.144 16.9083 116.339 17.0693Z" fill="#6C0B1B"/>
<path fill-rule="evenodd" clip-rule="evenodd" d="M80.268 2.7376C80.7511 1.93244 81.3953 1.44934 82.0394 0.96625C82.8445 0.483156 83.8107 0.161092 84.7769 6.10352e-05C85.7431 6.10352e-05 86.7093 0.161092 87.5144 0.644186C88.8027 1.44934 89.7689 2.89863 90.252 4.99203C90.7351 7.56853 90.413 10.7892 88.9637 13.5267C87.6755 15.9422 85.7431 18.0356 83.0056 19.1628C82.6835 19.3238 82.3614 19.3238 82.2004 19.3238C81.5563 19.3238 77.3695 18.6797 73.9878 15.298C70.4451 11.5943 69.801 7.56853 70.6062 4.66997C70.9282 3.38172 71.7334 2.09347 72.6996 1.44934C73.6657 0.644186 74.954 0.161094 76.4033 0.322125C77.5305 0.644188 78.9798 1.28831 80.268 2.7376ZM83.9718 3.86481C83.1666 4.34791 82.5225 5.3141 82.3614 6.76338C82.2004 7.24647 81.8784 7.72957 81.3953 8.05163C80.5901 8.53472 79.4629 8.05163 79.1408 7.24647C78.0136 4.99203 76.8864 3.86481 75.9202 3.86481C75.5981 3.86481 75.115 4.02585 74.793 4.18688C74.3099 4.50894 73.9878 4.99203 73.8268 5.79719C73.3437 7.72957 73.8268 10.4671 76.4033 13.2046C78.4967 15.4591 81.0732 15.9422 81.8783 16.1032C83.6497 15.298 84.9379 13.8488 85.7431 12.2384C86.8703 10.145 87.0314 7.72957 86.7093 5.79719C86.5483 4.66997 86.0652 4.02584 85.5821 3.70378C85.421 3.54275 85.099 3.54275 84.9379 3.54275C84.6159 3.54275 84.2938 3.70378 83.9718 3.86481Z" fill="#6C0B1B"/>
<path fill-rule="evenodd" clip-rule="evenodd" d="M60.4612 79.5495C60.9443 79.0664 61.7494 79.2274 62.2325 79.7105C62.7156 80.1936 62.5546 80.9988 62.0715 81.4819C62.0715 81.4819 61.5884 81.8039 60.7832 82.6091C60.3001 83.0922 59.495 83.0922 59.0119 82.6091C58.5288 82.126 58.5288 81.3208 59.0119 80.8377C59.817 80.0326 60.4612 79.5495 60.4612 79.5495ZM56.4354 84.2194C56.7574 83.5753 57.5626 83.4143 58.2067 83.7363C58.8509 84.0584 59.0119 84.8635 58.6898 85.5077C57.5626 87.6011 56.4354 90.4996 56.4354 94.0423C56.4354 96.9409 57.0795 100.162 58.6898 104.026C59.0119 104.67 58.6898 105.476 58.0457 105.637C57.4016 105.959 56.5964 105.637 56.4354 104.992C54.664 100.806 53.8589 97.1019 53.8589 94.0423C54.0199 90.0165 55.1471 86.6349 56.4354 84.2194Z" fill="white"/>
</svg>
