<svg width="296" height="171" viewBox="0 0 296 171" fill="none" xmlns="http://www.w3.org/2000/svg">
<path d="M123.384 40.7789C122.949 40.4305 111.975 32.9408 109.885 22.6643C108.666 16.4809 110.233 12.7361 111.888 10.5588C113.804 8.03324 116.243 6.98817 117.984 6.81399C118.159 6.81399 118.333 6.81399 118.507 6.81399C120.945 6.81399 123.732 8.20742 125.213 10.6459C126.693 8.12033 129.654 4.37549 135.054 4.37549C135.838 4.37549 136.709 4.46258 137.492 4.63676C141.76 5.50765 144.634 7.94615 145.505 11.691C146.724 17.0035 143.676 23.7964 138.015 28.0638C135.925 29.7185 133.922 31.0249 132.18 32.157C128.087 34.8568 125.3 36.6857 124.952 39.9951L124.777 41.7369L123.384 40.7789Z" fill="#ACDEDF" stroke="#6B1B12" stroke-width="3" stroke-miterlimit="10"/>
<path d="M135.054 5.42054C127.564 5.42054 125.126 13.2586 125.126 13.2586C124.516 9.8621 121.294 7.85904 118.507 7.85904C118.333 7.85904 118.159 7.85904 118.072 7.85904C114.675 8.2074 108.927 12.4748 110.93 22.4901C112.933 32.4183 123.994 39.995 123.994 39.995C124.516 34.6826 130.177 32.9408 137.405 27.4542C146.376 20.5741 148.03 7.85904 137.318 5.76889C136.534 5.50763 135.751 5.42054 135.054 5.42054ZM135.054 3.41748C135.925 3.41748 136.796 3.50457 137.754 3.67875C142.457 4.63673 145.592 7.42359 146.55 11.5168C147.856 17.1776 144.634 24.406 138.712 28.9347C136.534 30.5894 134.531 31.8957 132.79 33.0279C128.435 35.9018 126.345 37.3824 126.084 40.0821L125.735 43.4786L122.861 41.5626C122.339 41.2143 111.104 33.4633 108.927 22.8384C107.621 16.3067 109.363 12.2135 111.104 9.94919C112.846 7.59777 115.459 6.03016 117.897 5.76889C118.072 5.76889 118.333 5.76889 118.507 5.76889C120.858 5.76889 123.384 6.81397 125.126 8.81703C126.868 6.29143 130.003 3.41748 135.054 3.41748Z" fill="#6B1B12"/>
<path d="M137.405 27.3675C146.376 20.4874 148.03 7.77233 137.318 5.68219C128.087 3.85331 125.126 13.259 125.126 13.259C129.045 5.85637 137.667 8.46905 139.06 11.6043C140.715 15.1749 139.06 22.055 128.958 27.89C118.855 33.725 123.907 39.9083 123.907 39.9083C124.429 34.5959 130.177 32.9412 137.405 27.3675Z" fill="#87C9C7"/>
<path d="M130.787 26.7577C130.612 26.4964 131.57 25.7126 132.877 24.4933C134.183 23.2741 136.099 21.4452 137.493 19.1809C138.189 18.0487 138.625 16.9166 138.799 15.7844C138.886 15.2619 138.973 14.7393 138.886 14.2168C138.886 13.6942 138.799 13.2588 138.712 12.8234C138.363 11.1687 137.493 10.3848 137.667 10.1236C137.754 10.0365 138.102 10.0365 138.625 10.3848C139.147 10.7332 139.757 11.3428 140.192 12.3879C140.366 12.9104 140.541 13.433 140.628 14.0426C140.715 14.6522 140.715 15.3489 140.715 16.0457C140.628 17.4391 140.105 18.9196 139.234 20.313C137.58 23.0128 135.315 24.6675 133.661 25.7126C132.093 26.6706 130.874 27.0189 130.787 26.7577Z" fill="#6B1B12"/>
<path d="M136.012 9.07856C135.838 9.42691 134.88 9.42691 133.835 9.25274C132.702 9.16565 131.832 8.90438 131.744 8.55602C131.657 8.20766 132.702 7.68513 134.009 7.8593C135.315 7.94639 136.186 8.7302 136.012 9.07856Z" fill="#6B1B12"/>
<path d="M113.194 23.0124C113.02 23.0995 112.672 22.4899 112.323 21.3577C111.975 20.3126 111.801 18.6579 111.975 16.9162C112.236 15.1744 112.933 13.6068 113.63 12.7359C114.327 11.7779 115.023 11.4295 115.11 11.6037C115.285 11.7779 114.849 12.3004 114.414 13.2584C113.978 14.2164 113.543 15.5227 113.281 17.0903C113.02 20.2255 113.63 22.9253 113.194 23.0124Z" fill="#6B1B12"/>
<path d="M115.546 13.9549C115.894 14.2161 115.546 15.3483 115.285 16.7417C115.023 18.1352 114.849 19.3544 114.501 19.4415C114.152 19.5286 113.543 18.1352 113.891 16.4805C114.065 15.6967 114.414 14.9129 114.762 14.4774C115.11 14.042 115.372 13.8678 115.546 13.9549Z" fill="#6B1B12"/>
<path d="M152.385 12.9976C152.646 12.9976 152.994 12.2138 153.256 10.7333C153.256 10.3849 153.343 9.94945 153.343 9.514C153.343 9.07856 153.256 8.55602 153.256 8.12057C153.169 7.59804 152.994 7.0755 152.907 6.55296C152.733 6.03043 152.472 5.50789 152.211 4.98535C151.601 3.94028 150.817 3.06938 150.033 2.45976C149.162 1.85013 148.379 1.41469 147.682 1.15342C146.289 0.630881 145.243 0.71797 145.243 0.979239C145.156 1.24051 146.027 1.58886 147.159 2.28558C147.769 2.63394 148.379 3.15647 148.988 3.67901C149.598 4.28864 150.208 4.98535 150.643 5.85625C150.904 6.29169 151.078 6.72714 151.253 7.16259C151.34 7.59804 151.601 8.03348 151.688 8.46893C151.775 8.90438 151.862 9.33982 151.949 9.68818C151.949 10.1236 152.036 10.472 152.036 10.8203C152.036 12.0396 152.124 12.9105 152.385 12.9976Z" fill="#6B1B12"/>
<path d="M156.478 8.64275C156.739 8.64275 157.087 8.12022 157.262 7.07515C157.436 6.03007 157.436 4.46246 156.565 2.89485C156.129 2.11105 155.52 1.50142 154.997 1.06597C154.388 0.630527 153.778 0.369259 153.255 0.19508C152.21 -0.153277 151.514 0.0209015 151.514 0.28217C151.427 0.543438 151.949 0.891796 152.733 1.41433C153.081 1.6756 153.517 2.02396 153.952 2.37232C154.3 2.80776 154.736 3.24321 155.084 3.76575C155.694 4.89791 155.955 6.11716 156.042 6.98806C156.129 7.94604 156.216 8.55567 156.478 8.64275Z" fill="#6B1B12"/>
<path d="M176.073 80.4918C176.683 80.0563 190.704 70.3894 193.404 57.326C194.971 49.4879 192.881 44.6109 190.878 41.8241C188.44 38.6018 185.304 37.2083 183.127 37.0341C182.866 37.0341 182.692 37.0341 182.431 37.0341C179.295 37.0341 175.725 38.863 173.809 41.9111C171.98 38.6888 168.061 33.8989 161.181 33.8989C160.136 33.8989 159.091 33.986 158.045 34.2473C152.559 35.2924 148.901 38.5147 147.769 43.3046C146.201 50.0976 150.12 58.7194 157.349 64.2931C160.049 66.3833 162.574 68.038 164.838 69.5185C170.151 73.0021 173.634 75.2664 174.07 79.5338L174.244 81.711L176.073 80.4918Z" fill="#FFC0C9"/>
<path d="M161.181 35.2924C160.223 35.2924 159.265 35.3795 158.22 35.5536C144.459 38.2534 146.55 54.452 158.132 63.3352C167.451 70.4765 174.679 72.6537 175.376 79.4467C175.376 79.4467 189.572 69.8669 192.097 57.0647C194.71 44.3497 187.307 38.7759 182.953 38.3405C182.779 38.3405 182.517 38.3405 182.343 38.3405C178.86 38.3405 174.592 40.9532 173.896 45.3077C173.896 45.3077 170.673 35.2924 161.181 35.2924ZM161.181 32.6797C167.625 32.6797 171.631 36.3374 173.896 39.6468C176.16 37.1212 179.382 35.7278 182.343 35.7278C182.605 35.7278 182.866 35.7278 183.214 35.7278C186.349 35.9891 189.659 38.0792 191.923 41.0403C194.1 44.0013 196.365 49.2267 194.71 57.5873C191.923 71.2603 177.466 81.1885 176.857 81.6239L173.199 84.0625L172.763 79.708C172.415 76.2244 169.715 74.3084 164.142 70.6507C161.877 69.1702 159.352 67.5155 156.565 65.3382C148.901 59.5032 144.808 50.2718 146.462 42.9562C147.682 37.6438 151.688 34.0731 157.697 32.941C158.916 32.7668 160.048 32.6797 161.181 32.6797Z" fill="#6B1B12"/>
<path d="M158.132 63.335C146.637 54.539 144.459 38.2533 158.22 35.5535C170.064 33.2021 173.896 45.3075 173.896 45.3075C168.844 35.8148 157.871 39.2113 155.955 43.2174C153.865 47.746 155.955 56.5421 168.932 64.0318C181.908 71.5215 175.376 79.4466 175.376 79.4466C174.679 72.6536 167.451 70.4764 158.132 63.335Z" fill="#F79FAF"/>
<path d="M166.58 62.5514C166.754 62.203 165.622 61.245 163.88 59.5903C162.138 57.9356 159.7 55.7584 157.958 52.7974C157.087 51.3168 156.478 49.8363 156.216 48.4429C156.129 47.7462 156.042 47.0495 156.042 46.4398C156.042 45.8302 156.129 45.2206 156.216 44.6981C156.652 42.6079 157.784 41.5628 157.523 41.2145C157.436 41.0403 157 41.1274 156.303 41.5628C155.694 41.9983 154.823 42.7821 154.3 44.0884C154.039 44.6981 153.865 45.4819 153.691 46.2657C153.604 47.0495 153.517 47.9204 153.604 48.7913C153.778 50.6201 154.387 52.449 155.433 54.1908C157.523 57.6744 160.397 59.7645 162.574 61.0709C164.925 62.4643 166.406 62.8997 166.58 62.5514Z" fill="#6B1B12"/>
<path d="M159.874 39.9084C160.048 40.3439 161.268 40.3439 162.661 40.1697C164.055 39.9955 165.274 39.7342 165.361 39.2117C165.448 38.6892 164.142 38.1666 162.487 38.3408C160.832 38.515 159.7 39.473 159.874 39.9084Z" fill="#6B1B12"/>
<path d="M189.049 57.7616C189.31 57.8487 189.746 57.0649 190.181 55.6715C190.617 54.278 190.878 52.1879 190.617 50.0106C190.268 47.7463 189.397 45.8304 188.439 44.6111C187.569 43.3919 186.698 42.9564 186.524 43.1306C186.349 43.3048 186.785 44.0015 187.394 45.2207C188.004 46.44 188.527 48.1818 188.875 50.1848C189.397 54.278 188.527 57.6745 189.049 57.7616Z" fill="#6B1B12"/>
<path d="M186.088 46.1785C185.653 46.4397 186.088 47.9202 186.437 49.7491C186.785 51.578 186.959 53.0585 187.482 53.1456C188.004 53.2327 188.701 51.4909 188.265 49.4008C188.091 48.3557 187.656 47.3977 187.22 46.8752C186.698 46.2655 186.262 46.0043 186.088 46.1785Z" fill="#6B1B12"/>
<path d="M201.241 45.569C201.416 45.569 201.59 45.3948 201.851 45.0465C202.025 44.611 202.286 44.0885 202.461 43.3047C202.548 42.9563 202.548 42.5209 202.635 42.0854C202.635 41.65 202.635 41.1274 202.548 40.6049C202.548 40.0824 202.373 39.5598 202.199 38.9502C202.025 38.4277 201.764 37.818 201.503 37.2955C200.893 36.1633 200.022 35.2924 199.151 34.6828C198.28 34.0732 197.409 33.6377 196.626 33.3765C195.145 32.941 194.1 33.1152 194.013 33.4636C193.926 33.8119 194.71 34.3345 195.755 35.1183C196.277 35.4666 196.887 35.9892 197.496 36.5988C198.019 37.2084 198.629 37.9051 199.064 38.6889C199.325 39.1244 199.5 39.4727 199.674 39.9082C199.761 40.3436 200.022 40.692 200.109 41.1274C200.196 41.5629 200.283 41.9112 200.37 42.2596C200.458 42.608 200.458 42.9563 200.545 43.3047C200.632 44.5239 200.806 45.4819 201.241 45.569Z" fill="#6B1B12"/>
<path d="M205.335 41.1276C205.683 41.2147 206.119 40.605 206.467 39.56C206.554 39.2987 206.554 38.9503 206.641 38.6891C206.641 38.3407 206.641 37.9924 206.641 37.644C206.641 37.2956 206.467 36.8602 206.38 36.4248C206.206 35.9893 206.119 35.6409 205.857 35.2055C205.422 34.4217 204.812 33.725 204.115 33.2895C203.506 32.8541 202.809 32.5928 202.287 32.4186C201.154 32.1574 200.458 32.4186 200.371 32.767C200.196 33.4637 202.374 34.5088 203.506 36.5118C204.551 38.5149 204.464 41.0405 205.335 41.1276Z" fill="#6B1B12"/>
<path d="M97.4317 119.77C100.567 119.77 103.528 119.421 105.879 118.812C111.627 117.331 114.501 115.502 114.414 113.238C114.327 111.496 112.411 110.277 109.276 109.841C108.666 109.667 103.18 108.274 99.7831 105.748C101.699 102.178 107.708 89.4625 103.789 77.4442C101.264 69.9545 95.3415 64.2066 86.11 60.4617C77.2269 56.804 66.5149 54.9751 54.2353 54.9751C30.6341 54.9751 8.94883 61.8552 8.68756 61.8552L7.72955 62.2035L7.81667 63.2486C7.81667 63.7711 8.68752 74.9186 22.3606 79.4472C23.4927 82.0599 28.1956 91.8139 38.2979 94.4266C38.2108 95.6459 38.298 97.5618 39.4301 99.5649C41.3461 102.961 45.4393 105.313 51.7097 106.619C53.974 107.055 56.3255 107.316 58.851 107.316C63.3797 107.316 67.7342 106.619 71.2178 106.009C73.6563 105.661 75.6593 105.313 77.1398 105.313C78.4462 105.313 78.7074 105.574 78.7074 105.574C78.7074 105.574 78.9687 106.01 78.272 107.577C77.4011 109.754 77.5753 111.844 78.7074 113.586C81.7556 118.202 90.7258 119.77 97.4317 119.77Z" fill="#FFC0C9"/>
<path d="M54.2351 56.2816C30.5468 56.2816 9.1228 63.1617 9.1228 63.1617C9.1228 63.1617 9.81949 74.222 23.4054 78.4023C23.4054 78.4023 28.1954 91.2045 39.8654 93.4688C39.8654 93.4688 36.8172 102.178 51.9708 105.313C54.2351 105.748 56.5865 106.01 58.8508 106.01C66.3405 106.01 73.3077 104.007 77.1396 104.007C79.7523 104.007 80.7974 104.965 79.491 108.187C76.6171 115.241 87.5904 118.463 97.3444 118.463C100.305 118.463 103.179 118.202 105.531 117.593C115.459 115.154 114.414 111.845 109.014 111.148C109.014 111.148 101.786 109.493 98.1282 106.01C98.1282 106.01 117.114 74.4833 85.5873 61.6812C75.9204 57.6751 64.86 56.2816 54.2351 56.2816ZM54.2351 53.6689V56.2816V53.6689C66.6889 53.6689 77.5751 55.4978 86.6324 59.2427C96.2122 63.1617 102.483 69.1709 105.095 77.0089C108.927 88.5047 103.963 100.523 101.525 105.313C104.224 107.055 107.969 108.187 109.537 108.535C114.936 109.232 115.633 111.932 115.72 113.151C115.981 117.68 108.666 119.509 106.227 120.118C103.702 120.728 100.654 121.076 97.4314 121.076C90.0288 121.076 80.9716 119.334 77.7493 114.457C76.7042 112.977 75.8333 110.451 77.1396 107.229C77.2267 107.055 77.3138 106.881 77.3138 106.706C77.2267 106.706 77.2267 106.706 77.1396 106.706C75.7462 106.706 73.7431 107.055 71.3917 107.403C67.821 108.013 63.4666 108.709 58.8508 108.709C56.1511 108.709 53.7126 108.448 51.4482 108.013C44.8294 106.619 40.3879 104.094 38.2977 100.349C37.3398 98.6071 36.9914 96.8653 36.9914 95.559C27.6728 92.5979 22.8829 83.889 21.4895 80.6667C7.46806 75.7026 6.59719 63.9455 6.59719 63.5101L6.51012 61.507L8.42604 60.8974C9.29694 60.3748 30.4597 53.6689 54.2351 53.6689Z" fill="#6B1B12"/>
<path d="M97.0833 101.654C97.0833 101.654 103.354 86.6751 97.0833 75.4405C90.8128 64.206 72.0015 60.287 67.5599 61.6804C62.5958 63.3351 103.876 66.9929 97.0833 101.654Z" fill="#FFDCE3"/>
<path d="M9.12288 63.1611C9.12288 63.1611 15.9158 75.4407 33.4208 72.5668C50.9258 69.7799 61.899 66.2964 70.0854 68.0381C70.0854 68.0381 57.7188 68.7349 47.9647 73.0022C38.2107 77.1825 31.0694 79.7952 23.4055 78.4018C9.81956 74.2215 9.12288 63.1611 9.12288 63.1611Z" fill="#F79FAF"/>
<path d="M43.4362 87.3721C54.2353 85.4561 65.9924 80.4049 81.4072 83.0176C81.4072 83.0176 71.5661 83.366 63.2926 86.327C57.9802 88.243 50.2292 93.4683 39.9527 93.4683C28.2827 91.204 23.4928 78.4019 23.4928 78.4019C23.4928 78.4019 32.6371 89.288 43.4362 87.3721Z" fill="#F79FAF"/>
<path d="M77.6623 100.523C88.8097 99.042 82.9747 106.967 88.0259 112.802C93.1642 118.637 112.846 112.802 113.021 112.802C113.717 114.108 111.714 116.024 105.618 117.505C95.6898 119.943 75.7463 117.331 79.5782 108.099C83.4102 98.8678 67.2116 108.448 52.058 105.312C36.9044 102.177 39.9525 93.4683 39.9525 93.4683C42.4781 105.4 66.5148 102.09 77.6623 100.523Z" fill="#F79FAF"/>
<path d="M42.8266 74.5701C42.7395 74.3959 42.3911 74.3959 41.7815 74.483C41.5202 74.483 41.0848 74.5701 40.7364 74.6572C40.301 74.7443 39.8655 74.8313 39.343 74.9184C37.3399 75.3539 34.5531 76.0506 31.505 76.6602C25.3216 77.8795 20.1833 78.6633 20.1833 79.4471C20.1833 80.2309 25.5829 80.6663 32.0275 79.36C35.2498 78.7504 38.1237 77.7053 40.0397 76.7473C40.5622 76.486 40.9977 76.2248 41.346 76.0506C41.6944 75.7893 42.0428 75.6151 42.2169 75.441C42.6524 75.0055 42.9137 74.7443 42.8266 74.5701Z" fill="#6B1B12"/>
<path d="M61.8118 86.9363C61.6376 86.7621 61.2022 86.7621 60.5925 86.9363C60.2442 87.0234 59.8958 87.1105 59.4604 87.2847C59.0249 87.4588 58.5024 87.633 57.9799 87.8072C55.8897 88.591 52.9287 89.6361 49.6193 90.5941C43.0005 92.5971 37.4268 93.8164 37.5138 94.7743C37.6009 95.7323 43.6101 96.1678 50.6644 94.0776C54.1479 93.0326 57.1961 91.4649 59.1991 90.0715C59.7216 89.7232 60.1571 89.3748 60.5054 89.0264C60.8538 88.6781 61.1151 88.3297 61.3763 88.0685C61.7247 87.5459 61.8989 87.1105 61.8118 86.9363Z" fill="#6B1B12"/>
<path d="M69.3887 63.161C69.3887 63.3352 69.8241 63.5964 70.5208 63.9448C71.3047 64.2931 72.4368 64.5544 73.7432 65.164C76.4429 66.122 80.1007 67.7767 83.5843 70.3023C84.0197 70.6507 84.4552 70.9119 84.8906 71.2603C85.326 71.6087 85.6744 71.957 86.1098 72.3054C86.8937 72.915 87.5904 73.6988 88.2871 74.3084C89.5934 75.7019 90.8127 76.9211 91.6836 78.0533C93.5125 80.3176 94.4704 81.7981 94.9059 81.6239C95.2542 81.4498 94.8188 79.5338 93.3383 76.9211C92.6416 75.6148 91.5094 74.1342 90.2031 72.5666C89.5063 71.8699 88.8096 70.999 87.9387 70.3023C87.5033 69.954 87.0678 69.5185 86.6324 69.1702C86.1969 68.8218 85.6744 68.4734 85.239 68.1251C81.407 65.3382 77.3138 63.8577 74.3528 63.3352C72.8723 62.9868 71.653 62.9868 70.7821 62.9868C69.9112 62.8997 69.3887 62.9868 69.3887 63.161Z" fill="#6B1B12"/>
<path d="M56.6738 62.4644C56.7609 62.8128 57.2834 63.0741 58.0672 63.1612C58.851 63.3353 59.809 63.3353 60.9412 63.4224C63.2055 63.4224 65.1215 63.2482 65.2956 62.4644C65.4698 61.7677 63.5539 60.7227 61.0283 60.7227C59.7219 60.7227 58.5898 60.9839 57.8059 61.3323C56.9351 61.6806 56.5867 62.1161 56.6738 62.4644Z" fill="#6B1B12"/>
<path d="M195.93 143.197C200.023 143.197 205.51 142.501 208.035 139.365C209.255 137.885 209.603 135.969 209.168 133.966C208.819 132.311 209.08 131.876 209.08 131.876C209.08 131.789 209.255 131.789 209.69 131.789C211.084 131.789 213.522 132.659 216.396 133.617C221.186 135.272 227.805 137.624 234.685 137.624C234.946 137.624 235.294 137.624 235.556 137.624C241.913 137.449 246.355 135.795 248.88 132.834C250.361 131.092 250.796 129.263 250.883 127.957C261.247 127.173 267.692 118.29 269.172 115.938C283.455 113.848 286.242 102.962 286.329 102.526L286.59 101.569L285.719 101.133C285.371 100.959 254.193 84.7603 224.408 84.7603C219.183 84.7603 214.306 85.2828 209.777 86.2408C200.023 88.3309 193.143 92.9467 189.398 99.9138C183.389 111.061 187.134 124.56 188.353 128.479C184.608 130.482 178.948 130.831 178.338 130.918C178.077 130.918 177.815 130.918 177.641 130.918C173.635 130.918 172.851 132.659 172.677 133.443C172.242 135.62 174.68 137.972 180.08 140.41C184.26 141.978 190.53 143.197 195.93 143.197Z" fill="#FFC0C9"/>
<path d="M224.408 85.9794C219.531 85.9794 214.741 86.4148 210.038 87.4599C176.77 94.6012 189.921 128.914 189.921 128.914C185.74 131.701 178.338 132.05 178.338 132.05C178.076 132.05 177.815 132.05 177.641 132.05C172.764 132.05 171.719 135.011 180.602 139.017C184.608 140.759 190.53 141.978 195.93 141.978C203.071 141.978 209.08 139.888 207.948 134.314C207.338 131.527 208.035 130.569 209.777 130.569C213.957 130.569 223.973 136.404 234.685 136.404C234.946 136.404 235.207 136.404 235.468 136.404C250.97 135.969 249.49 126.824 249.49 126.824C261.421 126.65 268.301 114.893 268.301 114.893C282.41 113.064 285.022 102.352 285.022 102.352C285.022 102.352 254.193 85.9794 224.408 85.9794ZM224.408 83.3667C254.541 83.3667 285.022 99.217 286.329 99.9137L288.157 100.872L287.635 102.875C287.548 103.397 284.587 114.806 269.956 117.244C267.953 120.206 261.769 127.956 252.015 129.263C251.754 130.569 251.144 132.224 249.925 133.704C247.225 137.014 242.348 138.756 235.643 139.017C235.381 139.017 235.033 139.017 234.772 139.017C227.717 139.017 221.012 136.665 216.135 134.924C213.87 134.14 211.78 133.443 210.474 133.182C210.474 133.356 210.561 133.53 210.561 133.704C211.083 136.143 210.648 138.407 209.167 140.236C206.293 143.807 200.458 144.591 196.017 144.591C190.356 144.591 183.999 143.371 179.644 141.368C177.38 140.323 170.587 137.275 171.458 132.921C171.719 131.876 172.764 129.35 177.641 129.35C177.902 129.35 178.076 129.35 178.338 129.35C179.992 129.263 183.824 128.74 186.785 127.521C185.305 122.47 182.431 109.755 188.266 99.0428C192.185 91.7273 199.413 86.9374 209.516 84.7601C214.044 83.8022 219.096 83.3667 224.408 83.3667Z" fill="#6B1B12"/>
<path d="M191.749 124.734C191.749 124.734 188.179 108.884 196.365 98.9558C204.552 89.0277 223.711 88.418 227.892 90.5953C232.42 93.0338 191.14 89.4631 191.749 124.734Z" fill="#FFDCE3"/>
<path d="M285.109 102.178C285.109 102.178 276.226 113.064 259.505 107.229C242.784 101.394 232.507 96.0814 224.234 96.4298C224.234 96.4298 236.252 99.3038 245.135 105.139C254.018 110.974 260.55 114.719 268.388 114.719C282.409 112.977 285.109 102.178 285.109 102.178Z" fill="#F79FAF"/>
<path d="M247.051 120.031C236.688 116.286 226.063 109.232 210.474 109.145C210.474 109.145 220.141 111.148 227.805 115.59C232.682 118.464 239.387 124.908 249.577 126.737C261.508 126.563 268.388 114.806 268.388 114.806C268.388 114.806 257.415 123.776 247.051 120.031Z" fill="#F79FAF"/>
<path d="M211.17 127.085C200.458 123.689 204.813 132.572 198.804 137.362C192.795 142.152 174.332 133.095 174.245 133.007C173.374 134.227 174.941 136.404 180.689 138.93C190.008 143.11 210.125 143.981 207.948 134.227C205.858 124.473 220.054 136.665 235.556 136.23C251.057 135.794 249.577 126.65 249.577 126.65C244.874 137.972 221.882 130.482 211.17 127.085Z" fill="#F79FAF"/>
<path d="M249.925 107.577C249.838 107.752 250.012 108.1 250.36 108.535C250.535 108.797 250.796 109.058 251.144 109.319C251.493 109.581 251.841 109.929 252.276 110.19C254.018 111.496 256.631 112.977 259.679 114.109C265.775 116.461 271.175 116.983 271.262 116.286C271.436 115.59 266.472 113.935 260.637 111.584C257.676 110.451 255.063 109.319 253.147 108.535C252.712 108.361 252.276 108.187 251.841 108.013C251.493 107.839 251.144 107.752 250.796 107.665C250.448 107.403 250.099 107.403 249.925 107.577Z" fill="#6B1B12"/>
<path d="M229.111 116.373C228.937 116.547 229.024 116.983 229.372 117.593C229.546 117.941 229.807 118.289 230.069 118.638C230.417 118.986 230.765 119.421 231.201 119.857C232.856 121.599 235.642 123.689 238.952 125.343C245.571 128.653 251.58 129.35 251.841 128.392C252.102 127.434 246.79 125.256 240.607 122.121C237.558 120.554 234.859 119.073 232.856 117.854C232.333 117.593 231.898 117.331 231.549 117.07C231.201 116.809 230.853 116.635 230.504 116.46C229.72 116.286 229.285 116.199 229.111 116.373Z" fill="#6B1B12"/>
<path d="M225.802 91.7266C225.802 91.5524 225.366 91.3783 224.495 91.2041C223.624 91.117 222.405 90.8557 220.924 90.9428C217.876 90.9428 213.609 91.6395 209.342 93.7297C208.819 93.9909 208.297 94.2522 207.774 94.5135C207.251 94.7748 206.816 95.1231 206.293 95.3844C205.335 95.9069 204.552 96.6036 203.681 97.2133C202.113 98.5196 200.807 99.7389 199.849 100.958C197.846 103.31 197.149 105.138 197.497 105.313C197.846 105.487 199.065 104.18 201.242 102.352C202.287 101.394 203.681 100.348 205.248 99.2163C206.032 98.6938 206.816 98.0842 207.774 97.6487C208.209 97.3874 208.645 97.1262 209.167 96.8649C209.603 96.6036 210.125 96.4295 210.648 96.1682C214.567 94.2522 218.399 93.2942 221.273 92.8588C222.666 92.5104 223.886 92.4233 224.669 92.2492C225.279 92.075 225.714 91.9008 225.802 91.7266Z" fill="#6B1B12"/>
<path d="M238.429 93.2946C238.603 92.9463 238.255 92.4237 237.558 91.9012C236.862 91.3786 235.729 90.9432 234.51 90.769C231.985 90.3336 229.982 91.0303 229.982 91.8141C229.982 92.5979 231.898 93.1204 234.075 93.4688C235.207 93.643 236.165 93.7301 236.949 93.7301C237.733 93.7301 238.255 93.643 238.429 93.2946Z" fill="#6B1B12"/>
<path d="M176.334 168.8C177.902 168.8 178.947 168.626 179.47 167.842C181.56 164.707 190.182 129.262 191.14 125.256L191.401 124.036L101.176 100.609L100.915 101.916C100.915 102.003 98.3894 114.282 96.2121 126.475C91.6835 152.079 92.9027 152.689 94.122 153.298C97.5185 155.04 164.229 168.8 176.334 168.8Z" fill="#ACDEDF"/>
<path d="M102.221 102.177C102.221 102.177 92.293 150.86 94.7315 152.166C96.9958 153.298 163.706 167.581 176.334 167.581C177.466 167.581 178.163 167.494 178.337 167.233C180.34 164.185 189.833 124.994 189.833 124.994L102.221 102.177ZM100.218 98.9546L102.918 99.6513L190.617 122.469L193.143 123.078L192.533 125.604C190.269 134.923 182.692 165.404 180.689 168.626C179.644 170.194 177.641 170.194 176.508 170.194C169.019 170.194 144.982 165.578 131.309 162.878C120.423 160.701 95.7766 155.563 93.6864 154.518C91.6834 153.473 91.4221 151.382 92.3801 143.544C92.9026 139.277 93.7735 133.529 95.0799 126.301C97.2571 114.108 99.6956 101.829 99.7827 101.741L100.218 98.9546Z" fill="#6B1B12"/>
<path d="M99.2603 117.417C100.828 108.883 102.221 102.177 102.221 102.177L189.92 124.994C189.92 124.994 189.05 128.565 187.743 133.703C175.376 135.706 144.373 141.628 138.712 141.628C133.138 141.541 109.537 124.297 99.2603 117.417Z" fill="#87C9C7"/>
<path d="M177.293 168.801C178.076 168.713 179.034 168.626 179.47 167.843C181.56 164.707 190.182 129.262 191.14 125.256L191.401 124.037L161.442 116.286L161.094 116.373C157.523 117.244 156.478 117.331 156.13 117.418H156.043H155.782C154.388 117.418 149.25 121.163 140.541 128.565L139.496 129.436L176.509 168.975L177.293 168.801Z" fill="#ACDEDF"/>
<path d="M161.529 117.592C159.004 118.201 156.914 118.637 156.217 118.637C156.13 118.637 156.043 118.637 156.043 118.637H155.956C154.301 118.637 141.499 129.436 141.499 129.436L177.205 167.494C177.902 167.407 178.25 167.32 178.425 167.146C180.428 164.098 189.92 124.907 189.92 124.907L161.529 117.592ZM161.529 114.892L162.139 115.066L190.53 122.469L193.056 123.079L192.446 125.604C190.182 134.923 182.605 165.404 180.602 168.626C179.731 170.02 178.076 170.107 177.38 170.194L176.16 170.281L175.289 169.41L139.583 131.352L137.667 129.349L139.757 127.607C153.256 116.111 154.91 116.111 155.868 116.111C155.956 116.111 156.13 116.111 156.217 116.111C156.478 116.111 157.61 115.937 160.833 115.153L161.529 114.892Z" fill="#6B1B12"/>
<path d="M95.4284 153.298L142.979 130.133L138.189 110.189L101.263 100.609L101.002 101.916C101.002 102.003 98.4765 114.282 96.2993 126.475C91.7707 152.079 92.9899 152.689 94.2092 153.298C94.2963 153.298 94.3833 153.386 94.4704 153.386L94.993 153.56L95.4284 153.298Z" fill="#ACDEDF"/>
<path d="M102.221 102.177C102.221 102.177 92.2932 150.86 94.7317 152.166C94.7317 152.166 94.8187 152.166 94.8187 152.253L141.412 129.523L137.057 111.321L102.221 102.177ZM100.218 98.9546L102.918 99.6513L137.754 108.709L139.234 109.144L139.583 110.625L143.937 128.826L144.46 130.829L142.544 131.787L95.9509 154.518L94.9058 155.04L93.8608 154.605C93.6866 154.518 93.5995 154.518 93.5124 154.431C91.5093 153.385 91.2481 151.295 92.2061 143.457C92.7286 139.19 93.5995 133.442 94.9058 126.214C97.0831 114.021 99.5216 101.741 99.6087 101.654L100.218 98.9546Z" fill="#6B1B12"/>
<path d="M130.7 134.749C121.207 130.568 107.011 122.469 99.2603 117.505C100.828 108.97 102.221 102.264 102.221 102.264L137.057 111.321L141.412 129.523L130.7 134.749Z" fill="#87C9C7"/>
<path d="M155.955 118.637C156.391 118.724 158.655 118.289 161.442 117.592L189.833 124.994C189.833 124.994 189.049 128.217 187.83 132.92C179.383 134.4 160.397 136.142 148.466 137.013L141.412 129.523C141.499 129.436 154.736 118.201 155.955 118.637Z" fill="#87C9C7"/>
<path d="M141.499 130.742C146.811 130.742 191.924 127.346 195.233 124.82C198.368 122.469 199.413 111.321 199.587 109.144L199.675 108.621L199.326 108.186C198.891 107.663 197.846 106.444 148.814 98.1706C125.736 94.2516 98.9992 90.0713 96.1252 90.0713C95.951 90.0713 95.5156 90.0713 95.0802 90.3326C94.8189 90.5938 94.1222 91.0293 93.6867 94.0774C93.2513 97.2126 93.0771 103.309 95.3414 106.183C98.3895 110.189 134.27 130.742 141.499 130.742Z" fill="#ACDEDF"/>
<path d="M96.0381 91.4647C95.951 91.4647 95.8639 91.4647 95.7769 91.4647C94.7318 92.2485 93.7738 102.177 96.2994 105.486C98.825 108.796 134.532 129.436 141.412 129.436C148.292 129.436 191.575 125.865 194.362 123.775C197.149 121.685 198.194 109.057 198.194 109.057C196.539 107.054 101.351 91.4647 96.0381 91.4647ZM96.0381 88.8521C99.3475 88.8521 128.958 93.5549 148.901 96.9514C158.307 98.519 171.806 100.87 182.779 102.961C198.978 106.009 199.5 106.531 200.197 107.402L200.894 108.273L200.807 109.405C200.371 114.543 199.239 123.601 195.93 126.039C195.146 126.649 193.491 127.868 169.629 130.132C157.959 131.265 145.069 132.223 141.325 132.223C136.883 132.223 125.039 126.213 115.895 121.162C109.276 117.504 96.2123 109.841 94.1222 107.228C91.074 103.309 92.1191 95.1225 92.2933 94.1645C92.7287 91.0293 93.4254 90.0713 94.1222 89.5488C94.993 88.8521 95.7769 88.8521 96.0381 88.8521Z" fill="#6B1B12"/>
<path d="M95.8638 91.4648C95.9509 91.4648 96.2122 91.4648 96.7347 91.4648C96.6476 94.6001 96.996 98.2578 98.3023 99.9996C100.828 103.309 136.535 123.949 143.415 123.949C150.295 123.949 193.578 120.379 196.365 118.288C196.626 118.114 196.8 117.853 197.062 117.505C196.452 120.291 195.581 122.904 194.449 123.775C191.662 125.865 148.379 129.436 141.499 129.436C134.619 129.436 98.912 108.796 96.3864 105.486C93.7737 102.177 94.8188 92.2486 95.8638 91.4648Z" fill="#87C9C7"/>
<path d="M140.192 137.274C140.54 137.274 140.889 137.187 141.237 137.1C141.324 137.013 153.081 132.659 154.649 127.085C154.997 125.691 154.736 124.298 153.778 123.079C152.472 121.424 150.73 120.553 148.727 120.553C146.201 120.553 143.937 121.86 142.63 122.818C140.889 117.679 137.928 117.157 136.708 117.157C134.357 117.157 132.267 118.986 131.396 121.772C130.351 124.995 132.354 130.133 134.88 133.53C135.837 134.836 137.928 137.274 140.192 137.274Z" fill="#F56878"/>
<path d="M136.709 117.941C134.793 117.941 132.964 119.508 132.18 121.947C130.787 126.475 136.273 136.403 140.192 136.403C140.453 136.403 140.715 136.403 140.976 136.229C144.895 134.749 157.262 128.74 153.081 123.514C151.775 121.947 150.207 121.337 148.727 121.337C145.33 121.337 142.108 124.124 142.108 124.124C140.889 119.682 138.712 117.941 136.709 117.941ZM136.709 116.199C138.015 116.199 141.063 116.721 143.066 121.424C144.547 120.553 146.55 119.595 148.727 119.595C150.991 119.595 152.907 120.553 154.388 122.382C155.52 123.776 155.868 125.43 155.433 127.172C153.778 133.181 141.673 137.797 141.499 137.797C141.063 137.971 140.628 138.058 140.105 138.058C137.579 138.058 135.402 135.794 134.009 133.878C131.396 130.307 129.306 124.821 130.438 121.337C131.483 118.289 133.922 116.199 136.709 116.199Z" fill="#6B1B12"/>
<path d="M132.18 121.946C132.529 120.727 133.225 119.769 134.009 118.985C133.922 119.16 133.835 119.334 133.835 119.508C132.267 124.385 138.712 135.271 142.631 133.878C145.07 133.007 150.643 130.394 153.604 127.346C151.95 131.352 144.024 135.184 140.976 136.316C136.97 137.71 130.613 126.736 132.18 121.946Z" fill="#D94650"/>
<path d="M123.297 101.829C123.384 102.177 123.907 102.438 124.691 102.525C125.474 102.7 126.432 102.787 127.564 102.787C129.829 102.874 131.745 102.613 131.919 101.916C132.093 101.219 130.177 100.174 127.652 100.087C126.345 100.087 125.213 100.261 124.429 100.609C123.558 100.958 123.21 101.48 123.297 101.829Z" fill="#6B1B12"/>
<path d="M186.698 111.322C186.785 110.277 175.638 108.709 162.052 106.358C155.259 105.225 149.163 104.006 144.808 102.961C140.454 101.916 137.754 101.132 137.493 101.568C137.319 102.003 139.67 103.658 144.024 105.4C148.379 107.141 154.475 108.709 161.442 109.928C175.202 112.367 186.611 112.28 186.698 111.322Z" fill="#6B1B12"/>
<path d="M148.64 129.872C148.814 130.046 149.25 129.959 149.946 129.436C150.556 129.001 151.427 128.13 151.601 126.649C151.688 125.952 151.514 125.169 151.166 124.646C150.817 124.124 150.382 123.775 150.033 123.601C149.337 123.166 148.727 123.253 148.64 123.427C148.553 123.688 148.814 124.037 149.163 124.559C149.337 124.82 149.511 125.082 149.685 125.43C149.772 125.778 149.859 126.04 149.772 126.388C149.685 127.085 149.25 127.868 148.988 128.478C148.64 129.262 148.466 129.697 148.64 129.872Z" fill="#6B1B12"/>
<path d="M276.4 124.82C276.4 124.994 276.748 125.081 277.358 125.168C277.706 125.168 278.055 125.168 278.49 125.168C278.751 125.168 278.925 125.168 279.187 125.168C279.448 125.168 279.709 125.081 279.971 124.994C280.493 124.907 281.103 124.733 281.712 124.646C282.322 124.472 283.019 124.21 283.628 123.949C284.325 123.688 285.022 123.252 285.718 122.904C286.415 122.468 287.112 122.033 287.809 121.423C289.115 120.291 290.247 119.072 291.031 117.853C291.815 116.634 292.424 115.414 292.686 114.282C293.382 112.192 293.208 110.711 292.773 110.711C292.424 110.624 291.902 111.844 290.857 113.585C289.899 115.327 288.244 117.504 285.98 119.42C285.37 119.856 284.848 120.291 284.238 120.727C283.628 121.075 283.106 121.511 282.496 121.772C281.886 122.033 281.364 122.381 280.841 122.643C280.319 122.904 279.796 123.078 279.361 123.252C279.1 123.339 278.925 123.426 278.664 123.514C278.49 123.601 278.229 123.688 278.055 123.775C277.706 123.949 277.358 124.036 277.097 124.21C276.661 124.384 276.4 124.646 276.4 124.82Z" fill="#6B1B12"/>
<path d="M283.715 127.694C283.803 128.042 284.761 128.216 286.241 128.042C287.722 127.868 289.899 127.171 291.815 125.691C293.731 124.123 294.863 122.12 295.211 120.553C295.647 118.985 295.385 117.94 294.95 117.94C294.602 117.94 294.166 118.637 293.382 119.769C292.686 120.901 291.554 122.294 289.986 123.514C287.025 126.039 283.541 126.91 283.715 127.694Z" fill="#6B1B12"/>
<path d="M98.476 56.1061C98.6502 56.0191 98.5631 55.6707 98.3018 55.0611C98.2148 54.7998 97.9535 54.4514 97.7793 54.1031C97.6922 53.9289 97.518 53.7547 97.431 53.4935C97.2568 53.3193 97.0826 53.058 96.9084 52.8838C96.5601 52.4484 96.1246 52.0129 95.6892 51.4904C95.2537 51.055 94.7312 50.6195 94.1216 50.097C93.599 49.6615 92.9023 49.2261 92.2056 48.7906C91.5089 48.3552 90.7251 48.0068 89.9413 47.6585C88.3737 47.0488 86.719 46.7005 85.2384 46.5263C83.7579 46.4392 82.4516 46.5263 81.3194 46.7876C79.1422 47.223 77.9229 48.0939 78.0971 48.4423C78.2713 48.7906 79.4905 48.6165 81.4936 48.7035C83.4967 48.7035 86.1964 49.0519 88.8962 50.1841C89.5929 50.4453 90.2025 50.7937 90.8122 51.055C91.4218 51.4033 92.0314 51.7517 92.554 52.1C93.0765 52.4484 93.599 52.7967 94.1216 53.1451C94.557 53.4935 94.9925 53.8418 95.4279 54.1902C95.6021 54.3644 95.8634 54.4514 96.0375 54.6256C96.2117 54.7998 96.3859 54.8869 96.5601 55.0611C96.9084 55.3223 97.1697 55.4965 97.431 55.6707C98.0406 56.1061 98.3889 56.2803 98.476 56.1061Z" fill="#6B1B12"/>
<path d="M97.5181 48.3556C97.7794 48.0943 97.5181 47.2234 96.6472 45.9171C95.7763 44.6979 94.1216 43.1302 91.8573 42.1723C89.593 41.2143 87.2415 41.2143 85.761 41.6497C84.1934 41.9981 83.4096 42.7819 83.5838 43.1302C83.758 43.4786 84.6289 43.4786 85.9352 43.5657C87.2415 43.6528 88.9833 44.0011 90.8122 44.6979C94.47 46.2655 96.9085 48.8781 97.5181 48.3556Z" fill="#6B1B12"/>
<path d="M2.50377 74.3076C2.32959 74.3947 2.24251 74.7431 2.24251 75.3527C2.24251 75.701 2.24249 76.0494 2.32958 76.4849C2.32958 76.659 2.4167 76.9203 2.4167 77.1816C2.50379 77.4428 2.5038 77.7041 2.59089 77.9654C2.76507 78.4879 2.93923 79.0975 3.11341 79.7072C3.37468 80.3168 3.63595 80.9264 3.9843 81.6231C4.33266 82.3198 4.76813 82.9295 5.20358 83.6262C5.72611 84.2358 6.24864 84.9325 6.77118 85.5421C7.99043 86.7614 9.29674 87.7194 10.6031 88.4161C11.9094 89.1128 13.2158 89.5483 14.2608 89.8095C16.4381 90.3321 17.8315 89.9837 17.8315 89.6354C17.8315 89.287 16.6123 88.8515 14.8705 87.9807C13.0416 87.1098 10.7773 85.7163 8.68715 83.6262C8.16462 83.1036 7.72914 82.5811 7.29369 81.9715C6.85824 81.3619 6.42283 80.8393 6.07447 80.3168C5.72611 79.7942 5.37772 79.2717 5.11646 78.7492C4.85519 78.2266 4.59395 77.7041 4.33268 77.2687C4.24559 77.0074 4.07139 76.8332 3.9843 76.659C3.89721 76.4849 3.81013 76.2236 3.72305 76.0494C3.54887 75.701 3.37466 75.3527 3.20048 75.0914C2.93921 74.5689 2.67795 74.3076 2.50377 74.3076Z" fill="#6B1B12"/>
<path d="M0.326341 81.797C-0.0220175 81.8841 -0.109118 82.842 0.152151 84.3226C0.41342 85.8031 1.37145 87.8932 3.02614 89.635C4.76793 91.3768 6.85804 92.4219 8.42565 92.5961C9.99326 92.8573 11.0383 92.509 11.0383 92.1606C11.0383 91.8122 10.2545 91.4639 9.03528 90.7672C7.81603 90.1575 6.42262 89.1125 5.02919 87.719C2.24233 85.0193 1.11015 81.6228 0.326341 81.797Z" fill="#6B1B12"/>
</svg>
