<svg width="176" height="247" viewBox="0 0 176 247" fill="none" xmlns="http://www.w3.org/2000/svg">
<path fill-rule="evenodd" clip-rule="evenodd" d="M48.8298 31.8959C49.7298 30.6959 50.7298 29.5959 51.8298 28.5959C53.2298 27.2959 54.7298 26.2959 56.3298 25.4959C56.7298 22.2959 59.2298 7.49586 69.9298 2.19586C72.0298 1.09586 74.1298 0.495855 76.2298 0.195855C81.7298 -0.604145 86.9299 1.09586 91.5299 4.39586C96.0299 7.69586 99.9298 12.6959 102.93 18.4959C105.43 23.4959 107.23 28.9959 108.03 34.7959C109.23 43.0959 107.93 52.0959 104.73 59.5959C102.33 65.2959 98.8298 70.1958 94.4298 73.4958C94.2298 73.5958 94.0298 73.7959 93.8298 73.8959C94.5298 75.8959 94.8298 77.5958 94.8298 78.9958C94.7298 80.5958 94.2299 81.7959 93.5299 82.7959C92.8299 83.6959 91.8298 84.3959 90.9298 84.6959C89.8298 85.1959 88.6298 85.2959 87.8298 85.2959C86.7298 85.2959 85.8298 84.7959 84.7298 84.1959C83.7298 83.6959 82.5299 83.0958 81.1299 82.9958C80.3299 85.2958 78.1298 93.2959 81.8298 102.596C84.1298 108.396 85.5298 112.596 85.9298 116.896C86.3298 121.196 85.7299 125.396 84.1299 131.096C82.6299 136.496 81.9299 140.896 82.0299 144.596C82.1299 148.296 83.0298 150.996 84.7298 152.996C85.1298 153.496 85.0299 154.096 84.5299 154.496C84.0299 154.896 83.4299 154.796 83.0299 154.296C81.1299 151.996 80.0298 148.796 79.9298 144.596C79.8298 140.796 80.5299 136.096 82.1299 130.496C83.7299 124.996 84.2298 120.996 83.8298 117.096C83.4298 113.096 82.0298 108.996 79.8298 103.396C76.3298 94.5959 77.8298 86.7959 78.8298 83.2959C78.7298 83.2959 78.7299 83.2959 78.6299 83.3959C77.9299 83.6959 77.2299 83.8958 76.5299 83.9958C74.7299 84.3958 73.1298 84.3958 71.9298 83.9958H71.8298C70.4298 83.4958 69.4299 82.6959 69.0299 81.3959C68.9299 81.1959 68.9298 80.9959 68.8298 80.7959C68.4298 78.7959 69.7298 76.8959 70.7298 75.6959C68.8298 74.7959 66.8298 73.5959 64.8298 72.1959C61.9298 75.1959 58.5299 77.7959 54.6299 79.8959C56.1299 81.8959 56.7298 85.3959 56.4298 88.2959C56.3298 89.2959 56.1298 90.2959 55.7298 91.0959C55.3298 91.9959 54.8299 92.6959 54.1299 93.1959C53.1299 93.7959 52.0298 93.8959 50.7298 93.0959C50.1298 92.6959 49.6299 92.3959 49.1299 92.0959C47.0299 90.8959 45.3299 89.7958 43.1299 89.4958C42.3299 91.4958 40.0299 96.8958 35.5299 102.496C32.9299 105.696 31.2298 108.896 31.2298 112.596C31.2298 116.396 33.0298 120.796 37.2298 126.696C41.8298 132.996 42.9298 139.096 42.3298 144.696C41.7298 150.196 39.5298 155.196 37.3298 159.496C37.0298 159.996 36.4298 160.196 35.9298 159.996C35.4298 159.696 35.2298 159.096 35.4298 158.596C37.5298 154.496 39.6299 149.696 40.1299 144.596C40.6299 139.496 39.6298 133.896 35.4298 128.096C30.9298 121.796 29.0299 116.896 29.0299 112.696C29.0299 108.396 30.8298 104.896 33.7298 101.296C37.6298 96.4959 39.7298 91.8959 40.7298 89.5959C39.6298 89.6959 38.4299 89.8959 37.0299 90.3959C35.3299 90.9959 33.7298 91.2959 32.3298 91.3959C30.3298 91.5959 28.7299 91.2959 27.5299 90.7959C26.2299 90.1959 25.3298 89.1959 24.8298 87.8959C24.7298 87.4959 24.6299 87.1959 24.6299 86.7959C24.3299 83.8959 29.1299 80.4959 31.6299 78.8959C25.9299 75.2959 20.8298 70.1959 16.8298 64.1959C10.8298 55.0959 7.62986 44.1959 9.12986 34.2959C9.32986 33.2959 9.52983 32.1959 9.72983 31.1959C10.9298 26.5959 13.3298 22.7959 16.4298 20.1959C19.2298 17.7959 22.6299 16.3959 26.1299 16.0959C29.7299 15.7959 33.5299 16.6959 37.1299 18.8959C41.7299 21.4959 45.6298 25.6959 48.8298 31.8959Z" fill="#6C0B1B"/>
<path fill-rule="evenodd" clip-rule="evenodd" d="M34.6298 77.9961C34.6298 77.9961 34.7298 77.9961 34.7298 78.0961C37.1298 79.3961 39.6298 80.4961 42.1298 81.0961C43.0298 81.2961 43.9298 81.4961 44.7298 81.6961C54.1298 79.4961 61.3298 73.9961 66.4298 67.3961C72.9298 58.9961 76.2298 48.7961 76.2298 40.9961C76.2298 37.5961 75.6298 34.8961 74.6298 32.5961C73.5298 30.2961 72.0298 28.5961 70.2298 27.4961C68.4298 26.3961 66.3298 25.7961 64.1298 25.7961C62.0298 25.7961 59.8298 26.2961 57.7298 27.2961H57.6298C56.1298 27.9961 54.5298 28.9961 53.1298 30.2961C51.7298 31.4961 50.5298 32.9961 49.4298 34.6961C49.3298 34.8961 49.1298 34.9961 48.9298 35.0961C48.4298 35.3961 47.7298 35.0961 47.5298 34.5961C44.3298 27.8961 40.4298 23.4961 36.4298 20.8961C33.2298 18.8961 29.8298 18.0961 26.7298 18.3961C23.6298 18.5961 20.6298 19.8961 18.2298 21.9961C15.4298 24.2961 13.3298 27.6961 12.2298 31.8961C11.9298 32.8961 11.7298 33.7961 11.6298 34.7961C10.2298 44.0961 13.2298 54.4961 18.9298 63.1961C23.1298 69.2961 28.5298 74.5961 34.6298 77.9961Z" fill="#F16B73"/>
<path fill-rule="evenodd" clip-rule="evenodd" d="M34.6298 77.9959C34.6298 77.9959 34.7298 77.9959 34.7298 78.0959C37.1298 79.3959 39.6298 80.4959 42.1298 81.0959C43.0298 81.2959 43.9298 81.4959 44.7298 81.6959C54.1298 79.4959 61.3298 73.9959 66.4298 67.3959C72.9298 58.9959 76.2298 48.7959 76.2298 40.9959C76.2298 37.5959 75.6298 34.8959 74.6298 32.5959C73.5298 30.2959 72.0298 28.5959 70.2298 27.4959C68.4298 26.3959 66.3298 25.7959 64.1298 25.7959C62.0298 25.7959 59.8298 26.2959 57.7298 27.2959H57.6298C56.8298 27.6959 56.0298 28.0959 55.3298 28.5959C55.3298 28.5959 66.9298 22.5959 68.5298 39.8959C69.9298 55.1959 56.8298 73.7959 29.0298 74.1959C30.8298 75.6959 32.7298 76.8959 34.6298 77.9959Z" fill="#DA474E"/>
<path fill-rule="evenodd" clip-rule="evenodd" d="M52.7298 81.1958C50.3298 82.2958 47.7298 83.1958 45.0298 83.7958C44.8298 83.7958 44.7298 83.7958 44.5298 83.7958C43.5298 83.5958 42.5298 83.3958 41.5298 83.1958C39.0298 82.4958 36.5298 81.4958 34.1298 80.1958C32.4298 81.1958 26.9298 84.4958 27.1298 86.6958C27.1298 86.8958 27.2298 87.0958 27.2298 87.3958C27.4298 88.0958 27.9298 88.5958 28.7298 88.9958C29.6298 89.3958 30.8298 89.5958 32.4298 89.3958C33.6298 89.2958 35.0298 88.9958 36.6298 88.4958C43.1298 86.3958 46.1298 88.1958 50.3298 90.6958C50.8298 90.9958 51.4298 91.3958 51.9298 91.5958C52.4298 91.8958 52.8298 91.8958 53.1298 91.6958C53.4298 91.4958 53.7298 91.0958 53.9298 90.5958C54.2298 89.9958 54.3298 89.1958 54.4298 88.3958C54.6298 85.6958 54.1298 82.4958 52.7298 81.1958Z" fill="#F16B73"/>
<path fill-rule="evenodd" clip-rule="evenodd" d="M52.73 81.1958C50.33 82.2958 47.73 83.1958 45.03 83.7958C44.83 83.7958 44.73 83.7958 44.53 83.7958C43.53 83.5958 42.53 83.3958 41.53 83.1958C39.03 82.4958 36.53 81.4958 34.13 80.1958C33.83 80.3958 33.43 80.5958 33.03 80.8958C33.93 81.2958 34.73 81.7958 34.83 82.2958C35.13 83.4958 32.03 85.1958 30.13 85.6958C28.13 86.2958 32.13 87.0958 38.33 85.6958C43.63 84.4958 47.03 84.2958 44.93 87.9958C46.83 88.4958 48.43 89.4958 50.43 90.6958C50.93 90.9958 51.53 91.3958 52.03 91.5958C52.53 91.8958 52.93 91.8958 53.23 91.6958C53.53 91.4958 53.83 91.0958 54.03 90.5958C54.33 89.9958 54.43 89.1958 54.53 88.3958C54.63 85.6958 54.13 82.4958 52.73 81.1958Z" fill="#DA474E"/>
<path fill-rule="evenodd" clip-rule="evenodd" d="M73.03 74.5957C73.03 74.5957 73.13 74.6957 73.03 74.5957C75.13 75.4957 77.13 75.9957 79.13 76.0957C84.33 76.5957 89.03 74.9957 93.03 71.8957C97.03 68.7957 100.33 64.1957 102.63 58.7957C105.73 51.5957 107.03 43.0957 105.83 35.0957C105.03 29.4957 103.33 24.1957 100.93 19.3957C98.13 13.7957 94.43 9.19571 90.23 6.09571C86.03 3.09571 81.43 1.49571 76.53 2.29571C74.63 2.59571 72.83 3.19571 70.93 4.09571C62.23 8.49571 59.43 19.9957 58.73 24.4957C60.63 23.8957 62.53 23.4957 64.33 23.4957C66.93 23.4957 69.43 24.1957 71.53 25.4957C73.63 26.7957 75.53 28.7957 76.73 31.4957C77.93 33.9957 78.53 37.0957 78.53 40.7957C78.43 49.0957 75.13 59.7957 68.23 68.4957C67.63 69.1957 67.03 69.9957 66.43 70.6957C68.63 72.4957 70.93 73.7957 73.03 74.5957Z" fill="#ADDDED"/>
<path fill-rule="evenodd" clip-rule="evenodd" d="M73.0299 74.5957C73.0299 74.5957 73.1299 74.6957 73.0299 74.5957C75.1299 75.4957 77.1299 75.9957 79.1299 76.0957C84.3299 76.5957 89.0299 74.9957 93.0299 71.8957C97.0299 68.7957 100.33 64.1957 102.63 58.7957C105.73 51.5957 107.03 43.0957 105.83 35.0957C105.03 29.4957 103.33 24.1957 100.93 19.3957C98.1299 13.7957 94.4299 9.19571 90.2299 6.09571C86.0299 3.09571 81.4299 1.49571 76.5299 2.29571H76.4299C82.2299 5.29571 93.7299 14.3957 98.6299 39.8957C103.93 67.4957 82.6299 70.3957 73.3299 60.4957C71.9299 63.2957 70.2299 65.9957 68.2299 68.5957C67.6299 69.2957 67.0299 70.0957 66.4299 70.7957C68.6299 72.4957 70.9299 73.7957 73.0299 74.5957Z" fill="#8FBECC"/>
<path fill-rule="evenodd" clip-rule="evenodd" d="M91.93 75.396C88.03 77.696 83.63 78.896 78.93 78.396C77.03 78.196 75.03 77.696 72.93 76.996C72.13 77.696 70.63 79.396 70.93 80.696C70.93 80.796 71.03 80.896 71.03 80.996C71.23 81.596 71.73 82.096 72.53 82.296C73.43 82.596 74.63 82.596 76.03 82.296C76.63 82.196 77.23 81.996 77.83 81.696C81.33 80.396 83.63 81.596 85.63 82.596C86.43 82.996 87.23 83.396 87.83 83.396C88.43 83.396 89.23 83.296 90.03 82.996C90.63 82.696 91.3299 82.296 91.7299 81.696C92.2299 81.096 92.53 80.296 92.53 79.196C92.63 78.096 92.43 76.896 91.93 75.396Z" fill="#8FBECC"/>
<path fill-rule="evenodd" clip-rule="evenodd" d="M84.6298 72.6957L85.3298 72.4957C85.4298 72.0957 85.3298 72.5957 85.3298 72.1957V72.0957L86.1298 71.6957C85.9298 69.4957 82.4298 71.5957 84.6298 72.6957Z" fill="#6C0B1B"/>
<path fill-rule="evenodd" clip-rule="evenodd" d="M103.33 39.7958V35.0958L101.83 28.2958C100.53 24.1958 99.6298 23.1958 97.6298 20.1958C96.5298 18.5958 93.8298 13.6958 92.0298 13.1958C92.0298 14.1958 94.9298 18.4958 95.5298 19.6958C97.2298 22.7958 97.5298 22.2958 99.2298 26.1958C100.23 28.5958 101.03 31.1958 101.43 33.9958C102.13 38.5958 101.53 41.3958 101.93 43.2958C102.83 43.0958 102.83 42.1958 103.03 40.9958L103.33 39.7958Z" fill="#6C0B1B"/>
<path fill-rule="evenodd" clip-rule="evenodd" d="M72.3299 40.8958C72.3299 46.2958 70.83 51.2958 68.93 56.0958C68.53 57.1958 67.23 59.4958 67.43 60.5958C68.93 60.5958 71.13 54.3958 71.63 52.9958C73.23 48.5958 74.63 41.9958 73.03 37.1958C72.83 36.5958 72.63 36.1958 72.43 35.6958C72.13 35.0958 72.1299 34.6958 71.3299 34.8958C71.5299 36.9958 72.3299 38.5958 72.3299 40.8958Z" fill="#6C0B1B"/>
<path fill-rule="evenodd" clip-rule="evenodd" d="M43.5298 79.1957C45.3298 79.4957 53.7298 75.6957 55.1298 74.7957C56.8298 73.6957 63.3298 68.6957 63.0298 66.5957C62.4298 66.5957 62.1298 66.8957 61.8298 67.2957C59.8298 69.3957 56.4298 72.1957 53.9298 73.5957C50.9298 75.2957 48.6298 76.0957 45.7298 77.4957C44.9298 77.7957 43.5298 78.2957 43.5298 79.1957Z" fill="#6C0B1B"/>
<path fill-rule="evenodd" clip-rule="evenodd" d="M67.6298 68.7954C69.1298 69.7954 70.5298 70.6954 72.1298 71.6954C73.9298 72.7954 81.3298 73.4954 82.2298 72.0954C81.8298 71.0954 79.8298 71.3954 78.8298 71.2954C71.2298 70.8954 72.7298 69.1954 69.1298 67.9954C69.2298 67.1954 69.5298 66.7954 69.5298 66.3954C69.5298 66.3954 69.9298 66.7954 69.3298 65.7954C68.3298 66.2954 67.5298 67.4954 67.6298 68.7954Z" fill="#6C0B1B"/>
<path fill-rule="evenodd" clip-rule="evenodd" d="M51.3299 87.2956C50.7299 85.3956 40.5299 87.4956 39.0299 88.0956C37.3299 88.7956 37.5299 89.5956 38.9299 89.4956L45.2299 88.4956C46.8299 88.2956 50.9299 88.1956 51.3299 87.2956Z" fill="#6C0B1B"/>
<path fill-rule="evenodd" clip-rule="evenodd" d="M42.6299 76.1957C44.4299 76.4957 48.5299 74.1957 49.6299 73.3957C51.1299 72.3957 52.3299 71.2957 53.6299 70.1957C54.1299 69.7957 54.6299 69.5957 54.6299 68.6957C52.8299 68.3957 49.7299 71.4957 48.4299 72.2957C47.4299 72.8957 46.5299 73.4957 45.4299 74.0957C44.8299 74.3957 44.4299 74.5957 43.8299 74.9957C43.3299 75.1957 42.7299 75.3957 42.6299 76.1957Z" fill="#6C0B1B"/>
<path fill-rule="evenodd" clip-rule="evenodd" d="M78.3298 82.3958C80.0298 82.9958 90.9298 81.3958 90.5298 78.3958C89.9298 78.2958 88.3298 79.0958 87.5298 79.3958C85.0298 80.1958 81.8298 80.7958 79.2298 81.2958C78.4298 81.2958 78.1298 81.3958 78.3298 82.3958Z" fill="#6C0B1B"/>
<path fill-rule="evenodd" clip-rule="evenodd" d="M35.0298 85.6957C36.4298 85.8957 45.6298 82.9957 46.3298 82.3957C46.3298 81.3957 46.0298 81.3957 45.1298 81.5957C44.5298 81.6957 43.9298 81.8957 43.4298 81.9957L36.6298 83.8957C35.3298 84.3957 34.1298 84.3957 35.0298 85.6957Z" fill="#6C0B1B"/>
<path fill-rule="evenodd" clip-rule="evenodd" d="M76.6299 68.6954C76.5299 67.2954 74.9299 67.2954 73.2299 66.1954C70.9299 64.6954 73.0299 63.4954 72.4299 61.7954C70.8299 61.7954 69.9299 65.0954 71.2299 66.6954C72.0299 67.5954 74.8299 68.9954 76.6299 68.6954Z" fill="#6C0B1B"/>
<path fill-rule="evenodd" clip-rule="evenodd" d="M74.7297 79.6956C76.0297 80.1956 79.2298 79.1956 81.1298 78.6956C81.8298 78.4956 82.9297 78.3956 82.3297 77.3956C81.8297 76.4956 77.1298 77.8956 76.1298 78.3956C75.3298 78.6956 74.8297 78.7956 74.7297 79.6956Z" fill="#6C0B1B"/>
<path fill-rule="evenodd" clip-rule="evenodd" d="M87.8299 8.89565C86.7299 9.49565 88.2299 10.3957 88.5299 10.5957C88.9299 10.8957 89.7299 11.7957 90.4299 11.3957C91.5299 10.6957 88.9299 8.29565 87.8299 8.89565Z" fill="#6C0B1B"/>
<path fill-rule="evenodd" clip-rule="evenodd" d="M69.5299 32.9957L70.4299 32.8957C70.7299 31.5957 69.8299 30.1957 68.7299 30.3957C67.4299 30.6957 69.3299 32.6957 69.5299 32.9957Z" fill="#6C0B1B"/>
<path fill-rule="evenodd" clip-rule="evenodd" d="M3.53 23.596C4.93 23.396 5.42998 21.096 6.22998 19.396C8.32998 14.396 9.52998 12.896 13.83 10.096C14.23 9.89599 14.43 9.69599 14.83 9.39599C15.33 9.09599 15.43 8.99599 15.53 8.39599C13.73 7.39599 8.83 10.996 7.13 13.396C5.83 15.196 3.23 20.796 3.53 23.596Z" fill="#6C0B1B"/>
<path fill-rule="evenodd" clip-rule="evenodd" d="M103.73 75.6958C105.13 75.6958 108.73 70.0958 107.63 67.8958C106.33 67.6958 106.23 69.5958 104.83 71.6958C104.53 72.1958 101.53 75.6958 103.73 75.6958Z" fill="#6C0B1B"/>
<path fill-rule="evenodd" clip-rule="evenodd" d="M4.32989 6.09572C3.42989 5.89572 0.629885 6.99572 0.229885 8.59572C0.129885 9.09572 -0.17009 10.1957 0.12991 10.4957C1.02991 11.4957 2.0299 9.09572 2.4299 8.59572C3.2299 8.09572 4.52989 7.29572 4.32989 6.09572Z" fill="#6C0B1B"/>
<path fill-rule="evenodd" clip-rule="evenodd" d="M107.23 78.4959C106.33 78.9959 106.03 79.8959 105.33 80.5959C104.93 80.9959 104.53 81.0959 104.63 81.7959C104.73 82.7959 106.73 82.9959 107.93 80.4959C108.33 79.5959 108.63 77.7959 107.23 78.4959Z" fill="#6C0B1B"/>
<path fill-rule="evenodd" clip-rule="evenodd" d="M48.8299 31.8961C49.7299 30.6961 50.7299 29.5961 51.8299 28.5961C53.4299 27.1961 55.1299 26.0961 56.8299 25.2961C59.2299 24.1961 61.8299 23.5961 64.2299 23.5961C66.8299 23.5961 69.3299 24.2961 71.4299 25.5961C73.5299 26.8961 75.4299 28.8961 76.6299 31.5961C77.8299 34.0961 78.4299 37.1961 78.4299 40.8961C78.3299 49.1961 75.0299 59.8961 68.1299 68.5961C62.6299 75.5961 54.9299 81.3961 44.9299 83.6961C44.7299 83.6961 44.6299 83.6961 44.4299 83.6961C43.4299 83.4961 42.4299 83.2961 41.4299 83.0961C31.8299 80.5961 23.1299 73.2961 17.1299 64.1961C11.1299 55.0961 7.92991 44.1961 9.42991 34.2961C9.62991 33.2961 9.82991 32.1961 10.0299 31.1961C11.2299 26.5961 13.6299 22.7961 16.7299 20.1961C19.5299 17.7961 22.9299 16.3961 26.4299 16.0961C30.0299 15.7961 33.8299 16.6961 37.4299 18.8961C41.7299 21.4961 45.6299 25.6961 48.8299 31.8961ZM53.2299 30.2961C51.8299 31.4961 50.6299 32.9961 49.5299 34.6961C49.4299 34.8961 49.2299 34.9961 49.0299 35.0961C48.5299 35.3961 47.8299 35.0961 47.6299 34.5961C44.4299 27.8961 40.5299 23.4961 36.5299 20.8961C33.3299 18.8961 29.9299 18.0961 26.8299 18.3961C23.7299 18.5961 20.7299 19.8961 18.3299 21.9961C15.5299 24.2961 13.4299 27.6961 12.3299 31.8961C12.0299 32.8961 11.8299 33.7961 11.7299 34.7961C10.3299 44.0961 13.3299 54.4961 19.0299 63.1961C24.7299 71.8961 33.0299 78.7961 42.1299 81.1961C43.0299 81.3961 43.9299 81.5961 44.7299 81.7961C54.1299 79.5961 61.3299 74.0961 66.4299 67.4961C72.9299 59.0961 76.2299 48.8961 76.2299 41.0961C76.2299 37.6961 75.6299 34.9961 74.6299 32.6961C73.5299 30.3961 72.0299 28.6961 70.2299 27.5961C68.4299 26.4961 66.3299 25.8961 64.1299 25.8961C62.0299 25.8961 59.8299 26.3961 57.6299 27.3961C56.2299 27.9961 54.7299 28.9961 53.2299 30.2961Z" fill="#6C0B1B"/>
<path fill-rule="evenodd" clip-rule="evenodd" d="M58.43 26.396C58.33 26.996 57.83 27.396 57.23 27.396C56.63 27.296 56.23 26.796 56.23 26.196C56.23 26.096 57.93 8.29595 69.93 2.29595C72.03 1.19595 74.13 0.595953 76.23 0.295953C81.73 -0.504047 86.93 1.19595 91.53 4.49595C96.03 7.79595 99.93 12.796 102.93 18.596C105.43 23.596 107.23 29.096 108.03 34.896C109.23 43.196 107.93 52.196 104.73 59.696C102.33 65.396 98.83 70.296 94.43 73.596C90.03 76.996 84.83 78.796 78.93 78.196C74.43 77.696 69.63 75.796 64.53 72.096C64.03 71.696 63.93 71.096 64.33 70.596C64.73 70.096 65.33 69.996 65.83 70.396C70.53 73.896 75.03 75.696 79.13 76.096C84.33 76.596 89.03 74.996 93.03 71.896C97.03 68.796 100.33 64.196 102.63 58.796C105.73 51.596 107.03 43.096 105.83 35.096C105.03 29.496 103.33 24.196 100.93 19.396C98.13 13.796 94.43 9.19595 90.23 6.09595C86.03 3.09595 81.43 1.49595 76.53 2.29595C74.63 2.59595 72.83 3.19595 70.93 4.09595C59.93 9.59595 58.43 26.396 58.43 26.396Z" fill="#6C0B1B"/>
<path fill-rule="evenodd" clip-rule="evenodd" d="M33.63 77.9959C34.13 77.6959 34.83 77.8959 35.13 78.3959C35.43 78.8959 35.2299 79.5959 34.7299 79.8959C34.7299 79.8959 26.9299 84.0959 27.2299 86.6959C27.2299 86.8959 27.3299 87.0959 27.3299 87.3959C27.5299 88.0959 28.0299 88.5959 28.8299 88.9959C29.7299 89.3959 30.9299 89.5959 32.5299 89.3959C33.7299 89.2959 35.1299 88.9959 36.7299 88.4959C43.2299 86.3959 46.2299 88.1959 50.4299 90.6959C50.9299 90.9959 51.5299 91.3959 52.0299 91.5959C52.5299 91.8959 52.9299 91.8959 53.2299 91.6959C53.5299 91.4959 53.8299 91.0959 54.0299 90.5959C54.3299 89.9959 54.4299 89.1959 54.5299 88.3959C54.8299 85.5959 54.23 82.0959 52.63 80.8959C52.13 80.4959 52.0299 79.8959 52.4299 79.3959C52.8299 78.8959 53.4299 78.7959 53.9299 79.1959C56.1299 80.7959 57.0299 85.1959 56.7299 88.5959C56.6299 89.5959 56.4299 90.5959 56.0299 91.3959C55.6299 92.2959 55.1299 92.9959 54.4299 93.4959C53.4299 94.0959 52.3299 94.1959 51.0299 93.3959C50.4299 92.9959 49.9299 92.6959 49.4299 92.3959C45.7299 90.1959 43.1299 88.5959 37.5299 90.3959C35.8299 90.9959 34.2299 91.2959 32.8299 91.3959C30.8299 91.5959 29.2299 91.2959 28.0299 90.7959C26.7299 90.1959 25.8299 89.1959 25.3299 87.8959C25.2299 87.4959 25.13 87.1959 25.13 86.7959C24.63 82.7959 33.63 77.9959 33.63 77.9959Z" fill="#6C0B1B"/>
<path fill-rule="evenodd" clip-rule="evenodd" d="M72.03 74.7961C72.53 74.3961 73.13 74.4961 73.53 74.9961C73.93 75.4961 73.83 76.0961 73.33 76.4961C73.33 76.4961 70.53 78.7961 70.93 80.5961C70.93 80.6961 71.03 80.7961 71.03 80.8961C71.23 81.4961 71.73 81.9961 72.53 82.1961C73.43 82.4961 74.63 82.4961 76.03 82.1961C76.63 82.0961 77.23 81.8961 77.83 81.5961C81.33 80.2961 83.63 81.4961 85.63 82.4961C86.43 82.8961 87.23 83.2961 87.83 83.2961C88.43 83.2961 89.23 83.1961 90.03 82.8961C90.63 82.5961 91.33 82.1961 91.73 81.5961C92.23 80.9961 92.53 80.1961 92.53 79.0961C92.63 77.7961 92.23 76.1961 91.43 74.0961C91.23 73.5961 91.43 72.8961 92.03 72.6961C92.63 72.4961 93.23 72.6961 93.43 73.2961C94.43 75.6961 94.73 77.5961 94.73 79.1961C94.63 80.7961 94.13 81.9961 93.43 82.9961C92.73 83.8961 91.73 84.5961 90.83 84.8961C89.73 85.3961 88.53 85.4961 87.73 85.4961C86.63 85.4961 85.73 84.9961 84.63 84.3961C83.03 83.5961 81.13 82.5961 78.53 83.5961C77.83 83.8961 77.13 84.0961 76.43 84.1961C74.63 84.5961 73.03 84.5961 71.83 84.1961H71.73C70.33 83.6961 69.33 82.8961 68.93 81.5961C68.83 81.3961 68.83 81.1961 68.73 80.9961C68.13 77.8961 72.03 74.7961 72.03 74.7961Z" fill="#6C0B1B"/>
<path fill-rule="evenodd" clip-rule="evenodd" d="M41.53 88.2959C41.73 87.6959 42.33 87.3959 42.93 87.5959C43.53 87.7959 43.83 88.3959 43.63 88.9959C43.63 88.9959 41.43 95.7959 35.73 102.796C33.13 105.996 31.43 109.196 31.43 112.896C31.43 116.696 33.23 121.096 37.43 126.996C42.03 133.296 43.13 139.396 42.53 144.996C41.93 150.496 39.73 155.496 37.53 159.796C37.23 160.296 36.63 160.496 36.13 160.296C35.63 159.996 35.43 159.396 35.63 158.896C37.73 154.796 39.83 149.996 40.33 144.896C40.83 139.796 39.83 134.196 35.63 128.396C31.13 122.096 29.23 117.196 29.23 112.996C29.23 108.696 31.03 105.196 33.93 101.596C39.43 94.6959 41.53 88.2959 41.53 88.2959Z" fill="#6C0B1B"/>
<path fill-rule="evenodd" clip-rule="evenodd" d="M79.4299 81.7959C79.6299 81.2959 80.3299 80.9959 80.8299 81.1959C81.3299 81.3959 81.6299 82.0959 81.4299 82.5959C81.4299 82.5959 77.4299 91.8959 81.8299 102.896C84.1299 108.696 85.5299 112.896 85.9299 117.196C86.3299 121.496 85.7299 125.696 84.1299 131.396C82.6299 136.796 81.9299 141.196 82.0299 144.896C82.1299 148.596 83.0299 151.296 84.7299 153.296C85.1299 153.796 85.0299 154.396 84.5299 154.796C84.0299 155.196 83.4299 155.096 83.0299 154.596C81.1299 152.296 80.0299 149.096 79.9299 144.896C79.8299 141.096 80.5299 136.396 82.1299 130.796C83.7299 125.296 84.2299 121.296 83.8299 117.396C83.4299 113.396 82.0299 109.296 79.8299 103.696C75.0299 91.7959 79.4299 81.7959 79.4299 81.7959Z" fill="#6C0B1B"/>
<path fill-rule="evenodd" clip-rule="evenodd" d="M24.4298 21.6956C24.8298 21.4956 25.3298 21.6956 25.5298 22.0956C25.7298 22.4956 25.5298 22.9956 25.1298 23.1956C25.1298 23.1956 24.5298 23.4956 23.6298 24.0956C23.2298 24.3956 22.7298 24.2956 22.5298 23.8956C22.2298 23.4956 22.3298 22.9956 22.7298 22.7956C23.7298 22.0956 24.4298 21.6956 24.4298 21.6956ZM20.2298 24.8956C20.5298 24.5956 21.0298 24.5956 21.3298 24.8956C21.6298 25.1956 21.6298 25.6956 21.3298 25.9956C19.8298 27.4956 18.3298 29.7956 17.3298 32.7956C16.3298 35.8956 16.0298 39.8956 16.9298 44.8956C17.0298 45.2956 16.7298 45.6956 16.3298 45.7956C15.9298 45.8956 15.5298 45.5957 15.4298 45.1957C14.4298 39.8956 14.8298 35.6956 15.8298 32.2956C16.9298 28.9956 18.6298 26.5956 20.2298 24.8956Z" fill="white"/>
<path fill-rule="evenodd" clip-rule="evenodd" d="M72.9298 5.09609C73.3298 4.89609 73.8299 4.99609 74.0299 5.39609C74.2299 5.79609 74.1298 6.29609 73.7298 6.49609C73.7298 6.49609 73.3299 6.79609 72.6299 7.29609C72.3299 7.59609 71.8299 7.49609 71.5299 7.19609C71.2299 6.89609 71.3299 6.39609 71.6299 6.09609C72.4299 5.39609 72.9298 5.09609 72.9298 5.09609ZM69.3298 7.99609C69.6298 7.69609 70.1298 7.69609 70.4298 7.99609C70.7298 8.29609 70.7298 8.79609 70.4298 9.09609C69.1298 10.3961 67.6299 12.2961 66.5299 14.5961C65.7299 16.3961 65.1298 18.3961 64.9298 20.6961C64.9298 21.0961 64.5299 21.4961 64.1299 21.3961C63.7299 21.3961 63.3298 20.9961 63.4298 20.5961C63.5298 18.0961 64.2299 15.8961 65.1299 13.9961C66.3299 11.4961 67.9298 9.49609 69.3298 7.99609Z" fill="white"/>
<path d="M92.0426 245.561C91.4387 245.561 90.921 245.216 90.6622 244.612C90.4033 244.008 90.4896 243.404 90.921 242.887L99.1174 234.086C89.1092 224.251 75.8223 209.497 67.2807 193.708C56.4959 173.778 55.892 157.212 65.6415 144.616C72.5437 135.643 80.7401 130.897 89.2817 130.897C96.7016 130.897 104.38 134.521 110.334 140.819C113.44 144.098 115.769 147.808 117.063 151.345C121.377 142.027 133.715 131.07 146.829 131.07C155.457 131.07 163.222 135.902 169.175 145.047C179.529 160.836 172.972 183.268 150.194 209.842C133.197 229.686 112.922 245.13 112.663 245.216L112.318 245.475H92.0426V245.561Z" fill="#D94650"/>
<path d="M89.2816 132.278C104.639 132.278 117.236 148.153 116.718 157.212C117.236 148.153 131.472 132.45 146.829 132.45C154.163 132.45 161.755 136.074 168.14 145.823C192.643 183.182 111.973 244.353 111.973 244.353H92.0425C91.87 244.353 91.7837 244.094 91.87 243.922L100.843 234.259C81.4303 215.277 45.0209 173.605 66.5904 145.651C74.0104 135.901 81.948 132.278 89.2816 132.278ZM89.2816 129.689C82.9833 129.689 73.6653 132.192 64.6061 143.925C54.5978 156.953 55.1154 173.95 66.159 194.398C74.528 209.842 87.3835 224.337 97.3055 234.172L89.9719 242.024C89.1954 242.887 89.0228 244.094 89.4542 245.13C89.8856 246.165 90.9209 246.855 92.0425 246.855H111.973H112.836L113.526 246.338C113.698 246.165 134.146 230.635 151.229 210.705C161.324 198.885 168.399 187.841 172.109 177.833C176.94 164.891 176.336 153.589 170.297 144.357C162.446 132.364 153.214 129.862 146.829 129.862C136.648 129.862 128.452 135.901 124.483 139.525C121.463 142.286 118.961 145.392 117.15 148.412C115.769 145.565 113.785 142.717 111.283 140.043C104.984 133.486 96.9604 129.689 89.2816 129.689Z" fill="#6B1B12"/>
<path d="M87.4697 139.439H108.263" stroke="#6B1B12" stroke-width="3" stroke-miterlimit="10"/>
<path d="M90.6621 244.613C90.4896 244.44 71.8535 228.91 57.0136 208.98C37.0833 182.234 33.0283 159.801 45.1072 144.099C52.0095 135.126 60.2059 130.38 68.7474 130.38C76.1674 130.38 83.8462 134.004 89.7994 140.302C92.9054 143.581 95.2349 147.291 96.5291 150.828C100.843 141.51 113.181 130.553 126.295 130.553C134.923 130.553 142.688 135.385 148.641 144.53C158.995 160.319 152.437 182.751 129.66 209.325C112.663 229.169 92.3877 244.613 92.1289 244.699L91.3524 245.303L90.6621 244.613Z" fill="#F56878"/>
<path d="M68.8338 131.588C84.1913 131.588 96.788 147.464 96.2703 156.523C96.788 147.464 111.024 131.761 126.381 131.761C133.715 131.761 141.308 135.385 147.692 145.134C172.195 182.493 91.525 243.664 91.525 243.664C91.525 243.664 17.5845 182.147 46.2289 144.875C53.5625 135.212 61.5002 131.588 68.8338 131.588ZM68.8338 129C62.5355 129 53.2174 131.502 44.1582 143.236C37.0834 152.381 35.2715 163.598 38.7227 176.626C41.3973 186.72 47.1779 197.85 56.0646 209.67C70.9907 229.687 89.1092 244.872 89.8857 245.562L91.4387 246.856L93.078 245.648C93.2505 245.476 113.699 229.946 130.782 210.015C140.876 198.195 147.951 187.152 151.661 177.143C156.493 164.202 155.889 152.899 149.849 143.667C141.998 131.675 132.766 129.173 126.381 129.173C116.201 129.173 108.004 135.212 104.035 138.836C101.016 141.597 98.5135 144.703 96.7017 147.722C95.3212 144.875 93.3368 142.028 90.8348 139.353C84.5365 132.796 76.5989 129 68.8338 129Z" fill="#6B1B12"/>
<path d="M41.9147 163.166C42.4324 162.993 43.6403 165.15 45.4521 168.601C47.264 172.053 49.6798 176.884 52.3544 182.32C57.6174 193.018 61.6724 201.905 60.8097 202.336C59.9469 202.854 54.4251 194.744 49.0758 183.873C46.4012 178.437 44.3305 173.347 43.1226 169.637C41.8284 165.754 41.4833 163.338 41.9147 163.166Z" fill="#6B1B12"/>
<path d="M48.8171 163.166C49.3348 162.993 50.5426 165.15 52.3545 168.601C54.1663 172.053 56.5821 176.884 59.2567 182.32C64.5197 193.018 68.5748 201.905 67.712 202.336C66.8492 202.854 61.3274 194.744 55.9782 183.873C53.3035 178.437 51.2328 173.347 50.0249 169.637C48.7308 165.754 48.3857 163.338 48.8171 163.166Z" fill="#6B1B12"/>
<path d="M130.954 189.48C130.609 189.135 132.334 186.547 134.836 182.147C136.131 179.99 137.511 177.315 138.891 174.382C140.186 171.362 141.48 167.997 142.256 164.373C143.033 160.75 143.119 157.299 142.515 154.193C142.429 153.761 142.343 153.416 142.256 153.071C142.17 152.726 142.084 152.295 141.997 151.949C141.739 151.259 141.566 150.569 141.307 149.879C140.79 148.585 140.186 147.463 139.495 146.428C138.201 144.443 136.734 143.235 135.613 142.459C134.491 141.682 133.801 141.251 133.887 140.992C133.974 140.733 134.836 140.733 136.217 141.165C137.684 141.596 139.668 142.718 141.48 144.875C142.343 145.91 143.205 147.204 143.982 148.585C144.413 149.275 144.672 150.051 145.017 150.828C145.19 151.259 145.276 151.691 145.449 152.036C145.621 152.467 145.707 152.898 145.794 153.33C146.656 156.867 146.656 160.922 145.794 164.891C145.017 168.946 143.55 172.484 141.911 175.59C140.358 178.696 138.633 181.284 136.993 183.355C133.801 187.755 131.299 189.826 130.954 189.48Z" fill="#6B1B12"/>
<path d="M128.279 139.871C128.193 140.647 125.777 141.079 122.758 141.855C119.738 142.545 117.236 143.149 116.891 142.459C116.546 141.769 118.789 139.957 122.067 139.181C123.707 138.749 125.26 138.749 126.381 138.922C127.675 139.181 128.279 139.526 128.279 139.871Z" fill="#6B1B12"/>
<path d="M67.1081 137.282C67.0218 138.059 64.606 138.49 61.5862 139.267C58.5665 139.957 56.0644 140.561 55.7193 139.871C55.3742 139.181 57.6174 137.369 60.896 136.592C62.5353 136.161 64.0883 136.161 65.2099 136.333C66.5041 136.592 67.1943 136.937 67.1081 137.282Z" fill="#6B1B12"/>
<path d="M67.1081 141.165C67.0218 141.942 64.606 142.373 61.5862 143.15C58.5665 143.84 56.0644 144.444 55.7193 143.754C55.3742 143.063 57.6174 141.252 60.896 140.475C62.5353 140.044 64.0883 140.044 65.2099 140.216C66.5041 140.475 67.1943 140.82 67.1081 141.165Z" fill="#6B1B12"/>
<path d="M154.163 171.794H39.8441C37.946 171.794 36.6518 173.52 37.0832 175.331L40.103 186.806C40.4481 188.014 41.5697 188.963 42.8639 188.963H147.088L159.426 196.815C160.979 197.764 162.963 197.332 163.999 195.866L170.556 185.944C171.591 184.391 171.073 182.32 169.52 181.285L154.163 171.794Z" fill="#FFC0C9" stroke="#6B1B12" stroke-width="3" stroke-miterlimit="10"/>
<path d="M95.9251 231.584C95.58 231.153 97.0467 229.341 99.4625 226.58C101.965 223.819 105.416 220.023 109.298 215.968C117.063 207.685 123.534 201.214 124.311 201.818C125.087 202.422 119.738 210.101 111.887 218.384C108.004 222.525 104.122 226.063 101.188 228.392C98.3409 230.808 96.2702 231.93 95.9251 231.584Z" fill="#6B1B12"/>
<path d="M105.588 183.614C99.8938 183.614 94.7171 181.975 90.9209 179.041L90.0581 178.438L90.4895 177.488C90.7483 176.885 97.9094 162.303 108.694 160.837C109.212 160.75 109.73 160.75 110.161 160.75C113.526 160.75 116.287 162.39 118.185 165.496C120.773 169.81 120.859 176.022 119.738 178.092C117.926 181.457 112.232 183.614 105.588 183.614ZM100.411 178.006C101.533 178.438 102.914 178.61 104.467 178.61C108.953 178.61 113.44 176.971 114.647 175.849C114.993 175.504 115.338 173.347 114.647 171.88C114.13 170.845 113.439 170.672 113.008 170.672H112.922C107.141 170.931 102.396 175.763 100.411 178.006Z" fill="#FFC0C9"/>
<path d="M110.247 162.045C119.134 162.045 120.083 174.987 118.616 177.489C117.063 180.336 111.628 182.32 105.588 182.32C100.757 182.32 95.6662 181.112 91.7837 178.006C91.7837 178.006 98.8585 163.425 108.953 162.131C109.384 162.131 109.816 162.045 110.247 162.045ZM104.467 179.904C108.953 179.904 113.871 178.351 115.51 176.798C116.804 175.591 116.891 169.379 113.008 169.379C112.922 169.379 112.922 169.379 112.836 169.379C104.467 169.724 98.3408 178.438 98.3408 178.438C99.9801 179.473 102.223 179.904 104.467 179.904ZM110.247 159.457C109.73 159.457 109.126 159.457 108.608 159.543C97.2192 161.01 89.713 176.195 89.4542 176.885L88.5051 178.783L90.1444 180.077C94.1132 183.183 99.635 184.909 105.588 184.909C111.541 184.909 118.616 183.011 120.946 178.783C122.412 176.108 122.067 169.379 119.393 164.892C117.322 161.441 114.044 159.457 110.247 159.457ZM102.914 177.23C105.157 174.987 108.78 172.139 113.008 171.967H113.094C113.267 171.967 113.353 171.967 113.44 172.226C113.871 173.002 113.871 174.469 113.698 175.073C112.404 176.022 108.349 177.402 104.553 177.402C103.949 177.316 103.431 177.316 102.914 177.23Z" fill="#6B1B12"/>
<path d="M77.8931 183.614C71.1634 183.614 65.469 181.457 63.6572 178.179C62.5355 176.108 62.6218 169.896 65.2102 165.582C67.022 162.476 69.7829 160.837 73.234 160.837C73.7517 160.837 74.1831 160.837 74.7008 160.923C85.3993 162.304 92.5603 176.885 92.9055 177.575L93.3368 178.524L92.4741 179.128C88.7641 182.061 83.5874 183.614 77.8931 183.614ZM70.3868 170.673C69.8692 170.673 69.1789 170.759 68.7475 171.881C68.0573 173.347 68.4024 175.504 68.7475 175.849C69.9554 176.971 74.4419 178.61 78.9284 178.61C80.4814 178.61 81.9481 178.438 82.9835 178.006C80.9991 175.763 76.2538 170.931 70.4731 170.673H70.3868Z" fill="#FFC0C9"/>
<path d="M73.2339 162.045C73.6653 162.045 74.0967 162.045 74.5281 162.131C84.7089 163.512 91.6975 178.006 91.6975 178.006C87.8149 181.026 82.6382 182.32 77.8929 182.32C71.8535 182.32 66.4179 180.336 64.8649 177.489C63.3982 174.987 64.2609 162.045 73.2339 162.045ZM78.9282 179.904C81.2577 179.904 83.4147 179.473 84.9677 178.438C84.9677 178.438 78.842 169.724 70.473 169.379C70.3867 169.379 70.3867 169.379 70.3004 169.379C66.4179 169.379 66.4179 175.591 67.7984 176.798C69.5239 178.351 74.4418 179.904 78.9282 179.904ZM73.2339 159.457C69.4376 159.457 66.1591 161.355 64.0884 164.806C61.4138 169.379 61.0686 176.022 62.5354 178.697C64.8649 182.924 71.9397 184.822 77.8929 184.822C83.8461 184.822 89.3679 183.097 93.3367 179.991L94.976 178.697L94.0269 176.798C93.6818 176.195 86.2619 161.01 74.8732 159.457C74.2692 159.543 73.7516 159.457 73.2339 159.457ZM69.7828 174.987C69.6102 174.383 69.5239 172.916 70.0416 172.139C70.2141 171.881 70.2142 171.881 70.3867 171.881H70.473C74.7006 172.053 78.3243 174.9 80.5675 177.144C80.0499 177.23 79.5322 177.23 78.9282 177.23C75.0457 177.316 70.9907 176.022 69.7828 174.987Z" fill="#6B1B12"/>
<path d="M83.2421 208.117C83.1558 208.031 81.0851 206.047 78.9282 201.474C78.238 201.56 77.634 201.647 76.9438 201.647C74.528 201.647 73.0613 200.87 72.8887 200.784L71.7671 200.18L72.2848 199.058C80.0498 182.406 84.6226 179.732 85.1402 179.473C85.2265 179.387 87.1246 178.524 89.1953 178.524C90.4895 178.524 91.6974 178.869 92.5602 179.559L93.6818 180.422L92.7327 181.457C84.7088 190.43 85.4854 206.909 85.4854 206.996L85.6579 210.274L83.2421 208.117Z" fill="#FFC0C9"/>
<path d="M89.109 179.904C89.9718 179.904 90.9209 180.077 91.6974 180.681C83.2421 190.171 84.1912 207.168 84.1912 207.168C84.1912 207.168 81.9479 205.011 79.7047 199.921C78.6693 200.18 77.8065 200.266 76.9438 200.266C74.7868 200.266 73.4926 199.576 73.4926 199.576C81.2577 182.838 85.7442 180.595 85.7442 180.595C85.7442 180.595 87.2972 179.904 89.109 179.904ZM89.109 177.316C86.7795 177.316 84.7951 178.265 84.5362 178.351C83.5872 178.783 78.8419 181.802 71.0769 198.54L70.0415 200.784L72.2848 201.905C72.4573 201.992 74.2691 202.854 76.9438 202.854C77.3752 202.854 77.8066 202.854 78.1517 202.768C80.2224 206.823 82.1205 208.721 82.3793 208.98L87.1246 213.467L86.7795 206.909C86.7795 206.737 86.003 190.862 93.6818 182.234L95.4936 180.163L93.2504 178.438C92.1288 177.747 90.7483 177.316 89.109 177.316Z" fill="#6B1B12"/>
<path d="M97.9093 207.168C97.9093 206.996 98.6859 190.603 90.662 181.63L89.7129 180.594L90.8346 179.732C91.7836 179.041 92.9052 178.696 94.1994 178.696C96.0112 178.696 97.6505 179.387 98.0819 179.559C99.2898 179.904 109.643 183.7 112.145 199.834L112.232 200.438L111.886 200.87C111.8 200.956 110.247 202.854 107.4 202.854C106.796 202.854 106.192 202.768 105.674 202.595C103.172 207.254 99.7212 208.462 99.5486 208.462L97.7368 209.066L97.9093 207.168Z" fill="#FFC0C9"/>
<path d="M94.2857 179.904C96.0976 179.904 97.7369 180.681 97.7369 180.681C97.7369 180.681 108.435 183.787 110.937 200.007C110.937 200.007 109.73 201.474 107.486 201.474C106.796 201.474 105.933 201.301 105.071 200.956C102.827 206.047 99.2036 207.254 99.2036 207.254C99.2036 207.254 100.153 190.258 91.6974 180.767C92.4739 180.077 93.423 179.904 94.2857 179.904ZM94.2857 177.316C92.6464 177.316 91.266 177.747 90.1443 178.61L87.9011 180.336L89.7129 182.406C97.3917 191.034 96.6152 206.909 96.6152 207.082L96.4427 210.878L100.066 209.67C100.498 209.498 103.776 208.29 106.365 203.976C106.71 204.062 107.141 204.062 107.486 204.062C110.851 204.062 112.749 201.905 112.922 201.646L113.612 200.784L113.439 199.662C110.851 183.097 100.325 178.955 98.5997 178.351C98.082 178.006 96.2701 177.316 94.2857 177.316Z" fill="#6B1B12"/>
<path d="M91.6976 184.045C88.6779 184.045 86.1758 181.543 86.1758 178.523C86.1758 175.504 88.6779 173.001 91.6976 173.001C94.7174 173.001 97.2194 175.504 97.2194 178.523C97.2194 181.543 94.7174 184.045 91.6976 184.045Z" fill="#FFC0C9"/>
<path d="M91.6976 174.296C94.0271 174.296 95.9252 176.194 95.9252 178.523C95.9252 180.853 94.0271 182.751 91.6976 182.751C89.3681 182.751 87.4699 180.853 87.4699 178.523C87.4699 176.194 89.3681 174.296 91.6976 174.296ZM91.6976 171.708C87.9014 171.708 84.8816 174.727 84.8816 178.523C84.8816 182.32 87.9014 185.34 91.6976 185.34C95.4938 185.34 98.5136 182.32 98.5136 178.523C98.5136 174.727 95.4938 171.708 91.6976 171.708Z" fill="#6B1B12"/>
<path d="M138.115 178.351C143.881 178.351 148.555 177.733 148.555 176.971C148.555 176.208 143.881 175.59 138.115 175.59C132.349 175.59 127.675 176.208 127.675 176.971C127.675 177.733 132.349 178.351 138.115 178.351Z" fill="#6B1B12"/>
<path d="M161.41 179.904C161.669 180.335 160.116 181.716 157.959 183.01C155.802 184.304 153.818 184.994 153.559 184.649C153.3 184.218 154.853 182.837 157.01 181.543C159.167 180.249 161.151 179.473 161.41 179.904Z" fill="#6B1B12"/>
<path d="M164.516 181.716C164.775 182.147 163.222 183.527 161.065 184.822C158.908 186.116 156.924 186.806 156.665 186.461C156.406 186.029 157.959 184.649 160.116 183.355C162.273 181.974 164.257 181.284 164.516 181.716Z" fill="#6B1B12"/>
<path d="M101.361 237.624H122.067" stroke="#6B1B12" stroke-width="3" stroke-miterlimit="10"/>
<path d="M111.714 228.133H132.507" stroke="#6B1B12" stroke-width="3" stroke-miterlimit="10"/>
<path d="M120.601 218.643H141.394" stroke="#6B1B12" stroke-width="3" stroke-miterlimit="10"/>
<path d="M130.954 208.462H151.747" stroke="#6B1B12" stroke-width="3" stroke-miterlimit="10"/>
<path d="M138.201 198.454H158.994" stroke="#6B1B12" stroke-width="3" stroke-miterlimit="10"/>
<path d="M152.265 169.378H173.058" stroke="#6B1B12" stroke-width="3" stroke-miterlimit="10"/>
<path d="M153.559 158.766H174.352" stroke="#6B1B12" stroke-width="3" stroke-miterlimit="10"/>
<path d="M150.194 148.93H170.987" stroke="#6B1B12" stroke-width="3" stroke-miterlimit="10"/>
<path d="M144.586 139.439H165.379" stroke="#6B1B12" stroke-width="3" stroke-miterlimit="10"/>
</svg>
