<svg width="79" height="59" viewBox="0 0 79 59" fill="none" xmlns="http://www.w3.org/2000/svg">
<path d="M68.1 53.41C68.6 52.71 79.8 35.51 76.7 19.81C74.9 10.31 70.3 5.91001 66.9 3.81001C62.8 1.31001 58.6 1.31001 56.1 2.01001C55.8 2.11001 55.6 2.21001 55.3 2.31001C51.8 3.71001 48.6 7.41001 48 11.71C44.5 8.91001 38 5.51002 30.4 8.61002C29.3 9.11002 28.1 9.71001 27 10.41C21.4 14.11 18.8 19.31 19.7 25.11C21 33.41 29.3 41.21 39.9 44.11C43.9 45.21 47.5 45.91 50.6 46.51C58.1 47.91 63 48.91 65.4 53.41L66.6 55.71L68.1 53.41Z" fill="#ACDEDF" stroke="#6B1B12" stroke-width="3" stroke-miterlimit="10"/>
<path d="M30.9 10.01C41.5 5.61002 49.6 15.31 49.6 15.31C48.4 10.11 51.9 5.31002 55.8 3.71002C56 3.61002 56.3 3.51002 56.5 3.51002C61.5 1.91002 72.2001 4.71003 75.2001 20.11C78.2001 35.41 66.8 52.61 66.8 52.61C62.9 45.31 53.9 46.21 40.3 42.61C23.5 38.01 13.7 21.01 27.8 11.71C28.8 11.01 29.8 10.41 30.9 10.01ZM29.7001 7.11003C28.5001 7.61003 27.2001 8.31002 26.1001 9.01002C19.9001 13.11 17.1001 18.81 18.2001 25.31C19.6001 34.21 28.4001 42.51 39.6 45.51C43.6 46.61 47.2 47.31 50.4 47.91C58.3 49.41 62.1001 50.31 64.1001 54.01L66.6001 58.71L69.5 54.31C70 53.61 81.5 35.91 78.4 19.51C76.5 9.51003 71.6 4.71002 67.8 2.41002C64 0.110018 59.3001 -0.589976 55.7001 0.510024C55.4001 0.610024 55.1 0.710027 54.8 0.810027C51.5 2.21003 48.5001 5.21002 47.2001 9.01002C43.0001 6.41002 36.8001 4.21003 29.7001 7.11003Z" fill="#6B1B12"/>
<path d="M40.3 42.5102C23.5 37.9102 13.7 20.9102 27.8 11.6102C39.9 3.61018 49.6 15.3102 49.6 15.3102C39.7 7.01018 29 15.8102 28.8 21.1102C28.5 27.1102 34.8 35.9102 52.7 38.3102C70.5 40.7102 66.9 52.5102 66.9 52.5102C62.9 45.3102 53.8 46.2102 40.3 42.5102Z" fill="#87C9C7"/>
<path d="M49.4 37.81C49.5 37.31 47.7 36.81 45.1 35.81C42.5 34.81 38.7 33.41 35.4 31.01C33.8 29.81 32.4 28.41 31.5 27.01C31 26.31 30.7 25.61 30.4 24.81C30.1 24.11 29.9 23.41 29.8 22.81C29.3 20.31 30.1 18.61 29.7 18.41C29.5 18.31 29.1 18.51 28.5 19.31C28 20.01 27.5 21.41 27.5 23.01C27.5 23.81 27.6 24.71 27.8 25.61C28 26.51 28.4 27.51 28.9 28.51C29.9 30.41 31.5 32.21 33.4 33.71C37.3 36.61 41.5 37.71 44.4 38.11C47.4 38.51 49.3 38.31 49.4 37.81Z" fill="#6B1B12"/>
<path d="M31.5 15.71C31.9 16.11 33.2 15.51 34.7 14.71C36.2 13.91 37.4 13.01 37.3 12.51C37.2 11.91 35.4 11.91 33.7 12.81C31.9 13.71 31.1 15.31 31.5 15.71Z" fill="#6B1B12"/>
<path d="M72.1001 22.21C72.4001 22.21 72.5001 21.11 72.4001 19.31C72.2001 17.61 71.6 15.21 70.3 12.81C68.9 10.41 67.0001 8.71003 65.5001 7.81003C63.9001 6.91003 62.8001 6.81003 62.7001 7.11003C62.6001 7.41003 63.4001 8.01003 64.6001 9.11003C65.8001 10.21 67.2001 11.81 68.4001 13.91C70.8001 18.21 71.4001 22.31 72.1001 22.21Z" fill="#6B1B12"/>
<path d="M63.5001 10.7099C63.1001 11.2099 64.3001 12.6099 65.5001 14.5099C66.7001 16.3099 67.6001 18.0099 68.2001 17.8099C68.8001 17.7099 68.8001 15.5099 67.3001 13.3099C66.6001 12.2099 65.7001 11.4099 65.0001 11.0099C64.2001 10.5099 63.7001 10.5099 63.5001 10.7099Z" fill="#6B1B12"/>
<path d="M10.6 30.8099C10.4 30.9099 10.1 30.7099 9.60005 30.3099C9.40005 30.1099 9.10003 29.8099 8.80003 29.4099C8.50003 29.0099 8.20004 28.6099 7.90004 28.1099C7.60004 27.6099 7.30004 27.0099 7.00004 26.4099C6.70004 25.8099 6.50003 25.0099 6.30003 24.3099C6.10003 23.5099 6.00004 22.7099 5.90004 21.8099C5.80004 21.4099 5.90004 20.9099 5.90004 20.5099C5.90004 20.0099 5.90004 19.6099 6.00004 19.1099C6.20004 17.2099 6.90005 15.6099 7.70005 14.2099C8.50005 12.8099 9.50003 11.7099 10.3 11.0099C12.1 9.4099 13.5 9.0099 13.8 9.4099C14 9.8099 13.1 10.8099 12 12.5099C11.4 13.3099 10.8 14.4099 10.3 15.6099C9.80003 16.8099 9.30005 18.1099 9.20005 19.6099C9.10005 20.0099 9.10005 20.3099 9.10005 20.7099C9.10005 21.1099 9.00005 21.4099 9.10005 21.8099C9.20005 22.5099 9.20003 23.2099 9.30003 23.8099C9.40003 24.5099 9.50005 25.1099 9.60005 25.7099C9.80005 26.3099 9.90004 26.8099 10 27.3099C10.1 27.8099 10.3 28.3099 10.4 28.7099C10.5 29.1099 10.6001 29.5099 10.7001 29.8099C10.8001 30.3099 10.8 30.7099 10.6 30.8099Z" fill="#6B1B12"/>
<path d="M3.60001 27.0099C3.30001 27.2099 2.4 26.6099 1.5 25.3099C1.3 25.0099 1.09999 24.6099 0.799988 24.1099C0.599988 23.7099 0.399988 23.1099 0.299988 22.6099C0.0999878 22.1099 0.1 21.5099 0 20.8099C0 20.2099 0 19.5099 0 18.8099C0.2 17.5099 0.700012 16.2099 1.20001 15.3099C1.80001 14.3099 2.50001 13.6099 3.20001 13.1099C4.50001 12.1099 5.59999 11.9099 5.79999 12.2099C5.99999 12.6099 5.49999 13.4099 4.79999 14.6099C4.39999 15.2099 4.10001 15.9099 3.70001 16.7099C3.40001 17.5099 3.1 18.4099 3 19.3099C2.9 19.8099 2.89999 20.2099 2.89999 20.7099C2.99999 21.2099 2.9 21.6099 3 22.0099C3.1 22.4099 3.10001 22.9099 3.20001 23.2099C3.30001 23.6099 3.39999 24.0099 3.39999 24.3099C3.79999 25.8099 4.00001 26.8099 3.60001 27.0099Z" fill="#6B1B12"/>
</svg>
