<svg width="57" height="51" viewBox="0 0 57 51" fill="none" xmlns="http://www.w3.org/2000/svg">
<path d="M40.7266 46.1252C41.0266 45.5252 48.1266 32.0252 44.6266 20.5252C42.6266 13.6252 38.9266 10.6252 36.1266 9.32519C32.8266 7.82519 29.7266 8.02519 27.9266 8.82519C27.7266 8.92519 27.5266 9.02518 27.3266 9.12518C24.8266 10.4252 22.7266 13.3252 22.6266 16.6252C19.8266 14.8252 14.7266 12.7252 9.3266 15.6252C8.5266 16.0252 7.72659 16.6252 6.92659 17.2252C3.02659 20.4252 1.52659 24.4252 2.62659 28.7252C4.22659 34.8252 11.0266 39.9252 19.0266 41.3252C22.0266 41.8252 24.7266 42.1252 27.1266 42.3252C32.8266 42.8252 36.5266 43.2252 38.6266 46.3252L39.7266 47.9252L40.7266 46.1252Z" fill="#FCD7AB" stroke="#6B1B12" stroke-width="3" stroke-miterlimit="10"/>
<path d="M9.82667 16.625C17.4267 12.625 24.1267 19.225 24.1267 19.225C22.9267 15.525 25.1267 11.625 27.9267 10.125C28.1267 10.025 28.2267 9.92499 28.4267 9.92499C32.0267 8.42499 40.2266 9.72499 43.5266 20.925C46.8266 32.125 39.6267 45.725 39.6267 45.725C36.2267 40.625 29.5267 41.925 19.2267 40.225C6.42666 38.025 -2.07334 26.125 7.62666 18.225C8.42666 17.425 9.12667 17.025 9.82667 16.625ZM8.72666 14.525C7.82666 15.025 7.02666 15.525 6.12666 16.225C1.82666 19.725 0.12666 24.225 1.42666 28.925C3.12666 35.425 10.3267 40.925 18.8267 42.425C21.9267 42.925 24.6267 43.225 27.0267 43.425C33.0267 43.925 35.9267 44.325 37.6267 46.925L39.8267 50.225L41.6267 46.725C41.9267 46.125 49.2267 32.125 45.6267 20.225C43.4267 12.925 39.4266 9.72498 36.5266 8.32498C33.5266 6.92498 30.0267 6.72498 27.4267 7.82498C27.2267 7.92498 26.9267 8.02497 26.7267 8.12497C24.3267 9.32497 22.3267 11.825 21.6267 14.725C18.6267 13.025 13.8267 11.825 8.72666 14.525Z" fill="#6B1B12"/>
<path d="M19.2267 40.0249C6.42666 37.8249 -2.07335 25.9249 7.62665 18.0249C16.0267 11.2249 24.1267 19.1249 24.1267 19.1249C16.1267 13.7249 8.82665 21.0249 9.02665 24.9249C9.22665 29.4249 14.6266 35.5249 28.0266 35.9249C41.4266 36.4249 39.6267 45.4249 39.6267 45.4249C36.2267 40.4249 29.6267 41.8249 19.2267 40.0249Z" fill="#E5B587"/>
<path d="M25.6266 35.9251C25.6266 35.6251 24.3266 35.3251 22.2266 34.7251C20.2266 34.1251 17.3266 33.4251 14.7266 31.8251C13.4266 31.0251 12.3266 30.1251 11.5266 29.1251C11.1266 28.6251 10.8266 28.1251 10.5266 27.6251C10.2266 27.1251 10.0267 26.6251 9.92666 26.1251C9.32666 24.3251 9.82663 23.0251 9.52663 22.8251C9.42663 22.7251 9.02665 23.0251 8.72665 23.6251C8.42665 24.2251 8.12665 25.2251 8.22665 26.4251C8.32665 27.0251 8.42664 27.7251 8.62664 28.3251C8.82664 29.0251 9.22664 29.7251 9.62664 30.3251C10.5266 31.7251 11.8267 32.9251 13.4267 33.8251C16.5267 35.6251 19.7267 36.1251 21.9267 36.3251C24.2267 36.5251 25.6266 36.2251 25.6266 35.9251Z" fill="#6B1B12"/>
<path d="M10.7266 20.7252C11.1266 21.0252 12.0266 20.4252 13.0266 19.7252C14.1266 19.0252 14.9266 18.3252 14.7266 17.8252C14.6266 17.4252 13.3266 17.5252 12.0266 18.3252C10.9266 19.3252 10.4266 20.5252 10.7266 20.7252Z" fill="#6B1B12"/>
<path d="M41.4266 22.6249C41.6266 22.6249 41.7266 21.7249 41.4266 20.5249C41.2266 19.2249 40.5266 17.5249 39.3266 15.8249C38.1266 14.1249 36.6266 13.0249 35.4266 12.5249C34.2266 11.9249 33.3266 11.9249 33.3266 12.2249C33.2266 12.4249 33.9266 12.8249 34.9266 13.5249C35.9266 14.2249 37.1266 15.3249 38.1266 16.8249C40.1266 19.7249 40.9266 22.8249 41.4266 22.6249Z" fill="#6B1B12"/>
<path d="M34.1266 14.7248C33.9266 15.1248 34.9266 16.1248 35.9266 17.4248C36.9266 18.7248 37.7266 19.8248 38.1266 19.7248C38.5266 19.6248 38.4266 17.9248 37.1266 16.4248C36.5266 15.6248 35.8266 15.1248 35.2266 14.8248C34.7266 14.5248 34.2266 14.5248 34.1266 14.7248Z" fill="#6B1B12"/>
<path d="M42.6268 2.12494C42.7268 1.92494 43.7268 1.92496 45.4268 2.42496C45.8268 2.62496 46.2268 2.72496 46.7268 2.92496C47.2268 3.12496 47.6268 3.42496 48.1268 3.82496C48.6268 4.12496 49.0268 4.62494 49.5268 5.02494C49.9268 5.52494 50.4268 6.02494 50.8268 6.62494C51.6268 7.82494 52.0268 9.02495 52.3268 10.225C52.5268 11.425 52.5268 12.425 52.4268 13.325C52.2268 15.025 51.6268 16.025 51.3268 15.925C51.0268 15.825 51.1268 14.825 50.9268 13.325C50.8268 12.525 50.7268 11.625 50.4268 10.725C50.1268 9.82495 49.7268 8.82496 49.1268 7.82496C48.8268 7.32496 48.4268 6.92494 48.1268 6.52494C47.7268 6.12494 47.4268 5.72496 47.0268 5.42496C46.6268 5.12496 46.2268 4.82494 45.9268 4.52494C45.5268 4.32494 45.2268 4.02496 44.8268 3.82496C43.3268 3.02496 42.5268 2.42494 42.6268 2.12494Z" fill="#6B1B12"/>
<path d="M49.2267 0.225C49.3267 -0.075 50.0267 -0.075 51.2267 0.225C52.3267 0.525 54.0267 1.42499 55.1267 3.12499C55.7267 3.92499 56.0267 4.825 56.1267 5.725C56.2267 6.525 56.2267 7.32501 56.1267 7.92501C55.9267 9.12501 55.4267 9.825 55.1267 9.725C54.8267 9.625 54.8267 8.92501 54.6267 7.92501C54.5267 7.42501 54.4267 6.825 54.2267 6.225C54.0267 5.625 53.7267 4.92501 53.3267 4.32501C52.5267 3.12501 51.4267 2.22499 50.5267 1.62499C49.7267 0.924994 49.1267 0.525 49.2267 0.225Z" fill="#6B1B12"/>
</svg>
