<svg width="79" height="59" viewBox="0 0 79 59" fill="none" xmlns="http://www.w3.org/2000/svg">
<path d="M68.0001 53.41C68.5001 52.71 79.7001 35.51 76.6001 19.81C74.8001 10.31 70.2001 5.91001 66.8001 3.81001C62.7001 1.31001 58.5001 1.31001 56.0001 2.01001C55.7001 2.11001 55.5001 2.21001 55.2001 2.31001C51.7001 3.71001 48.5001 7.41001 47.9001 11.71C44.4001 8.91001 37.9001 5.51002 30.3001 8.61002C29.2001 9.11002 28.0001 9.71001 26.9001 10.41C21.3001 14.11 18.7001 19.31 19.6001 25.11C20.9001 33.41 29.2001 41.21 39.8001 44.11C43.8001 45.21 47.4001 45.91 50.5001 46.51C58.0001 47.91 62.9001 48.91 65.3001 53.41L66.5001 55.71L68.0001 53.41Z" fill="#ACDEDF" stroke="#4D0D06" stroke-width="3" stroke-miterlimit="10"/>
<path d="M30.8001 10.01C41.4001 5.61002 49.5 15.31 49.5 15.31C48.3 10.11 51.8001 5.31002 55.7001 3.71002C55.9001 3.61002 56.2 3.51002 56.4 3.51002C61.4 1.91002 72.1001 4.71003 75.1001 20.11C78.1001 35.41 66.7001 52.61 66.7001 52.61C62.8001 45.31 53.8001 46.21 40.2001 42.61C23.4001 38.01 13.6001 21.01 27.7001 11.71C28.8001 11.01 29.8001 10.41 30.8001 10.01ZM29.7001 7.11003C28.5001 7.61003 27.2001 8.31002 26.1001 9.01002C19.9001 13.11 17.1001 18.81 18.2001 25.31C19.6001 34.21 28.4001 42.51 39.6 45.51C43.6 46.61 47.2 47.31 50.4 47.91C58.3 49.41 62.1001 50.31 64.1001 54.01L66.6001 58.71L69.5 54.31C70 53.61 81.5 35.91 78.4 19.51C76.5 9.51003 71.6001 4.71002 67.8001 2.41002C64.0001 0.110018 59.3001 -0.589976 55.7001 0.510024C55.4001 0.610024 55.1001 0.710027 54.8001 0.810027C51.5001 2.21003 48.5001 5.21002 47.2001 9.01002C42.9001 6.41002 36.8001 4.21003 29.7001 7.11003Z" fill="#4D0D06"/>
<path d="M40.3001 42.5099C23.5001 37.9099 13.7001 20.9099 27.8001 11.6099C39.9001 3.60994 49.6001 15.3099 49.6001 15.3099C39.7001 7.00993 29.0001 15.8099 28.8001 21.1099C28.5001 27.1099 34.8001 35.9099 52.7001 38.3099C70.5001 40.7099 66.9001 52.5099 66.9001 52.5099C62.9001 45.3099 53.8001 46.2099 40.3001 42.5099Z" fill="#87C9C7"/>
<path d="M49.3 37.81C49.4 37.31 47.6 36.81 45 35.81C42.4 34.81 38.6 33.41 35.3 31.01C33.7 29.81 32.3 28.41 31.4 27.01C30.9 26.31 30.6 25.61 30.3 24.81C30 24.11 29.8 23.41 29.7 22.81C29.2 20.31 30 18.61 29.6 18.41C29.4 18.31 29 18.51 28.4 19.31C27.9 20.01 27.4 21.41 27.4 23.01C27.4 23.81 27.5 24.71 27.7 25.61C27.9 26.51 28.3 27.51 28.8 28.51C29.8 30.41 31.4 32.21 33.3 33.71C37.2 36.61 41.4 37.71 44.3 38.11C47.4 38.51 49.3 38.31 49.3 37.81Z" fill="#4D0D06"/>
<path d="M31.5 15.71C31.9 16.11 33.2 15.51 34.7 14.71C36.2 13.91 37.4 13.01 37.3 12.51C37.2 11.91 35.4 11.91 33.7 12.81C31.9 13.71 31.1 15.31 31.5 15.71Z" fill="#4D0D06"/>
<path d="M72.1001 22.21C72.4001 22.21 72.5001 21.11 72.4001 19.31C72.2001 17.61 71.6001 15.21 70.3001 12.81C68.9001 10.41 67.0001 8.71003 65.5001 7.81003C63.9001 6.91003 62.8001 6.81003 62.7001 7.11003C62.6001 7.41003 63.4001 8.01003 64.6001 9.11003C65.8001 10.21 67.2001 11.81 68.4001 13.91C70.8001 18.21 71.4001 22.31 72.1001 22.21Z" fill="#4D0D06"/>
<path d="M63.5001 10.7099C63.1001 11.2099 64.3001 12.6099 65.5001 14.5099C66.7001 16.3099 67.6001 18.0099 68.2001 17.8099C68.8001 17.7099 68.8001 15.5099 67.3001 13.3099C66.6001 12.2099 65.7001 11.4099 65.0001 11.0099C64.2001 10.5099 63.6001 10.5099 63.5001 10.7099Z" fill="#4D0D06"/>
<path d="M10.6 30.8099C10.4 30.9099 10.1 30.7099 9.60005 30.3099C9.40005 30.1099 9.10006 29.8099 8.80006 29.4099C8.50006 29.0099 8.20004 28.6099 7.90004 28.1099C7.60004 27.6099 7.30004 27.0099 7.00004 26.4099C6.70004 25.8099 6.50006 25.0099 6.30006 24.3099C6.10006 23.5099 6.00004 22.7099 5.90004 21.8099C5.80004 21.4099 5.90004 20.9099 5.90004 20.5099C5.90004 20.0099 5.90004 19.6099 6.00004 19.1099C6.20004 17.2099 6.90005 15.6099 7.70005 14.2099C8.50005 12.8099 9.50006 11.7099 10.3001 11.0099C12.1001 9.4099 13.5001 9.0099 13.8001 9.4099C14.0001 9.8099 13.1 10.8099 12 12.5099C11.4 13.3099 10.8001 14.4099 10.3001 15.6099C9.80006 16.8099 9.30005 18.1099 9.20005 19.6099C9.10005 20.0099 9.10005 20.3099 9.10005 20.7099C9.10005 21.1099 9.00005 21.4099 9.10005 21.8099C9.20005 22.5099 9.20006 23.2099 9.30006 23.8099C9.40006 24.5099 9.50005 25.1099 9.60005 25.7099C9.80005 26.3099 9.90004 26.8099 10 27.3099C10.1 27.8099 10.3 28.3099 10.4 28.7099C10.5 29.1099 10.6001 29.5099 10.7001 29.8099C10.8001 30.3099 10.8 30.7099 10.6 30.8099Z" fill="#4D0D06"/>
<path d="M3.60001 27.0101C3.30001 27.2101 2.4 26.6101 1.5 25.3101C1.3 25.0101 1.10002 24.6101 0.800018 24.1101C0.600018 23.7101 0.400018 23.1101 0.300018 22.6101C0.100018 22.1101 0.1 21.5101 0 20.8101C0 20.2101 0 19.5101 0 18.8101C0.2 17.5101 0.700012 16.2101 1.20001 15.3101C1.80001 14.3101 2.50001 13.6101 3.20001 13.1101C4.50001 12.1101 5.60002 11.9101 5.80002 12.2101C6.00002 12.6101 5.50002 13.4101 4.80002 14.6101C4.40002 15.2101 4.10001 15.9101 3.70001 16.7101C3.40001 17.5101 3.1 18.4101 3 19.3101C2.9 19.8101 2.89999 20.2101 2.89999 20.7101C2.99999 21.2101 2.9 21.6101 3 22.0101C3.1 22.4101 3.10001 22.9101 3.20001 23.2101C3.30001 23.6101 3.39999 24.0101 3.39999 24.3101C3.79999 25.8101 4.00001 26.8101 3.60001 27.0101Z" fill="#4D0D06"/>
</svg>
