<svg width="236" height="106" viewBox="0 0 236 106" fill="none" xmlns="http://www.w3.org/2000/svg">
<path fill-rule="evenodd" clip-rule="evenodd" d="M61.1313 14.8043C60.0265 14.8043 59.1058 13.8836 59.1058 12.7788C59.1058 11.674 60.0265 10.7534 61.1313 10.7534H233.109C234.214 10.7534 235.135 11.674 235.135 12.7788C235.135 13.8836 234.214 14.8043 233.109 14.8043H61.1313ZM61.1313 35.2428C60.0265 35.2428 59.1058 34.3221 59.1058 33.2173C59.1058 32.1125 60.0265 31.1919 61.1313 31.1919H233.109C234.214 31.1919 235.135 32.1125 235.135 33.2173C235.135 34.3221 234.214 35.2428 233.109 35.2428H61.1313ZM61.1313 55.4971C60.0265 55.4971 59.1058 54.5765 59.1058 53.4717C59.1058 52.3669 60.0265 51.4462 61.1313 51.4462H233.109C234.214 51.4462 235.135 52.3669 235.135 53.4717C235.135 54.5765 234.214 55.4971 233.109 55.4971H61.1313ZM61.1313 75.7515C60.0265 75.7515 59.1058 74.8308 59.1058 73.726C59.1058 72.6212 60.0265 71.7006 61.1313 71.7006H233.109C234.214 71.7006 235.135 72.6212 235.135 73.726C235.135 74.8308 234.214 75.7515 233.109 75.7515H61.1313ZM61.1313 96.19C60.0265 96.19 59.1058 95.2693 59.1058 94.1645C59.1058 93.0597 60.0265 92.1391 61.1313 92.1391H233.109C234.214 92.1391 235.135 93.0597 235.135 94.1645C235.135 95.2693 234.214 96.19 233.109 96.19H61.1313Z" fill="#DA474E"/>
<path fill-rule="evenodd" clip-rule="evenodd" d="M22.2798 56.2334C22.2798 56.2334 24.6735 51.8143 29.645 49.4206C29.4609 47.0269 29.4609 44.6331 29.2768 42.2394C28.5402 43.1601 27.8037 44.0808 27.0672 44.8173C22.2798 50.3412 17.8607 55.681 15.6511 60.8366C13.9939 64.8875 13.8098 69.1225 14.7304 72.8051C15.467 75.3829 16.7559 77.7767 18.7813 79.618C20.6226 81.2751 23.0163 82.564 25.5942 82.7481C26.5148 82.7481 27.2513 82.9323 28.172 82.7481C28.5402 79.2497 28.9085 75.1988 29.2768 70.5956L29.645 66.913C30.0133 62.8621 30.0133 58.443 30.0133 53.8397C29.645 54.0238 29.4609 54.2079 29.0926 54.3921C27.6196 56.0492 28.9085 56.9699 26.6989 58.8112C24.8576 60.6525 20.8068 58.9953 22.2798 56.2334ZM8.28587 92.6912C7.54935 94.5325 6.26045 96.9262 7.54936 98.5834C8.10175 99.1358 8.83827 99.6882 9.75892 100.056C11.4161 100.793 13.4415 101.345 16.0193 101.161C23.5687 100.977 26.1465 96.558 27.6196 86.6149C26.6989 86.6149 25.9624 86.6149 25.0418 86.6149C21.3591 86.2466 18.4131 84.7736 15.8352 82.3799C13.4415 80.1704 11.7844 77.2242 10.6796 73.7258C9.39066 69.1225 9.5748 63.9669 11.7844 59.1795C14.1781 53.6556 18.9655 47.9475 23.7529 42.2394C25.41 40.3981 27.0672 38.3727 28.5402 36.3473C28.3561 34.506 28.172 32.6647 28.172 31.0075C26.8831 15.3564 25.7783 2.83552 31.3022 1.91486C39.5881 0.625949 42.35 10.0166 42.5342 10.3849V10.569C44.3755 20.5121 39.2198 29.3503 32.5911 37.6362C32.7752 41.1347 33.1435 44.6332 33.3276 48.1316C34.6165 47.9475 35.9055 47.9475 37.3785 47.9475C40.1405 48.1316 42.7183 49.6047 44.7437 51.9984C46.7692 54.208 48.4263 57.3381 49.347 60.6525C50.0835 63.9668 50.0835 67.8336 48.6105 71.5162C47.1374 75.5671 43.8231 79.6179 38.4833 82.7481C36.0896 84.2212 33.6959 85.326 31.3022 85.8784C29.645 98.9517 26.5148 104.66 15.6511 105.028C12.3367 105.028 9.75893 104.476 7.54936 103.555C4.97154 102.266 3.13022 100.425 1.84131 98.2152C0.736522 96.1897 0.184131 93.796 0 91.5864C0 90.6658 1.12357e-05 89.9293 0.184142 89.0086C2.02545 81.6434 11.4161 84.7736 8.28587 92.6912ZM37.3785 51.9984C36.0896 51.8143 34.9848 51.9984 33.88 52.1825C34.0642 57.3382 34.0642 62.4938 33.6959 67.2812L33.3276 70.9638C32.9594 75.0147 32.7752 78.5131 32.407 81.8275C33.88 81.2751 35.3531 80.5386 37.0102 79.618C41.4294 76.856 44.1913 73.5416 45.4802 70.2273C46.585 67.2812 46.585 64.3351 46.0326 61.5731C45.4802 58.8112 44.1913 56.4175 42.5342 54.7603C40.877 53.2873 39.0357 52.1825 37.3785 51.9984ZM32.5911 31.744C37.1944 25.2995 40.3246 18.4866 39.0357 11.4897C38.8515 10.7532 36.8261 5.22923 32.407 5.96576C30.5657 6.33402 31.4863 17.1977 32.5911 30.8234V31.744Z" fill="#6B1B12"/>
<path fill-rule="evenodd" clip-rule="evenodd" d="M123.184 37.4519C124.104 35.4265 125.209 33.9535 126.682 32.8487C127.971 31.928 129.444 31.3756 130.733 31.1915C132.206 31.0073 133.679 31.3756 135.152 32.1121C137.177 33.2169 139.019 35.6106 139.939 38.925C141.044 43.3441 140.676 48.868 138.466 53.8395C136.625 58.0745 133.495 61.7572 128.707 64.1509C128.339 64.335 128.155 64.3349 127.787 64.3349C127.05 64.3349 119.501 63.9667 113.24 58.0745C106.796 51.9982 105.323 45.1854 106.428 40.2139C106.98 38.0043 108.085 35.9789 109.374 34.69C110.847 33.2169 112.872 32.4804 115.082 32.6645C117.844 32.8487 120.606 34.3217 123.184 37.4519Z" fill="#6C0B1B"/>
<path fill-rule="evenodd" clip-rule="evenodd" d="M84.7002 38.5568C84.8843 37.452 85.2526 36.5314 85.6208 35.7949C86.1732 34.8742 87.0939 34.1377 88.0145 33.5853C88.9352 33.0329 90.04 32.8488 91.1447 33.0329C92.8019 33.217 94.6432 34.3219 95.9321 36.3473C97.5893 38.741 98.8782 42.4236 98.6941 45.922C98.51 49.0523 97.5893 52.1825 95.1956 54.5762C95.0115 54.7603 94.6432 54.9444 94.275 55.1286C93.5384 55.3127 88.9352 56.7858 83.9637 54.7603C78.6239 52.5508 75.8619 48.684 75.3095 45.1855C75.1254 43.5284 75.3095 42.0553 75.8619 40.7664C76.5984 39.2934 77.7032 38.3727 79.1763 37.8203C80.8334 37.6362 82.6747 37.6362 84.7002 38.5568Z" fill="#6C0B1B"/>
<path fill-rule="evenodd" clip-rule="evenodd" d="M129.076 36.1628C127.603 37.2675 126.314 39.4771 125.945 42.4232C125.945 43.1597 125.577 43.7121 124.841 44.0803C123.92 44.6327 122.631 44.2645 122.079 43.3438C119.685 38.9247 117.107 36.8993 114.898 36.8993C113.793 36.8993 112.872 37.2675 112.136 38.0041C111.215 38.7406 110.663 40.0295 110.294 41.5025C109.374 45.3693 110.663 50.7091 116.002 55.6806C120.606 60.0997 125.761 60.6521 127.418 60.8362C130.917 58.9949 133.311 56.0489 134.784 52.7345C136.625 48.4995 136.993 43.8963 136.073 40.2136C135.52 38.0041 134.415 36.531 133.311 35.7945C132.758 35.4262 132.022 35.2421 131.285 35.4262C130.549 35.2421 129.812 35.6104 129.076 36.1628Z" fill="#F16B73"/>
<path fill-rule="evenodd" clip-rule="evenodd" d="M89.1192 38.0042C88.5668 38.9249 88.3827 40.2138 88.7509 41.871C88.9351 42.4234 88.7509 43.1599 88.3827 43.7123C87.6462 44.6329 86.3572 44.6329 85.6207 43.8964C83.4112 42.0551 81.5699 41.5027 80.6492 41.871C80.2809 42.0551 79.9127 42.2392 79.7285 42.7916C79.5444 43.344 79.3603 44.0805 79.5444 44.8171C79.9127 47.0266 81.754 49.6045 85.6207 51.2616C88.9351 52.5505 91.697 51.9981 92.8018 51.6299C94.2749 49.9727 94.8273 47.7631 95.0114 45.7377C95.1955 42.9758 94.2749 40.3979 92.9859 38.5566C92.2494 37.4518 91.5129 37.0835 90.9605 36.8994C90.5923 36.8994 90.4081 36.8994 90.0399 37.0836C89.4875 37.2677 89.3033 37.6359 89.1192 38.0042Z" fill="#F16B73"/>
<path fill-rule="evenodd" clip-rule="evenodd" d="M131.653 46.29L126.314 55.8648C125.025 58.2585 127.971 60.4681 132.39 51.2615C134.784 46.1059 132.758 44.817 131.653 46.29Z" fill="#6C0B1B"/>
<path fill-rule="evenodd" clip-rule="evenodd" d="M130.364 39.4774C128.891 40.9504 131.101 43.5283 132.758 41.687C133.863 40.3981 131.838 38.0044 130.364 39.4774Z" fill="#6C0B1B"/>
<path fill-rule="evenodd" clip-rule="evenodd" d="M123.184 37.4519C124.104 35.4265 125.209 33.9535 126.682 32.8487C127.971 31.928 129.444 31.3756 130.733 31.1915C132.206 31.0073 133.679 31.3756 135.152 32.1121C137.177 33.2169 139.019 35.6106 139.939 38.925C141.044 43.3441 140.676 48.868 138.466 53.8395C136.625 58.0745 133.495 61.7572 128.707 64.1509C128.339 64.335 128.155 64.3349 127.787 64.3349C127.05 64.3349 119.501 63.9667 113.24 58.0745C106.796 51.9982 105.323 45.1854 106.428 40.2139C106.98 38.0043 108.085 35.9789 109.374 34.69C110.847 33.2169 112.872 32.4804 115.082 32.6645C117.844 32.8487 120.606 34.3217 123.184 37.4519ZM129.076 36.163C127.603 37.2678 126.314 39.4773 125.945 42.4234C125.945 43.1599 125.577 43.7123 124.841 44.0806C123.92 44.633 122.631 44.2647 122.079 43.3441C119.685 38.9249 117.107 36.8995 114.898 36.8995C113.793 36.8995 112.872 37.2678 112.136 38.0043C111.215 38.7408 110.663 40.0297 110.294 41.5028C109.374 45.3695 110.663 50.7093 116.002 55.6808C120.606 60.1 125.761 60.6523 127.419 60.8365C130.917 58.9952 133.311 56.0491 134.784 52.7347C136.625 48.4997 136.993 43.8965 136.073 40.2139C135.52 38.0043 134.415 36.5312 133.311 35.7947C132.758 35.4265 132.022 35.2424 131.285 35.4265C130.549 35.2424 129.812 35.6106 129.076 36.163Z" fill="#6C0B1B"/>
<path fill-rule="evenodd" clip-rule="evenodd" d="M84.7002 38.5568C84.8843 37.452 85.2526 36.5314 85.6208 35.7949C86.1732 34.8742 87.0939 34.1377 88.0145 33.5853C88.9352 33.0329 90.04 32.8488 91.1447 33.0329C92.8019 33.217 94.6432 34.3219 95.9321 36.3473C97.5893 38.741 98.8782 42.4236 98.6941 45.922C98.51 49.0523 97.5893 52.1825 95.1956 54.5762C95.0115 54.7603 94.6432 54.9444 94.275 55.1286C93.5384 55.3127 88.9352 56.7858 83.9637 54.7603C78.6239 52.5508 75.8619 48.684 75.3095 45.1855C75.1254 43.5284 75.3095 42.0553 75.8619 40.7664C76.5984 39.2934 77.7032 38.3727 79.1763 37.8203C80.8334 37.6362 82.6747 37.6362 84.7002 38.5568ZM89.1193 38.0045C88.5669 38.9251 88.3828 40.214 88.751 41.8712C88.9352 42.4236 88.751 43.1601 88.3828 43.7125C87.6463 44.6332 86.3573 44.6332 85.6208 43.8967C83.4113 42.0554 81.57 41.5029 80.6493 41.8712C80.281 42.0553 79.9128 42.2395 79.7287 42.7919C79.5445 43.3443 79.3604 44.0808 79.5445 44.8173C79.9128 47.0269 81.7541 49.6047 85.6208 51.2619C88.9352 52.5508 91.6971 51.9984 92.8019 51.6301C94.275 49.9729 94.8274 47.7634 95.0115 45.738C95.1956 42.976 94.275 40.3981 92.986 38.5568C92.2495 37.452 91.513 37.0838 90.9606 36.8997C90.5924 36.8997 90.4082 36.8997 90.04 37.0838C89.4876 37.2679 89.3035 37.6362 89.1193 38.0045Z" fill="#6C0B1B"/>
<path fill-rule="evenodd" clip-rule="evenodd" d="M161.851 8.54365C163.508 7.07061 165.165 6.3341 167.006 5.96584C168.479 5.59758 170.137 5.78172 171.425 6.14998C172.898 6.70237 174.187 7.43888 175.108 8.72779C176.581 10.7532 177.133 13.5152 176.581 17.0137C175.66 21.4328 173.083 26.4043 169.032 30.0869C165.533 33.2172 161.114 35.2426 155.958 35.4267C155.59 35.4267 155.406 35.4267 155.038 35.2426C154.485 34.8743 147.673 31.56 144.542 23.4582C141.228 15.3565 142.701 8.35954 145.831 4.30867C147.304 2.46737 148.962 1.17844 150.987 0.441921C153.012 -0.294601 155.038 -0.110493 157.063 0.99429C158.905 2.09907 160.93 4.67691 161.851 8.54365Z" fill="#6C0B1B"/>
<path fill-rule="evenodd" clip-rule="evenodd" d="M167.743 9.83284C165.901 10.2011 163.876 11.6741 162.403 14.0678C162.035 14.6202 161.482 14.9885 160.746 15.1726C159.641 15.1726 158.72 14.4361 158.536 13.3313C158.168 8.17565 156.695 5.41366 154.669 4.49301C153.749 3.94061 152.828 3.94066 151.723 4.30892C150.619 4.67718 149.514 5.41368 148.593 6.70259C146.199 9.83281 145.095 15.3567 147.857 21.9854C150.25 27.8776 154.669 30.6396 155.958 31.3761C160.009 31.1919 163.324 29.5348 166.086 27.1411C169.4 24.195 171.794 19.96 172.346 16.2774C172.714 13.8837 172.53 12.2265 171.609 11.1217C171.241 10.5693 170.689 10.2011 169.952 9.83284C169.584 9.64871 168.663 9.64871 167.743 9.83284Z" fill="#F16B73"/>
<path fill-rule="evenodd" clip-rule="evenodd" d="M165.902 20.1439L157.063 26.5885C155.038 28.2457 156.511 31.3759 164.613 24.9313C168.848 21.2487 167.559 19.4074 165.902 20.1439Z" fill="#6C0B1B"/>
<path fill-rule="evenodd" clip-rule="evenodd" d="M167.743 13.5149C165.902 14.2514 166.638 17.5657 169.032 16.4609C170.505 15.9086 169.584 12.7784 167.743 13.5149Z" fill="#6C0B1B"/>
<path fill-rule="evenodd" clip-rule="evenodd" d="M161.851 8.54365C163.508 7.07061 165.165 6.3341 167.006 5.96584C168.479 5.59758 170.137 5.78172 171.425 6.14998C172.898 6.70237 174.187 7.43888 175.108 8.72779C176.581 10.7532 177.133 13.5152 176.581 17.0137C175.66 21.4328 173.083 26.4043 169.032 30.0869C165.533 33.2172 161.114 35.2426 155.958 35.4267C155.59 35.4267 155.406 35.4267 155.038 35.2426C154.485 34.8743 147.673 31.56 144.542 23.4582C141.228 15.3565 142.701 8.35954 145.831 4.30867C147.304 2.46737 148.962 1.17844 150.987 0.441921C153.012 -0.294601 155.038 -0.110493 157.063 0.99429C158.905 2.09907 160.93 4.67691 161.851 8.54365ZM167.743 9.83259C165.902 10.2008 163.876 11.6739 162.403 14.0676C162.035 14.62 161.482 14.9882 160.746 15.1724C159.641 15.1724 158.72 14.4358 158.536 13.3311C158.168 8.1754 156.695 5.41341 154.67 4.49276C153.749 3.94037 152.828 3.94041 151.723 4.30867C150.619 4.67693 149.514 5.41343 148.593 6.70235C146.2 9.83257 145.095 15.3565 147.857 21.9852C150.25 27.8773 154.67 30.6393 155.958 31.3758C160.009 31.1917 163.324 29.5345 166.086 27.1408C169.4 24.1948 171.794 19.9598 172.346 16.2772C172.714 13.8835 172.53 12.2263 171.61 11.1215C171.241 10.5691 170.689 10.2008 169.952 9.83259C169.584 9.64846 168.663 9.64846 167.743 9.83259Z" fill="#6C0B1B"/>
<path fill-rule="evenodd" clip-rule="evenodd" d="M213.039 65.6242C213.96 63.5988 215.064 62.1258 216.537 61.021C217.826 60.1003 219.299 59.5479 220.588 59.3638C222.061 59.1797 223.534 59.5479 225.007 60.2845C227.033 61.3893 228.874 63.7829 229.795 67.0973C230.9 71.5164 230.531 77.0403 228.322 82.0118C226.481 86.2468 223.35 89.9295 218.563 92.3232C218.195 92.5073 218.011 92.5073 217.642 92.5073C216.906 92.5073 209.356 92.1391 203.096 86.2469C196.651 80.1706 195.178 73.3577 196.283 68.3862C196.835 66.1766 197.94 64.1512 199.229 62.8623C200.702 61.3892 202.728 60.6527 204.937 60.8368C207.699 61.021 210.461 62.494 213.039 65.6242Z" fill="#6C0B1B"/>
<path fill-rule="evenodd" clip-rule="evenodd" d="M218.931 64.3356C217.458 65.4404 216.169 67.65 215.801 70.5961C215.801 71.3326 215.433 71.885 214.696 72.2532C213.776 72.8056 212.487 72.4374 211.934 71.5167C209.541 67.0976 206.963 65.0722 204.753 65.0722C203.648 65.0722 202.728 65.4404 201.991 66.1769C201.071 66.9134 200.518 68.2024 200.15 69.6754C199.229 73.5422 200.518 78.8819 205.858 83.8534C210.461 88.2726 215.617 88.825 217.274 89.0091C220.773 87.1678 223.166 84.2217 224.639 80.9073C226.481 76.6723 226.665 72.0691 225.928 68.3865C225.376 66.1769 224.271 64.7039 223.166 63.9674C222.614 63.5991 221.877 63.415 221.141 63.5991C220.404 63.415 219.668 63.7832 218.931 64.3356Z" fill="#F16B73"/>
<path fill-rule="evenodd" clip-rule="evenodd" d="M221.509 74.2789L216.169 83.8536C214.88 86.2473 217.826 88.4569 222.246 79.2504C224.823 74.2788 222.798 72.9899 221.509 74.2789Z" fill="#6C0B1B"/>
<path fill-rule="evenodd" clip-rule="evenodd" d="M220.404 67.6498C218.931 69.1228 221.141 71.8847 222.798 69.8593C223.903 68.5704 221.877 66.1767 220.404 67.6498Z" fill="#6C0B1B"/>
<path fill-rule="evenodd" clip-rule="evenodd" d="M213.039 65.6242C213.96 63.5988 215.064 62.1258 216.537 61.021C217.826 60.1003 219.299 59.5479 220.588 59.3638C222.061 59.1797 223.534 59.5479 225.007 60.2845C227.033 61.3893 228.874 63.7829 229.795 67.0973C230.9 71.5164 230.531 77.0403 228.322 82.0118C226.481 86.2468 223.35 89.9295 218.563 92.3232C218.195 92.5073 218.011 92.5073 217.642 92.5073C216.906 92.5073 209.356 92.1391 203.096 86.2469C196.651 80.1706 195.178 73.3577 196.283 68.3862C196.835 66.1766 197.94 64.1512 199.229 62.8623C200.702 61.3892 202.728 60.6527 204.937 60.8368C207.699 61.021 210.461 62.494 213.039 65.6242ZM218.931 64.3353C217.458 65.4401 216.169 67.6497 215.801 70.5958C215.801 71.3323 215.433 71.8847 214.696 72.253C213.776 72.8053 212.487 72.4371 211.934 71.5164C209.541 67.0973 206.963 65.0719 204.753 65.0719C203.648 65.0719 202.728 65.4401 201.991 66.1766C201.071 66.9131 200.518 68.2021 200.15 69.6751C199.229 73.5419 200.518 78.8816 205.858 83.8532C210.461 88.2723 215.617 88.8247 217.274 89.0088C220.773 87.1675 223.166 84.2214 224.639 80.9071C226.481 76.6721 226.665 72.0688 225.928 68.3862C225.376 66.1766 224.271 64.7036 223.166 63.9671C222.614 63.5988 221.877 63.4147 221.141 63.5988C220.404 63.4147 219.668 63.7829 218.931 64.3353Z" fill="#6C0B1B"/>
<path fill-rule="evenodd" clip-rule="evenodd" d="M177.133 45.7375C177.686 44.8168 178.238 44.0803 178.975 43.5279C179.895 42.7914 180.816 42.4231 181.921 42.239C183.026 42.0548 184.13 42.239 185.051 42.7914C186.524 43.5279 187.813 45.1851 188.55 47.5788C189.286 50.5249 189.286 54.2075 187.813 57.5218C186.708 60.2838 184.683 62.8616 181.553 64.5188C181.184 64.7029 180.816 64.7029 180.632 64.7029C179.895 64.7029 175.108 64.5188 170.873 60.8362C166.454 56.9694 165.349 52.3662 166.086 49.0518C166.454 47.3946 167.19 46.1057 168.111 45.1851C169.216 44.0803 170.689 43.5279 172.162 43.5279C173.819 43.5279 175.476 44.2644 177.133 45.7375Z" fill="#6C0B1B"/>
<path fill-rule="evenodd" clip-rule="evenodd" d="M181.369 46.6584C180.632 47.2108 179.895 48.4997 179.711 50.1569C179.711 50.7093 179.343 51.4458 178.791 51.6299C177.87 52.1823 176.581 51.8141 176.029 50.8934C174.556 48.3156 173.083 47.3949 171.978 47.2108C171.61 47.2108 171.057 47.3949 170.873 47.7632C170.505 48.1314 170.137 48.868 169.952 49.6045C169.584 51.8141 170.505 54.9443 173.635 57.7063C176.213 60.1 179.159 60.4682 180.264 60.4682C182.105 59.3634 183.394 57.5221 184.315 55.6808C185.235 53.103 185.419 50.341 184.867 48.3156C184.499 47.0267 183.946 46.4743 183.394 46.106C183.21 45.9219 182.842 45.9219 182.473 45.9219C182.105 46.2901 181.737 46.4743 181.369 46.6584Z" fill="#F16B73"/>
<path fill-rule="evenodd" clip-rule="evenodd" d="M177.133 45.7375C177.686 44.8168 178.238 44.0803 178.975 43.5279C179.895 42.7914 180.816 42.4231 181.921 42.239C183.026 42.0548 184.13 42.239 185.051 42.7914C186.524 43.5279 187.813 45.1851 188.55 47.5788C189.286 50.5249 189.286 54.2075 187.813 57.5218C186.708 60.2838 184.683 62.8616 181.553 64.5188C181.184 64.7029 180.816 64.7029 180.632 64.7029C179.895 64.7029 175.108 64.5188 170.873 60.8362C166.454 56.9694 165.349 52.3662 166.086 49.0518C166.454 47.3946 167.19 46.1057 168.111 45.1851C169.216 44.0803 170.689 43.5279 172.162 43.5279C173.819 43.5279 175.476 44.2644 177.133 45.7375ZM181.369 46.6581C180.632 47.2105 179.895 48.4994 179.711 50.1566C179.711 50.709 179.343 51.4455 178.791 51.6296C177.87 52.182 176.581 51.8138 176.029 50.8931C174.556 48.3153 173.083 47.3946 171.978 47.2105C171.61 47.2105 171.057 47.3946 170.873 47.7629C170.505 48.1311 170.137 48.8677 169.952 49.6042C169.584 51.8138 170.505 54.944 173.635 57.706C176.213 60.0997 179.159 60.4679 180.264 60.4679C182.105 59.3631 183.394 57.5218 184.315 55.6805C185.235 53.1027 185.419 50.3407 184.867 48.3153C184.499 47.0264 183.946 46.474 183.394 46.1057C183.21 45.9216 182.842 45.9216 182.473 45.9216C182.105 46.2898 181.737 46.474 181.369 46.6581Z" fill="#6C0B1B"/>
</svg>
