<svg width="56" height="51" viewBox="0 0 56 51" fill="none" xmlns="http://www.w3.org/2000/svg">
<path d="M15.575 46.1398C15.275 45.5398 8.17505 32.0398 11.675 20.5398C13.675 13.6398 17.375 10.6398 20.175 9.33984C23.475 7.83984 26.5751 8.03984 28.3751 8.83984C28.5751 8.93984 28.775 9.03984 28.975 9.13984C31.475 10.4398 33.575 13.3398 33.675 16.6398C36.475 14.8398 41.575 12.7398 46.975 15.6398C47.775 16.0398 48.5751 16.6398 49.3751 17.2398C53.2751 20.4398 54.775 24.4398 53.675 28.7398C52.075 34.8398 45.275 39.9398 37.275 41.3398C34.275 41.8398 31.575 42.1398 29.175 42.3398C23.475 42.8398 19.775 43.2398 17.675 46.3398L16.575 47.9398L15.575 46.1398Z" fill="#FFC0C9" stroke="#6B1B12" stroke-width="3" stroke-miterlimit="10"/>
<path d="M46.375 16.5396C47.075 16.9396 47.875 17.4396 48.575 18.0396C58.375 25.9396 49.875 37.9396 36.975 40.0396C26.575 41.7396 19.975 40.4396 16.575 45.5396C16.575 45.5396 9.37502 31.9396 12.675 20.7396C15.975 9.53963 24.175 8.23963 27.775 9.73963C27.975 9.83963 28.075 9.83963 28.275 9.93963C31.075 11.4396 33.275 15.2396 32.075 19.0396C32.075 19.1396 38.775 12.5396 46.375 16.5396ZM47.475 14.5396C42.375 11.8396 37.675 13.0396 34.475 14.7396C33.775 11.8396 31.775 9.33963 29.375 8.13963C29.175 8.03963 28.975 7.93963 28.675 7.83963C26.075 6.73963 22.575 6.93963 19.575 8.33963C16.575 9.73963 12.675 12.9396 10.475 20.2396C6.87501 32.2396 14.175 46.1396 14.475 46.7396L16.275 50.2396L18.475 46.9396C20.175 44.3396 23.175 43.9396 29.075 43.4396C31.475 43.2396 34.275 42.9396 37.275 42.4396C45.775 41.0396 52.975 35.4396 54.675 28.9396C55.875 24.2396 54.275 19.7396 49.975 16.2396C49.175 15.5396 48.375 14.9396 47.475 14.5396Z" fill="#6B1B12"/>
<path d="M36.9751 40.0395C49.7751 37.8395 58.2751 25.9395 48.5751 18.0395C40.1751 11.2395 32.0751 19.1395 32.0751 19.1395C40.0751 13.7395 47.3751 21.0395 47.1751 24.9395C46.9751 29.4395 41.5751 35.5395 28.1751 35.9395C14.7751 36.4395 16.5751 45.4395 16.5751 45.4395C19.9751 40.4395 26.6751 41.8395 36.9751 40.0395Z" fill="#F79FAF"/>
<path d="M30.575 35.9398C30.575 35.6398 31.875 35.3398 33.975 34.7398C35.975 34.1398 38.875 33.4398 41.475 31.8398C42.775 31.0398 43.875 30.1398 44.675 29.1398C45.075 28.6398 45.375 28.1398 45.675 27.6398C45.975 27.1398 46.175 26.6398 46.275 26.1398C46.875 24.3398 46.375 23.0398 46.675 22.8398C46.775 22.7398 47.175 23.0398 47.475 23.6398C47.775 24.2398 48.075 25.2398 47.975 26.4398C47.875 27.0398 47.775 27.7398 47.575 28.3398C47.375 29.0398 46.975 29.7398 46.575 30.3398C45.675 31.7398 44.375 32.9398 42.775 33.8398C39.675 35.6398 36.475 36.1398 34.275 36.3398C31.975 36.5398 30.575 36.2398 30.575 35.9398Z" fill="#6B1B12"/>
<path d="M45.4751 20.7399C45.0751 21.0399 44.1751 20.4399 43.1751 19.7399C42.0751 19.0399 41.2751 18.3399 41.4751 17.8399C41.5751 17.4399 42.8751 17.5399 44.1751 18.3399C45.2751 19.2399 45.7751 20.5399 45.4751 20.7399Z" fill="#6B1B12"/>
<path d="M14.775 22.6395C14.575 22.6395 14.475 21.7395 14.775 20.5395C14.975 19.2395 15.6751 17.5395 16.8751 15.8395C18.0751 14.1395 19.575 13.0395 20.775 12.5395C21.975 11.9395 22.8751 11.9395 22.8751 12.2395C22.9751 12.4395 22.275 12.8395 21.275 13.5395C20.275 14.2395 19.075 15.3395 18.075 16.8395C16.075 19.7395 15.275 22.7395 14.775 22.6395Z" fill="#6B1B12"/>
<path d="M22.075 14.7395C22.275 15.1395 21.275 16.1395 20.275 17.4395C19.275 18.7395 18.475 19.8395 18.075 19.7395C17.675 19.6395 17.775 17.9395 19.075 16.4395C19.675 15.6395 20.375 15.1395 20.975 14.8395C21.475 14.5395 21.975 14.5395 22.075 14.7395Z" fill="#6B1B12"/>
<path d="M13.6751 2.1396C13.7751 2.4396 12.8751 2.9396 11.5751 3.8396C11.2751 4.0396 10.8751 4.3396 10.4751 4.5396C10.0751 4.8396 9.77514 5.1396 9.37514 5.4396C8.97514 5.7396 8.67511 6.1396 8.27511 6.5396C7.97511 6.9396 7.57511 7.3396 7.27511 7.8396C6.67511 8.7396 6.27512 9.7396 5.97512 10.7396C5.77512 11.7396 5.57512 12.5396 5.47512 13.3396C5.27512 14.8396 5.37509 15.9396 5.07509 15.9396C4.77509 16.0396 4.17512 15.0396 3.97512 13.3396C3.87512 12.4396 3.87509 11.4396 4.07509 10.2396C4.37509 9.1396 4.77509 7.8396 5.57509 6.6396C5.97509 6.0396 6.37514 5.5396 6.87514 5.0396C7.37514 4.6396 7.77511 4.1396 8.27511 3.8396C8.77511 3.5396 9.27513 3.2396 9.67513 2.9396C10.1751 2.7396 10.5751 2.5396 10.9751 2.4396C12.4751 1.9396 13.5751 1.9396 13.6751 2.1396Z" fill="#6B1B12"/>
<path d="M7.075 0.239388C7.175 0.539388 6.57504 0.939388 5.67504 1.53939C4.77504 2.13939 3.67505 3.03939 2.87505 4.23939C2.47505 4.83939 2.17502 5.53939 1.97502 6.13939C1.77502 6.73939 1.675 7.33939 1.575 7.83939C1.375 8.83939 1.375 9.53939 1.075 9.63939C0.775 9.73939 0.275 9.03939 0.075 7.83939C-0.025 7.23939 -0.025 6.43939 0.075 5.63939C0.275 4.83939 0.575 3.93939 1.075 3.03939C2.175 1.33939 3.77502 0.439388 4.97502 0.139388C6.17502 -0.0606125 6.975 -0.0606121 7.075 0.239388Z" fill="#6B1B12"/>
</svg>
