<svg width="160" height="62" viewBox="0 0 160 62" fill="none" xmlns="http://www.w3.org/2000/svg">
<path fill-rule="evenodd" clip-rule="evenodd" d="M135.183 25.8367L143.183 20.9367C143.583 20.7367 143.983 20.7367 144.283 20.9367C144.283 20.9367 155.583 27.9367 158.783 31.9367C159.183 32.4367 159.083 33.0367 158.583 33.4367C158.383 33.5367 158.183 33.6367 158.083 33.6367C158.083 33.6367 146.383 34.9367 142.483 35.8367C142.083 35.9367 141.683 35.7367 141.483 35.5367L134.883 28.0367C132.683 27.6367 130.383 27.4367 127.983 27.2367C126.783 31.5367 124.583 36.0367 121.483 39.9367C117.383 45.2367 111.583 49.6367 103.983 51.3367C103.783 51.3367 103.683 51.3367 103.483 51.3367C100.583 50.8367 97.8826 49.8367 95.1826 48.4367C92.8826 47.1367 90.6826 45.4367 88.5826 43.5367C86.9826 46.6367 84.7826 49.5367 81.8826 51.8367C80.1826 53.2367 79.4826 53.2367 77.4826 53.3367H77.2826C70.8826 53.8367 63.8826 51.1367 58.2826 46.8367C55.3826 44.5367 52.8826 41.8367 51.0826 38.8367C46.0826 40.3367 42.4826 41.5367 40.9826 42.0367C41.4826 47.8367 38.5826 52.9367 38.5826 52.9367C38.4826 53.1367 38.3826 53.2367 38.1826 53.3367C34.9826 55.0367 22.6826 58.4367 22.0826 58.5367C21.9826 58.5367 21.7826 58.6367 21.5826 58.5367C20.9826 58.4367 20.5826 57.9367 20.6826 57.3367C21.1826 54.2367 21.1826 50.7367 21.2826 49.7367C18.9826 46.5367 13.7826 43.0367 13.3826 42.7367C13.2826 42.6367 13.1826 42.5367 13.0826 42.4367C12.7826 41.9367 12.8826 41.2367 13.3826 40.9367C19.2826 37.1367 29.8826 34.7367 30.6826 34.5367C30.8826 34.5367 31.0826 34.5367 31.2826 34.5367C34.1826 35.3367 38.6826 38.9367 40.1826 40.0367C41.4826 39.6367 45.0826 38.4367 50.1826 36.8367C49.1826 34.7367 48.4826 32.6367 48.1826 30.4367C47.7826 27.4367 48.3826 24.6367 49.5826 22.4367C50.6826 20.3367 52.2826 18.7367 54.3826 17.7367C56.4826 16.7367 58.8826 16.3367 61.5826 16.8367C64.3826 17.3367 67.4826 18.7367 70.5826 21.3367C70.7826 20.6367 71.0826 19.9367 71.3826 19.3367C71.9826 18.1367 72.6826 17.0367 73.5826 16.1367C74.8826 14.7367 76.0826 13.8367 77.3826 13.1367C77.3826 12.9367 77.4826 12.8367 77.4826 12.6367V12.5367C77.5826 12.2367 77.5826 11.9367 77.6826 11.6367C78.5826 8.13673 80.3826 5.2367 82.7826 3.23671C84.8826 1.43671 87.4826 0.33673 90.1826 0.13673C92.8826 -0.0632704 95.7826 0.536711 98.5826 2.33671C101.583 4.13671 104.483 7.2367 106.783 11.7367C107.383 10.9367 108.083 10.2367 108.783 9.63673C109.983 8.53673 111.283 7.73673 112.583 7.13673C114.483 6.23673 116.383 5.83671 118.283 5.83671C120.283 5.83671 122.183 6.33672 123.783 7.43672C125.383 8.43672 126.783 10.0367 127.783 12.0367C128.683 13.9367 129.183 16.3367 129.183 19.1367C129.183 21.0367 128.883 23.0367 128.483 25.2367C130.783 25.1367 133.083 25.4367 135.183 25.8367Z" fill="#6C0B1B"/>
<path fill-rule="evenodd" clip-rule="evenodd" d="M111.983 27.0368C111.383 27.0368 110.883 26.6368 110.883 26.0368C110.883 25.4368 111.283 24.9368 111.883 24.9368C116.283 24.6368 120.483 24.6368 124.683 24.8368C125.283 24.8368 125.783 24.9368 126.383 24.9368C126.883 22.8368 127.083 20.8368 127.183 19.0368C127.183 16.5368 126.783 14.5368 125.983 12.9368C125.183 11.3368 124.083 10.0368 122.783 9.23675C121.483 8.43675 119.983 8.03677 118.383 8.03677C116.883 8.03677 115.183 8.33678 113.683 9.13678C112.583 9.63678 111.383 10.4368 110.383 11.3368C109.383 12.2368 108.483 13.3368 107.683 14.5368C107.583 14.7368 107.383 14.8368 107.183 14.9368C106.683 15.2368 105.983 14.9368 105.783 14.4368C103.483 9.43677 100.583 6.23676 97.5826 4.33676C95.1826 2.83676 92.7826 2.33677 90.4826 2.53677C88.1826 2.73677 86.0826 3.63678 84.2826 5.13678C82.2826 6.83678 80.6826 9.33677 79.8826 12.4368V12.5368C81.7826 12.2368 83.4826 12.7368 84.9826 13.7368C86.5826 14.8368 87.9826 16.5368 89.0826 18.5368C91.0826 22.3368 92.1826 27.4368 91.9826 31.6368C91.7826 34.9368 91.1826 38.3368 89.8826 41.5368C91.8826 43.5368 94.1826 45.2368 96.5826 46.6368C98.9826 47.9368 101.483 48.8368 103.983 49.3368C110.883 47.6368 116.183 43.6368 120.083 38.7368C122.883 35.1368 124.883 31.1368 126.083 27.2368C125.683 27.2368 125.283 27.2368 124.883 27.1368C120.583 26.7368 116.283 26.7368 111.983 27.0368Z" fill="#F16B73"/>
<path fill-rule="evenodd" clip-rule="evenodd" d="M97.2826 3.93676C94.9826 2.53676 92.5826 2.03675 90.3826 2.23675C88.0826 2.43675 85.9826 3.33675 84.1826 4.83675C82.1826 6.53675 80.5826 9.03677 79.7826 12.1368V12.2367C81.6826 11.9367 83.3826 12.4368 84.8826 13.4368C86.4826 14.5368 87.8826 16.2367 88.9826 18.2367C90.9826 22.0367 92.0826 27.1368 91.8826 31.3368C91.6826 34.6368 91.0826 38.0367 89.7826 41.2367C91.7826 43.2367 94.0826 44.9368 96.4826 46.3368C98.8826 47.6368 101.383 48.5368 103.883 49.0368C106.483 48.4368 108.983 47.4368 111.083 46.1368C96.1826 41.1368 91.2826 22.4367 91.5826 12.7367C91.6826 6.23675 94.6826 4.33676 97.2826 3.93676Z" fill="#DA474E"/>
<path fill-rule="evenodd" clip-rule="evenodd" d="M38.9825 41.7367C37.7825 40.7367 33.5825 37.4367 30.9825 36.5367C29.3825 36.9367 21.4825 38.8367 16.0825 41.8367C18.0825 43.2367 21.5825 46.1367 23.3825 48.7367C23.4825 48.9367 23.5825 49.1367 23.5825 49.3367C23.5825 49.3367 23.5825 52.5367 23.1825 55.9367C26.5825 55.0367 34.3825 52.7367 36.9825 51.4367C37.5825 50.4367 39.4825 46.3367 38.9825 41.7367Z" fill="white"/>
<path fill-rule="evenodd" clip-rule="evenodd" d="M143.783 23.0367L137.383 26.9367C137.383 27.0367 137.383 27.1367 137.383 27.2367C137.383 27.3367 137.383 27.3367 137.283 27.4367L142.583 33.4367C145.883 32.8367 152.283 32.0367 155.683 31.6367C152.283 28.5367 145.783 24.2367 143.783 23.0367Z" fill="white"/>
<path fill-rule="evenodd" clip-rule="evenodd" d="M78.7825 14.7367C78.7825 14.7367 78.6825 14.7367 78.6825 14.8367C77.5825 15.3367 76.3825 16.2368 75.1825 17.5368C74.4825 18.2368 73.8825 19.1368 73.3825 20.1368C72.8825 21.1368 72.5825 22.1367 72.2825 23.3367C72.2825 23.5367 72.1825 23.7367 71.9825 23.8367C71.5825 24.2367 70.8825 24.3367 70.4825 23.9367C67.1825 20.8367 64.0825 19.2367 61.1825 18.8367C58.9825 18.4367 56.9825 18.7368 55.2825 19.5368C53.6825 20.3368 52.2825 21.6367 51.3825 23.3367C50.3825 25.2367 49.9825 27.5368 50.2825 30.1368C50.5825 32.4368 51.3825 34.7367 52.5825 36.9367V37.0368C54.2825 40.0368 56.7825 42.8368 59.6825 45.1368C64.7825 49.1368 71.2825 51.6368 77.1825 51.1368H77.3825C78.8825 51.0368 79.3825 51.0368 80.5825 50.0368C83.3825 47.7368 85.4825 45.0368 86.9825 42.0368C87.0825 41.7368 87.2825 41.5367 87.3825 41.2367V41.1368C88.7825 37.9368 89.4825 34.6367 89.5825 31.3367C89.7825 27.4367 88.7825 22.8367 86.8825 19.3367C85.9825 17.6367 84.7825 16.1367 83.4825 15.2367C82.2825 14.4367 80.8825 14.1367 79.4825 14.4367C79.2825 14.5367 79.0825 14.6367 78.7825 14.7367Z" fill="#F16B73"/>
<path fill-rule="evenodd" clip-rule="evenodd" d="M63.2825 19.3367C62.5825 19.0367 61.8825 18.9367 61.1825 18.7367C58.9825 18.3367 56.9825 18.6367 55.2825 19.4367C53.6825 20.2367 52.2825 21.5367 51.3825 23.2367C50.3825 25.1367 49.9825 27.4367 50.2825 30.0367C50.5825 32.3367 51.3825 34.6367 52.5825 36.8367V36.9367C54.2825 39.9367 56.7825 42.7367 59.6825 45.0367C64.7825 49.0367 71.2825 51.5367 77.1825 51.0367H77.3825C78.8825 50.9367 79.3825 50.9367 80.5825 49.9367C82.2825 48.5367 83.6825 47.0367 84.8825 45.3367C76.1825 45.7367 63.7825 43.6367 59.1825 33.2367C55.3825 24.7367 59.9825 20.9367 63.2825 19.3367Z" fill="#DA474E"/>
<path fill-rule="evenodd" clip-rule="evenodd" d="M119.883 10.2368C117.783 9.63678 118.182 11.9368 120.082 11.3368C120.282 10.7368 120.183 10.6368 119.883 10.2368Z" fill="white"/>
<path fill-rule="evenodd" clip-rule="evenodd" d="M55.2825 24.2368C55.8825 23.6368 55.9825 23.3368 55.2825 22.7368C54.7825 22.8368 54.4825 22.9368 54.3825 23.5368C54.2825 24.2368 54.6825 24.2368 55.2825 24.2368Z" fill="#6C0B1B"/>
<path fill-rule="evenodd" clip-rule="evenodd" d="M98.7826 44.3368C99.1826 44.0368 99.2826 44.0369 99.1826 43.4369C98.8826 43.1369 98.6826 43.0369 98.0826 43.1369L97.8826 43.9369L98.7826 44.3368Z" fill="#6C0B1B"/>
<path fill-rule="evenodd" clip-rule="evenodd" d="M25.7825 55.8368H26.4825C26.9825 54.5368 26.6825 48.8368 26.4825 47.1368C26.9825 46.7368 29.0825 45.8367 29.7825 45.7367C29.6825 46.6367 29.3825 47.7367 29.1825 48.7367C28.9825 49.6367 28.7825 50.8367 29.0825 51.7367L29.1825 51.8368C29.1825 51.8368 29.1825 51.9368 29.2825 51.9368C30.1825 52.2368 30.2825 49.9368 30.4825 49.1368C30.8825 47.0368 30.7825 46.0367 30.9825 45.2367L34.5825 43.9368C34.5825 45.2368 33.8825 47.6368 33.9825 48.9368C34.0825 50.5368 34.9825 49.0368 35.1825 48.4368C36.5825 44.3368 34.3825 44.1367 37.8825 42.7367C39.8825 41.9367 41.3825 41.8368 41.2825 40.6368C40.0825 40.3368 38.2825 41.2368 37.0825 41.6368C32.6825 43.1368 34.9825 43.3368 29.3825 40.5368C27.0825 39.4368 27.7825 39.2368 26.8825 39.4368C26.2825 39.5368 26.3825 39.4368 26.1825 39.8368C26.4825 40.6368 29.6825 42.1368 30.6825 42.6368C31.1825 42.8368 31.8825 43.0368 32.2825 43.5368C28.3825 44.8368 26.3825 45.8368 23.0825 47.8368C22.4825 48.1368 22.3825 48.1367 22.2825 48.7367C23.4825 48.7367 24.6825 48.0368 25.5825 47.6368C25.4825 49.3368 25.1825 54.7368 25.7825 55.8368Z" fill="#6C0B1B"/>
<path fill-rule="evenodd" clip-rule="evenodd" d="M143.982 26.2367C144.082 25.5367 145.082 22.1367 143.882 22.3367C143.182 22.4367 142.882 25.3367 142.882 26.1367L136.682 26.4367C135.882 26.5367 135.582 26.7367 136.082 27.6367C136.882 27.8367 141.682 27.3367 142.882 27.2367C142.682 28.7367 141.682 32.3367 142.582 33.1367C143.182 33.0367 143.182 32.7367 143.282 32.0367L143.982 27.3367C144.782 27.8367 146.282 28.3367 147.382 28.7367C149.982 29.7367 151.282 30.5367 153.482 32.0367C154.982 33.1367 155.482 34.1367 156.482 33.4367C156.382 33.1367 156.282 33.1367 155.882 32.7367L153.982 30.9367C151.482 28.8367 147.082 26.9367 143.982 26.2367Z" fill="#6C0B1B"/>
<path fill-rule="evenodd" clip-rule="evenodd" d="M54.0826 25.3368C53.3826 25.6368 53.3826 26.4368 53.3826 27.3368C53.1826 30.0368 53.3826 31.6368 54.3826 34.1368C55.8826 38.3368 57.4826 40.8368 61.0826 43.4368C62.7826 44.6368 69.6826 49.4368 71.2826 48.9368C70.9826 48.1368 69.1826 47.2368 68.2826 46.7368C66.5826 45.8368 63.6825 43.8368 62.1825 42.7368C61.1825 42.0368 60.1826 41.2368 59.4826 40.4368C58.0826 39.0368 56.6826 36.3368 55.7826 34.0368C53.5826 29.2368 54.7826 27.1368 54.0826 25.3368Z" fill="#6C0B1B"/>
<path fill-rule="evenodd" clip-rule="evenodd" d="M87.0826 25.2367C86.5826 23.8367 84.6826 20.2367 83.4826 20.0367C83.3826 21.1367 85.5826 24.1367 85.9826 26.1367C86.2826 27.5367 86.3826 32.8367 87.4826 33.3367C87.9826 32.5367 87.3826 26.3367 87.0826 25.2367Z" fill="white"/>
<path fill-rule="evenodd" clip-rule="evenodd" d="M111.883 30.9368C112.783 29.8368 111.383 19.9368 108.883 21.6368C110.283 23.6368 110.583 26.3368 110.983 28.8368C111.183 30.7368 110.983 30.8368 111.883 30.9368Z" fill="#6C0B1B"/>
<path fill-rule="evenodd" clip-rule="evenodd" d="M122.983 21.2367C124.783 20.8367 125.183 12.1367 121.083 12.2367C121.083 13.5367 122.683 13.5367 122.983 15.9367C123.183 17.2367 122.583 20.6367 122.983 21.2367Z" fill="white"/>
<path fill-rule="evenodd" clip-rule="evenodd" d="M92.1825 40.5368C92.8825 41.2368 95.0825 43.0368 96.5825 43.0368C96.4825 41.8368 94.3825 40.9368 93.0825 39.7368C92.0825 38.8368 91.3825 37.8368 90.5825 37.0368C89.6825 36.3368 87.9825 36.1368 92.1825 40.5368Z" fill="#6C0B1B"/>
<path fill-rule="evenodd" clip-rule="evenodd" d="M21.0825 40.2368C19.2825 39.3368 19.8825 39.7368 18.9825 39.4368C18.6825 40.3368 19.7825 40.8368 20.3825 41.1368C21.3825 41.7368 26.0825 44.5368 26.8825 43.8368C27.5825 43.1368 25.8825 42.7368 25.3825 42.4368C24.6825 42.0368 24.0825 41.7368 23.2825 41.3368C22.4825 40.9368 21.8825 40.6368 21.0825 40.2368Z" fill="#6C0B1B"/>
<path fill-rule="evenodd" clip-rule="evenodd" d="M30.7825 39.1367C31.5825 39.5367 33.3825 40.8367 34.2825 40.5367C34.6825 39.4367 28.8825 36.1367 27.7825 36.7367C27.8825 37.8367 29.4825 38.4367 30.7825 39.1367Z" fill="#6C0B1B"/>
<path fill-rule="evenodd" clip-rule="evenodd" d="M85.2825 8.63677H85.1825C83.9825 8.33677 85.6825 8.43676 84.7825 8.53676C83.7825 8.63676 81.9825 12.9368 82.6825 13.6368C83.3825 14.4368 83.9825 12.0368 84.2825 11.3368C84.5825 10.6368 85.4825 9.43677 85.2825 8.63677Z" fill="#6C0B1B"/>
<path fill-rule="evenodd" clip-rule="evenodd" d="M80.0825 18.0368C80.2825 18.5368 82.6825 19.2368 82.1825 18.0368C81.8825 17.1368 79.4825 16.7368 80.0825 18.0368Z" fill="white"/>
<path fill-rule="evenodd" clip-rule="evenodd" d="M74.5825 49.6368C74.2825 49.3368 72.2825 48.3368 72.8825 49.7368C72.9825 50.2368 74.5825 51.3368 74.5825 49.6368Z" fill="#6C0B1B"/>
<path fill-rule="evenodd" clip-rule="evenodd" d="M107.283 57.8367C108.083 58.7367 112.983 58.0367 114.183 57.5367C116.083 56.7367 118.183 54.3367 117.783 52.7367C117.283 50.8367 115.783 54.6367 113.483 55.6367C111.083 56.5367 107.483 55.9367 107.283 57.8367Z" fill="#6C0B1B"/>
<path fill-rule="evenodd" clip-rule="evenodd" d="M42.7826 16.3367C44.7826 16.3367 43.0826 13.7367 47.4826 11.6367C48.3826 11.2367 49.0826 11.1367 49.0826 10.0367C47.6826 9.23672 44.7826 10.6367 43.9826 11.4367C43.1826 12.1367 41.5826 15.0367 42.7826 16.3367Z" fill="#6C0B1B"/>
<path fill-rule="evenodd" clip-rule="evenodd" d="M116.483 61.4368C117.983 61.7368 120.083 58.9368 120.483 58.3368C120.883 57.6368 120.583 57.4368 120.083 56.9368C118.983 56.9368 115.683 59.6368 116.483 61.4368Z" fill="#6C0B1B"/>
<path fill-rule="evenodd" clip-rule="evenodd" d="M41.5825 7.83676C40.7825 8.13676 39.6825 9.13675 39.2825 9.73675C38.9825 10.3368 38.0825 12.4368 39.7825 11.9368C40.8825 11.6368 44.2825 6.83676 41.5825 7.83676Z" fill="#6C0B1B"/>
<path fill-rule="evenodd" clip-rule="evenodd" d="M0.482561 44.3368C1.68256 44.4368 1.68257 44.1368 1.88257 43.0368C1.98257 42.2368 2.08257 41.2368 1.88257 40.5368C-0.11743 39.9368 -0.417439 43.0368 0.482561 44.3368Z" fill="#6C0B1B"/>
<path fill-rule="evenodd" clip-rule="evenodd" d="M79.3825 13.9367C79.2825 14.5367 78.7825 14.9367 78.1825 14.8367C77.5825 14.7367 77.1825 14.2368 77.2825 13.6368C77.3825 13.2368 77.3825 12.9368 77.4825 12.5368V12.4367C77.5825 12.1367 77.5825 11.8368 77.6825 11.5368C78.5825 8.03675 80.3825 5.13676 82.7825 3.13676C84.8825 1.33676 87.4825 0.236754 90.1825 0.036754C92.8825 -0.163246 95.7825 0.436736 98.5825 2.23674C101.583 4.03674 104.483 7.13676 106.783 11.6368C107.383 10.8368 108.083 10.1368 108.783 9.53675C109.983 8.43675 111.283 7.63675 112.583 7.03675C114.483 6.13675 116.383 5.73674 118.283 5.73674C120.283 5.73674 122.183 6.23674 123.783 7.33674C125.383 8.33674 126.783 9.93675 127.783 11.9367C128.683 13.8367 129.183 16.2368 129.183 19.0368C129.083 25.2368 126.583 33.3368 121.483 39.9367C117.383 45.2367 111.583 49.6367 103.983 51.3367C103.783 51.3367 103.683 51.3367 103.483 51.3367C100.583 50.8367 97.8825 49.8368 95.1825 48.4367C92.3825 46.9367 89.7825 44.8368 87.4825 42.4367C87.0825 42.0367 87.0825 41.3368 87.4825 40.9367C87.8825 40.5367 88.5825 40.5367 88.9825 40.9367C91.1825 43.1367 93.5825 45.0368 96.1825 46.5368C98.5825 47.8368 101.083 48.7367 103.583 49.2367C110.483 47.5367 115.783 43.5368 119.683 38.6368C124.483 32.4368 126.883 24.8368 126.983 19.0368C126.983 16.5368 126.583 14.5367 125.783 12.9367C124.983 11.3367 123.883 10.0367 122.583 9.23674C121.283 8.43674 119.783 8.03675 118.183 8.03675C116.683 8.03675 114.983 8.33676 113.483 9.13676C112.383 9.63676 111.183 10.4367 110.183 11.3367C109.183 12.2367 108.283 13.3368 107.483 14.5368C107.383 14.7368 107.183 14.8367 106.983 14.9367C106.483 15.2367 105.783 14.9367 105.583 14.4367C103.283 9.43675 100.383 6.23674 97.3825 4.33674C94.9825 2.83674 92.5825 2.33675 90.2825 2.53675C87.9825 2.73675 85.8825 3.63676 84.0825 5.13676C82.0825 6.83676 80.4825 9.33675 79.6825 12.4367C79.5825 12.7367 79.4825 13.0367 79.4825 13.2367V13.3367C79.4825 13.3367 79.3825 13.5367 79.3825 13.9367Z" fill="#6C0B1B"/>
<path fill-rule="evenodd" clip-rule="evenodd" d="M70.5826 21.1368C70.7826 20.4368 71.0826 19.7368 71.3826 19.1368C71.9826 17.9368 72.6826 16.8368 73.5826 15.9368C75.4826 13.9368 77.2826 12.7368 79.0826 12.3368C81.1826 11.7368 83.1826 12.2368 84.8826 13.4368C86.4826 14.5368 87.8826 16.2368 88.9826 18.2368C90.9826 22.0368 92.0826 27.1368 91.8826 31.3368C91.6826 35.1368 90.7826 39.1368 89.0826 42.8368C87.4826 46.1368 85.2826 49.1368 82.1826 51.6368C80.4826 53.0368 79.7826 53.0368 77.7826 53.1368H77.5826C71.1826 53.6368 64.1826 50.9368 58.5826 46.6368C53.1826 42.4368 49.0826 36.5368 48.3826 30.2368C47.9826 27.2368 48.5826 24.4368 49.7826 22.2368C50.8826 20.1368 52.4826 18.5368 54.5826 17.5368C56.6826 16.5368 59.0826 16.1368 61.7826 16.6368C64.3826 17.1368 67.4826 18.5368 70.5826 21.1368ZM73.2826 20.1368C72.7826 21.1368 72.4826 22.1368 72.1826 23.3368C72.1826 23.5368 72.0826 23.7368 71.8826 23.8368C71.4826 24.2368 70.7826 24.3368 70.3826 23.9368C67.0826 20.8368 63.9826 19.2368 61.0826 18.8368C58.8826 18.4368 56.8826 18.7368 55.1826 19.5368C53.5826 20.3368 52.1826 21.6368 51.2826 23.3368C50.2826 25.2368 49.8826 27.5368 50.1826 30.1368C50.8826 35.8368 54.5826 41.2368 59.5826 45.1368C64.6826 49.1368 71.1826 51.6368 77.0826 51.1368H77.2826C78.7826 51.0368 79.2826 51.0368 80.4826 50.0368C83.2826 47.7368 85.3826 45.0368 86.8826 42.0368C88.5826 38.6368 89.3826 34.8368 89.4826 31.3368C89.6826 27.4368 88.6826 22.8368 86.7826 19.3368C85.8826 17.6368 84.6826 16.1368 83.3826 15.2368C82.1826 14.4368 80.7826 14.1368 79.3826 14.4368C77.9826 14.8368 76.5826 15.7368 74.9826 17.4368C74.3826 18.2368 73.7826 19.1368 73.2826 20.1368Z" fill="#6C0B1B"/>
<path fill-rule="evenodd" clip-rule="evenodd" d="M40.2825 42.2368C39.6825 42.4368 39.0825 42.1368 38.8825 41.5368C38.6825 40.9368 38.9825 40.3368 39.5825 40.1368C39.5825 40.1368 44.0825 38.5368 51.3825 36.4368C51.9825 36.2368 52.5825 36.6368 52.6825 37.1368C52.8825 37.7368 52.4825 38.3368 51.9825 38.4368C44.8825 40.6368 40.2825 42.2368 40.2825 42.2368ZM111.982 27.0368C111.382 27.0368 110.883 26.6368 110.883 26.0368C110.883 25.4368 111.283 24.9368 111.883 24.9368C116.283 24.6368 120.482 24.6368 124.682 24.8368C128.882 25.0368 132.782 25.4368 136.582 26.1368C137.182 26.2368 137.583 26.8368 137.483 27.4368C137.383 28.0368 136.782 28.4368 136.182 28.3368C132.582 27.6368 128.682 27.2368 124.582 27.0368C120.582 26.7368 116.283 26.7368 111.982 27.0368Z" fill="#6C0B1B"/>
<path fill-rule="evenodd" clip-rule="evenodd" d="M38.9825 41.7367C37.7825 40.7367 33.5825 37.4367 30.9825 36.5367C29.3825 36.9367 21.4826 38.8367 16.0826 41.8367C18.0826 43.2367 21.5826 46.1367 23.3826 48.7367C23.4826 48.9367 23.5826 49.1367 23.5826 49.3367C23.5826 49.3367 23.5825 52.5367 23.1825 55.9367C26.5825 55.0367 34.3825 52.7367 36.9825 51.4367C37.5825 50.4367 39.4825 46.3367 38.9825 41.7367ZM31.2825 34.4367C34.7825 35.4367 40.5826 40.3367 40.5826 40.3367C40.7826 40.5367 40.8825 40.7367 40.9825 41.0367C41.8825 47.2367 38.6825 52.8367 38.6825 52.8367C38.5825 53.0367 38.4825 53.1367 38.2825 53.2367C35.0825 54.9367 22.7825 58.3367 22.1825 58.4367C22.0825 58.4367 21.8825 58.5367 21.6825 58.4367C21.0825 58.3367 20.6825 57.8367 20.7825 57.2367C21.2825 54.1367 21.2826 50.6367 21.3826 49.6367C19.0826 46.4367 13.8825 42.9367 13.4825 42.6367C13.3825 42.5367 13.2825 42.4367 13.1825 42.3367C12.8825 41.8367 12.9825 41.1367 13.4825 40.8367C19.3825 37.0367 29.9825 34.6367 30.7825 34.4367C30.8825 34.3367 31.0825 34.3367 31.2825 34.4367Z" fill="#6C0B1B"/>
<path fill-rule="evenodd" clip-rule="evenodd" d="M134.983 25.9368L143.283 20.8368C143.683 20.6368 144.083 20.6368 144.383 20.8368C144.383 20.8368 155.683 27.8368 158.883 31.8368C159.283 32.3368 159.183 32.9368 158.683 33.3368C158.483 33.4368 158.283 33.5368 158.183 33.5368C158.183 33.5368 146.483 34.8368 142.583 35.7368C142.183 35.8368 141.783 35.6368 141.583 35.4368L134.683 27.6368C134.283 27.2368 134.283 26.5368 134.783 26.1368C134.783 26.0368 134.883 26.0368 134.983 25.9368ZM143.783 23.0368L137.083 27.1368L142.683 33.5368C145.983 32.9368 152.383 32.1368 155.783 31.7368C152.283 28.5368 145.783 24.2368 143.783 23.0368Z" fill="#6C0B1B"/>
</svg>
