<svg width="127" height="116" viewBox="0 0 127 116" fill="none" xmlns="http://www.w3.org/2000/svg">
<path d="M91.1461 106.093C91.8362 104.713 108.167 73.6613 100.117 47.2099C95.5164 31.339 87.0059 24.4387 80.5656 21.4485C72.9751 17.9983 65.8448 18.4584 61.7045 20.2985C61.2445 20.5285 60.7845 20.7585 60.3244 20.9885C54.5741 23.9786 49.7439 30.649 49.5139 38.2394C43.0735 34.0992 31.3429 29.2689 18.9222 35.9393C17.0821 36.8593 15.242 38.2394 13.4019 39.6195C4.4314 46.9799 0.981203 56.1804 3.51134 66.0709C7.19154 80.1017 22.8324 91.8324 41.2334 95.0525C48.1338 96.2026 54.3441 96.8926 59.8644 97.3527C72.9751 98.5027 81.4856 99.4228 86.3159 106.553L88.846 110.233L91.1461 106.093Z" fill="#FCD7AB" stroke="#4D0D06" stroke-width="3" stroke-miterlimit="10"/>
<path d="M20.3024 38.2396C37.7834 29.0391 53.1942 44.2199 53.1942 44.2199C50.4341 35.7095 55.4944 26.739 61.9347 23.2888C62.3947 23.0588 62.6247 22.8288 63.0848 22.8288C71.3652 19.3786 90.2263 22.3688 97.8167 48.1302C105.407 73.8916 88.8462 105.173 88.8462 105.173C81.0257 93.4426 65.6149 96.4328 41.9236 92.5226C12.482 87.4623 -7.06908 60.0908 15.2421 41.9198C17.0822 40.0797 18.6923 39.1597 20.3024 38.2396ZM17.7723 33.4093C15.7021 34.5594 13.8621 35.7095 11.792 37.3196C1.90141 45.37 -2.00879 55.7206 0.981371 66.5312C4.89158 81.482 21.4525 94.1327 41.0035 97.5829C48.1339 98.733 54.3443 99.423 59.8646 99.883C73.6653 101.033 80.3357 101.953 84.2459 107.933L89.3062 115.524L93.4464 107.473C94.1364 106.093 110.927 73.8916 102.647 46.5201C97.5866 29.7292 88.3861 22.3688 81.7158 19.1486C74.8154 15.9284 66.765 15.4684 60.7846 17.9985C60.3246 18.2285 59.6346 18.4585 59.1745 18.6885C53.6542 21.4487 49.054 27.199 47.4439 33.8694C40.3135 29.9592 29.5029 27.199 17.7723 33.4093Z" fill="#4D0D06"/>
<path d="M41.9236 92.0623C12.482 87.002 -7.06902 59.6305 15.2422 41.4595C34.5633 25.8187 53.1943 43.9897 53.1943 43.9897C34.7933 31.569 18.0023 48.36 18.4624 57.3305C18.9224 67.681 31.3431 81.7118 62.1648 82.6319C92.9864 83.7819 88.8462 104.483 88.8462 104.483C81.0258 92.9824 65.6149 96.2025 41.9236 92.0623Z" fill="#E5B587"/>
<path d="M56.6445 82.6323C56.6445 81.9422 53.6543 81.2522 48.824 79.8721C44.2238 78.492 37.5534 76.882 31.5731 73.2018C28.5829 71.3617 26.0528 69.2915 24.2127 66.9914C23.2926 65.8413 22.6026 64.6913 21.9126 63.5412C21.2225 62.3911 20.7625 61.2411 20.5325 60.091C19.1524 55.9508 20.3025 52.9606 19.6124 52.5006C19.3824 52.2706 18.4624 52.9606 17.7723 54.3407C17.0823 55.7208 16.3923 58.0209 16.6223 60.7811C16.8523 62.1612 17.0823 63.7712 17.5423 65.1513C18.0024 66.7614 18.9224 68.3715 19.8425 69.7516C21.9126 72.9717 24.9027 75.7319 28.5829 77.802C35.7133 81.9422 43.0737 83.0923 48.134 83.5523C53.4243 84.0123 56.6445 83.3223 56.6445 82.6323Z" fill="#4D0D06"/>
<path d="M22.3725 47.6699C23.2926 48.3599 25.3627 46.9798 27.6628 45.3697C30.1929 43.7597 32.033 42.1496 31.573 40.9995C31.343 40.0795 28.3528 40.3095 25.3627 42.1496C22.8325 44.4497 21.6825 47.2098 22.3725 47.6699Z" fill="#4D0D06"/>
<path d="M92.9864 52.0401C93.4464 52.0401 93.6764 49.97 92.9864 47.2098C92.5264 44.2196 90.9163 40.3095 88.1561 36.3993C85.396 32.489 81.9458 29.9589 79.1856 28.8088C76.4255 27.4287 74.3553 27.4288 74.3553 28.1188C74.1253 28.5788 75.7354 29.4988 78.0356 31.1089C80.3357 32.719 83.0958 35.2492 85.396 38.6994C89.9962 45.3698 91.8363 52.5001 92.9864 52.0401Z" fill="#4D0D06"/>
<path d="M76.1957 33.8697C75.7357 34.7897 78.0358 37.0899 80.3359 40.08C82.636 43.0702 84.4761 45.6003 85.3962 45.3703C86.3162 45.1403 86.0862 41.2301 83.0961 37.7799C81.716 35.9398 80.1059 34.7897 78.7258 34.0997C77.5757 33.4097 76.4257 33.4097 76.1957 33.8697Z" fill="#4D0D06"/>
<path d="M95.5167 4.88773C95.7467 4.4277 98.0468 4.42775 101.957 5.57781C102.877 6.03783 103.797 6.26785 104.947 6.72787C106.097 7.1879 107.017 7.87792 108.167 8.79797C109.317 9.48801 110.237 10.638 111.388 11.5581C112.308 12.7081 113.458 13.8582 114.378 15.2383C116.218 17.9984 117.138 20.7586 117.828 23.5188C118.288 26.2789 118.288 28.5791 118.058 30.6492C117.598 34.5594 116.218 36.8595 115.528 36.6295C114.838 36.3995 115.068 34.0994 114.608 30.6492C114.378 28.8091 114.148 26.7389 113.458 24.6688C112.768 22.5987 111.848 20.2986 110.467 17.9985C109.777 16.8484 108.857 15.9283 108.167 15.0083C107.247 14.0882 106.557 13.1682 105.637 12.4782C104.717 11.7881 103.797 11.0981 103.107 10.408C102.187 9.94799 101.497 9.258 100.577 8.79797C97.3567 6.95787 95.2867 5.57777 95.5167 4.88773Z" fill="#4D0D06"/>
<path d="M110.697 0.517528C110.927 -0.172509 112.537 -0.172509 115.298 0.517528C117.828 1.20757 121.738 3.27766 124.268 7.18788C125.648 9.02798 126.338 11.0981 126.568 13.1682C126.798 15.0083 126.798 16.8484 126.568 18.2285C126.108 20.9887 124.958 22.5987 124.268 22.3687C123.578 22.1387 123.578 20.5287 123.118 18.2285C122.888 17.0785 122.658 15.6984 122.198 14.3183C121.738 12.9382 121.048 11.3281 120.128 9.94806C118.288 7.18791 115.758 5.11777 113.687 3.73769C111.847 2.1276 110.697 1.20757 110.697 0.517528Z" fill="#4D0D06"/>
</svg>
