<svg width="217" height="155" viewBox="0 0 217 155" fill="none" xmlns="http://www.w3.org/2000/svg">
<path d="M26.8 130.5L4.30005 126.3L34.8 109L55.3 110.1L52.9001 131.3L20.5 151.5L26.8 130.5Z" fill="#FCD7AB"/>
<path d="M35.2 110.5L53.6 111.5L51.4 130.4L23 148.2L28.6 129.4L8.5 125.7L35.2 110.5ZM34.4 107.5L33.6 107.9L7.1 123L0 127L8.1 128.5L24.9 131.6L20.2 147.2L17.9 154.8L24.7 150.6L53 132.9L54.2 132.1L54.4 130.7L56.6 111.8L57 108.7L53.8 108.5L35.4 107.5H34.4Z" fill="#6B1B12"/>
<path d="M27.3001 123.3L16.3001 121.2L8.6001 125.6L25.7001 128.8L27.3001 123.3Z" fill="#E5B587"/>
<path d="M51.5001 111.4L50.0001 124.4L25.6001 139.7L23.1001 148.2L51.4001 130.4L53.6001 111.5L51.5001 111.4Z" fill="#E5B587"/>
<path d="M211.4 9.20001C211.5 9.50001 210.6 10.3 208.8 11.5C207.9 12.1 206.8 12.8 205.5 13.6C204.2 14.4 202.8 15.4 201.1 16.4C194.6 20.5 185.7 26.2 175.9 32.7C156.4 45.7 140.7 56.6 140 55.7C139.3 54.8 153.9 42.3 173.6 29.3C183.4 22.8 192.7 17.4 199.6 13.9C201.3 13 202.9 12.3 204.3 11.6C205.7 11 206.9 10.5 208 10.1C210.1 9.30002 211.2 9.00001 211.4 9.20001Z" fill="#6B1B12"/>
<path d="M107.7 137.7C106.2 136.7 70.9 112.4 64.3 79.6C60.4 60.1 65.5 48 70.5 41.4C76.4 33.6 84.1 30.3 89.3 29.8C89.9 29.8 90.4 29.7 91 29.7C99.3 29.7 108.8 34.8 112.8 43.7C116.8 35.9 126.4 22 144.8 22C147.3 22 149.9 22.3 152.6 22.8C166 25.4 174.9 33.2 177.6 44.8C181.6 61.6 171.7 83 153.7 96.8C146.8 102.1 140.4 106.3 134.7 110C120.9 119 111.8 125 110.7 136.3L110.4 139.6L107.7 137.7Z" fill="#F56878"/>
<path d="M144.9 23.9C147.2 23.9 149.7 24.1 152.3 24.6C187.3 31.4 181.9 72.6 152.6 95.1C129 113.2 110.5 118.7 108.8 136C108.8 136 72.8 111.6 66.3 79.2C59.8 46.8 78.4 32.7 89.5 31.7C90 31.7 90.5 31.6 91 31.6C99.9 31.6 110.6 38.3 112.5 49.3C112.5 49.4 120.6 23.9 144.9 23.9ZM144.9 19.9V23.9V19.9C133.7 19.9 123.9 24.8 116.5 34.2C115.1 36 113.8 37.8 112.8 39.5C107.8 32 98.9 27.7 91 27.7C90.4 27.7 89.7 27.7 89.1 27.8C83.4 28.3 75.1 31.8 68.8 40.2C63.6 47.2 58.2 59.8 62.3 80C69.1 113.6 105 138.3 106.5 139.4L112.1 143.2L112.8 136.5C113.8 126.1 122.6 120.3 135.9 111.6C141.6 107.9 148.1 103.6 155 98.3C173.6 84 183.8 61.8 179.6 44.2C176.7 31.8 167.2 23.5 153 20.7C150.3 20.2 147.5 19.9 144.9 19.9Z" fill="#6B1B12"/>
<path d="M110.3 108.8C101 120.7 88.5 115.9 86.3 106.1C84 96.3 103.6 79.4 106.9 81C110.2 82.6 107.3 92.9 112.7 88.9C118.1 84.9 115.9 73.4 111.5 70C107.1 66.6 103.1 69.2 103.1 69.2L108.1 74.2L73.8 98.6C86.5 120.9 108.8 136.1 108.8 136.1C109.7 126.6 115.7 120.6 124.8 114.2C121.5 107.9 116 101.4 110.3 108.8Z" fill="#D94650"/>
<path d="M152.6 95.1C181.9 72.6 187.3 31.4 152.3 24.6C122.2 18.7 112.5 49.3 112.5 49.3C125.3 25.1 153.2 33.7 158 43.9C163.4 55.5 158.1 77.8 125.1 96.8C92.1 115.7 108.8 136 108.8 136C110.5 118.7 129 113.2 152.6 95.1Z" fill="#D94650"/>
<path d="M131 93.2C130.7 92.7 133.8 90.5 138.5 86.5C140.8 84.5 143.5 82.1 146.3 79.3C149 76.4 151.9 73.1 154.2 69.3C156.5 65.5 158 61.5 158.6 57.7C158.7 57.2 158.7 56.8 158.8 56.3C158.8 55.8 158.9 55.4 158.9 54.9C158.9 54 159 53.1 158.9 52.3C158.8 50.6 158.6 49 158.3 47.6C157.6 44.8 156.4 42.8 155.5 41.5C154.5 40.2 153.9 39.4 154.1 39.2C154.3 39 155.3 39.3 156.7 40.4C158.1 41.5 160 43.6 161.2 46.8C161.8 48.4 162.3 50.1 162.5 52C162.7 53 162.7 54 162.7 55C162.7 55.5 162.7 56 162.7 56.6C162.7 57.1 162.7 57.7 162.6 58.2C162.2 62.6 160.5 67.2 157.9 71.4C155.4 75.7 152.2 79.1 149.2 82C146.1 84.9 143.1 87.1 140.5 88.9C135 92.4 131.3 93.7 131 93.2Z" fill="#6B1B12"/>
<path d="M148.2 35.6C147.8 36.4 144.8 35.9 141.1 35.6C137.4 35.2 134.3 34.9 134.2 34C134.1 33.1 137.3 32 141.4 32.5C143.4 32.7 145.2 33.3 146.4 33.9C147.7 34.5 148.3 35.2 148.2 35.6Z" fill="#6B1B12"/>
<path d="M107.5 75.2C107.6 75.5 106.7 76.3 105 77.6C104.1 78.2 103 79 101.8 79.9C100.6 80.8 99.1 81.8 97.5 82.9C91.2 87.3 82.5 93.4 73 100.2C54 114 38.9 125.5 38.1 124.6C37.4 123.7 51.4 110.7 70.5 96.8C80.1 89.9 89.1 84.1 95.9 80.3C97.6 79.4 99.1 78.5 100.5 77.8C101.9 77.1 103.1 76.6 104.1 76.1C106.2 75.3 107.3 75 107.5 75.2Z" fill="#6B1B12"/>
<path d="M202 31C196.5 31 194.6 27.7 194 25.8C193.4 23.9 193.4 21.8 193.9 19.9C191.5 19.9 188.4 18.9 186.5 16.4C185.5 15 184.5 12.5 185.7 8.79997C186.7 5.49997 190.1 1.59998 200.1 1.59998C207.1 1.59998 214.1 3.49998 214.4 3.59998L215.5 3.89997V5.09998C215.5 6.19998 214.7 30.9 202.2 31H202Z" fill="#FCD7AB"/>
<path d="M200 3C206.9 3 213.9 4.9 213.9 4.9C213.9 4.9 213.3 29.2 202.1 29.4H202C193.1 29.4 194.3 19.5 196.9 17.6C196.3 18.1 195.2 18.3 194 18.3C190.2 18.3 185 15.7 187.1 9.2C188.7 4.4 194.3 3 200 3ZM200 0C189.1 0 185.4 4.5 184.2 8.3C182.8 12.6 184 15.6 185.3 17.3C187 19.6 189.7 20.8 192.1 21.2C191.9 22.9 192 24.6 192.5 26.2C193.8 30.2 197.3 32.4 202 32.4H202.2C216 32.2 216.9 7.8 217 5V2.7L214.7 2.1C214.5 2 207.3 0 200 0Z" fill="#6B1B12"/>
<path d="M196.4 12.5C194.5 13.9 189 13.4 187 9.89996C185.5 16.2 190.9 18.5 194.6 18.3C194.3 15.9 195.2 13.4 196.4 12.5Z" fill="#E5B587"/>
<path d="M214 4.99999C214 4.99999 213.7 4.89999 213.1 4.79999C212.3 11.9 209.7 24.3 201.6 24.4C198.1 24.4 196.1 23 195.2 21.1C194.5 24.7 195.7 29.7 202.1 29.6C213.4 29.3 214 4.99999 214 4.99999Z" fill="#E5B587"/>
<path d="M73.9 81C73.7 81.1 73.4 80.6 73 79.6C72.8 79.1 72.6 78.6 72.3 77.9C72 77.2 71.8 76.4 71.6 75.5C71.4 74.6 71.2 73.6 71 72.6C70.8 71.5 70.7 70.4 70.6 69.2C70.4 66.8 70.5 64.1 70.8 61.3C71.6 55.7 73.7 50.8 76 47.9C78.2 44.9 80.2 43.6 80.5 43.9C80.8 44.2 79.5 45.9 77.9 49C76.3 52.1 74.7 56.5 74 61.7C73.3 66.9 73.6 71.7 73.9 75.2C73.9 76.1 74 76.9 74.1 77.6C74.2 78.3 74.2 78.9 74.3 79.4C74.2 80.4 74.1 81 73.9 81Z" fill="#6B1B12"/>
<path d="M81.6 51.5C82.4 52 80.8 55.7 80 60.4C79.1 65.1 79 69.1 78.2 69.2C77.8 69.3 77.2 68.3 76.9 66.6C76.6 64.9 76.5 62.4 77 59.8C77.5 57.2 78.5 54.9 79.4 53.5C80.3 52 81.2 51.3 81.6 51.5Z" fill="#6B1B12"/>
<path d="M112.3 84C111.3 84.2 110.3 79.8 107.3 75.7C105.8 73.7 104.1 72.2 102.7 71.2C101.3 70.2 100.4 69.6 100.4 69.2C100.5 68.8 101.8 68.6 103.6 69.2C105.5 69.8 107.9 71.4 109.7 73.8C111.5 76.3 112.4 78.9 112.6 80.8C112.9 82.7 112.7 83.9 112.3 84Z" fill="#6B1B12"/>
<path d="M115.2 77.2C114.6 77.3 113.9 74.6 112 72.1C110.1 69.6 107.7 68.6 107.8 68C107.8 67.7 108.7 67.6 109.8 68C111 68.4 112.5 69.3 113.6 70.8C114.7 72.3 115.3 74 115.4 75.2C115.6 76.4 115.4 77.1 115.2 77.2Z" fill="#6B1B12"/>
<path d="M207.6 21C207.8 21.1 207.7 21.9 207.1 22.9C206.9 23.2 206.7 23.4 206.5 23.7C206.3 24 206 24.2 205.7 24.5C205.4 24.8 205 25 204.6 25.2C204.2 25.4 203.7 25.6 203.2 25.7C201.2 26.2 199.5 25.5 198.5 24.8C197.5 24.1 197.1 23.5 197.3 23.2C197.5 23 198.1 23.2 199.1 23.4C200.1 23.6 201.4 23.9 202.7 23.6C203 23.6 203.3 23.4 203.6 23.3C203.9 23.1 204.2 23 204.4 22.9C204.7 22.7 204.9 22.6 205.2 22.4C205.4 22.2 205.6 22 205.8 21.9C206.8 21.3 207.4 20.9 207.6 21Z" fill="#6B1B12"/>
<path d="M54.1 52.7C53.8 52.7 53.6 52.2 53.3 51.2C53.2 50.7 53.1 50.1 53 49.4C53 49.1 52.9 48.7 52.9 48.3C52.9 47.9 52.9 47.5 52.9 47.1C52.9 46.2 53 45.3 53 44.2C53.2 43.2 53.4 42.1 53.6 40.9C53.8 39.7 54.3 38.6 54.7 37.3C54.9 36.7 55.2 36.1 55.5 35.5C55.8 34.9 56 34.3 56.4 33.7C57.1 32.5 57.8 31.4 58.7 30.4C59.1 29.9 59.5 29.4 59.9 28.9C60.3 28.5 60.8 28 61.2 27.6C63 26 64.7 24.8 66.3 24C69.5 22.3 71.8 22.2 71.9 22.7C72.1 23.3 70.3 24.3 67.9 26.4C66.7 27.4 65.3 28.7 63.9 30.3C63.6 30.7 63.2 31.1 62.9 31.5C62.5 31.9 62.3 32.4 61.9 32.8C61.2 33.7 60.7 34.7 60 35.7C59.7 36.2 59.5 36.8 59.2 37.3C59 37.8 58.6 38.3 58.5 38.8C58.1 39.9 57.6 40.9 57.3 41.9C57 42.9 56.7 43.9 56.4 44.8C56.2 45.7 56 46.6 55.8 47.4C55.7 47.8 55.6 48.2 55.5 48.5C55.4 48.9 55.4 49.2 55.3 49.5C55.2 50.1 55 50.7 54.9 51.2C54.6 52.2 54.3 52.7 54.1 52.7Z" fill="#6B1B12"/>
<path d="M47.5001 42C47.2001 42 47.0001 41.6 46.7001 41C46.6001 40.7 46.5001 40.3 46.4001 39.8C46.3001 39.3 46.2001 38.8 46.2001 38.1C46.1001 35.7 46.6001 32.1 48.5001 28.7C50.4001 25.3 53.3001 22.9 55.6001 21.9C57.9001 20.8 59.6001 20.9 59.7001 21.5C59.9001 22.1 58.7001 22.9 57.2001 24.4C55.6001 25.8 53.7001 28 52.1001 30.8C49.1001 36.2 48.8001 42 47.5001 42Z" fill="#6B1B12"/>
</svg>
