<svg width="100" height="117" viewBox="0 0 100 117" fill="none" xmlns="http://www.w3.org/2000/svg">
<path fill-rule="evenodd" clip-rule="evenodd" d="M5.80706 93.7543L0.707054 77.5543C-1.49295 74.6543 2.10707 71.0543 2.50707 70.7543L17.7071 54.6543C17.4071 52.2543 17.7071 49.7543 18.5071 47.2543V47.1543C19.6071 43.9543 21.5071 41.2543 23.9071 39.2543C25.9071 37.6543 28.3071 36.4543 30.8071 35.7543L23.0071 27.6543C22.7071 27.2543 22.6071 26.7543 22.9071 26.3543L26.9071 18.8543C27.1071 18.4543 27.5071 18.2543 27.9071 18.2543L37.1071 18.3543L41.3071 5.65427C41.3071 5.65427 43.6071 -0.645706 52.2071 0.0542938C59.9071 0.654294 87.5071 7.25429 88.6071 7.55429C88.6071 7.55429 91.0071 8.05428 92.5071 10.2543L98.4071 17.8543C98.6071 18.1543 101.007 21.0543 98.8071 26.9543C96.9071 32.2543 88.2071 55.5543 88.2071 55.6543C88.2071 55.7543 88.2071 55.7543 88.1071 55.8543C88.1071 55.8543 85.8071 59.7543 81.5071 59.2543C79.9071 59.0543 77.8071 58.5543 75.8071 57.9543C76.4071 61.0543 77.7071 67.3543 78.2071 70.2543C78.9071 74.1543 77.3071 78.3543 77.1071 78.8543C77.1071 78.9543 77.0071 79.0543 77.0071 79.0543C74.5071 83.1543 70.9071 88.8543 67.8071 93.6543C65.6071 97.0543 63.7071 100.054 62.5071 101.754C58.3071 107.954 50.9071 106.554 50.3071 106.454C50.2071 106.454 16.1071 99.1543 9.60708 96.7543C8.60708 96.3543 7.80705 95.9543 7.20705 95.4543C6.40705 95.0543 6.00706 94.3543 5.80706 93.7543Z" fill="#6C0B1B"/>
<path fill-rule="evenodd" clip-rule="evenodd" d="M38.6071 42.3542H38.7071C41.6071 43.3542 43.8071 45.3542 45.0071 47.9542C46.2071 50.4542 46.5071 53.4542 45.6071 56.3542V56.4542C45.1071 57.9542 44.2071 59.3542 43.2071 60.4542C41.9071 60.4542 40.6071 60.5542 39.2071 60.7542C41.2071 59.7542 42.8071 57.9542 43.6071 55.6542C44.4071 53.3542 44.2071 50.8542 43.1071 48.8542C42.1071 46.8542 40.3071 45.1542 38.0071 44.3542C35.7071 43.5542 33.2071 43.7542 31.2071 44.8542C29.2071 45.8542 27.5071 47.6542 26.7071 49.9542C25.9071 52.2542 26.1071 54.7542 27.2071 56.7542C28.2071 58.7542 30.0071 60.4542 32.3071 61.2542C33.3071 61.5542 34.3071 61.7542 35.3071 61.7542C34.7071 61.9542 34.2071 62.1542 33.6071 62.4542C32.9071 62.7542 32.3071 63.0542 31.7071 63.3542H31.6071C28.7071 62.3542 26.5071 60.3542 25.2071 57.7542C23.9071 55.2542 23.7071 52.1542 24.6071 49.2542C25.6071 46.3542 27.6071 44.1542 30.2071 42.8542C32.7071 41.6542 35.7071 41.3542 38.6071 42.3542Z" fill="#F16B73"/>
<path fill-rule="evenodd" clip-rule="evenodd" d="M30.4071 25.6543L25.4071 27.0543L33.8071 35.8543L30.4071 25.6543Z" fill="#ADDDED"/>
<path fill-rule="evenodd" clip-rule="evenodd" d="M39.8071 25.4543L31.5071 25.5544L35.5071 37.5544V37.4543L39.8071 25.4543Z" fill="#ADDDED"/>
<path fill-rule="evenodd" clip-rule="evenodd" d="M25.5071 25.9543L30.4071 24.5544L32.2071 20.5544L28.4071 20.4543L25.5071 25.9543Z" fill="#ADDDED"/>
<path fill-rule="evenodd" clip-rule="evenodd" d="M45.9071 24.3543L43.0071 20.6543H39.8071L41.0071 24.4543L45.9071 24.3543Z" fill="#ADDDED"/>
<path fill-rule="evenodd" clip-rule="evenodd" d="M37.807 20.5544H37.707L33.407 20.4543L31.6071 24.4543L39.907 24.3543L38.707 20.5544H37.807Z" fill="#ADDDED"/>
<path fill-rule="evenodd" clip-rule="evenodd" d="M75.9071 55.8544C77.9071 56.3544 80.1071 56.9544 81.6071 57.1544C84.2071 57.4544 85.8071 55.2544 86.0071 54.8544C86.6071 53.1544 94.5071 31.9544 96.6071 26.2544C98.4071 21.2544 96.6071 19.3544 96.6071 19.3544L96.5071 19.2544L93.4071 15.2544C93.3071 16.2544 93.2071 17.2544 92.9071 18.4544C92.2071 21.3544 90.5071 25.9544 88.6071 30.8544C86.7071 35.8544 84.5071 41.0544 82.8071 45.0544C82.6071 45.4544 82.4071 46.0544 82.2071 46.5544C80.6071 50.7544 79.1071 54.3544 75.9071 55.8544Z" fill="#F16B73"/>
<path fill-rule="evenodd" clip-rule="evenodd" d="M75.9071 55.8544C77.9071 56.3544 80.1071 56.9544 81.6071 57.1544C84.2071 57.4544 85.8071 55.2544 86.0071 54.8544L87.8071 49.9544C86.5071 48.3544 85.8071 46.0544 86.5071 43.0544C88.2071 35.4544 92.0071 25.3544 93.0071 23.2544C93.5071 22.2544 95.2071 21.0544 97.3071 21.0544C97.1071 19.8544 96.6071 19.3544 96.6071 19.3544L96.5071 19.2544L93.4071 15.2544C93.3071 16.2544 93.2071 17.2544 92.9071 18.4544C92.2071 21.3544 90.5071 25.9544 88.6071 30.8544C86.7071 35.8544 84.5071 41.0544 82.8071 45.0544C82.6071 45.4544 82.4071 46.0544 82.2071 46.5544C80.6071 50.7544 79.1071 54.3544 75.9071 55.8544Z" fill="#DA474E"/>
<path fill-rule="evenodd" clip-rule="evenodd" d="M3.50708 79.5543L7.80707 93.0543C7.90707 93.3543 8.10708 93.6543 8.50708 93.9543C8.90708 94.2543 9.50706 94.5542 10.2071 94.8542C16.5071 97.1542 50.5071 104.454 50.6071 104.454C51.1071 104.554 57.1071 105.654 60.6071 100.654C61.7071 99.0542 63.6071 96.0542 65.8071 92.6542C68.9071 87.7542 72.5071 82.0543 74.9071 78.0543C75.1071 77.4543 76.4071 73.9542 75.9071 70.6542C75.4071 67.7542 74.1071 61.4542 73.5071 58.3542C70.3071 63.4542 60.2071 79.7542 56.9071 84.6542C52.7071 90.8542 45.3071 89.4542 44.7071 89.3542C44.6071 89.3542 10.5071 82.0542 4.00708 79.6542C3.80708 79.6542 3.70708 79.6543 3.50708 79.5543Z" fill="#F16B73"/>
<path fill-rule="evenodd" clip-rule="evenodd" d="M3.50708 79.5543L5.30707 85.3542C6.40707 84.9542 8.00709 84.7542 10.1071 84.8542C18.9071 85.0542 40.6071 91.2543 42.5071 92.5543C43.6071 93.3543 46.8071 98.1543 45.8071 103.554C48.7071 104.154 50.6071 104.554 50.6071 104.554C51.1071 104.654 57.1071 105.754 60.6071 100.754C61.7071 99.1542 63.6071 96.1542 65.8071 92.7542L66.4071 91.7542C64.0071 92.0542 62.1071 91.9543 61.5071 90.9543C59.3071 87.3543 60.8071 83.5542 64.4071 77.1542C67.6071 71.4542 70.1071 68.8542 74.5071 78.8542L75.0071 78.0543C75.2071 77.4543 76.5071 73.9542 76.0071 70.6542C75.5071 67.7542 74.2071 61.4542 73.6071 58.3542C70.4071 63.4542 60.3071 79.7542 57.0071 84.6542C52.8071 90.8542 45.4071 89.4542 44.8071 89.3542C44.7071 89.3542 10.6071 82.0542 4.10709 79.6542C3.80709 79.6542 3.70708 79.6543 3.50708 79.5543Z" fill="#DA474E"/>
<path fill-rule="evenodd" clip-rule="evenodd" d="M51.5071 46.6542C53.3071 47.0542 55.1071 47.5542 56.9071 47.9542C59.0071 48.4542 61.0071 48.8542 62.9071 49.2542C66.2071 49.9542 68.9071 50.1542 71.0071 49.9542C72.8071 49.7542 74.0071 49.1542 74.4071 48.1542C74.9071 47.0542 76.5071 42.6542 78.3071 37.5542C80.5071 31.5542 83.0071 24.4542 84.6071 20.4542C87.2071 13.9542 82.1071 12.9542 82.1071 12.9542C82.0071 12.9542 59.8071 8.0542 52.7071 6.9542C46.6071 6.0542 44.6071 11.6542 44.4071 12.0542L42.6071 18.4542H43.6071C43.9071 18.4542 44.2071 18.6542 44.4071 18.8542L48.6071 24.1542C48.9071 24.5542 48.9071 25.1542 48.6071 25.5542L39.8071 35.8542C40.1071 35.9542 40.5071 36.0542 40.8071 36.1542C45.4071 37.7542 48.9071 40.9542 50.9071 45.0542C51.1071 45.5542 51.3071 46.0542 51.5071 46.6542Z" fill="#EDCAC9"/>
<path fill-rule="evenodd" clip-rule="evenodd" d="M40.907 18.4542L42.807 11.6542V11.5542C43.007 10.9542 45.407 4.25418 52.807 5.35418C59.807 6.35418 81.907 11.2542 82.307 11.3542C82.307 11.3542 89.4071 12.7542 86.007 21.0542C84.4071 25.0542 81.907 32.0542 79.707 38.0542C77.907 43.1542 76.307 47.6542 75.707 48.7542C75.007 50.2542 73.4071 51.1542 71.007 51.4542C68.807 51.7542 65.907 51.4542 62.407 50.7542C60.707 50.3542 58.607 49.9542 56.407 49.4542C54.807 49.0542 53.307 48.7542 51.907 48.4542C52.107 49.0542 52.207 49.6542 52.307 50.3542C54.507 50.8542 57.807 51.5542 61.207 52.3542C63.707 52.9542 66.207 53.5542 68.307 54.0542C76.107 55.9542 77.9071 51.4542 80.1071 46.0542C80.3071 45.5542 80.507 45.1542 80.707 44.5542C82.407 40.4542 84.607 35.2542 86.407 30.3542C88.307 25.4542 89.907 20.9542 90.707 18.1542C92.607 10.7542 87.907 9.75418 87.907 9.75418C87.807 9.75418 59.607 2.95418 51.807 2.35418C44.907 1.85418 43.1071 6.35419 43.1071 6.55419L39.207 18.5542L40.907 18.4542Z" fill="#AE3F4A"/>
<path fill-rule="evenodd" clip-rule="evenodd" d="M52.6071 53.9543C54.4071 54.4543 58.7071 55.5543 61.8071 56.7543C64.1071 57.6543 65.4071 58.1543 66.0071 58.9543C66.8071 60.0543 66.6071 61.0543 65.5071 62.8543C63.9071 65.5543 60.8071 70.7543 58.1071 75.1543C56.4071 77.9543 54.9071 80.2543 54.1071 81.3543C51.2071 85.2543 44.5071 84.0543 44.5071 84.0543H44.4071C44.3071 84.0543 16.3071 77.7543 11.9071 76.3543C6.20707 74.6543 9.40707 70.6543 9.90707 70.0543L18.8071 59.3543C18.5071 58.6543 18.3071 58.0543 18.1071 57.3543C13.7071 62.1543 8.30707 68.5543 3.90707 72.3543C3.70707 72.5543 0.107058 76.0543 4.70706 77.7543C11.0071 80.0543 45.0071 87.3543 45.1071 87.3543C45.6071 87.4543 51.6071 88.5543 55.1071 83.5543C58.6071 78.5543 69.0071 61.6543 71.9071 57.0543C71.3071 56.8543 70.9071 56.7543 70.6071 56.6543C69.7071 56.5543 68.8071 56.3543 67.8071 56.1543C65.7071 55.6543 63.2071 55.0543 60.8071 54.4543C57.9071 53.7543 54.9071 53.1543 52.6071 52.6543C52.6071 53.0543 52.6071 53.5543 52.6071 53.9543Z" fill="#AE3F4A"/>
<path fill-rule="evenodd" clip-rule="evenodd" d="M21.007 59.0542C21.007 59.0542 21.007 59.1542 21.007 59.0542C21.107 59.3542 21.207 59.5542 21.307 59.6542C22.707 62.4542 24.907 64.7542 27.707 66.3542C27.107 66.9542 26.707 67.5542 26.407 68.0542C23.607 66.4542 21.407 64.1542 19.907 61.4542L11.707 71.3542L11.6071 71.4542C11.3071 71.7542 10.0071 73.4542 12.6071 74.2542C16.9071 75.5542 43.807 81.6542 44.907 81.8542C45.307 81.9542 50.307 82.6542 52.407 79.9542C53.207 78.9542 54.707 76.6542 56.307 73.9542C58.907 69.7542 62.107 64.4542 63.707 61.6542C64.207 60.7542 64.407 60.3542 64.407 60.2542C64.107 59.8542 63.0071 59.4542 61.1071 58.7542C58.3071 57.6542 54.407 56.6542 52.407 56.1542C52.307 56.8542 52.107 57.6542 51.807 58.3542C51.807 58.4542 51.807 58.4542 51.707 58.5542C51.407 59.5542 51.007 60.4542 50.507 61.3542C49.807 61.2542 49.107 61.0542 48.307 60.9542C48.907 59.9542 49.407 58.9542 49.707 57.8542C50.007 56.8542 50.307 55.8542 50.407 54.7542C50.507 53.6542 50.507 52.5542 50.407 51.4542V51.3542C50.207 49.5542 49.707 47.7542 48.907 46.1542C47.207 42.6542 44.107 39.7542 40.007 38.3542C39.607 38.2542 39.207 38.0542 38.807 37.9542C38.607 37.8542 38.4071 37.8542 38.1071 37.7542L36.307 39.8542C35.907 40.3542 35.207 40.3542 34.807 39.9542L34.707 39.8542L32.507 37.5542C29.807 37.9542 27.307 39.1542 25.307 40.8542C23.207 42.6542 21.507 44.9542 20.507 47.8542C19.207 51.7542 19.507 55.6542 21.007 59.0542Z" fill="white"/>
<path fill-rule="evenodd" clip-rule="evenodd" d="M37.5071 35.1543L45.8071 25.4543H41.0071L37.5071 35.1543Z" fill="#ADDDED"/>
<path fill-rule="evenodd" clip-rule="evenodd" d="M38.7071 42.3544H38.6071C35.7071 41.3544 32.7071 41.6544 30.2071 42.9544C27.7071 44.2544 25.6071 46.4544 24.6071 49.3544C23.6071 52.2544 23.9071 55.2544 25.2071 57.8544C26.3071 60.1544 28.3071 62.0544 30.8071 63.1544C29.4071 63.9544 28.1071 64.9544 27.0071 66.0544C24.5071 64.5544 22.6071 62.3544 21.3071 59.7544L21.0071 59.2544V59.1544C19.5071 55.7544 19.2071 51.8544 20.5071 48.0544C21.5071 45.2544 23.2071 42.8544 25.3071 41.0544C27.4071 39.3544 29.9071 38.1544 32.5071 37.7544L34.7071 40.0544L34.8071 40.1544C35.3071 40.5544 35.9071 40.4544 36.3071 40.0544L38.1071 37.9544C38.3071 37.9544 38.5071 38.0544 38.8071 38.1544C39.2071 38.2544 39.6071 38.3544 40.0071 38.5544C44.0071 39.9544 47.1071 42.7544 48.9071 46.3544C49.7071 47.9544 50.2071 49.7544 50.4071 51.5544V51.6544C50.5071 52.7544 50.5071 53.8544 50.4071 54.9544C50.3071 55.9544 50.0071 56.9544 49.7071 58.0544C49.4071 58.8544 49.1071 59.6544 48.7071 60.3544C47.2071 59.9544 45.6071 59.7544 44.0071 59.6544C44.7071 58.7544 45.2071 57.7544 45.6071 56.6544V56.5544C46.6071 53.6544 46.3071 50.6544 45.0071 48.1544C43.8071 45.4544 41.6071 43.3544 38.7071 42.3544Z" fill="#FDD6AC"/>
<path fill-rule="evenodd" clip-rule="evenodd" d="M43.907 53.9542C43.507 53.8542 43.1071 53.7542 42.6071 53.6542C41.7071 53.4542 40.807 53.3542 39.807 53.1542C38.807 52.9542 32.207 52.1542 31.207 52.2542C30.707 52.3542 29.407 52.9542 28.807 53.1542C27.307 53.6542 26.607 53.9542 26.207 54.2542C26.307 55.1542 26.607 55.9542 27.007 56.7542C28.007 58.7542 29.8071 60.4542 32.1071 61.2542C32.5071 61.3542 32.907 61.4542 33.207 61.5542C34.307 61.0542 35.207 60.6542 36.007 60.3542C37.507 59.8542 39.207 59.5542 40.907 59.3542C42.007 58.3542 42.907 57.0542 43.407 55.5542C43.707 55.1542 43.907 54.5542 43.907 53.9542Z" fill="#D5A1A2"/>
<path fill-rule="evenodd" clip-rule="evenodd" d="M33.4071 51.1543C35.5071 51.3543 37.7071 51.6544 39.8071 51.9544C40.7071 52.0544 42.7071 52.3544 44.0071 53.0544C44.0071 52.0544 43.9071 51.0544 43.6071 50.0544C40.4071 50.0544 31.8071 46.2544 27.1071 49.9544C26.9071 50.0544 26.7071 50.2544 26.5071 50.4544C26.2071 51.3544 26.1071 52.3543 26.2071 53.2543C26.6071 53.0543 27.0071 52.7544 27.6071 52.5544C30.9071 51.1544 30.3071 50.9543 33.4071 51.1543Z" fill="#AE3F4A"/>
<path fill-rule="evenodd" clip-rule="evenodd" d="M74.407 28.0546C75.207 28.5546 75.507 28.2546 75.907 27.7546C75.807 27.2546 75.707 27.2546 75.507 26.9546C74.807 26.9546 74.407 27.2546 74.407 28.0546Z" fill="#6C0B1B"/>
<path fill-rule="evenodd" clip-rule="evenodd" d="M57.807 89.8545C58.507 89.6545 59.107 88.8545 58.007 88.3545C57.407 88.5545 57.307 88.7545 57.207 89.4545C57.607 89.9545 57.207 89.6545 57.807 89.8545Z" fill="#6C0B1B"/>
<path fill-rule="evenodd" clip-rule="evenodd" d="M73.5071 75.7545C73.5071 76.0545 73.5071 76.0546 73.7071 76.3546C74.8071 76.5546 74.8071 76.0545 74.6071 75.2545C74.1071 75.1545 73.5071 75.0545 73.5071 75.7545Z" fill="#6C0B1B"/>
<path fill-rule="evenodd" clip-rule="evenodd" d="M95.9071 23.5545C95.7071 22.9545 95.9071 23.2545 95.5071 22.8545L94.7071 22.9545C94.2071 23.9545 95.3071 24.3545 95.9071 23.5545Z" fill="#6C0B1B"/>
<path fill-rule="evenodd" clip-rule="evenodd" d="M58.707 28.8544C59.207 28.8544 59.607 28.8544 59.507 28.2544C59.407 27.7544 59.107 27.7544 58.607 27.7544C58.407 28.3544 58.407 28.3544 58.707 28.8544Z" fill="#6C0B1B"/>
<path fill-rule="evenodd" clip-rule="evenodd" d="M49.207 102.054C49.807 102.054 50.207 101.854 50.307 101.254C49.507 100.854 48.907 101.054 49.207 102.054Z" fill="#6C0B1B"/>
<path fill-rule="evenodd" clip-rule="evenodd" d="M25.5071 71.4545C26.4071 70.8545 25.5071 70.0545 27.3071 68.0545C28.2071 67.1545 28.9071 66.5545 30.0071 65.7545C36.2071 61.4545 42.8071 60.2545 50.2071 62.2545C51.3071 62.5545 53.2071 63.1545 54.2071 63.0545C54.1071 61.7545 51.9071 61.1545 50.7071 60.6545C46.2071 59.0545 40.4071 58.8545 36.1071 60.3545C32.7071 61.5545 24.1071 65.8545 24.9071 70.6545C25.0071 71.3545 25.1071 71.2545 25.5071 71.4545Z" fill="#6C0B1B"/>
<path fill-rule="evenodd" clip-rule="evenodd" d="M60.5071 15.3545C58.5071 14.9545 53.6071 13.7545 51.8071 14.1545C52.0071 14.4545 51.7071 14.4545 52.5071 14.6545C52.8071 14.7545 53.2071 14.8545 53.5071 14.9545L59.4071 16.2545C62.4071 16.9545 65.0071 16.9545 67.9071 17.5545C69.2071 17.8545 70.7071 18.1545 72.2071 18.2545C74.2071 18.4545 74.6071 18.1545 76.5071 18.8545C78.7071 19.6545 81.5071 20.8545 84.0071 21.0545C84.4071 21.8545 83.9071 21.4545 84.5071 21.7545C84.8071 20.7545 84.7071 20.4545 83.7071 20.1545C79.7071 19.1545 76.9071 17.2545 73.8071 17.1545C70.6071 17.0545 67.9071 16.0545 65.0071 15.7545C63.3071 15.6545 62.2071 15.6545 60.5071 15.3545Z" fill="#6C0B1B"/>
<path fill-rule="evenodd" clip-rule="evenodd" d="M44.5071 77.3544C45.3071 77.2544 45.3071 76.5544 45.7071 75.7544C46.6071 73.9544 47.7071 72.2544 49.0071 70.7544C53.5071 65.6544 54.0071 67.2544 55.8071 66.6544C55.5071 65.7544 54.0071 65.7544 53.1071 66.0544C51.4071 66.5544 50.2071 67.7544 48.9071 68.9544C48.0071 69.8544 47.9071 69.0544 45.5071 69.0544C41.0071 69.0544 34.8071 73.3544 34.8071 75.3544C35.6071 75.4544 36.7071 74.2544 37.2071 73.8544C40.4071 71.4544 43.5071 69.8544 47.6071 70.4544C46.6071 72.2544 44.3071 74.4544 44.5071 77.3544Z" fill="#6C0B1B"/>
<path fill-rule="evenodd" clip-rule="evenodd" d="M51.6072 38.5543C53.6072 38.5543 60.4072 33.0543 62.0072 31.8543C63.7072 30.6543 65.2072 29.3543 66.8072 28.1543C67.9072 27.3543 71.1072 25.1543 71.4072 24.1543C69.8072 24.1543 62.7072 29.7543 61.1072 30.9543L53.7072 36.4543C52.8072 37.0543 51.7072 37.6543 51.6072 38.5543Z" fill="#6C0B1B"/>
<path fill-rule="evenodd" clip-rule="evenodd" d="M55.3071 43.9544C56.1071 44.4544 56.8071 43.5543 57.9071 42.7543C61.2071 40.1543 67.8072 34.5543 71.1072 31.3543C71.6072 30.8543 72.7071 29.9543 72.8071 29.1543C71.8071 29.0543 70.9071 30.2543 70.2071 30.6543L65.8071 34.4544C65.1071 35.0544 64.3072 35.6543 63.6072 36.2543C62.7072 37.1543 55.2071 43.2544 55.3071 43.9544Z" fill="#6C0B1B"/>
<path fill-rule="evenodd" clip-rule="evenodd" d="M25.5071 56.2543C26.2071 54.4543 25.0071 54.6543 29.0071 53.2543C29.6071 53.0543 30.9071 52.4543 31.4071 52.3543C32.4071 52.2543 38.9071 53.0543 40.0071 53.2543C41.0071 53.4543 41.8071 53.5543 42.8071 53.7543C43.3071 53.8543 43.7071 53.9544 44.1071 54.0544H45.3071C44.7071 52.6544 41.2071 52.2544 40.0071 52.0544C37.9071 51.6544 35.7071 51.3543 33.6071 51.2543C30.6071 51.0543 31.1071 51.2544 27.8071 52.5544C23.8071 54.0544 24.9071 55.9543 25.5071 56.2543Z" fill="#6C0B1B"/>
<path fill-rule="evenodd" clip-rule="evenodd" d="M25.3071 51.2543C26.0071 51.0543 26.5071 50.2544 27.1071 49.8544C32.5071 45.6544 43.0071 51.2543 44.7071 49.7543C44.5071 48.7543 41.4071 48.4543 39.8071 48.1543C35.9071 47.3543 32.9071 46.1544 28.5071 47.8544C27.1071 48.3544 25.3071 49.7543 25.3071 51.2543Z" fill="#6C0B1B"/>
<path fill-rule="evenodd" clip-rule="evenodd" d="M58.2071 98.8544C57.9071 98.3544 57.0071 95.2544 56.7071 94.3544C55.3071 89.7544 56.5071 91.7544 56.7071 90.0544C54.1071 90.0544 55.1071 93.1544 55.6071 94.9544L56.8071 99.2544C56.9071 99.9544 56.9071 100.154 57.3071 100.554C58.3071 101.054 58.8071 100.054 59.3071 99.5544C60.4071 98.2544 62.8071 95.0544 62.8071 93.6544C61.7071 93.7544 61.3071 94.9544 60.3071 96.2544C59.7071 96.9544 59.0071 98.2544 58.2071 98.8544Z" fill="#6C0B1B"/>
<path fill-rule="evenodd" clip-rule="evenodd" d="M61.3071 45.2543C62.9071 45.2543 65.7071 42.8543 67.0071 41.7543L73.3071 35.9543C73.8071 35.4543 74.3071 35.0543 74.4071 34.1543C73.0071 34.2543 70.4071 37.2543 69.2071 38.1543C68.6071 38.5543 68.2071 39.0543 67.6071 39.5543C66.0071 40.8543 64.6071 42.2543 62.6071 43.7543C62.0071 44.1543 61.3071 44.4543 61.3071 45.2543Z" fill="#6C0B1B"/>
<path fill-rule="evenodd" clip-rule="evenodd" d="M43.1071 37.9543C44.0071 38.0543 44.0071 37.0543 44.5071 35.4543C44.8071 34.3543 45.1071 33.4543 45.5071 32.3543C45.9071 30.9543 47.4071 27.1543 46.7071 26.4543C45.7071 26.7543 44.7071 30.6543 44.3071 31.7543C44.0071 33.0543 42.7071 36.6543 43.1071 37.9543Z" fill="#6C0B1B"/>
<path fill-rule="evenodd" clip-rule="evenodd" d="M50.4072 15.2543C50.8072 13.9543 49.9072 13.7543 49.3072 15.1543C48.9072 15.9543 48.6072 16.8543 48.3072 17.7543C47.8072 19.3543 47.1072 21.5543 46.9072 23.2543C46.7072 24.8543 47.5072 24.9543 48.0072 23.3543L50.4072 15.2543Z" fill="#6C0B1B"/>
<path fill-rule="evenodd" clip-rule="evenodd" d="M46.6071 93.2543C47.8071 95.9543 47.7071 99.9544 49.4071 99.9544C49.6071 99.0544 48.2071 93.3543 47.7071 92.6543C47.2071 91.9543 46.9071 92.0543 45.9071 92.1543C44.8071 92.2543 44.7071 91.5544 44.3071 91.8544C43.8071 92.0544 44.6071 92.9543 44.8071 93.1543C45.5071 93.4543 45.9071 93.2543 46.6071 93.2543Z" fill="#6C0B1B"/>
<path fill-rule="evenodd" clip-rule="evenodd" d="M19.4071 70.6544C20.0071 70.2544 19.8071 69.2544 20.0071 68.4544C20.9071 64.7544 23.8071 65.4544 24.3071 65.3544C24.4071 64.4544 23.0071 64.1544 22.0071 64.3544C19.4071 64.8544 17.7071 69.3544 19.4071 70.6544Z" fill="#6C0B1B"/>
<path fill-rule="evenodd" clip-rule="evenodd" d="M72.2071 64.3545C71.6071 64.3545 71.5071 64.3545 71.3071 65.0545C71.0071 66.4545 71.7071 69.5545 72.0071 70.9545C72.2071 71.9545 72.1071 72.5545 73.1071 72.5545C73.2071 72.3545 73.3071 71.8545 73.3071 71.5545L72.2071 64.3545Z" fill="#6C0B1B"/>
<path fill-rule="evenodd" clip-rule="evenodd" d="M93.2071 20.3543C92.6071 19.6543 92.4071 18.6543 91.4071 18.9543C91.1071 20.1543 93.0071 22.7543 94.3071 22.4543C94.5071 21.5543 93.7071 20.9543 93.2071 20.3543Z" fill="#6C0B1B"/>
<path fill-rule="evenodd" clip-rule="evenodd" d="M61.2071 27.0543C62.2071 27.5543 64.9072 25.5543 64.4072 24.7543C64.0072 24.1543 62.9072 25.0543 62.5072 25.3543C62.0072 25.7543 61.1071 26.2543 61.2071 27.0543Z" fill="#6C0B1B"/>
<path fill-rule="evenodd" clip-rule="evenodd" d="M49.9071 13.1544C50.4071 12.6544 49.8071 11.7544 49.5071 11.2544C49.1071 10.6544 49.0071 9.95438 48.1071 10.2544C47.7071 11.4544 49.1071 13.8544 49.9071 13.1544Z" fill="#6C0B1B"/>
<path fill-rule="evenodd" clip-rule="evenodd" d="M57.9071 113.954C60.1071 115.254 64.5072 112.054 65.6072 110.854C66.4072 110.054 69.9071 106.854 69.3071 104.754C68.4071 104.454 68.1071 104.954 67.7071 105.554C65.5071 108.354 62.6071 111.254 59.2071 112.554C58.4071 112.954 57.8071 112.954 57.9071 113.954Z" fill="#6C0B1B"/>
<path fill-rule="evenodd" clip-rule="evenodd" d="M17.8071 20.6542C18.8071 19.4542 18.5071 17.9542 20.1071 16.3542C20.8071 15.6542 21.1071 15.3542 21.8071 14.7542C22.4071 14.3542 23.3071 13.6542 22.9071 12.6542C21.2071 12.2542 18.8071 14.6543 18.1071 15.4543C17.6071 16.0543 17.0071 17.0543 16.8071 17.9543C16.7071 18.4543 16.6071 19.0542 16.7071 19.6542C16.8071 20.4542 16.9071 20.5542 17.8071 20.6542Z" fill="#6C0B1B"/>
<path fill-rule="evenodd" clip-rule="evenodd" d="M68.7071 116.354H69.7071C70.9071 115.454 71.2071 115.554 72.0071 114.054C72.5071 113.054 73.2071 111.454 72.8071 110.354C72.0071 110.054 71.7071 110.054 71.2071 111.054C70.4071 112.554 70.3071 113.254 69.2071 114.554C68.7071 115.054 68.2071 115.454 68.7071 116.354Z" fill="#6C0B1B"/>
<path fill-rule="evenodd" clip-rule="evenodd" d="M18.0071 8.0544C17.2071 8.4544 16.6071 8.7544 16.3071 9.5544C15.5071 11.8544 18.5071 10.9544 19.3071 9.25438C19.6071 8.65438 19.2071 7.4544 18.0071 8.0544Z" fill="#6C0B1B"/>
<path fill-rule="evenodd" clip-rule="evenodd" d="M37.5071 37.6543C36.9071 37.5543 36.5071 37.0543 36.6071 36.4543C36.7071 35.8543 37.307 35.4543 37.807 35.5543C38.307 35.6543 38.807 35.7543 39.207 35.8543C39.707 35.9543 40.1071 36.1543 40.6071 36.2543C45.2071 37.8543 48.707 41.0543 50.707 45.1543C52.707 49.1543 53.1071 53.9543 51.6071 58.4543C51.6071 58.5543 51.607 58.5543 51.507 58.6543C51.2071 59.6543 50.807 60.5543 50.307 61.4543C49.607 61.3543 48.9071 61.1543 48.1071 61.0543C48.7071 60.0543 49.2071 59.0543 49.507 57.9543C50.9071 53.9543 50.507 49.7543 48.707 46.1543C47.007 42.6543 43.907 39.7543 39.807 38.3543C39.407 38.2543 39.0071 38.0543 38.6071 37.9543C38.4071 37.7543 37.9071 37.7543 37.5071 37.6543ZM26.307 68.0543C23.207 66.2543 20.807 63.6543 19.307 60.6543C17.307 56.6543 16.907 51.8543 18.407 47.3543V47.2543C19.507 44.0543 21.407 41.3543 23.807 39.3543C26.307 37.2543 29.407 35.9543 32.707 35.4543C33.307 35.3543 33.807 35.7543 33.907 36.3543C34.007 36.9543 33.607 37.4543 33.0071 37.5543C30.107 37.9543 27.407 39.1543 25.207 40.9543C23.107 42.7543 21.407 45.0543 20.407 47.9543C19.007 51.9543 19.407 56.1543 21.207 59.7543C22.607 62.5543 24.8071 64.8543 27.6071 66.4543C27.1071 66.9543 26.707 67.5543 26.307 68.0543ZM38.6071 42.3543C35.7071 41.3543 32.707 41.6543 30.207 42.9543C27.707 44.2543 25.6071 46.4543 24.6071 49.3543C23.6071 52.2543 23.907 55.2543 25.207 57.8543C26.507 60.3543 28.7071 62.4543 31.6071 63.4543H31.707C32.307 63.1543 32.9071 62.8543 33.6071 62.5543C34.2071 62.3543 34.707 62.0543 35.307 61.8543C34.307 61.8543 33.307 61.7543 32.307 61.3543C30.007 60.5543 28.207 58.8543 27.207 56.8543C26.207 54.8543 26.007 52.3543 26.707 50.0543C27.507 47.7543 29.207 45.9543 31.207 44.9543C33.207 43.9543 35.7071 43.7543 38.0071 44.4543C40.3071 45.2543 42.1071 46.9543 43.1071 48.9543C44.1071 50.9543 44.3071 53.4543 43.6071 55.7543C42.8071 58.0543 41.207 59.7543 39.207 60.8543C40.607 60.6543 41.907 60.5543 43.207 60.5543C44.307 59.4543 45.1071 58.0543 45.6071 56.5543V56.4543C46.6071 53.5543 46.3071 50.5543 45.0071 48.0543C43.8071 45.5543 41.607 43.4543 38.707 42.4543C38.707 42.3543 38.6071 42.3543 38.6071 42.3543Z" fill="#6C0B1B"/>
<path fill-rule="evenodd" clip-rule="evenodd" d="M34.7071 39.9545L23.0071 27.7545C22.7071 27.3545 22.6071 26.8545 22.9071 26.4545L26.9071 18.9545C27.1071 18.5545 27.5071 18.3545 27.9071 18.3545L43.6071 18.5545C43.9071 18.5545 44.2071 18.7545 44.4071 18.9545L48.6071 24.2545C48.9071 24.6545 48.9071 25.2545 48.6071 25.6545L36.3071 39.8545C35.9071 40.3545 35.2071 40.3545 34.7071 39.9545ZM25.1071 26.7545L35.5071 37.5545L46.4071 24.8545L43.1071 20.6545L28.5071 20.4545L25.1071 26.7545Z" fill="#6C0B1B"/>
<path fill-rule="evenodd" clip-rule="evenodd" d="M36.0071 39.0543C36.1071 39.3543 35.9071 39.6543 35.7071 39.7543C35.4071 39.8543 35.1071 39.6543 35.0071 39.4543L30.3071 25.3543C30.3071 25.2543 30.3071 25.0543 30.3071 24.9543L32.9071 19.3543C33.0071 19.0543 33.3071 18.9543 33.6071 19.0543C33.9071 19.1543 34.0071 19.4543 33.9071 19.7543L31.4071 25.1543L36.0071 39.0543Z" fill="#6C0B1B"/>
<path fill-rule="evenodd" clip-rule="evenodd" d="M38.4071 19.6545C38.3071 19.3545 38.5071 19.0545 38.8071 18.9545C39.1071 18.8545 39.4071 19.0545 39.5071 19.3545L41.2071 24.7545C41.2071 24.8545 41.2071 25.0545 41.2071 25.1545L36.1071 39.3545C36.0071 39.6545 35.7071 39.7545 35.4071 39.6545C35.1071 39.5545 35.0071 39.2545 35.1071 38.9545L40.1071 24.8545L38.4071 19.6545Z" fill="#6C0B1B"/>
<path fill-rule="evenodd" clip-rule="evenodd" d="M23.9072 27.4545C23.6072 27.5545 23.3072 27.3545 23.2072 27.0545C23.1072 26.7545 23.3072 26.4545 23.6072 26.3545L30.6072 24.4545H30.7072L40.5072 24.3545H47.6072C47.9072 24.3545 48.1072 24.5545 48.1072 24.8545C48.1072 25.1545 47.9072 25.3545 47.6072 25.3545H40.5072L30.7072 25.4545L23.9072 27.4545Z" fill="#6C0B1B"/>
<path fill-rule="evenodd" clip-rule="evenodd" d="M38.8071 19.8544C38.6071 20.4544 38.0071 20.7544 37.4071 20.5544C36.8071 20.3544 36.5071 19.7544 36.7071 19.1544L41.1071 5.7544C41.1071 5.7544 43.4071 -0.545609 52.0071 0.154391C59.7071 0.754391 87.3071 7.35439 88.4071 7.65439C88.4071 7.65439 95.4071 8.95439 92.9071 18.6544C92.2071 21.5544 90.5071 26.1544 88.6071 31.0544C86.7071 36.0544 84.5071 41.2544 82.8071 45.2544C82.6071 45.6544 82.4071 46.2544 82.2071 46.7544C79.6071 53.1544 77.4071 58.4544 67.8071 56.0544C65.7071 55.5544 63.2071 54.9544 60.8071 54.3544C57.2071 53.5544 53.5071 52.7544 51.2071 52.2544C50.6071 52.1544 50.2071 51.5544 50.4071 50.9544C50.6071 50.3544 51.1071 49.9544 51.7071 50.1544C53.9071 50.6544 57.5071 51.4544 61.3071 52.3544C63.8071 52.9544 66.3071 53.5544 68.4071 54.0544C76.2071 55.9544 78.0071 51.4544 80.2071 46.0544C80.4071 45.5544 80.6071 45.1544 80.8071 44.5544C82.5071 40.4544 84.7071 35.2544 86.5071 30.3544C88.4071 25.4544 90.0071 20.9544 90.8071 18.1544C92.7071 10.7544 88.0071 9.7544 88.0071 9.7544C87.9071 9.7544 59.7071 2.9544 51.9071 2.3544C45.0071 1.8544 43.2071 6.35442 43.2071 6.55442L38.8071 19.8544Z" fill="#6C0B1B"/>
<path fill-rule="evenodd" clip-rule="evenodd" d="M90.2071 11.2544C89.8071 10.7544 89.9071 10.1544 90.4071 9.75438C90.9071 9.35438 91.5071 9.45439 91.9071 9.95439L98.2071 18.0544C98.4071 18.3544 100.807 21.2544 98.6071 27.1544C96.7071 32.4544 88.0071 55.7544 88.0071 55.8544C88.0071 55.9544 88.0071 55.9544 87.9071 56.0544C87.9071 56.0544 85.6071 59.9544 81.3071 59.4544C77.6071 58.9544 70.5071 56.6544 70.5071 56.6544C69.9071 56.4544 69.6071 55.8544 69.8071 55.2544C70.0071 54.6544 70.6071 54.3544 71.2071 54.5544C71.2071 54.5544 78.1071 56.8544 81.6071 57.2544C84.2071 57.5544 85.8071 55.3544 86.0071 54.9544C86.6071 53.2544 94.5071 32.0544 96.6071 26.3544C98.4071 21.3544 96.6071 19.4544 96.6071 19.4544L96.5071 19.3544L90.2071 11.2544Z" fill="#6C0B1B"/>
<path fill-rule="evenodd" clip-rule="evenodd" d="M18.0072 54.3544C18.4072 53.9544 19.1072 53.8544 19.5072 54.3544C19.9072 54.7544 20.0072 55.4544 19.5072 55.8544C14.8072 60.7544 8.70715 68.1544 3.90715 72.4544C3.70715 72.6544 0.107137 76.1544 4.70714 77.8544C11.0071 80.1544 45.0072 87.4544 45.1072 87.4544C45.6072 87.5544 51.6072 88.6544 55.1072 83.6544C59.1072 77.8544 72.6071 55.9544 72.7071 55.9544C73.0071 55.4544 73.7071 55.2544 74.2071 55.5544C74.7071 55.8544 74.9072 56.5544 74.6072 57.0544C74.6072 57.1544 61.0072 79.0544 57.0072 84.8544C52.8072 91.0544 45.4071 89.6544 44.8071 89.5544C44.7071 89.5544 10.6072 82.2544 4.10716 79.8544C-3.69284 76.9544 2.10716 71.3544 2.50716 70.9544L18.0072 54.3544Z" fill="#6C0B1B"/>
<path fill-rule="evenodd" clip-rule="evenodd" d="M5.80706 93.7543C5.60706 93.1543 5.90708 92.5543 6.50708 92.3543C7.10708 92.1543 7.70707 92.4543 7.90707 93.0543C8.00707 93.3543 8.20708 93.6543 8.60708 93.9543C9.00708 94.2543 9.60706 94.5543 10.3071 94.8543C16.6071 97.1543 50.6071 104.454 50.7071 104.454C51.2071 104.554 57.2071 105.654 60.7071 100.654C61.8071 99.0543 63.7071 96.0543 65.9071 92.6543C69.0071 87.7543 72.6071 82.0543 75.0071 78.0543C75.2071 77.4543 76.5071 73.9543 76.0071 70.6543C75.3071 66.7543 73.2071 56.7543 73.2071 56.6543C73.1071 56.0543 73.5071 55.4543 74.0071 55.3543C74.6071 55.2543 75.2071 55.6543 75.3071 56.1543C75.3071 56.1543 77.4071 66.2543 78.1071 70.2543C78.8071 74.1543 77.2071 78.3543 77.0071 78.8543C77.0071 78.9543 76.9071 79.0543 76.9071 79.0543C74.4071 83.1543 70.8071 88.8543 67.7071 93.6543C65.5071 97.0543 63.6071 100.054 62.4071 101.754C58.2071 107.954 50.8071 106.554 50.2071 106.454C50.1071 106.454 16.0071 99.1543 9.50708 96.7543C8.50708 96.3543 7.70708 95.9543 7.10708 95.4543C6.40708 95.0543 6.00706 94.3543 5.80706 93.7543Z" fill="#6C0B1B"/>
<path fill-rule="evenodd" clip-rule="evenodd" d="M0.107117 76.0545C-0.0928833 75.4545 0.207098 74.8545 0.807098 74.6545C1.4071 74.4545 2.00709 74.7545 2.20709 75.3545L7.8071 93.0545C8.0071 93.6545 7.70712 94.2545 7.10712 94.4545C6.50712 94.6545 5.90709 94.3545 5.70709 93.7545L0.107117 76.0545Z" fill="#6C0B1B"/>
<path fill-rule="evenodd" clip-rule="evenodd" d="M42.2071 19.7544C42.1071 20.1544 41.6071 20.4544 41.2071 20.3544C40.8071 20.2544 40.5072 19.7544 40.6072 19.3544L42.8071 11.6544V11.5544C43.0071 10.9544 45.4071 4.25441 52.8071 5.35441C59.8071 6.35441 81.9071 11.2544 82.3071 11.3544C82.3071 11.3544 89.4071 12.7544 86.0071 21.0544C84.4071 25.0544 81.9071 32.0544 79.7071 38.0544C77.9071 43.1544 76.3071 47.6544 75.7071 48.7544C75.0071 50.2544 73.4071 51.1544 71.0071 51.4544C68.8071 51.7544 65.9071 51.4544 62.4071 50.7544C60.7071 50.3544 58.6071 49.9544 56.4071 49.4544C54.2071 48.9544 52.1071 48.4544 50.3071 48.0544C49.9071 47.9544 49.6071 47.5544 49.7071 47.0544C49.8071 46.6544 50.2071 46.3544 50.7071 46.4544C52.7071 46.9544 54.8071 47.4544 56.8071 47.8544C58.9071 48.3544 60.9071 48.7544 62.8071 49.1544C66.1071 49.8544 68.8071 50.0544 70.9071 49.8544C72.7071 49.6544 73.9071 49.0544 74.3071 48.0544C74.8071 46.9544 76.4071 42.5544 78.2071 37.4544C80.4071 31.4544 82.9071 24.3544 84.5071 20.3544C87.1071 13.8544 82.0071 12.8544 82.0071 12.8544C81.9071 12.8544 59.7072 7.95441 52.6072 6.85441C46.5072 5.95441 44.5071 11.5544 44.3071 11.9544L42.2071 19.7544Z" fill="#6C0B1B"/>
<path fill-rule="evenodd" clip-rule="evenodd" d="M19.207 58.8544C19.607 58.3544 20.307 58.3544 20.707 58.7544C21.207 59.1544 21.207 59.8544 20.807 60.2544L11.507 71.4544L11.407 71.5544C11.107 71.8544 9.80704 73.5544 12.407 74.3544C16.707 75.6544 43.607 81.7544 44.707 81.9544C45.107 82.0544 50.107 82.7544 52.207 80.0544C53.007 79.0544 54.5071 76.7544 56.1071 74.0544C58.7071 69.8544 61.9071 64.5544 63.507 61.7544C64.007 60.8544 64.207 60.4544 64.207 60.3544C63.907 59.9544 62.807 59.5544 60.907 58.8544C57.107 57.3544 51.1071 55.9544 51.1071 55.9544C50.5071 55.8544 50.207 55.2544 50.307 54.6544C50.407 54.0544 51.0071 53.7544 51.6071 53.8544C51.6071 53.8544 57.707 55.2544 61.707 56.8544C64.007 57.7544 65.307 58.2544 65.907 59.0544C66.707 60.1544 66.507 61.1544 65.407 62.9544C63.807 65.6544 60.7071 70.8544 58.007 75.2544C56.307 78.0544 54.807 80.3544 54.007 81.4544C51.107 85.3544 44.407 84.1544 44.407 84.1544H44.307C44.207 84.1544 16.207 77.8544 11.807 76.4544C6.10704 74.7544 9.30704 70.7544 9.80704 70.1544L19.207 58.8544Z" fill="#6C0B1B"/>
<path fill-rule="evenodd" clip-rule="evenodd" d="M10.5071 93.3543C10.1071 93.2543 9.80708 92.8543 9.90708 92.3543C10.0071 91.9543 10.4071 91.6542 10.9071 91.7542L12.0071 92.0543C12.4071 92.1543 12.7071 92.5543 12.6071 93.0543C12.5071 93.4543 12.1071 93.7542 11.6071 93.6542L10.5071 93.3543ZM14.4071 94.2542C14.0071 94.1542 13.7071 93.7542 13.8071 93.2542C13.9071 92.8542 14.3071 92.5542 14.8071 92.6542L26.7071 95.6542C27.1071 95.7542 27.4071 96.1542 27.3071 96.6542C27.2071 97.0542 26.8071 97.3542 26.3071 97.2542L14.4071 94.2542Z" fill="white"/>
</svg>
