<svg width="397" height="204" viewBox="0 0 397 204" fill="none" xmlns="http://www.w3.org/2000/svg">
<rect x="34.5" y="16.5" width="328" height="180" rx="17.5" stroke="#270A0A" stroke-width="5"/>
<path fill-rule="evenodd" clip-rule="evenodd" d="M13.5836 25.9806C14.2968 24.608 13.4053 14.8285 13.7619 11.5687C14.4751 4.70585 17.8627 2.30387 16.7929 0.0734592C13.5836 -0.955963 8.59139 8.99512 10.3743 19.8041C10.5526 22.0345 11.0875 26.3237 13.5836 25.9806Z" fill="#270A0A"/>
<path fill-rule="evenodd" clip-rule="evenodd" d="M387.439 184.865C387.439 182.932 387.762 181.966 386.473 181C384.541 181.322 384.702 184.382 384.219 186.153C383.736 188.246 383.253 190.179 382.77 192.111C380.998 197.908 378.1 202.095 378.1 202.417C377.617 204.027 378.905 204.833 381.642 201.773C384.702 198.713 387.439 189.535 387.439 184.865Z" fill="#270A0A"/>
<path fill-rule="evenodd" clip-rule="evenodd" d="M389.694 201.612C392.271 202.578 394.203 197.103 394.847 195.171C395.491 193.721 395.813 191.95 396.135 190.34C396.457 188.407 396.779 186.314 394.364 186.475C393.72 187.441 392.432 192.272 391.787 194.044C390.982 196.137 388.889 199.841 389.694 201.612Z" fill="#270A0A"/>
<path fill-rule="evenodd" clip-rule="evenodd" d="M4.8052 0.0673231C-0.577027 -1.03012 -0.903223 11.5904 1.21705 15.9802C1.86944 17.4435 3.50042 17.4435 3.66352 15.2486C3.98971 12.505 2.68493 8.29812 3.66352 4.27418C4.31591 2.44511 5.45759 2.2622 4.8052 0.0673231Z" fill="#270A0A"/>
<rect x="34.5" y="16.5" width="328" height="180" rx="52.5" stroke="#270A0A" stroke-width="5"/>
</svg>
