<svg width="138" height="226" viewBox="0 0 138 226" fill="none" xmlns="http://www.w3.org/2000/svg">
<path fill-rule="evenodd" clip-rule="evenodd" d="M61.6172 52.8018C62.439 52.8018 63.0554 52.8018 63.6717 52.8018V47.2546C61.6172 47.0491 59.5627 46.6382 57.7136 45.6109C52.9881 43.3509 49.4954 38.6255 50.1118 32.2564C50.5227 25.6818 54.4263 18.9018 57.5081 12.9436C59.9736 8.42361 62.2336 4.31455 62.2336 2.05455C62.2336 1.02727 63.0554 0 64.0827 0C64.699 0 65.3154 0.205429 65.7263 0.616339C65.7263 0.616339 80.1081 17.2582 79.4918 31.4345C79.0808 39.4473 75.1772 44.3782 70.0408 46.2273C69.219 46.4327 68.3972 46.8436 67.5754 46.8436V52.8018C81.1354 53.4182 89.3536 55.6782 93.2572 58.5546C95.7227 60.4036 96.7499 62.4582 96.339 64.5127C96.339 64.7182 96.339 64.9236 96.1336 65.1291C96.1336 65.9509 96.1336 68.2109 96.339 71.4982C98.8045 74.58 106.201 84.6473 105.79 93.6873C105.584 99.8509 102.297 103.549 98.599 105.193C98.1881 105.398 97.7772 105.604 97.1608 105.604V109.507C106.201 109.918 111.748 111.562 114.419 113.411C116.268 114.849 117.09 116.493 116.884 118.136C116.884 118.342 116.884 118.342 116.884 118.547C117.09 123.478 119.144 191.484 116.884 216.96V217.165C116.679 219.631 114.214 221.891 110.104 223.535C106.406 224.973 101.27 225.795 94.6954 225.795C93.4627 225.795 92.2299 225.795 90.9972 225.795C89.1481 225.795 87.299 225.589 85.6554 225.178C81.7518 224.562 78.6699 223.535 76.6154 222.096C75.5881 221.48 74.7663 220.658 74.1499 219.836C71.6845 220.247 69.219 220.453 66.959 220.453C64.2881 220.658 61.8227 220.453 59.3572 220.453C56.6863 220.247 54.0154 220.042 51.7554 219.631C46.2081 218.809 41.8936 217.165 39.0172 215.316C37.3736 214.289 35.9354 212.851 35.1136 211.618C33.2645 212.029 31.0045 212.44 28.7445 212.645C25.8681 212.851 22.5808 213.056 19.0881 212.851C16.4172 212.645 14.1572 212.44 12.3081 212.029C9.02083 211.413 6.55538 210.591 4.91174 209.564C2.8572 208.125 1.62447 206.482 1.82993 204.838V204.633C-2.07371 183.265 1.41902 126.56 1.82993 120.602V120.396C1.82993 120.191 1.82993 119.985 1.82993 119.985V119.78C2.03538 118.753 2.65174 117.725 3.88447 116.698C6.14447 114.849 11.0754 113.411 18.2663 113.205C17.4445 113 16.8281 112.795 16.0063 112.384C12.3081 110.535 9.6372 107.042 10.0481 102.111C10.459 97.18 13.1299 92.0436 15.5954 87.5236C17.4445 84.2364 19.0881 81.36 18.8827 79.7163C18.8827 78.6891 19.7045 77.6618 20.9372 77.6618C21.5536 77.6618 22.1699 77.8673 22.5808 78.2782C22.5808 78.2782 31.0045 88.14 32.6481 97.7964C33.2645 80.5382 34.0863 67.3891 34.2917 63.8964V63.6909C34.2917 63.4855 34.2917 63.28 34.2917 63.0745V62.8691C34.4972 61.2254 35.5245 59.7873 36.9627 58.5546C41.2772 55.2673 49.2899 52.8018 61.6172 52.8018Z" fill="#6C0B1B"/>
<path fill-rule="evenodd" clip-rule="evenodd" d="M6.35002 205.043C6.35002 205.249 6.76092 205.66 7.58274 206.276C8.81547 207.098 10.87 207.714 13.5409 208.331C15.39 208.741 17.4446 208.947 19.91 208.947C23.1973 209.152 26.2791 208.947 28.95 208.741C31.21 208.536 33.0591 208.33 34.7028 207.92C31.8264 190.045 31.6209 157.789 32.2373 128.203C30.7991 128.409 29.3609 128.614 27.7173 128.614C25.2518 128.82 22.5809 128.82 19.7046 128.614C13.5409 128.409 8.81547 127.176 5.93911 125.738C5.11729 141.147 2.85729 186.347 6.14456 204.427C6.55547 204.632 6.55547 204.838 6.35002 205.043Z" fill="#F16B73"/>
<path fill-rule="evenodd" clip-rule="evenodd" d="M6.3499 205.043C6.3499 205.249 6.7608 205.66 7.58262 206.276C8.81535 207.098 10.8699 207.714 13.5408 208.331C15.3899 208.741 17.4444 208.947 19.9099 208.947C23.1972 209.152 26.279 208.947 28.9499 208.741C31.2099 208.536 33.059 208.33 34.7026 207.92C31.8263 190.045 31.6208 157.789 32.2372 128.203C30.799 128.409 29.3608 128.614 27.7172 128.614C25.2517 128.82 22.5808 128.82 19.7044 128.614C13.5408 128.409 8.81535 127.176 5.93899 125.738C5.73353 127.587 5.73353 129.847 5.52808 132.518C12.5135 133.751 19.7044 136.627 21.9644 141.969C26.279 152.447 28.9499 190.661 5.52808 198.469C5.73353 200.523 5.93899 202.578 6.3499 204.221C6.55535 204.632 6.55535 204.838 6.3499 205.043Z" fill="#DA474E"/>
<path fill-rule="evenodd" clip-rule="evenodd" d="M113.392 123.067C109.283 125.533 101.475 127.176 91.4081 126.56C85.039 126.149 80.3136 124.916 77.4372 123.067C76.6154 140.736 74.15 194.566 77.6427 215.933C77.6427 216.138 77.6427 216.344 77.6427 216.549V216.755V216.96C77.8481 217.371 78.4645 217.987 79.2863 218.604C80.9299 219.631 83.3954 220.453 86.6827 221.069C88.1209 221.275 89.7645 221.48 91.6136 221.48C92.8463 221.48 94.079 221.48 95.1063 221.48C101.065 221.48 105.79 220.658 109.077 219.426C111.748 218.398 113.186 217.371 113.392 216.549V216.344C115.241 194.36 113.803 139.504 113.392 123.067Z" fill="#ADDDED"/>
<path fill-rule="evenodd" clip-rule="evenodd" d="M113.392 123.067C109.283 125.533 101.475 127.176 91.4081 126.56C85.039 126.149 80.3136 124.916 77.4372 123.067C76.6154 140.736 74.15 194.566 77.6427 215.933C77.6427 216.138 77.6427 216.344 77.6427 216.549V216.755V216.96C77.8481 217.371 78.4645 217.987 79.2863 218.604C80.9299 219.631 83.3954 220.453 86.6827 221.069C88.1209 221.275 89.7645 221.48 91.6136 221.48C92.8463 221.48 94.079 221.48 95.1063 221.48C101.064 221.48 105.79 220.658 109.077 219.426C111.748 218.398 113.186 217.371 113.392 216.549V216.344C113.597 214.7 113.597 212.851 113.803 211.002C74.9718 216.138 80.7245 161.076 85.6554 148.133C89.3536 138.476 104.146 133.956 113.803 131.902C113.597 128.615 113.392 125.533 113.392 123.067Z" fill="#8FBECC"/>
<path fill-rule="evenodd" clip-rule="evenodd" d="M67.7806 64.5129C67.7806 65.5402 66.9588 66.5675 65.7261 66.5675C64.4933 66.5675 63.6715 65.7457 63.6715 64.5129V56.9111C63.0552 56.9111 62.2333 56.9111 61.617 56.9111C50.317 56.9111 43.3315 58.9657 40.2497 61.6366C39.4279 62.253 39.017 62.8693 38.8115 63.6911V64.3075C38.8115 64.9238 39.2224 65.7457 40.0442 66.5675C42.9206 69.4439 49.4952 71.7039 59.9733 72.3202C74.5606 73.142 85.2443 70.6766 90.1752 67.1839C91.4079 66.362 92.2297 65.5402 92.4352 64.7184V64.5129C92.4352 63.8966 92.0243 63.0748 90.7915 62.2529C87.5043 59.7875 79.9024 57.9384 67.3697 57.322V64.5129H67.7806Z" fill="#EDCAC9"/>
<path fill-rule="evenodd" clip-rule="evenodd" d="M61.2063 14.9987C58.1245 20.546 54.6317 26.9151 54.2208 32.6678C53.8099 37.1878 56.2754 40.4751 59.5626 42.1187C61.0008 42.7351 62.439 43.146 64.0826 43.3515C65.7263 43.3515 67.1645 43.146 68.8081 42.5296C72.5063 41.0915 75.3827 37.5987 75.5881 31.2296C75.999 22.1896 69.219 11.7114 65.3154 6.36963C64.2881 9.24599 62.8499 12.1224 61.2063 14.9987Z" fill="#FDD6AC"/>
<path fill-rule="evenodd" clip-rule="evenodd" d="M97.5717 118.136C97.5717 119.164 96.7498 120.191 95.5171 120.191C94.4898 120.191 93.4626 119.369 93.4626 118.136V113.616C93.2571 113.616 92.8462 113.616 92.6407 113.616C85.0389 113.616 80.3135 114.849 78.4644 116.698C78.0535 117.109 77.848 117.314 77.848 117.725V118.136C77.848 118.342 78.0535 118.753 78.4644 119.164C80.3135 121.013 84.8335 122.656 91.8189 122.862C101.681 123.478 108.872 121.629 112.159 119.369C112.981 118.753 113.392 118.342 113.392 117.931C113.392 117.725 113.186 117.314 112.57 116.903C110.515 115.26 105.584 114.027 97.5717 113.616V118.136Z" fill="#EDCAC9"/>
<path fill-rule="evenodd" clip-rule="evenodd" d="M95.1061 101.906C95.3116 101.906 95.517 101.906 95.517 101.906H95.7225C96.3388 101.906 96.9552 101.7 97.3661 101.495C99.8316 100.467 101.886 98.0019 102.092 93.6874C102.297 87.5237 97.9825 80.5383 95.1061 76.4292C94.4897 78.0728 93.4625 79.9219 92.4352 81.771C90.1752 85.8801 87.7097 90.6056 87.2988 94.7146C87.0934 97.7965 88.737 100.056 90.997 101.084C92.0243 101.495 93.0516 101.906 94.0788 101.906C94.4897 101.906 94.6952 101.906 95.1061 101.906Z" fill="#FDD6AC"/>
<path fill-rule="evenodd" clip-rule="evenodd" d="M92.6405 70.8815V70.2651C87.0933 73.9633 75.3824 76.8397 59.9733 76.0179C49.7005 75.4015 42.5096 73.1415 38.606 70.2651C38.1951 79.3051 37.3733 96.5633 36.7569 116.082C36.7569 116.287 36.7569 116.287 36.7569 116.492C36.7569 119.369 36.5514 122.451 36.5514 125.532V125.738C35.9351 155.94 35.9351 189.429 39.0169 207.303C39.0169 207.509 39.0169 207.714 39.0169 207.92V208.125C39.0169 208.331 39.0169 208.536 39.0169 208.742C39.2224 209.769 40.2496 210.796 41.8933 211.823C44.3587 213.467 48.0569 214.7 52.9878 215.522C55.0424 215.932 57.5078 216.138 60.1787 216.343C62.4387 216.549 64.9042 216.549 67.3696 216.343C69.4242 216.343 71.4787 216.138 73.7387 215.727C69.8351 190.251 73.3278 124.505 73.7387 117.52V117.314C73.7387 117.109 73.7387 116.903 73.7387 116.698V116.492C73.9442 115.26 74.5605 114.232 75.7933 113.205C78.4642 110.945 84.0114 109.096 92.6405 109.096C92.846 109.096 93.2569 109.096 93.4624 109.096V105.603C92.0242 105.398 90.586 104.987 89.3533 104.371C85.6551 102.521 82.9842 99.0288 83.3951 94.0978C83.806 89.1669 86.4769 84.0306 88.9424 79.5106C90.7915 76.2233 92.4351 73.3469 92.2296 71.7033C92.4351 71.7033 92.4351 71.2924 92.6405 70.8815Z" fill="white"/>
<path fill-rule="evenodd" clip-rule="evenodd" d="M92.6406 70.8815V70.2651C87.0934 73.9633 75.3825 76.8397 59.9734 76.0179C49.7006 75.4015 42.5097 73.1415 38.6061 70.2651C38.4006 72.7306 38.4006 75.6069 38.1952 78.8942C40.2497 78.6888 42.9206 78.8942 46.4134 79.3051C62.2334 81.7706 68.1916 87.1124 68.1916 107.247C68.1916 127.382 68.1916 168.267 68.1916 182.649C68.1916 195.182 61.4116 210.796 38.4006 203.194C38.6061 204.632 38.8115 206.071 39.017 207.303C39.017 207.509 39.017 207.714 39.017 207.92V208.125C39.017 208.331 39.017 208.536 39.017 208.742C39.2225 209.769 40.2497 210.796 41.8934 211.823C44.3588 213.467 48.057 214.7 52.9879 215.522C55.0425 215.932 57.5079 216.138 60.1788 216.343C62.4388 216.549 64.9043 216.549 67.3697 216.343C69.4243 216.343 71.4788 216.138 73.7388 215.727C69.8352 190.251 73.3279 124.505 73.7388 117.52V117.314C73.7388 117.109 73.7388 116.903 73.7388 116.698V116.492C73.9443 115.26 74.5606 114.232 75.7934 113.205C78.4643 110.945 84.0116 109.096 92.6406 109.096C92.8461 109.096 93.257 109.096 93.4625 109.096V105.603C92.0243 105.398 90.5861 104.987 89.3534 104.371C85.6552 102.521 82.9843 99.0288 83.3952 94.0978C83.8061 89.1669 86.477 84.0306 88.9425 79.5106C90.7916 76.2233 92.4352 73.3469 92.2297 71.7033C92.4352 71.7033 92.4352 71.2924 92.6406 70.8815Z" fill="#F9ECEC"/>
<path fill-rule="evenodd" clip-rule="evenodd" d="M59.1515 84.0307C56.6861 89.3725 61.8224 92.2489 62.6443 97.3852C62.8497 97.1798 63.0552 97.1798 63.0552 97.1798C63.0552 97.1798 63.0552 97.1798 63.2606 96.9743L64.9043 94.9198C66.7534 92.4543 69.2188 88.1398 68.8079 84.8525C65.7261 85.4688 66.5479 88.5507 64.2879 89.5779C60.3843 89.167 63.2606 83.8252 59.1515 84.0307ZM36.1406 149.365V149.571V149.776V149.982V150.187V150.393C36.3461 150.598 36.3461 150.803 36.5515 151.009L39.6334 157.378C40.2497 156.556 41.0715 155.734 41.6879 154.707C43.3315 152.242 46.0024 147.722 45.3861 144.434C41.0715 145.872 43.7424 149.571 39.8388 149.16C37.9897 152.653 39.017 150.187 36.1406 149.365ZM37.1679 192.922V193.743V193.949V194.565V194.771V195.798V196.62V196.825V197.647V197.853V198.058V198.88V199.085V199.291V200.113C37.1679 200.523 37.1679 200.729 37.3733 201.14V201.962V202.167V202.373C39.6333 199.496 43.1261 194.771 43.1261 189.84C40.0443 190.867 40.8661 192.922 39.017 194.771C37.9897 194.565 37.5788 193.949 37.1679 192.922ZM72.5061 204.838C72.5061 203.811 72.3006 202.989 72.3006 201.962C71.8897 202.783 71.6843 203.194 70.2461 203.194C68.397 202.167 69.0134 200.318 67.9861 198.469C66.3424 196.003 64.6988 198.469 65.1097 201.345C65.3152 202.989 66.5479 204.838 67.3697 206.276C68.1915 207.92 68.8079 209.358 69.4243 211.207C70.657 209.974 71.6843 208.331 72.5061 207.098C72.5061 206.276 72.5061 205.66 72.5061 204.838ZM71.8897 166.213V166.007V165.802V165.596V165.391V163.952V163.747V163.542V162.309V162.103V161.898V161.693V161.487V161.282V161.076C71.8897 160.254 71.8897 159.227 71.8897 158.405C70.2461 157.583 71.2734 153.68 68.397 153.063C67.3697 153.68 67.1643 154.091 67.1643 155.529C67.1643 157.789 68.1915 159.433 69.2188 161.076C70.2461 162.925 70.8624 164.363 71.6843 166.418L71.8897 166.213ZM73.5334 119.985C73.5334 118.958 73.5334 118.342 73.7388 117.725V117.52C73.7388 117.314 73.7388 117.109 73.7388 116.903V116.698C73.9443 115.465 74.5606 114.438 75.7934 113.411C76.2043 113 76.6152 112.794 77.0261 112.383C77.2315 111.356 77.2315 110.329 77.2315 109.507C73.9443 110.329 74.9715 113.616 72.5061 114.643C68.397 114.232 71.4788 108.48 66.9588 108.685C64.2879 114.438 69.8352 117.725 70.8624 123.067C71.0679 122.862 71.2734 122.862 71.2734 122.862C71.2734 122.862 71.2734 122.862 71.4788 122.656L73.1224 120.396C73.3279 120.396 73.3279 120.191 73.5334 119.985ZM83.3952 96.358V96.1525V95.9471V95.7416V95.5361V95.3307V95.1252V94.9198V94.7143V94.5089V94.3034V94.0979V93.8925V93.687V93.4816C83.3952 93.2761 83.3952 93.2761 83.3952 93.0707V92.8652C83.3952 92.6598 83.3952 92.6598 83.3952 92.4543V92.2489V92.0434V91.838V91.6325C83.3952 91.427 83.3952 91.427 83.6006 91.2216V91.0161V90.8107C80.5188 89.7834 82.5734 84.8525 78.8752 85.2634C77.0261 87.5234 78.4643 90.3998 79.4915 92.6598C82.1625 93.2761 82.9843 95.5361 83.3952 96.358ZM84.4224 89.7834C84.4224 89.578 84.4225 89.578 84.6279 89.3725L84.4224 89.7834ZM60.3843 176.691C57.3024 177.307 56.4806 184.293 54.2206 180.8C53.3988 179.567 53.3988 177.307 52.3715 176.485C50.7279 175.047 49.7006 176.896 49.7006 178.54C49.7006 181.827 53.3988 185.936 54.0152 189.429C56.0697 188.402 60.7952 180.594 60.3843 176.691ZM63.0552 135.6C59.7679 136.833 60.5897 140.531 58.3297 140.531C55.6588 140.325 57.5079 134.983 53.6043 134.983C51.7552 137.038 52.9879 139.709 54.2206 141.969C54.837 142.996 55.2479 143.818 55.8643 144.845L57.5079 148.338C57.9188 148.133 57.7134 148.133 58.1243 147.927L59.7679 145.873C61.0006 143.613 64.0824 138.065 63.0552 135.6ZM45.1806 122.862C47.0297 121.012 51.5497 114.232 50.9334 110.123C46.8243 111.767 49.0843 115.26 45.3861 114.849C44.5643 113.616 43.7424 110.534 43.1261 109.918C41.0715 107.863 40.2497 111.356 40.6606 113C41.0715 115.054 42.0988 116.287 42.9206 117.931L45.1806 122.862C45.1806 122.656 45.1806 122.862 45.1806 122.862Z" fill="#F16B73"/>
<path fill-rule="evenodd" clip-rule="evenodd" d="M66.3428 92.6599C67.781 90.1945 69.0137 87.3181 68.6028 84.6472C65.7265 85.2636 66.3428 87.9345 64.6992 89.1672C65.3156 90.1945 65.9319 91.4272 66.3428 92.6599ZM61.4119 85.0581C61.2065 84.6472 60.7956 84.2363 60.1792 84.2363C60.5901 84.4418 61.001 84.6472 61.4119 85.0581ZM68.1919 109.096V117.725C69.2192 119.574 70.2465 121.218 70.6574 123.478C70.8628 123.273 71.0683 123.273 71.0683 123.273C71.0683 123.273 71.0683 123.273 71.2738 123.067L72.9174 120.807C73.1228 120.602 73.1228 120.396 73.3283 120.191C73.3283 119.164 73.3283 118.547 73.5337 117.931V117.725C73.5337 117.52 73.5337 117.315 73.5337 117.109V116.904C73.7392 115.671 74.3556 114.644 75.5883 113.616C75.9992 113.205 76.4101 113 76.821 112.589C77.0265 111.562 77.0265 110.535 77.0265 109.713C73.7392 110.535 74.7665 113.822 72.301 114.849C68.8083 114.644 70.8628 109.918 68.1919 109.096ZM68.1919 153.68V159.638C68.6028 160.255 68.8083 160.871 69.2192 161.487C70.2465 163.336 70.8628 164.775 71.6847 166.829L71.8901 166.624V166.007V165.802V165.596V165.391V165.185V164.98V163.542V163.336V163.131V161.898V161.693V161.487V161.282V161.076V160.871V160.665C71.8901 159.844 71.8901 158.816 71.8901 157.995C70.2465 157.173 71.2737 153.269 68.3974 152.653C68.3974 153.68 68.1919 153.68 68.1919 153.68ZM72.5065 204.838C72.5065 203.811 72.301 202.989 72.301 201.962C71.8901 202.784 71.6847 203.195 70.2465 203.195C68.3974 202.167 69.0137 200.318 67.9865 198.469C66.3428 196.004 64.6992 198.469 65.1101 201.345C65.3156 202.989 66.5483 204.838 67.3701 206.276C68.1919 207.92 68.8083 209.358 69.4247 211.207C70.6574 209.974 71.6847 208.331 72.5065 207.098C72.5065 206.276 72.5065 205.66 72.5065 204.838ZM83.3956 96.3581V96.1527V95.9472V95.7418V95.5363V95.3309V95.1254V94.92V94.7145V94.5091V94.3036V94.0981V93.8927V93.6872V93.4818C83.3956 93.2763 83.3956 93.2763 83.3956 93.0708V92.8654C83.3956 92.66 83.3956 92.66 83.3956 92.4545V92.249V92.0436V91.8381V91.6327C83.3956 91.4272 83.3956 91.4272 83.601 91.2218V91.0163V90.8109C80.5192 89.7836 82.5737 84.8527 78.8756 85.2636C77.0265 87.5236 78.4647 90.3999 79.4919 92.6599C82.1628 93.2763 82.9846 95.5363 83.3956 96.3581ZM84.4228 89.7836C84.4228 89.5781 84.4228 89.5781 84.6283 89.3727L84.4228 89.7836Z" fill="#D95F6A"/>
<path fill-rule="evenodd" clip-rule="evenodd" d="M24.8405 121.629C24.8405 122.656 24.0187 123.684 22.786 123.684C21.7587 123.684 20.7314 122.862 20.7314 121.629V117.314C13.3351 117.314 8.81506 118.547 6.96597 119.985C6.76052 120.191 6.55506 120.396 6.34961 120.602V120.807C6.34961 121.013 6.55506 121.218 6.96597 121.424C8.81506 123.067 13.1296 124.3 19.9096 124.711C22.5805 124.916 25.046 124.711 27.5114 124.711C29.3605 124.505 31.0042 124.505 32.4423 124.094C32.4423 122.04 32.4423 120.191 32.6478 118.136C31.4151 117.931 29.9769 117.725 28.3333 117.725C27.306 117.725 26.0732 117.52 24.8405 117.52V121.629Z" fill="#EDCAC9"/>
<path fill-rule="evenodd" clip-rule="evenodd" d="M22.5806 109.713H22.7861C23.4024 109.713 24.2242 109.507 24.8406 109.302C27.3061 108.275 29.3606 105.809 29.5661 101.494C29.7715 95.3309 25.457 88.3454 22.5806 84.2363C21.9642 85.88 20.937 87.729 19.9097 89.5781C17.6497 93.6872 15.1842 98.4127 14.7733 102.522C14.5679 105.604 16.2115 107.864 18.4715 108.891C19.4988 109.302 20.526 109.713 21.5533 109.713C21.9642 109.713 22.1697 109.713 22.5806 109.713Z" fill="#FDD6AC"/>
<path fill-rule="evenodd" clip-rule="evenodd" d="M114.008 202.989C107.844 203.605 96.5445 200.934 92.6408 199.907C90.7917 199.496 81.1354 196.62 75.999 193.949C75.999 197.441 76.2045 200.934 76.4099 204.016C78.6699 205.249 82.3681 207.303 87.5045 208.536C89.9699 209.152 93.2572 209.358 95.5172 209.974C96.7499 210.385 99.0099 211.412 100.243 212.645C101.681 213.056 103.324 213.467 105.174 213.672C105.174 213.467 105.174 213.056 105.379 212.645H107.434C107.639 213.672 107.844 213.672 107.639 214.083C108.255 214.083 109.077 214.289 109.694 214.289C110.515 213.672 112.57 213.467 113.803 213.467C113.803 210.385 114.008 206.892 114.008 202.989ZM99.2154 134.367C100.243 134.983 101.064 135.189 101.27 136.627C102.092 137.038 103.119 137.449 104.146 137.86V137.654C105.379 136.832 105.379 137.038 106.406 137.654V138.476C107.228 138.681 108.05 138.887 108.872 138.887C108.872 138.681 108.666 138.476 108.666 138.271C109.077 138.065 108.461 138.271 109.283 138.065L112.57 137.654C112.981 137.654 113.392 137.654 113.803 137.654C113.803 135.189 113.597 133.134 113.597 131.08C113.597 130.463 113.597 130.052 113.597 129.436C112.159 128.82 109.488 128.614 106.612 127.587C105.584 127.176 104.352 126.56 102.914 125.943C101.681 126.149 100.654 126.149 99.2154 126.354C96.7499 126.56 94.079 126.56 91.2027 126.354C88.9427 126.149 86.8881 125.943 85.039 125.738C85.2445 125.738 85.2445 125.943 85.4499 125.943C90.1754 129.231 94.9009 131.491 99.2154 134.367ZM102.708 151.42C105.174 151.831 107.434 152.241 109.899 152.652C110.926 152.858 112.57 153.269 114.214 153.269C114.214 156.556 114.419 159.843 114.419 163.131C110.515 162.514 104.557 162.309 103.735 162.514C103.735 162.925 103.735 163.131 103.941 163.336C102.503 163.131 101.064 162.925 99.6263 162.514C99.6263 162.309 99.6263 162.103 99.4208 161.281C97.9827 160.871 97.1609 161.076 97.1609 161.898C96.1336 161.692 95.3118 161.487 94.4899 161.076C94.4899 161.076 94.4899 161.076 94.6954 160.871C94.2845 159.843 94.9008 160.46 93.6681 159.843C89.1481 157.378 82.9845 155.323 78.259 152.036C77.6427 151.625 77.0263 151.214 76.6154 150.803C76.8208 145.872 77.0263 141.147 77.0263 137.038C79.6972 141.352 85.8608 144.64 90.3808 146.694C93.6681 148.954 98.3936 150.598 102.708 151.42ZM105.995 177.718C101.681 177.101 97.9827 177.101 93.6681 176.28C88.5317 175.252 79.6972 172.992 75.999 169.294C75.999 172.992 75.999 176.691 75.999 180.183C77.6427 180.8 79.4918 181.827 80.1081 182.032C85.2445 184.087 90.5863 185.32 96.1336 186.552C97.5718 186.963 98.8045 187.374 100.243 187.58C101.681 187.991 103.53 187.785 104.146 188.812L107.844 189.429C107.844 189.223 108.05 188.812 108.255 188.401C109.899 187.785 110.515 189.018 110.104 189.84L111.337 190.045C111.337 189.223 113.186 189.223 114.83 189.223C114.83 185.731 114.83 182.032 114.83 178.54C113.803 178.54 112.775 178.54 112.364 178.54C109.694 178.54 108.05 177.923 105.995 177.718Z" fill="white"/>
<path fill-rule="evenodd" clip-rule="evenodd" d="M87.0935 198.058C83.3953 196.825 78.8753 195.387 75.9989 193.743C75.9989 197.236 76.2044 200.729 76.4098 203.811C78.6698 205.043 82.368 207.098 87.5044 208.331C89.9698 208.947 93.2571 209.153 95.5171 209.769C96.7498 210.18 99.0098 211.207 100.243 212.44C101.681 212.851 103.324 213.262 105.173 213.467C105.173 213.262 105.173 212.851 105.379 212.44H107.433C107.639 213.467 107.844 213.467 107.639 213.878C108.255 213.878 109.077 214.083 109.693 214.083C110.515 213.467 112.57 213.262 113.803 213.262C113.803 212.645 113.803 211.823 114.008 211.002C99.8316 213.056 91.6135 207.098 87.0935 198.058ZM113.597 132.313C109.899 133.134 105.379 134.162 101.064 136.011C100.859 135.189 100.037 134.983 99.2153 134.367C94.9007 131.696 90.1753 129.231 85.6553 126.354C85.4498 126.354 85.4498 126.149 85.2444 126.149C87.0935 126.56 89.148 126.765 91.408 126.765C94.2844 126.971 96.9553 126.971 99.4207 126.765C100.653 126.765 101.886 126.56 103.119 126.354C104.352 126.971 105.79 127.587 106.817 127.998C109.693 129.025 112.159 129.231 113.803 129.847C113.803 130.463 113.803 130.874 113.803 131.491L113.597 132.313ZM86.888 145.873C86.2716 146.694 85.8607 147.516 85.4498 148.543C84.8335 150.393 84.0116 152.858 83.3953 155.94C81.3407 154.913 79.4916 153.885 77.6426 152.858C77.0262 152.447 76.4098 152.036 75.9989 151.625C76.2044 146.694 76.4098 141.969 76.4098 137.86C78.8753 140.942 82.9844 143.818 86.888 145.873ZM82.1625 172.993C82.1625 176.485 82.368 179.978 82.7789 183.265C81.7516 182.854 80.7244 182.649 79.9025 182.238C79.4916 182.033 77.4371 181.005 75.7935 180.389C75.7935 176.691 75.7935 172.993 75.7935 169.5C77.2316 170.733 79.4916 171.965 82.1625 172.993Z" fill="#FDEEEE"/>
<path fill-rule="evenodd" clip-rule="evenodd" d="M34.9084 207.92C34.7029 206.482 34.4975 204.838 34.292 203.195C31.6211 202.578 28.5393 200.935 28.1284 198.88C27.3065 198.469 26.2793 197.853 25.252 197.442C25.0466 197.648 24.8411 197.853 24.6356 198.264C23.6084 198.264 22.5811 198.058 22.5811 197.031C22.5811 196.826 22.5811 196.415 22.7865 196.004C21.7593 195.388 20.732 194.977 19.9102 194.36C19.9102 194.566 19.9102 194.566 19.7047 194.771C15.8011 195.387 8.19927 188.402 5.52836 185.731C5.32291 185.526 5.11745 185.32 4.912 185.115C4.912 187.991 5.11745 190.867 5.32291 193.538C5.32291 194.36 5.52836 195.182 5.52836 196.004C8.61018 197.031 12.7193 201.551 14.1575 202.784C16.212 204.427 21.7593 206.893 24.0193 209.153C25.8684 209.153 27.7175 209.153 29.3611 208.947C31.2102 208.742 33.2647 208.331 34.9084 207.92ZM9.432 133.135C14.3629 138.887 24.4302 149.777 32.2375 151.215C32.2375 150.598 32.2375 149.777 32.2375 149.16C32.2375 146.078 32.2375 142.997 32.2375 139.915C28.9502 138.682 24.2247 132.108 22.992 130.464C22.5811 129.848 21.9647 129.437 21.3484 128.82C20.732 128.82 20.3211 128.82 19.7047 128.82C13.5411 128.615 8.81564 127.382 5.93927 125.944V126.149C5.93927 127.177 5.73382 128.204 5.73382 129.231L5.93927 129.437C7.37745 130.669 8.19927 131.902 9.432 133.135ZM15.8011 173.815C13.952 172.377 7.78836 167.857 4.70654 163.953C4.70654 162.72 4.70654 161.487 4.70654 160.46C4.70654 155.94 4.912 151.42 5.11745 147.106L7.58291 150.393C8.61018 151.42 9.22654 151.831 10.0484 152.858C11.2811 154.091 18.8829 161.077 21.7593 159.844V159.638C22.3756 160.049 23.1975 160.666 24.0193 161.077C23.4029 162.515 24.4302 163.542 25.8684 163.542C26.2793 163.131 26.4847 162.926 26.6902 162.515C27.1011 162.72 27.7175 162.926 28.1284 163.131C28.1284 163.337 27.9229 163.542 27.9229 163.748C27.9229 163.748 28.3338 164.569 28.9502 164.98C29.772 165.597 31.0047 166.213 32.2375 166.624C32.2375 171.555 32.4429 176.28 32.6484 180.8C32.6484 181.417 32.6484 182.238 32.6484 182.855C27.9229 182.649 17.6502 175.253 15.8011 173.815Z" fill="white"/>
<path fill-rule="evenodd" clip-rule="evenodd" d="M34.9081 207.92C34.7026 206.482 34.4972 204.838 34.2917 203.195C31.6208 202.578 28.539 200.935 28.1281 198.88C27.3063 198.469 26.279 197.853 25.2517 197.442C25.0463 197.648 24.8408 197.853 24.6354 198.264C23.6081 198.264 22.5808 198.058 22.5808 197.031C22.5808 196.826 22.5808 196.415 22.7863 196.004C21.759 195.388 20.7317 194.977 19.9099 194.36C19.9099 194.566 19.9099 194.566 19.7044 194.771C18.2663 194.977 16.4172 194.155 14.5681 193.128C12.719 194.977 10.6644 196.415 8.19898 197.442C10.6644 199.291 13.1299 201.757 14.1572 202.578C16.2117 204.222 21.759 206.687 24.019 208.947C25.8681 208.947 27.7172 208.948 29.3608 208.742C31.2099 208.742 33.2644 208.331 34.9081 207.92ZM9.43172 133.34C15.1844 134.778 20.1154 137.449 21.9644 141.969C22.5808 143.202 22.9917 144.846 23.4026 146.9C26.279 148.955 29.3608 150.598 32.0317 151.215C32.0317 150.598 32.0317 149.777 32.0317 149.16C32.0317 146.078 32.0317 142.997 32.0317 139.915C28.7444 138.682 24.019 132.108 22.7863 130.464C22.3754 129.848 21.759 129.437 21.1426 128.82C20.5263 128.82 20.1154 128.82 19.499 128.82C13.3354 128.615 8.6099 127.382 5.73354 125.944V126.149C5.73354 127.177 5.52808 128.204 5.52808 129.231L5.73354 129.437C7.37717 130.669 8.19899 131.902 9.43172 133.34ZM24.8408 163.131C24.6354 168.268 24.019 173.609 22.5808 178.54C26.0735 180.595 29.9772 182.649 32.6481 182.649C32.6481 182.033 32.6481 181.211 32.6481 180.595C32.4426 176.075 32.4426 171.349 32.2372 166.418C31.0044 166.213 29.7717 165.391 28.9499 164.775C28.3335 164.364 27.9226 163.542 27.9226 163.542C27.9226 163.337 28.1281 163.131 28.1281 162.926C27.7172 162.72 27.3063 162.515 26.6899 162.309C26.4844 162.72 26.279 162.926 25.8681 163.337C25.6626 163.337 25.2517 163.131 24.8408 163.131Z" fill="#F3E5E6"/>
<path fill-rule="evenodd" clip-rule="evenodd" d="M115.857 139.504C115.446 137.655 114.419 137.86 112.57 137.86L109.283 138.271C108.461 138.477 109.077 138.271 108.666 138.477C108.872 140.326 110.104 140.326 111.954 140.326C113.803 140.326 114.624 140.326 115.857 139.504Z" fill="#6C0B1B"/>
<path fill-rule="evenodd" clip-rule="evenodd" d="M25.8684 163.336C27.7175 161.693 27.3066 159.227 24.4302 160.254C23.1975 161.898 24.2248 163.336 25.8684 163.336Z" fill="#6C0B1B"/>
<path fill-rule="evenodd" clip-rule="evenodd" d="M97.5721 163.952L99.2157 163.747C99.8321 162.72 99.6266 162.925 99.4211 161.692C96.9557 161.076 96.3393 162.103 97.5721 163.952Z" fill="#6C0B1B"/>
<path fill-rule="evenodd" clip-rule="evenodd" d="M104.147 137.654C103.941 139.298 104.968 139.914 106.407 139.503V137.654C105.379 137.038 105.379 136.833 104.147 137.654Z" fill="#6C0B1B"/>
<path fill-rule="evenodd" clip-rule="evenodd" d="M107.845 188.607C107.434 189.429 107.228 189.635 107.845 190.457C110.516 191.484 110.516 187.58 107.845 188.607Z" fill="#6C0B1B"/>
<path fill-rule="evenodd" clip-rule="evenodd" d="M39.428 162.926L36.3462 156.557C35.1135 154.297 33.4699 151.215 36.1408 149.366C38.8117 150.393 37.7844 152.858 39.6335 154.913C43.5371 155.324 40.8662 151.626 45.1808 150.187C45.7971 153.269 43.1262 157.789 41.4826 160.46C40.8662 161.282 40.0444 162.104 39.428 162.926ZM37.579 147.722C34.7026 146.695 33.8808 149.16 33.2644 149.777C30.1826 147.927 27.5117 146.284 24.8408 144.024C18.6771 139.093 15.5953 134.778 10.8699 130.258C0.597134 119.986 3.06259 125.944 6.34986 129.437C7.58259 130.669 8.40441 131.902 9.43168 133.135C14.568 139.093 25.2517 150.598 33.059 151.215C33.2644 157.789 36.7571 159.227 37.168 164.158C37.7844 170.733 44.1535 160.666 45.1808 159.022C51.7553 147.517 45.1808 144.229 40.6608 151.42C39.6335 149.571 39.4281 148.338 37.579 147.722Z" fill="#6C0B1B"/>
<path fill-rule="evenodd" clip-rule="evenodd" d="M67.1646 156.146C67.1646 154.708 67.5755 154.297 68.3973 153.68C72.0955 154.502 69.63 160.666 73.9446 159.022V154.297L72.5064 155.735C70.8628 149.571 64.0828 151.215 65.11 157.995C65.5209 160.05 66.5482 162.104 67.5755 163.953C70.041 169.09 68.8082 167.651 69.4246 170.528C72.0955 171.35 73.1228 168.884 74.15 167.446C75.7937 172.171 87.2991 175.253 93.2573 176.486C97.5719 177.308 101.27 177.308 105.585 177.924C107.845 178.13 109.283 178.746 111.543 178.746C112.57 178.746 117.09 178.746 117.501 178.54C116.885 176.691 114.419 177.308 111.954 176.897C109.899 176.691 108.05 175.87 105.995 175.664C101.065 174.842 99.6264 175.253 93.2573 174.02C89.5591 173.199 85.45 172.171 81.9573 170.939C79.2864 169.911 74.561 167.446 73.7391 164.57L71.2737 167.446C70.6573 165.391 69.8355 163.748 68.8082 162.104C68.3973 160.05 67.1646 158.2 67.1646 156.146Z" fill="#6C0B1B"/>
<path fill-rule="evenodd" clip-rule="evenodd" d="M55.8641 145.051C55.2478 143.819 54.8368 143.202 54.2205 142.175C52.9878 139.915 51.9605 137.244 53.6041 135.19C57.5078 135.19 55.4532 140.531 58.3296 140.737C60.5896 140.942 59.7678 137.244 63.055 135.806C64.2878 138.271 61.0005 143.819 59.3568 145.873L57.7132 147.928C57.3023 148.339 57.5078 148.133 57.0969 148.339L55.8641 145.051ZM58.3296 137.244C56.8914 130.875 50.1114 132.519 50.9332 138.888C51.3441 141.353 52.5768 143.202 53.3987 145.257C53.8096 146.079 54.4259 147.517 54.8368 148.544C55.2478 150.188 54.8368 150.599 55.6587 152.037C59.1514 152.653 63.8769 144.23 64.9041 141.353C65.7259 139.093 66.7532 134.573 64.0823 133.751C61.4114 132.519 59.3568 135.6 58.3296 137.244Z" fill="#6C0B1B"/>
<path fill-rule="evenodd" clip-rule="evenodd" d="M49.9062 178.335C49.9062 176.692 50.9335 174.843 52.5771 176.281C53.6044 177.308 53.6044 179.363 54.4262 180.595C56.6862 184.293 57.3026 177.103 60.5899 176.486C61.2062 180.595 56.2753 188.197 54.6317 189.224C53.399 185.732 49.9062 181.623 49.9062 178.335ZM52.3717 192.512C55.248 193.333 57.919 188.813 59.1517 186.759C65.7262 176.897 62.2335 169.295 55.4535 177.513L55.248 177.308L53.8099 175.048C51.139 172.583 47.8517 174.432 47.8517 178.335C47.8517 181.417 48.879 183.266 50.1117 185.732C53.1935 191.279 51.5499 190.662 52.3717 192.512Z" fill="#6C0B1B"/>
<path fill-rule="evenodd" clip-rule="evenodd" d="M62.6445 97.3856C61.8227 92.2492 56.6863 89.3728 59.1518 84.031C63.4663 83.8256 60.5899 89.1674 64.2881 89.5783C66.5481 88.551 65.7263 85.4692 68.8081 84.8528C69.4245 88.1401 66.7536 92.4547 64.9045 94.9201L63.2608 96.9747C62.6445 97.591 63.6718 96.9747 62.6445 97.3856ZM69.6299 82.5928C66.5481 81.9765 65.1099 84.2365 63.8772 86.0856C62.8499 84.6474 62.6445 82.3874 59.9736 82.1819C57.5081 81.9765 56.2754 84.4419 56.2754 86.7019C56.2754 91.4274 60.179 94.3037 60.3845 98.8237C60.7954 105.604 67.3699 95.1256 67.9863 94.3038C69.8354 91.4274 72.9172 85.2638 69.6299 82.5928Z" fill="#6C0B1B"/>
<path fill-rule="evenodd" clip-rule="evenodd" d="M45.386 115.055C49.0841 115.466 46.8241 111.768 50.9332 110.33C51.5496 114.439 47.0296 121.219 45.1805 123.068L44.975 122.862L42.715 118.342C41.8932 116.699 40.866 115.26 40.455 113.411C40.0441 111.768 40.866 108.275 42.9205 110.33C43.9478 110.74 44.5641 113.822 45.386 115.055ZM43.126 126.355C46.0023 127.177 48.2623 123.273 49.906 120.602C54.015 114.439 54.8369 106.015 49.906 108.069C48.2623 108.686 47.235 110.124 46.2078 111.562C45.5914 110.535 45.5914 109.508 44.7696 108.891C42.715 106.631 38.606 107.453 38.606 112.384C38.606 115.055 39.8387 117.315 41.0714 119.575C43.5369 124.3 42.5096 123.89 43.126 126.355Z" fill="#6C0B1B"/>
<path fill-rule="evenodd" clip-rule="evenodd" d="M6.76074 162.309C5.93892 161.488 4.50073 159.638 2.85709 159.844C2.03528 163.542 13.3353 171.966 15.8007 173.815C17.8553 175.458 30.1826 184.293 34.0862 182.444C34.0862 181.006 31.8262 180.184 30.388 179.568C26.4844 177.513 21.5535 174.226 18.0607 171.76L6.76074 162.309Z" fill="#6C0B1B"/>
<path fill-rule="evenodd" clip-rule="evenodd" d="M63.4662 19.1074C63.4662 29.5856 70.8626 42.1183 64.0826 42.1183C60.5898 42.1183 58.7407 38.2147 58.7407 34.1056C58.7407 30.2019 61.2062 28.5583 61.4117 25.8874C58.3298 26.0929 54.4262 33.9001 57.7135 39.6528C60.7953 44.9947 69.4244 45.8165 69.4244 38.831C69.4244 30.6129 64.4935 22.3947 66.1371 16.4365C66.548 13.1492 63.4662 16.231 63.4662 19.1074Z" fill="#6C0B1B"/>
<path fill-rule="evenodd" clip-rule="evenodd" d="M40.0444 189.635L39.0171 191.073C37.9898 189.019 37.7844 187.991 35.3189 187.375C35.3189 190.046 36.1407 189.019 36.9626 191.69C37.5789 193.539 37.5789 194.566 39.6335 194.771C41.688 192.922 40.6607 190.868 43.7426 189.84C43.948 194.977 40.0444 199.908 37.9898 202.784L36.1407 199.086V201.14C34.908 200.524 33.4698 199.908 32.0316 199.291C30.5935 198.675 29.7716 197.648 27.9226 198.059C27.3062 201.14 32.8535 203.606 36.3462 203.606L36.5516 206.071C39.428 206.482 43.948 198.47 45.1807 195.388C48.468 186.553 43.1262 185.937 40.0444 189.635Z" fill="#6C0B1B"/>
<path fill-rule="evenodd" clip-rule="evenodd" d="M103.735 149.571C99.6263 148.749 95.3118 147.106 91.8191 145.462C74.7663 138.066 77.6427 132.519 74.5609 130.669C73.5336 132.313 75.3827 135.189 76.2045 136.628C78.4645 141.353 85.2445 145.051 90.1754 147.311C93.6681 148.955 98.3936 150.599 102.708 151.42C105.174 151.831 107.434 152.242 109.899 152.653C111.337 152.859 115.241 153.886 116.679 152.859C115.652 151.626 112.159 151.009 110.721 150.804C108.255 150.393 105.995 149.982 103.735 149.571Z" fill="#6C0B1B"/>
<path fill-rule="evenodd" clip-rule="evenodd" d="M66.7536 111.973C66.7536 109.302 68.6027 108.275 69.8355 110.74C70.6573 112.384 70.2464 114.438 72.5064 115.055C74.15 114.438 73.7391 114.028 74.5609 112.384C74.9718 111.357 75.9991 110.329 77.2318 110.329C77.2318 112.384 77.0264 113 76.41 114.849C77.0264 114.644 77.2318 114.644 77.8482 114.233C78.0536 114.233 78.4646 114.028 78.67 113.822C80.3137 112.795 79.6973 107.864 77.0264 107.864C75.1773 107.864 72.9173 110.124 72.5064 111.562L71.89 110.74C68.6027 104.782 64.6991 108.275 64.6991 111.973C64.6991 116.082 67.7809 119.575 68.6027 122.657C69.2191 124.506 68.6027 124.711 69.2191 126.149C71.2736 126.56 72.7118 124.711 73.7391 123.478C75.3827 121.218 74.3555 119.78 75.3827 117.109C74.15 117.931 72.7118 121.218 71.0682 122.657C70.2464 121.218 66.7536 113.822 66.7536 111.973Z" fill="#6C0B1B"/>
<path fill-rule="evenodd" clip-rule="evenodd" d="M82.9846 194.566C79.9028 193.333 76.6155 191.279 72.9174 191.073C73.5337 194.361 90.1755 199.086 92.4355 199.702C97.161 200.935 112.57 204.428 116.885 202.168C115.652 200.524 107.639 200.524 104.968 200.113C100.654 199.497 97.5719 198.675 93.6683 197.442C90.1755 196.621 86.6828 196.004 82.9846 194.566Z" fill="#6C0B1B"/>
<path fill-rule="evenodd" clip-rule="evenodd" d="M69.6294 211.207C68.8076 209.358 68.3967 207.92 67.5748 206.277C66.753 204.838 65.5203 202.989 65.3149 201.346C64.9039 198.469 66.5476 196.004 68.1912 198.469C69.2185 200.113 68.6021 201.962 70.4512 203.195C72.3003 203.195 72.3003 202.373 72.9167 200.935C73.7385 199.086 73.9439 200.729 73.9439 196.826C72.3003 197.647 71.8894 198.264 70.8621 199.907C67.7803 192.306 62.4385 196.62 63.4658 201.962C63.8767 204.222 65.1094 206.277 66.1367 208.126C68.6021 212.851 66.9585 212.851 68.3967 214.7C70.4512 215.111 71.8894 212.851 72.9167 211.618C74.7658 209.358 74.3549 209.153 74.3549 205.66C74.1494 205.866 74.3548 205.66 73.9439 206.071C72.9167 206.482 71.4785 209.358 69.6294 211.207Z" fill="#6C0B1B"/>
<path fill-rule="evenodd" clip-rule="evenodd" d="M85.655 94.5091C84.8332 95.1255 84.2168 96.1527 83.6004 96.7691C83.1895 95.9473 82.1623 93.4818 80.7241 90.6054C79.4913 88.5509 78.2586 85.6746 80.1077 83.2091C83.8059 82.7982 81.7513 87.9345 84.8332 88.7564C86.8877 88.14 86.0659 87.3182 87.2986 85.4691C88.1204 84.2364 88.7368 83.2091 89.3532 81.5655C87.2986 81.7709 85.8604 83.62 84.8332 85.0582C84.8332 85.0582 84.8332 84.8527 84.6277 84.8527C84.6277 84.8527 83.8059 82.5927 82.3677 81.7709C78.875 79.7163 74.7659 83.62 78.6695 91.4273C79.2859 92.66 79.9023 93.8927 80.5186 95.3309C81.135 96.7691 81.135 99.2346 81.5459 99.6455C82.7786 100.878 84.2168 99.0291 84.8332 98.4127C86.8877 97.18 86.0659 96.9746 85.655 94.5091Z" fill="#6C0B1B"/>
<path fill-rule="evenodd" clip-rule="evenodd" d="M1.82983 141.352C2.4462 142.38 2.65165 143.407 3.47347 144.64L7.58256 150.187C8.60983 151.214 9.2262 151.625 10.048 152.652C11.2807 153.885 18.8826 160.871 21.7589 159.638C22.3753 158.2 20.9371 157.583 20.1153 156.967C15.5953 153.474 10.2535 149.16 6.76075 144.64C4.29529 141.558 3.88438 139.092 1.82983 139.709V141.352Z" fill="#6C0B1B"/>
<path fill-rule="evenodd" clip-rule="evenodd" d="M16.2117 102.933C16.2117 108.07 19.9099 113.617 23.4026 111.152L25.6626 109.713C28.3335 107.042 25.868 99.2352 25.0462 96.7698C24.2244 93.6879 23.608 89.9897 21.9644 89.9897C20.5262 92.8661 24.4299 101.906 24.4299 106.221C24.4299 108.892 23.1971 108.892 20.7317 109.097C18.2662 106.837 18.4717 101.906 17.0335 101.084C16.2117 101.495 16.2117 101.701 16.2117 102.933Z" fill="#6C0B1B"/>
<path fill-rule="evenodd" clip-rule="evenodd" d="M93.2571 99.851C89.3535 95.5365 92.4353 94.9201 91.6135 91.6329C88.9425 91.6329 88.3262 96.1529 89.5589 98.8238C92.0244 103.96 97.5716 104.782 94.0789 101.084C101.886 96.9747 97.1607 92.6602 95.3116 86.702C94.4898 83.8256 95.5171 84.0311 95.7225 82.182C95.928 79.5111 93.668 82.5929 93.2571 83.4147C92.0244 86.291 94.0789 89.9892 95.1062 92.2492C97.1607 96.3583 95.928 97.591 93.2571 99.851Z" fill="#6C0B1B"/>
<path fill-rule="evenodd" clip-rule="evenodd" d="M73.5335 180.389C74.5608 184.704 101.886 192.1 103.941 189.018C103.324 187.991 101.27 188.196 100.037 187.786C98.599 187.58 97.3663 187.169 95.9281 186.758C90.3808 185.526 85.2444 184.293 79.9026 182.238C78.8754 181.827 73.1226 178.54 73.5335 180.389Z" fill="#6C0B1B"/>
<path fill-rule="evenodd" clip-rule="evenodd" d="M36.3463 83.8256C39.839 83.6202 38.8118 88.3456 42.7154 87.9347C44.1536 85.8802 42.7154 83.6202 45.3863 81.9766C47.2354 86.2911 44.9754 92.0438 43.5372 95.9475L42.3045 94.5093C41.6881 93.6875 41.6881 93.6875 41.0718 93.0711C39.0172 91.222 33.8808 86.9075 36.3463 83.8256Z" fill="#6C0B1B"/>
<path fill-rule="evenodd" clip-rule="evenodd" d="M3.47375 196.004C3.67921 197.236 4.50103 197.853 5.32285 198.469C11.281 203.605 10.4592 205.66 21.3483 209.564C22.581 209.975 23.6083 210.385 24.6356 209.975C23.6083 207.715 16.4174 204.633 13.9519 202.784C12.3083 201.345 6.55557 194.976 3.47375 196.004Z" fill="#6C0B1B"/>
<path fill-rule="evenodd" clip-rule="evenodd" d="M1.82983 180.595V181.417L2.4462 182.238C3.67892 184.293 3.88438 184.088 5.52801 185.731C8.19892 188.402 15.5953 195.388 19.7044 194.771C20.1153 193.333 19.7044 193.128 18.6771 192.306C13.3353 188.402 9.63711 185.526 4.7062 181.006C3.67892 180.389 3.06256 179.773 1.82983 180.595Z" fill="#6C0B1B"/>
<path fill-rule="evenodd" clip-rule="evenodd" d="M87.5042 208.537C80.1078 206.688 76.2042 203.195 74.1497 203.195C74.3551 205.455 77.2315 206.893 79.286 207.92C84.6278 210.797 88.5315 211.208 93.8733 211.824C96.3388 212.235 98.8042 214.495 101.064 213.878C100.859 212.235 97.1606 210.386 95.5169 209.975C93.4624 209.358 89.9697 209.153 87.5042 208.537Z" fill="#6C0B1B"/>
<path fill-rule="evenodd" clip-rule="evenodd" d="M85.6554 126.149C83.3954 124.711 81.7518 123.067 80.3136 123.273C80.3136 125.533 82.7791 126.971 84.2172 127.998C87.0936 130.258 98.5991 137.244 101.27 136.833C101.065 135.395 100.243 135.189 99.2154 134.367C94.9009 131.491 90.1754 129.231 85.6554 126.149Z" fill="#6C0B1B"/>
<path fill-rule="evenodd" clip-rule="evenodd" d="M93.4626 160.461C88.9426 157.995 82.779 155.941 78.0535 152.653C74.1499 149.982 75.3826 148.955 73.5335 148.955C72.7117 153.064 79.0808 156.146 81.9571 157.79C83.8062 158.817 86.0662 159.639 87.9153 160.461C89.9699 161.282 92.8462 162.721 94.4899 161.488C94.079 160.461 94.6953 161.282 93.4626 160.461Z" fill="#6C0B1B"/>
<path fill-rule="evenodd" clip-rule="evenodd" d="M25.0461 128.409C24.2243 127.587 22.1698 125.532 20.3207 126.56C19.9098 127.998 21.9643 129.231 22.9916 130.463C24.4298 132.312 30.5934 141.558 33.8807 139.914C34.0861 138.476 29.7716 134.162 28.128 132.107C27.1007 130.874 26.0734 129.436 25.0461 128.409Z" fill="#6C0B1B"/>
<path fill-rule="evenodd" clip-rule="evenodd" d="M106.611 127.793C104.351 126.971 100.242 124.506 98.1876 124.506C98.3931 128.204 111.337 132.724 114.829 130.875C114.624 129.231 110.926 129.437 106.611 127.793Z" fill="#6C0B1B"/>
<path fill-rule="evenodd" clip-rule="evenodd" d="M117.706 165.391C119.761 163.131 105.174 162.309 103.735 162.926C103.735 164.364 104.557 164.364 106.201 164.775C108.05 165.186 116.679 166.418 117.706 165.391Z" fill="#6C0B1B"/>
<path fill-rule="evenodd" clip-rule="evenodd" d="M28.9497 164.98C30.1825 166.007 32.4425 167.035 34.497 166.624C35.1134 164.364 33.2643 163.953 31.8261 163.131C29.7715 162.104 28.7443 161.282 28.1279 163.747C27.9225 163.747 28.3334 164.569 28.9497 164.98Z" fill="#6C0B1B"/>
<path fill-rule="evenodd" clip-rule="evenodd" d="M112.159 215.933C114.829 215.933 115.24 215.522 115.446 214.7C115.24 214.084 115.446 214.084 114.624 213.673C113.802 213.262 110.515 213.467 109.488 214.289C109.899 215.933 110.515 215.933 112.159 215.933Z" fill="#6C0B1B"/>
<path fill-rule="evenodd" clip-rule="evenodd" d="M116.473 189.84C115.652 189.429 109.077 188.607 111.337 191.073C112.159 191.689 116.884 192.922 116.473 189.84Z" fill="#6C0B1B"/>
<path fill-rule="evenodd" clip-rule="evenodd" d="M22.3752 197.031C22.3752 198.058 23.4025 198.058 24.4298 198.264C25.0462 197.442 25.4571 197.236 25.2516 195.798C23.1971 194.36 22.3752 196.209 22.3752 197.031Z" fill="#6C0B1B"/>
<path fill-rule="evenodd" clip-rule="evenodd" d="M107.228 214.701C107.639 213.673 107.639 214.084 107.228 212.646H105.174C104.968 214.701 105.585 215.111 107.228 214.701Z" fill="#6C0B1B"/>
<path fill-rule="evenodd" clip-rule="evenodd" d="M129.212 207.099C129.212 205.044 129.828 201.346 128.184 199.908C127.773 200.113 127.362 199.497 126.746 202.168C126.13 205.25 126.13 207.715 125.102 211.413C124.075 215.728 121.815 218.604 120.993 222.097C119.966 225.384 122.226 226.411 123.87 223.946C124.897 222.508 125.719 220.864 126.541 219.22C127.979 216.139 129.212 211.002 129.212 207.099Z" fill="#6C0B1B"/>
<path fill-rule="evenodd" clip-rule="evenodd" d="M24.6354 38.8307C20.1154 40.0634 16.8281 45.6107 15.3899 49.9252C14.5681 52.3907 15.5954 54.4452 17.4445 52.5961C18.2663 51.7743 19.2936 49.5143 19.9099 48.2816C22.1699 44.5834 22.7863 43.5562 26.279 41.0907C28.539 39.858 27.7172 38.0089 24.6354 38.8307Z" fill="#6C0B1B"/>
<path fill-rule="evenodd" clip-rule="evenodd" d="M137.635 208.742C134.348 207.715 134.553 209.975 133.732 212.851C133.321 214.289 131.472 219.22 132.293 220.453C133.732 222.713 136.197 217.987 136.608 216.755C137.43 214.084 138.046 211.207 137.635 208.742Z" fill="#6C0B1B"/>
<path fill-rule="evenodd" clip-rule="evenodd" d="M15.39 34.1054C9.63723 35.7491 6.96633 44.7891 11.0754 42.7345C12.1027 42.3236 16.8281 36.3654 17.0336 35.7491C17.65 34.5163 16.6227 33.6945 15.39 34.1054Z" fill="#6C0B1B"/>
<path fill-rule="evenodd" clip-rule="evenodd" d="M61.6169 52.8022C78.8751 52.8022 88.9424 55.2677 93.4624 58.555C95.9279 60.4041 96.9551 62.4586 96.5442 64.5132C96.3388 66.5677 94.9006 68.4168 92.4351 70.0604C86.8879 73.7586 75.1769 76.635 59.7679 75.8132C48.2624 75.1968 40.6606 72.3204 37.1678 68.8277C35.5242 67.1841 34.7024 65.335 34.7024 63.4859C34.7024 61.6368 35.7297 59.7877 37.3733 58.144C41.2769 55.2677 49.2897 52.8022 61.6169 52.8022ZM91.2024 61.8422C87.2988 58.9659 78.0533 56.9113 61.6169 56.9113C50.3169 56.9113 43.3315 58.9659 40.2497 61.6368C39.4278 62.4586 38.8115 63.2804 38.8115 63.8968C38.8115 64.7186 39.2224 65.5404 40.0442 66.3622C42.9206 69.2386 49.4951 71.4986 59.9733 72.115C74.5606 72.9368 85.2442 70.4713 90.1751 66.9786C91.6133 65.9513 92.4351 65.1295 92.4351 64.1022C92.846 63.4859 92.2297 62.6641 91.2024 61.8422Z" fill="#6C0B1B"/>
<path fill-rule="evenodd" clip-rule="evenodd" d="M75.3826 215.727C76.4099 215.522 77.4371 216.344 77.6426 217.371C77.848 218.398 77.0262 219.426 75.999 219.631C72.9171 220.247 70.0408 220.453 67.3699 220.453C64.699 220.658 62.2335 220.453 59.768 220.453C57.0971 220.247 54.4262 220.042 52.1662 219.631C46.6189 218.809 42.3044 217.166 39.428 215.316C36.1408 213.262 34.4971 210.591 34.7026 207.92C34.7026 207.715 34.7026 207.509 34.7026 207.304C34.908 206.276 35.9353 205.455 36.9626 205.66C37.9899 205.866 38.8117 206.893 38.6062 207.92V208.126C38.6062 209.358 39.428 210.591 41.4826 211.824C43.948 213.467 47.6462 214.7 52.5771 215.522C54.6317 215.933 57.0971 216.138 59.768 216.344C62.028 216.549 64.4935 216.549 66.959 216.344C69.8353 216.549 72.5062 216.344 75.3826 215.727Z" fill="#6C0B1B"/>
<path fill-rule="evenodd" clip-rule="evenodd" d="M34.9079 63.2803C34.9079 62.253 35.9351 61.2258 36.9624 61.4312C37.9897 61.4312 39.017 62.4585 38.8115 63.4858C38.8115 63.6912 32.4424 169.911 38.8115 207.509C39.017 208.537 38.1951 209.564 37.1679 209.769C36.1406 209.975 35.1133 209.153 34.9079 208.126C28.5388 170.117 34.9079 63.4858 34.9079 63.2803Z" fill="#6C0B1B"/>
<path fill-rule="evenodd" clip-rule="evenodd" d="M92.6406 65.1293C92.6406 64.102 93.4624 63.0747 94.4897 63.0747C95.517 63.0747 96.5443 63.8965 96.5443 64.9238C96.5443 64.9238 96.5443 67.5947 96.7497 72.3202C96.7497 73.3474 95.9279 74.3747 94.6952 74.3747C93.6679 74.3747 92.6406 73.5529 92.6406 72.3202C92.6406 67.8002 92.6406 65.1293 92.6406 65.1293ZM93.4624 103.96C93.4624 102.933 94.2843 101.906 95.517 101.906C96.5443 101.906 97.5715 102.727 97.5715 103.96L97.777 112.589C97.777 113.617 96.9552 114.644 95.7224 114.644C94.6952 114.644 93.6679 113.822 93.6679 112.589L93.4624 103.96Z" fill="#6C0B1B"/>
<path fill-rule="evenodd" clip-rule="evenodd" d="M34.0861 123.684C35.1134 123.478 36.1407 124.095 36.5516 125.328C36.757 126.355 36.1407 127.382 34.9079 127.793C32.8534 128.204 30.3879 128.615 27.9225 128.615C25.457 128.82 22.7861 128.82 19.9098 128.615C12.1025 128.204 6.76067 126.56 4.50067 124.506C3.26794 123.273 2.44613 122.04 2.65158 120.602C2.65158 119.164 3.4734 117.931 4.70613 116.904C7.17158 114.849 12.7189 113.411 21.1425 113.411C24.0189 113.411 26.4843 113.411 28.7443 113.617C31.2098 113.822 33.2643 114.027 35.1134 114.438C36.1407 114.644 36.9625 115.671 36.757 116.698C36.5516 117.726 35.5243 118.547 34.497 118.342C32.8534 118.137 30.7989 117.726 28.5389 117.726C26.4843 117.52 24.0189 117.52 21.1425 117.52C13.7461 117.52 9.02067 118.753 7.17158 120.191C6.76067 120.397 6.55522 120.807 6.55522 120.807C6.55522 121.013 6.76067 121.218 7.17158 121.424C9.02067 123.067 13.3352 124.3 20.1152 124.711C22.7861 124.917 25.2516 124.711 27.717 124.711C29.977 124.506 32.237 124.095 34.0861 123.684Z" fill="#6C0B1B"/>
<path fill-rule="evenodd" clip-rule="evenodd" d="M36.3461 207.509C37.3734 207.304 38.6061 207.715 38.8115 208.947C39.2224 209.975 38.6061 211.207 37.3734 211.413C35.1134 212.029 32.4424 212.646 29.1552 212.851C26.2788 213.056 22.9915 213.262 19.4988 213.056C16.8279 212.851 14.5679 212.645 12.7188 212.235C9.43153 211.618 6.96608 210.796 5.32245 209.769C3.2679 208.331 2.03517 206.687 2.24063 205.044C2.24063 204.838 2.24063 204.633 2.24063 204.427C2.44608 203.4 3.47335 202.578 4.50062 202.784C5.5279 202.989 6.34971 204.016 6.14426 205.044C6.14426 205.249 6.55517 205.66 7.37699 206.276C8.60972 207.098 10.6643 207.715 13.3352 208.331C15.1843 208.742 17.2388 208.947 19.7043 208.947C22.9915 209.153 26.0734 208.947 28.7443 208.742C32.0315 208.536 34.497 208.126 36.3461 207.509Z" fill="#6C0B1B"/>
<path fill-rule="evenodd" clip-rule="evenodd" d="M2.44614 120.191C2.44614 119.164 3.47341 118.342 4.50069 118.342C5.52796 118.342 6.34978 119.369 6.34978 120.396C6.34978 120.602 2.24069 182.444 6.34978 204.222C6.55523 205.249 5.93887 206.276 4.70614 206.482C3.67887 206.687 2.65159 206.071 2.44614 204.838C-1.86841 182.649 2.44614 120.396 2.44614 120.191Z" fill="#6C0B1B"/>
<path fill-rule="evenodd" clip-rule="evenodd" d="M92.641 109.507C104.557 109.507 111.748 111.356 114.83 113.616C116.679 115.055 117.501 116.698 117.296 118.342C117.09 119.986 116.063 121.424 114.214 122.656C110.31 125.327 102.092 127.382 91.4082 126.766C83.3955 126.355 77.8482 124.3 75.3828 121.835C74.1501 120.602 73.5337 119.164 73.5337 117.726C73.5337 116.287 74.3555 114.849 75.5882 113.616C78.4646 111.151 84.0119 109.507 92.641 109.507ZM112.57 116.904C110.105 115.055 103.736 113.616 92.641 113.616C85.0391 113.616 80.3137 114.849 78.4646 116.698C78.0537 117.109 77.6428 117.52 77.6428 117.931C77.6428 118.342 77.8482 118.753 78.2591 119.164C80.1082 121.013 84.6282 122.656 91.6137 122.862C101.476 123.478 108.666 121.629 111.954 119.369C112.776 118.753 113.186 118.342 113.186 117.931C113.392 117.52 113.186 117.315 112.57 116.904Z" fill="#6C0B1B"/>
<path fill-rule="evenodd" clip-rule="evenodd" d="M113.392 216.96C113.392 215.933 114.213 214.906 115.446 214.906C116.473 214.906 117.501 215.727 117.501 216.96V217.371C117.295 219.836 114.83 222.096 110.721 223.74C107.023 225.178 101.886 226 95.3116 226C94.0789 226 92.8462 226 91.6134 226C89.7643 226 87.9152 225.795 86.2716 225.384C82.368 224.767 79.2862 223.74 77.2316 222.302C74.7662 220.658 73.5334 218.809 73.7389 216.755C73.7389 216.549 73.7389 216.344 73.7389 216.138C73.9443 215.111 74.9716 214.289 75.9989 214.495C77.0262 214.7 77.848 215.727 77.6425 216.755C77.6425 217.371 78.2589 217.987 79.2862 218.809C80.9298 219.836 83.3953 220.658 86.6825 221.275C88.1207 221.48 89.7643 221.685 91.6134 221.685C92.8462 221.685 94.0789 221.685 95.1062 221.685C101.064 221.685 105.79 220.864 109.077 219.631C111.748 218.809 113.392 217.782 113.392 216.96Z" fill="#6C0B1B"/>
<path fill-rule="evenodd" clip-rule="evenodd" d="M73.739 117.109C73.739 116.082 74.7663 115.054 75.7935 115.26C76.8208 115.26 77.8481 116.287 77.6426 117.314C77.6426 117.52 73.3281 190.251 77.6426 215.933C77.8481 216.96 77.0263 217.987 75.999 218.193C74.9717 218.398 73.9444 217.576 73.739 216.549C69.4244 190.662 73.739 117.314 73.739 117.109Z" fill="#6C0B1B"/>
<path fill-rule="evenodd" clip-rule="evenodd" d="M113.186 118.548C113.186 117.52 114.008 116.493 115.035 116.493C116.063 116.493 117.09 117.315 117.09 118.342C117.09 118.548 119.555 190.662 117.295 216.96C117.295 217.988 116.268 218.81 115.035 218.81C114.008 218.81 113.186 217.782 113.186 216.55C115.652 190.457 113.186 118.753 113.186 118.548Z" fill="#6C0B1B"/>
<path fill-rule="evenodd" clip-rule="evenodd" d="M67.7807 64.5124C67.7807 65.5396 66.9589 66.5669 65.7262 66.5669C64.4934 66.5669 63.6716 65.7451 63.6716 64.5124V46.2269C63.6716 45.1996 64.4934 44.1724 65.7262 44.1724C66.9589 44.1724 67.7807 44.9942 67.7807 46.2269V64.5124Z" fill="#6C0B1B"/>
<path fill-rule="evenodd" clip-rule="evenodd" d="M50.1119 32.4619C50.5228 25.8874 54.4264 19.1074 57.5082 13.1492C59.9737 8.62921 62.2337 4.52011 62.2337 2.26011C62.2337 1.23284 63.0555 0.205566 64.0828 0.205566C64.6992 0.205566 65.3155 0.411027 65.7264 0.821936C65.7264 0.821936 80.1083 17.4638 79.4919 31.6401C79.081 39.6529 75.1773 44.5838 70.041 46.4328C67.9864 47.2547 65.9319 47.4601 63.6719 47.4601C61.6173 47.2547 59.5628 46.8438 57.5082 45.8165C53.1937 43.5565 49.701 39.0365 50.1119 32.4619ZM61.2064 14.9983C58.1246 20.5456 54.6319 26.9147 54.221 32.6674C53.8101 37.1874 56.2755 40.4747 59.5628 42.1183C61.001 42.7347 62.4392 43.1456 64.0828 43.351C65.7264 43.351 67.1646 43.1456 68.8082 42.5292C72.5064 41.091 75.3828 37.5983 75.5883 31.2292C75.9992 22.1892 69.2192 11.711 65.3155 6.3692C64.2883 9.24557 62.8501 12.1219 61.2064 14.9983Z" fill="#6C0B1B"/>
<path fill-rule="evenodd" clip-rule="evenodd" d="M97.5719 118.137C97.5719 119.164 96.75 120.191 95.5173 120.191C94.49 120.191 93.4628 119.369 93.4628 118.137V104.577C93.4628 103.549 94.2846 102.522 95.5173 102.522C96.5446 102.522 97.5719 103.344 97.5719 104.577V118.137Z" fill="#6C0B1B"/>
<path fill-rule="evenodd" clip-rule="evenodd" d="M83.3952 94.3036C83.8061 89.3727 86.477 84.2363 88.9424 79.7163C90.7915 76.429 92.4352 73.5527 92.2297 71.909C92.2297 70.8818 93.0515 69.8545 94.2843 69.8545C94.9006 69.8545 95.517 70.0599 95.9279 70.4708C95.9279 70.4708 106.612 83.0036 106.201 93.6872C105.995 99.8508 102.708 103.549 99.0097 105.193C97.3661 105.809 95.7224 106.014 94.0788 106.014C92.4352 106.014 90.7915 105.604 89.3533 104.782C85.8606 102.933 82.9842 99.4399 83.3952 94.3036ZM92.6406 81.7708C90.3806 85.8799 87.9152 90.6054 87.5042 94.7145C87.2988 97.7963 88.9424 100.056 91.2024 101.084C92.2297 101.494 93.257 101.905 94.2843 101.905C95.3115 101.905 96.5443 101.7 97.5715 101.494C100.037 100.467 102.092 98.0017 102.297 93.6872C102.502 87.5236 98.1879 80.5381 95.3115 76.429C94.6952 78.0727 93.6679 79.9217 92.6406 81.7708Z" fill="#6C0B1B"/>
<path fill-rule="evenodd" clip-rule="evenodd" d="M24.8404 121.629C24.8404 122.657 24.0186 123.684 22.7859 123.684C21.7586 123.684 20.7313 122.862 20.7313 121.629V111.767C20.7313 110.74 21.5531 109.713 22.7859 109.713C23.8131 109.713 24.8404 110.535 24.8404 111.767V121.629Z" fill="#6C0B1B"/>
<path fill-rule="evenodd" clip-rule="evenodd" d="M10.6645 102.316C11.0754 97.3854 13.7463 92.249 16.2118 87.729C18.0609 84.4417 19.7045 81.5654 19.4991 79.9217C19.4991 78.8945 20.3209 77.8672 21.5536 77.8672C22.17 77.8672 22.7863 78.0726 23.1973 78.4836C23.1973 78.4836 33.8809 91.0163 33.47 101.7C33.2645 107.864 29.9773 111.562 26.2791 113.205C24.6354 113.822 22.9918 114.027 21.3482 114.027C19.7045 114.027 18.0609 113.616 16.6227 112.794C12.9245 110.74 10.2536 107.247 10.6645 102.316ZM19.91 89.5781C17.65 93.6872 15.1845 98.4126 14.7736 102.522C14.5682 105.604 16.2118 107.864 18.4718 108.891C19.4991 109.302 20.5263 109.713 21.5536 109.713C22.5809 109.713 23.8136 109.507 24.8409 109.302C27.3063 108.274 29.3609 105.809 29.5663 101.494C29.7718 95.3308 25.4573 88.3454 22.5809 84.2363C21.7591 85.8799 20.9373 87.729 19.91 89.5781Z" fill="#6C0B1B"/>
</svg>
