<svg width="97" height="114" viewBox="0 0 97 114" fill="none" xmlns="http://www.w3.org/2000/svg">
<path fill-rule="evenodd" clip-rule="evenodd" d="M12.833 59.9148L12.9147 60.0782C11.6886 60.5687 10.7078 61.0591 10.2173 61.4678C7.92863 63.3478 9.31819 66.9443 11.0347 71.6034C11.4434 72.666 11.8521 73.8104 12.3425 75.1182C12.9147 76.753 13.8956 79.7773 15.0399 83.2921C18.0643 92.4469 22.3147 105.198 23.5408 107.977C25.5025 112.309 33.6764 111.819 39.2347 111.41H39.3164C42.1773 111.247 44.139 110.593 45.6103 109.367C47.0816 108.141 47.899 106.424 48.1442 104.136C48.226 103.318 48.4712 101.765 48.7982 99.8034C50.4329 103.482 52.7216 106.669 55.8277 109.04C59.4242 111.737 63.9199 113.29 69.4781 113.127C75.0364 112.882 80.186 110.92 84.0277 107.16C87.5425 103.809 89.8312 98.986 90.4033 92.7739L90.4851 92.1199C90.5668 91.0573 90.6485 90.2399 90.6485 89.5043C90.6485 86.4799 89.9129 86.4799 86.4799 86.3982L77.3251 86.3165C76.9981 86.3165 76.6712 86.3165 76.5077 86.3165C75.6903 86.3165 75.3633 86.2347 74.8729 86.6434C74.4642 86.9704 74.3825 87.2973 74.219 87.9512C74.1373 88.1965 74.0555 88.5234 73.9738 88.9321C73.2381 91.7113 72.012 93.346 70.786 93.9999C70.2955 94.2452 69.7234 94.3269 69.2329 94.1634C68.7425 93.9999 68.1703 93.673 67.7616 93.1008C66.4538 91.5478 65.6364 88.5234 66.0451 84.1913L85.0085 83.946C85.0085 83.946 89.4224 83.8643 89.0955 75.7721C88.8503 71.44 87.7877 64.6556 84.1094 59.6695C82.0659 56.9722 79.3686 54.7652 75.5268 53.7843C79.9407 50.5965 83.292 46.4278 85.7442 41.9322C88.932 35.9652 90.4033 29.4261 90.1581 23.9496C89.9946 19.2905 88.5233 15.8574 86.3981 13.5687C84.8451 11.9339 82.8833 10.8713 80.8398 10.4626C78.7964 10.0539 76.5894 10.2992 74.4642 11.0348C71.6851 12.0974 69.0694 14.1409 67.1077 17.247C64.0016 12.0157 60.0781 9.64525 56.1547 9.31829C53.9477 9.15481 51.8225 9.64525 49.8608 10.7079C47.899 11.7705 46.1825 13.3235 44.7112 15.367C41.1964 20.3531 39.6434 27.9548 42.5042 36.4557C40.0521 36.4557 37.6816 36.5374 35.9651 36.6191C35.066 36.6191 34.3303 36.7009 33.9216 36.7009C33.8399 36.7009 33.9216 30.4887 33.8399 24.3583C33.7582 18.3913 33.6764 12.3426 32.9408 10.8713C32.4503 9.80873 31.4695 8.74612 30.0799 7.92873C28.8538 7.19308 27.3825 6.53917 25.666 6.21221C24.6851 6.04873 23.6225 5.88525 22.5599 5.88525C20.1078 5.88525 17.4921 6.45743 15.3669 7.60177C13.1599 8.82786 11.4434 10.7079 10.953 13.3235C10.8712 13.8957 10.7895 14.4679 10.7895 15.1218V16.5113C10.7895 24.44 10.7078 54.7652 12.1791 58.6069C12.3425 58.9339 12.5878 59.4243 12.833 59.9148ZM69.8868 66.6174C70.6225 66.2087 71.3581 66.0452 72.0938 66.2087C72.8294 66.2904 73.4833 66.6174 74.0555 67.1895C75.3633 68.2521 76.2625 70.2139 76.2625 72.3391V72.4208C76.2625 72.9113 75.8538 73.32 75.3633 73.32H67.5981C67.5164 73.32 67.5164 73.32 67.4347 73.32C66.9442 73.2382 66.6173 72.7478 66.7807 72.2573C67.4347 69.0695 68.579 67.353 69.8868 66.6174ZM56.6451 54.193C57.9529 54.9287 59.179 55.5826 60.4051 56.073C59.8329 56.4 59.3425 56.7269 58.8521 57.1356C54.8468 60.0782 51.659 64.3287 49.4521 68.9878C48.1442 68.3339 46.7547 67.68 45.5286 67.1895C45.0382 67.0261 44.7112 66.8626 44.466 66.6991C44.0573 66.5356 43.7303 66.3721 43.4034 66.2904C41.4416 65.6365 40.8695 66.1269 39.7251 69.56C38.5808 72.8295 37.4364 78.2243 36.4556 82.7199C35.7199 76.9982 34.5756 68.2521 33.8399 63.1026C36.0469 63.0208 38.0903 62.9391 39.8886 62.7756C41.8503 62.6122 43.4034 62.4487 44.466 62.2852C46.1825 61.9582 47.8173 61.4678 49.0434 60.7322C50.3512 59.9148 51.4138 58.8522 51.9042 57.4626C52.4764 55.8278 52.9668 53.8661 53.2121 51.7409C54.2747 52.7217 55.5008 53.5391 56.6451 54.193Z" fill="#6C0B1B"/>
<path fill-rule="evenodd" clip-rule="evenodd" d="M72.7478 53.1304C77.6521 50.0243 81.4121 45.6104 83.946 40.8695C86.9704 35.2295 88.3599 29.0174 88.1147 23.8678C87.9512 19.6991 86.7252 16.6748 84.8452 14.713C83.5373 13.3235 81.9843 12.5061 80.2678 12.1791C78.5513 11.8522 76.753 12.0157 74.9547 12.6696C72.1756 13.7322 69.5599 16.0209 67.8434 19.3722C67.7617 19.5356 67.5982 19.6991 67.4347 19.8626C66.9443 20.1078 66.3721 19.9443 66.1269 19.4539C63.2661 13.8956 59.5061 11.3617 55.9095 11.0348C54.1113 10.8713 52.313 11.28 50.6782 12.1791C48.9617 13.0783 47.4904 14.4678 46.1826 16.2661C42.913 20.9252 41.5235 28.2 44.4661 36.2104C45.9374 36.2104 47.4087 36.2921 48.7165 36.4556C48.9617 36.4556 49.2887 36.5374 49.5339 36.6191H49.6156C51.4139 37.273 52.5582 39.3165 53.0487 41.9321C53.4574 44.1391 53.5391 46.7547 53.3756 49.3704C54.7652 50.5965 56.2365 51.6591 57.7078 52.4765C59.5061 53.5391 61.2226 54.2747 62.6939 54.8469C65.6365 53.4573 68.8243 52.8034 72.2573 53.0486C72.3391 53.1304 72.5843 53.1304 72.7478 53.1304Z" fill="#F16B73"/>
<path fill-rule="evenodd" clip-rule="evenodd" d="M72.7478 53.1304C77.6522 50.0243 81.4122 45.6104 83.9461 40.8695C86.9704 35.2295 88.36 29.0173 88.1148 23.8678C87.9513 19.6991 86.7252 16.6748 84.8452 14.713C83.5374 13.3234 81.9844 12.5061 80.2678 12.1791C78.5513 11.8521 76.7531 12.0156 74.9548 12.6695C73.0748 13.4052 71.2765 14.6313 69.7235 16.5113C88.033 12.7513 84.5183 39.4799 57.8713 52.7217C59.5061 53.7025 61.0592 54.3564 62.4487 54.8469C65.3913 53.4573 68.5792 52.8034 72.0122 53.0486C72.3392 53.1304 72.5844 53.1304 72.7478 53.1304Z" fill="#DA474E"/>
<path fill-rule="evenodd" clip-rule="evenodd" d="M49.4521 95.9616C50.9235 100.621 53.3756 104.708 56.9721 107.405C60.2417 109.857 64.3287 111.247 69.3965 111.083C74.4643 110.92 79.2052 109.04 82.6382 105.689C85.826 102.582 87.9512 98.2503 88.4417 92.5285L88.5234 91.8746C88.6052 90.812 88.6869 89.9946 88.6869 89.4225C88.6869 88.3599 88.2782 88.2781 86.3982 88.2781L77.2434 88.1964C76.8347 88.1964 76.5895 88.1964 76.3443 88.1964C76.0173 88.1964 76.0991 87.9512 76.0173 88.1146C75.8539 88.1964 76.0991 88.1146 76.0991 88.3599C76.0173 88.6051 75.9356 89.0138 75.8539 89.5042C74.9547 92.8555 73.32 94.899 71.6034 95.7164C70.6226 96.2068 69.7234 96.2885 68.7426 96.0433C67.8434 95.7981 67.026 95.2259 66.2904 94.3268C64.6556 92.2833 63.593 88.5233 64.2469 83.1286C64.3287 82.6381 64.7374 82.2294 65.2278 82.3112L84.9269 82.066C84.9269 82.066 87.4608 81.9842 87.1339 75.9355C86.9704 71.8486 85.9078 65.4729 82.5565 60.8955C80.2678 57.8712 76.9165 55.5825 72.0121 55.1738C67.5165 54.8469 63.4295 56.3182 59.9965 58.8521C56.2365 61.6312 53.2121 65.6364 51.1687 70.1321C52.64 71.1129 53.5391 72.1755 53.4574 73.2381C53.3756 74.219 52.3948 79.6955 51.3321 85.826C50.6782 89.1773 50.0243 92.7738 49.4521 95.9616ZM75.3634 73.2381H67.5982C67.5165 73.2381 67.5165 73.2381 67.4347 73.2381C66.9443 73.1564 66.6174 72.666 66.7808 72.1755C67.4347 69.0695 68.6608 67.3529 69.8869 66.6173C70.6226 66.2086 71.3582 66.0451 72.0939 66.2086C72.8295 66.2903 73.4834 66.6173 74.0556 67.1895C75.3634 68.2521 76.2626 70.2138 76.2626 72.339V72.4207C76.2626 72.8294 75.8539 73.2381 75.3634 73.2381Z" fill="#FDD6AC"/>
<path fill-rule="evenodd" clip-rule="evenodd" d="M49.4521 95.9617C50.9235 100.621 53.3756 104.708 56.9721 107.405C60.2417 109.857 64.3287 111.247 69.3965 111.083C71.6034 111.002 73.8104 110.593 75.8539 109.857C59.2608 108.713 50.1061 93.3461 55.5008 75.7722C61.3043 56.727 73.9739 55.2557 73.9739 55.2557C73.3199 55.0922 72.666 55.0105 71.9304 55.0105C67.4347 54.6835 63.3478 56.1548 59.9147 58.6887C56.1548 61.4679 53.1304 65.4731 51.0869 69.9687C52.5582 70.9496 53.4574 72.0122 53.3756 73.0748C53.2939 74.0557 52.313 79.5322 51.2504 85.6626C50.6782 89.1774 50.0243 92.7739 49.4521 95.9617ZM80.0225 88.1965C79.0417 91.0574 76.5078 96.0435 70.2139 96.0435C70.7043 95.9617 71.1947 95.88 71.6034 95.6348C73.32 94.8174 74.873 92.7739 75.8539 89.4226C76.0173 88.9322 76.0991 88.6052 76.0991 88.2783C76.1808 88.0331 75.9356 88.1965 76.0173 88.0331C76.1808 87.9513 76.0173 88.1148 76.3443 88.1148C76.5895 88.1148 76.8347 88.1148 77.2434 88.1148L80.0225 88.1965Z" fill="#E5B685"/>
<path fill-rule="evenodd" clip-rule="evenodd" d="M33.4313 61.2226C35.6383 61.1408 37.7635 61.0591 39.6435 60.8956C41.5235 60.7321 43.0765 60.5687 43.9757 60.4052C45.5287 60.16 46.8365 59.6695 47.8991 59.0974C48.88 58.5252 49.5339 57.7895 49.9426 56.8087C50.5965 54.9287 51.087 52.5582 51.3322 50.1061C51.5774 47.4087 51.5774 44.5478 51.1687 42.3408C50.76 40.3791 50.0244 38.8261 48.9617 38.4991C48.88 38.4991 48.7165 38.4174 48.5531 38.4174C44.8748 38.0087 39.2348 38.2539 36.047 38.3356C34.9844 38.3356 34.2487 38.4174 33.9218 38.4174C32.0418 38.4174 31.96 31.3061 31.8783 24.113C31.7965 18.3096 31.7148 12.5878 31.1426 11.3618C30.8157 10.6261 30.08 9.89045 29.0174 9.23654C28.0365 8.58263 26.7287 8.09219 25.2574 7.76524C24.44 7.60176 23.4592 7.52002 22.4783 7.52002C20.3531 7.52002 18.0644 8.01045 16.2661 8.99132C14.5496 9.97219 13.2418 11.4435 12.8331 13.487C12.7514 13.8957 12.6696 14.3861 12.6696 14.9583V16.3478C12.6696 24.1948 12.5879 54.2747 13.9774 57.7078C14.1409 58.1982 14.3861 58.6069 14.5496 58.9339C14.6313 59.0974 14.7948 59.2608 14.8766 59.4243C15.04 59.3426 15.2853 59.2608 15.4487 59.1791C19.0453 57.8713 23.6226 56.5634 25.8296 55.9095C25.9113 55.9095 26.0748 55.8278 26.1565 55.8278C27.3009 55.5826 28.7722 55.5008 29.9983 55.8278C31.3879 56.2365 32.5322 57.0539 33.0226 58.6887L33.1044 58.8521C33.1044 59.0974 33.2679 59.9147 33.4313 61.2226Z" fill="#FDD6AC"/>
<path fill-rule="evenodd" clip-rule="evenodd" d="M33.4313 61.2225C35.6382 61.1408 37.7634 61.059 39.6434 60.8956C41.5234 60.7321 43.0765 60.5686 43.9756 60.4051C45.5286 60.1599 46.8365 59.6695 47.8991 59.0973C48.8799 58.5251 49.5339 57.7895 49.9426 56.8086C50.5965 54.9286 51.0869 52.5582 51.3321 50.106V50.0243C48.7982 51.8225 44.3843 53.5391 37.0278 53.9477C24.2765 54.6017 20.4348 51.6591 19.1269 49.0434C17.8191 46.5095 17.2469 28.1182 18.0643 17.4921C18.8817 6.86606 25.1756 7.68345 25.1756 7.68345C24.3582 7.51997 23.3774 7.43823 22.3965 7.43823C20.2713 7.43823 17.9826 7.92867 16.1843 8.90953C14.4678 9.8904 13.16 11.3617 12.7513 13.4052C12.6696 13.8139 12.5878 14.3043 12.5878 14.8765V16.266C12.5878 24.113 12.5061 54.193 13.8956 57.626C14.0591 58.1164 14.3043 58.5251 14.4678 58.8521C14.5496 59.0156 14.713 59.179 14.7948 59.3425C14.9582 59.2608 15.2035 59.179 15.3669 59.0973C18.9635 57.7895 23.5408 56.4817 25.7478 55.8277C25.8295 55.8277 25.993 55.746 26.0748 55.746C27.2191 55.5008 28.6904 55.419 29.9165 55.746C31.3061 56.1547 32.4504 56.9721 32.9408 58.6069L33.0226 58.7704C33.1043 59.0973 33.2678 59.9147 33.4313 61.2225Z" fill="#E5B685"/>
<path fill-rule="evenodd" clip-rule="evenodd" d="M31.633 62.3669V62.2852C31.3878 60.6504 31.2243 59.5878 31.1426 59.2608V59.1791C30.8974 58.3617 30.2435 57.8713 29.5078 57.6261C28.6087 57.3808 27.5461 57.3808 26.6469 57.6261C26.5652 57.6261 26.4835 57.7078 26.4017 57.7078C24.1948 58.3617 19.6991 59.6695 16.1026 60.8956C15.6939 61.0591 15.2852 61.1408 14.9582 61.3043C13.3235 61.8765 12.0974 62.4487 11.607 62.8574C10.3809 63.92 11.5252 66.9443 12.9965 70.786C13.4052 71.9304 13.8956 73.1565 14.3043 74.3008C14.8765 75.9356 15.8574 78.9599 17.0017 82.4747C20.0261 91.5478 24.1948 104.299 25.4208 106.915C26.8104 110.021 34.2487 109.53 39.2347 109.203H39.3165C41.6869 109.04 43.4034 108.549 44.5478 107.569C45.6104 106.669 46.1826 105.362 46.4278 103.563C46.673 101.275 48.226 92.6921 49.5339 85.0904C50.5965 78.9599 51.4956 73.5652 51.6591 72.5843C51.6591 72.2573 50.8417 71.6034 49.6973 70.9495H49.6156C49.5339 70.9495 49.5339 70.8678 49.4521 70.8678C48.0626 70.0504 46.346 69.3147 44.8747 68.7426C44.466 68.5791 44.0573 68.4156 43.7304 68.2521C43.3217 68.0886 42.9947 67.9252 42.7495 67.8434C42.3408 67.68 42.1773 68.0069 41.5234 69.9686C40.2973 73.4017 39.0713 79.4504 38.0904 84.1095C37.7634 85.826 37.4365 87.2973 37.1913 88.3599C37.1095 88.8504 36.5374 89.1773 36.0469 89.0956C35.6382 89.0138 35.3113 88.6051 35.3113 88.1965C34.9843 87.4608 32.6956 69.7234 31.633 62.3669Z" fill="#FDD6AC"/>
<path fill-rule="evenodd" clip-rule="evenodd" d="M47.2451 70.132C46.4278 69.7233 45.5286 69.3963 44.7112 69.0694C44.3025 68.9059 43.8938 68.7424 43.5669 68.5789C43.1582 68.4155 42.8312 68.252 42.586 68.1702C42.1773 68.0068 42.0138 68.3337 41.3599 70.2955C40.1339 73.7285 38.9078 79.7772 37.9269 84.4363C37.5999 86.1528 37.273 87.6241 37.0278 88.6867C36.946 89.1772 36.3739 89.5041 35.8834 89.4224C38.3356 90.0763 40.2156 88.3598 40.7878 86.1528C41.3599 83.9459 42.9947 76.9163 44.2208 73.1563C44.8747 71.1946 46.1825 70.3772 47.2451 70.132Z" fill="#E5B685"/>
<path fill-rule="evenodd" clip-rule="evenodd" d="M17.8192 60.3235C17.247 60.487 16.5931 60.7322 16.0209 60.8957C15.6122 61.0591 15.2036 61.1409 14.8766 61.3044C13.2418 61.8765 12.0157 62.4487 11.5253 62.8574C10.2992 63.92 11.4435 66.9443 12.9149 70.7861C13.3235 71.9304 13.814 73.1565 14.2227 74.3009C14.7949 75.9356 15.7757 78.96 16.9201 82.4748C19.9444 91.5478 24.1131 104.299 25.3392 106.915C26.4018 109.203 30.4888 109.53 34.6574 109.449C29.8348 108.304 29.4261 105.525 28.6905 103.809C27.7914 101.929 20.0261 78.7148 17.0018 70.7043C14.7948 65.0643 16.6748 61.7131 17.8192 60.3235Z" fill="#E5B685"/>
<path fill-rule="evenodd" clip-rule="evenodd" d="M29.0173 33.5945C29.5078 34.1667 30.4886 34.5754 30.4069 33.1041L29.2626 32.8589C29.0991 33.1858 29.0173 33.1858 29.0173 33.5945Z" fill="#6C0B1B"/>
<path fill-rule="evenodd" clip-rule="evenodd" d="M79.1235 42.3407C79.2869 42.4224 79.3687 42.5041 79.6956 42.1772C79.8591 42.0137 80.0226 41.7685 80.1861 41.5233C83.7826 36.4555 86.48 29.4259 85.2539 23.132C84.8452 21.1703 83.2104 17.7372 81.5756 17.9824C81.7391 18.8816 82.5565 19.6172 82.9652 20.5163C83.4556 21.4155 83.7826 22.4781 83.9461 23.5407C84.273 26.0746 84.0278 28.3633 83.4556 30.8155C82.9652 32.9407 82.2295 35.1476 81.4121 36.8641C81.0852 37.9268 78.96 41.5233 79.1235 42.3407Z" fill="#6C0B1B"/>
<path fill-rule="evenodd" clip-rule="evenodd" d="M75.6086 106.587C76.3443 106.587 76.2625 106.342 77.1617 106.261C77.8973 106.261 78.2243 106.179 78.8782 105.934C80.7582 105.198 81.8208 103.727 82.8017 102.092C84.3547 99.6397 85.3356 96.3701 85.826 93.4275C85.9895 92.2832 86.153 91.0571 86.0713 89.831C86.0713 88.9319 86.0712 87.0519 85.1721 86.8066C84.5999 87.5423 84.9269 89.0953 84.8452 90.0762C84.6 94.2449 82.72 100.621 79.9408 103.481C77.5704 106.097 75.7721 104.626 75.6086 106.587Z" fill="#6C0B1B"/>
<path fill-rule="evenodd" clip-rule="evenodd" d="M38.826 110.266C41.7687 110.593 43.24 104.789 43.8939 102.092L45.5287 93.8362C45.6921 92.9371 46.0191 91.711 45.6104 91.1388C44.5478 90.9754 44.0574 94.3267 43.8121 95.6345C43.4034 97.5145 43.0765 99.231 42.5861 101.111C42.0956 102.991 41.033 107.895 39.48 109.367C39.0713 109.775 38.826 109.612 38.826 110.266Z" fill="#6C0B1B"/>
<path fill-rule="evenodd" clip-rule="evenodd" d="M62.0399 55.092C64.5738 55.9094 76.1808 44.4659 75.8538 42.259C74.8729 42.0138 73.6468 44.0572 72.4208 45.2833C71.1947 46.5094 70.1321 47.4085 69.0695 48.6346L63.7564 53.3755C63.1842 53.7842 61.9582 54.3564 62.0399 55.092Z" fill="#6C0B1B"/>
<path fill-rule="evenodd" clip-rule="evenodd" d="M31.0609 84.1094C32.4505 84.1094 32.1236 83.7824 31.6331 80.5129C31.3879 79.0416 31.1427 77.5703 30.8975 76.099L29.5896 68.4972C29.4262 67.9251 29.4262 67.925 28.854 67.925C27.9549 68.7424 29.1809 75.0363 29.4262 76.2624C29.7531 78.2242 30.407 82.5563 31.0609 84.1094Z" fill="white"/>
<path fill-rule="evenodd" clip-rule="evenodd" d="M38.0087 57.7076C38.9078 59.0155 45.7739 57.2989 47.1634 56.8902C48.553 56.4815 49.9426 55.9094 50.8417 55.092C52.64 53.6207 52.7217 51.9042 51.7408 51.6589C51.0869 52.3946 52.0678 54.0294 46.0191 55.6641C44.7113 55.9911 43.4035 56.3181 42.0139 56.5633L38.8261 57.0537C38.0904 57.2172 38.1721 57.2172 38.0087 57.7076Z" fill="#6C0B1B"/>
<path fill-rule="evenodd" clip-rule="evenodd" d="M68.1705 53.9476C69.2331 54.2746 72.4209 51.1685 73.1565 50.4328C73.4835 50.1059 77.5704 46.3459 76.7531 45.5285C76.2626 44.9563 74.7096 46.9181 74.3826 47.245L72.1757 49.2885C71.6852 49.6972 71.5218 49.9424 71.1131 50.3511C70.3774 51.0868 68.0887 52.8033 68.1705 53.9476Z" fill="#6C0B1B"/>
<path fill-rule="evenodd" clip-rule="evenodd" d="M55.4191 70.3771C56.4 70.2954 56.3183 69.478 57.1357 67.925C57.9531 66.3719 60.3235 63.1841 61.713 62.1215C62.1217 61.7945 62.6122 61.4676 62.4487 60.8137C60.487 59.9146 54.52 67.598 55.4191 70.3771Z" fill="#6C0B1B"/>
<path fill-rule="evenodd" clip-rule="evenodd" d="M57.054 102.828C57.4627 101.928 55.4192 99.3945 54.5201 97.9232C53.7027 96.5336 53.2123 95.3075 52.7218 93.8362C52.5583 93.1823 52.4766 92.7736 51.8227 92.6919C50.1879 94.6536 55.6644 103.318 57.054 102.828Z" fill="#6C0B1B"/>
<path fill-rule="evenodd" clip-rule="evenodd" d="M17.5739 12.3425H16.92C16.5113 12.833 16.1843 12.5877 15.5304 14.1408C14.7948 15.7756 13.9774 22.3147 15.4487 22.7234C16.5113 22.0695 15.7756 17.6556 16.8382 14.5495C17.0835 13.6504 17.7374 13.0782 17.5739 12.3425Z" fill="#6C0B1B"/>
<path fill-rule="evenodd" clip-rule="evenodd" d="M33.7583 41.7686C34.2487 41.7686 35.6383 41.7686 35.4748 41.033C35.3113 40.3791 32.8591 40.5426 31.7148 39.8886C31.1426 39.6434 30.8157 39.153 30.5705 38.5808C30.08 37.3547 30.4887 37.1913 29.6713 36.946C28.7722 37.6 28.8539 41.7686 33.7583 41.7686Z" fill="#6C0B1B"/>
<path fill-rule="evenodd" clip-rule="evenodd" d="M83.7826 75.8536C83.7826 76.9162 83.2104 77.9788 83.6191 78.7145C85.7443 78.6327 85.4174 73.8919 84.273 73.4832C83.1287 72.9927 83.7826 75.2814 83.7826 75.8536Z" fill="white"/>
<path fill-rule="evenodd" clip-rule="evenodd" d="M71.2766 107.405C70.8679 109.448 73.32 108.713 74.0557 107.895C74.5461 107.323 74.3827 106.506 73.2383 106.833C72.9114 106.915 72.6661 107.16 72.3392 107.242C71.8487 107.323 71.6853 107.242 71.2766 107.405Z" fill="#6C0B1B"/>
<path fill-rule="evenodd" clip-rule="evenodd" d="M77.3252 37.5999C77.0799 38.0085 76.6712 38.5807 76.5078 39.1529C76.0991 40.379 77.4069 41.1146 78.3878 38.6625C78.633 37.7633 78.2243 37.6816 77.3252 37.5999Z" fill="#6C0B1B"/>
<path fill-rule="evenodd" clip-rule="evenodd" d="M27.2191 64.0833C27.2191 65.9633 28.2817 66.2902 28.7722 65.7998C29.2626 65.3093 28.4452 63.5111 28.2 63.1841C27.3009 63.1024 27.2191 63.1024 27.2191 64.0833Z" fill="white"/>
<path fill-rule="evenodd" clip-rule="evenodd" d="M64.9825 58.4434C63.266 59.0156 63.7564 60.5686 65.146 59.9147C65.5547 59.7512 66.1268 59.3425 66.2903 58.9338C66.4538 58.1164 65.5547 58.1982 64.9825 58.4434Z" fill="#6C0B1B"/>
<path fill-rule="evenodd" clip-rule="evenodd" d="M78.2243 15.7757C76.9982 16.5931 79.0417 17.8192 79.7773 17.247C80.6765 16.5931 78.96 15.367 78.2243 15.7757Z" fill="#6C0B1B"/>
<path fill-rule="evenodd" clip-rule="evenodd" d="M34.7391 58.6067C37.5183 59.3424 37.0278 57.7076 36.2104 57.4624C34.9026 57.0537 34.7391 57.2989 34.7391 58.6067Z" fill="#6C0B1B"/>
<path fill-rule="evenodd" clip-rule="evenodd" d="M60.1599 105.525C60.3234 104.789 60.0782 104.544 59.5878 104.299C59.1791 104.054 58.6069 103.645 58.2799 104.217C57.8712 104.953 58.9339 106.097 60.1599 105.525Z" fill="#6C0B1B"/>
<path fill-rule="evenodd" clip-rule="evenodd" d="M83.6191 69.1511C82.8017 69.8868 83.2104 71.4398 84.1095 71.1946C84.8452 70.9494 85.0087 69.1511 83.6191 69.1511Z" fill="white"/>
<path fill-rule="evenodd" clip-rule="evenodd" d="M46.5914 88.6051C46.9183 87.8694 47.327 86.7251 45.9375 86.7251C45.2835 87.2973 45.0383 88.6868 46.5914 88.6051Z" fill="#6C0B1B"/>
<path fill-rule="evenodd" clip-rule="evenodd" d="M14.7948 26.892L15.7757 26.9738C17.0835 24.8486 14.2226 24.3581 14.7948 26.892Z" fill="#6C0B1B"/>
<path fill-rule="evenodd" clip-rule="evenodd" d="M3.02433 14.3043C4.08693 14.3861 4.6591 12.7513 5.31301 11.5252C6.62083 8.90956 8.17388 5.39478 11.0347 4.16869C11.7704 3.84174 12.5878 3.84174 12.4243 2.94261C11.1982 2.20696 9.15475 3.18782 8.33736 3.76C5.72171 5.80347 4.33214 9.15477 3.10606 12.2609C2.69736 13.0782 2.45215 13.6504 3.02433 14.3043Z" fill="#6C0B1B"/>
<path fill-rule="evenodd" clip-rule="evenodd" d="M94.4086 102.092C93.346 101.847 93.0191 103.073 91.9565 104.789C91.2208 105.934 90.4852 106.996 89.7495 107.896C88.9321 108.876 88.1147 109.857 87.2974 110.593C86.2348 111.492 84.273 112.555 84.9269 113.209C86.153 114.435 90.3217 110.184 91.1391 109.203C91.9565 108.141 94.9808 104.217 94.4086 102.092Z" fill="#6C0B1B"/>
<path fill-rule="evenodd" clip-rule="evenodd" d="M5.80348 0H4.98609C3.84174 0.81739 2.86087 1.4713 1.88 2.69739C1.47131 3.26956 1.06261 3.67826 0.653915 4.33217C0.408698 4.65912 0.326966 4.90434 0.163488 5.31304C0.081749 5.47652 0 5.72173 0 5.96695C0 6.94782 0.735651 6.94782 1.22609 6.45738C1.38956 6.29391 1.79827 5.63999 1.96174 5.47652L3.43305 3.76C5.14957 1.79826 6.45739 1.14435 5.80348 0Z" fill="#6C0B1B"/>
<path fill-rule="evenodd" clip-rule="evenodd" d="M96.1251 106.424C95.2259 106.833 93.9999 109.939 92.6103 111.492C91.9564 112.228 91.9564 113.127 93.1825 112.8C95.5529 112.228 98.4955 105.443 96.1251 106.424Z" fill="#6C0B1B"/>
<path fill-rule="evenodd" clip-rule="evenodd" d="M62.9389 55.0104C63.4294 55.1739 63.6746 55.7461 63.5111 56.2365C63.3476 56.727 62.7755 56.9722 62.285 56.8087C60.6503 56.2365 58.6885 55.4191 56.645 54.193C55.0103 53.2122 53.3755 52.0678 51.659 50.5148C51.2503 50.1878 51.2503 49.5339 51.5772 49.1252C51.9042 48.7165 52.5581 48.7165 52.9668 49.0435C54.5198 50.433 56.0729 51.5774 57.6259 52.4765C59.5876 53.7026 61.3859 54.52 62.9389 55.0104ZM44.7111 36.8644C41.5233 28.6087 42.8311 21.0887 46.2642 16.2661C47.4903 14.4679 49.0433 13.0783 50.7598 12.1792C52.3946 11.2801 54.1929 10.8714 55.9911 11.0348C59.5876 11.3618 63.3476 13.8957 66.2085 19.454C66.4537 19.9444 67.0259 20.1079 67.5163 19.8626C67.6798 19.7809 67.8433 19.6174 67.925 19.3722C69.7233 15.9392 72.2572 13.6505 75.0363 12.6696C76.8346 12.0157 78.6329 11.8522 80.3494 12.1792C82.0659 12.5061 83.6189 13.3235 84.9267 14.7131C86.8067 16.6748 88.0328 19.6992 88.1963 23.8679C88.3598 29.0174 86.9702 35.2296 84.0276 40.8696C81.412 45.7739 77.5702 50.2696 72.5842 53.2939C72.0937 53.5391 72.012 54.193 72.2572 54.6017C72.5024 55.0922 73.1563 55.1739 73.565 54.9287C78.9598 51.6591 82.965 46.9183 85.7441 41.7687C88.9319 35.8018 90.4033 29.2626 90.1581 23.7861C89.9946 19.127 88.5233 15.694 86.3981 13.4053C84.845 11.7705 82.8833 10.7079 80.8398 10.2992C78.7963 9.89049 76.5894 10.1357 74.4642 10.8714C71.685 11.934 69.0694 13.9774 67.1076 17.0835C64.0016 11.8522 60.0781 9.48179 56.1546 9.15484C53.9477 8.99136 51.8224 9.48179 49.8607 10.5444C47.899 11.607 46.1825 13.16 44.7111 15.2035C41.0329 20.4348 39.4798 28.6087 42.9129 37.6C43.0764 38.0905 43.6485 38.3357 44.139 38.1722C44.6294 37.927 44.8746 37.3548 44.7111 36.8644Z" fill="#6C0B1B"/>
<path fill-rule="evenodd" clip-rule="evenodd" d="M32.6138 63.1842C32.1234 63.1842 31.633 62.7755 31.633 62.285C31.633 61.7946 32.0417 61.3042 32.5321 61.3042C34.9843 61.2224 37.4364 61.059 39.5617 60.8955C41.4417 60.732 42.9947 60.5685 43.8938 60.405C45.4469 60.1598 46.7547 59.6694 47.8173 59.0972C48.7982 58.5251 49.4521 57.7894 49.8608 56.8085C50.5147 54.9285 51.0051 52.5581 51.2503 50.1059C51.4956 47.4085 51.4955 44.5477 51.0869 42.3407C50.6782 40.379 49.9425 38.8259 48.8799 38.499C48.7982 38.499 48.6347 38.4172 48.4712 38.4172C44.7929 38.0085 39.153 38.2538 35.9651 38.3355C34.9025 38.3355 34.1669 38.4172 33.8399 38.4172C31.9599 38.4172 31.8782 31.306 31.7964 24.1129C31.7147 18.3094 31.633 12.5877 31.0608 11.3616C30.7338 10.626 29.9982 9.89032 28.9356 9.23641C27.9547 8.5825 26.6469 8.09206 25.1756 7.76511C24.3582 7.60163 23.3773 7.51989 22.3965 7.51989C20.2712 7.51989 17.9825 8.01032 16.1843 8.99119C14.4678 9.97206 13.1599 11.4434 12.7513 13.4868C12.6695 13.8955 12.5878 14.386 12.5878 14.9581V16.3477C12.5878 24.1947 12.506 54.2746 13.8956 57.7077C14.0591 58.1981 14.3043 58.6068 14.4678 58.9337C14.713 59.2607 14.9582 59.5877 15.2034 59.8329C15.6121 60.2416 15.6121 60.8137 15.2034 61.2224C14.7947 61.6311 14.2226 61.6311 13.8139 61.2224C13.4052 60.8137 13.0782 60.405 12.833 59.9146C12.5878 59.4242 12.2608 58.9337 12.0973 58.3616C10.626 54.5198 10.626 24.1947 10.7078 16.266V14.8764C10.7078 14.2225 10.7895 13.6503 10.8712 13.0781C11.4434 10.3808 13.0782 8.50076 15.2852 7.35641C17.4104 6.21207 20.026 5.63989 22.4782 5.63989C23.5408 5.63989 24.6034 5.72163 25.5843 5.96685C27.3008 6.2938 28.8538 6.94772 29.9982 7.68337C31.3878 8.5825 32.3686 9.56337 32.8591 10.626C33.5947 12.179 33.6764 18.146 33.7582 24.1129C33.8399 30.3251 33.8399 36.4555 33.8399 36.4555C34.3304 36.4555 34.9843 36.4555 35.8834 36.3738C39.0712 36.292 44.8747 36.0468 48.7164 36.4555C48.9616 36.4555 49.2886 36.5373 49.5338 36.619H49.6156C51.4138 37.2729 52.5582 39.3164 53.0486 41.932C53.539 44.3842 53.539 47.3268 53.2938 50.2694C53.0486 52.8851 52.4764 55.419 51.8225 57.3807C51.3321 58.7703 50.3512 59.8329 48.9616 60.6503C47.7356 61.3859 46.1008 61.8763 44.3843 62.2033C43.3216 62.3668 41.7686 62.5303 39.8069 62.6937C37.6817 62.939 35.2295 63.1024 32.6138 63.1842Z" fill="#6C0B1B"/>
<path fill-rule="evenodd" clip-rule="evenodd" d="M47.5721 96.2885C47.4086 95.7981 47.7355 95.2259 48.226 95.0624C48.7164 94.8989 49.2886 95.2259 49.4521 95.7163C50.9234 100.457 53.4573 104.626 57.0538 107.405C60.3233 109.857 64.4103 111.247 69.4781 111.083C74.5459 110.92 79.2868 109.04 82.7199 105.688C85.9077 102.582 88.0329 98.2502 88.5233 92.5285L88.605 91.8746C88.6868 90.812 88.7685 89.9946 88.7685 89.4224C88.7685 88.3598 88.3599 88.2781 86.4799 88.2781L77.3251 88.1963C76.9164 88.1963 76.6712 88.1963 76.4259 88.1963C76.099 88.1963 76.1807 87.9511 76.099 88.1146C75.9355 88.1963 76.1807 88.1146 76.1807 88.3598C76.099 88.605 76.0173 89.0137 75.9355 89.5041C75.0364 92.8554 73.4016 94.8989 71.6851 95.7163C70.7042 96.2067 69.8051 96.2885 68.8242 96.0433C67.9251 95.798 67.1077 95.2259 66.372 94.3267C64.7373 92.2833 63.6747 88.5233 64.3286 83.1285C64.4103 82.6381 64.819 82.2294 65.3094 82.3111L85.0085 82.0659C85.0085 82.0659 87.5425 81.9842 87.2155 75.9355C87.052 71.8485 85.9894 65.4729 82.6381 60.8955C80.3494 57.8711 76.9981 55.5824 72.0938 55.1737C67.5981 54.8468 63.5112 56.3181 60.0781 58.852C56.1547 61.7946 52.9668 66.1268 50.8416 70.8676C50.5964 71.3581 50.106 71.6033 49.6155 71.3581C49.1251 71.1129 48.8799 70.6224 49.1251 70.132C51.3321 65.0642 54.6834 60.405 58.9338 57.299C62.7755 54.5198 67.2712 52.8851 72.2573 53.212C77.8155 53.6207 81.6572 56.2364 84.1911 59.6694C87.8694 64.6555 89.0138 71.4398 89.1772 75.772C89.5859 83.7824 85.0903 83.9459 85.0903 83.9459L66.1268 84.1911C65.7999 88.5233 66.5355 91.5476 67.8433 93.1007C68.3338 93.6728 68.8242 93.9998 69.3146 94.1633C69.8051 94.3267 70.2955 94.245 70.8677 93.9998C72.0938 93.4276 73.3199 91.7928 74.0555 88.932C74.1373 88.5233 74.219 88.1963 74.3007 87.9511C74.4642 87.2972 74.546 86.9702 74.9546 86.6433C75.3633 86.3163 75.772 86.3163 76.5894 86.3163C76.8346 86.3163 77.1616 86.3163 77.4068 86.3163L86.5616 86.3981C89.9946 86.4798 90.7303 86.4798 90.7303 89.5041C90.7303 90.2398 90.6485 91.0572 90.5668 92.1198L90.4851 92.7737C89.9946 98.9041 87.6242 103.727 84.1094 107.16C80.2677 110.92 75.1181 112.882 69.5599 113.127C64.0016 113.372 59.4242 111.819 55.9094 109.04C51.9042 105.852 49.1251 101.438 47.5721 96.2885ZM68.4973 71.6033H74.6277C74.4642 70.2137 73.8103 69.0694 72.9929 68.4155C72.5842 68.0885 72.1755 67.925 71.7668 67.8433C71.3581 67.7616 71.0312 67.8433 70.6225 68.0885C69.8868 68.4972 69.0694 69.6416 68.4973 71.6033ZM75.6903 73.565C76.1807 73.565 76.6712 73.1563 76.6712 72.5842V72.5024C76.6712 70.2137 75.6903 68.0885 74.3007 66.9442C73.6468 66.372 72.9112 66.045 72.1755 65.8816C71.3581 65.7181 70.5407 65.8816 69.8051 66.372C68.4155 67.1894 67.1077 69.0694 66.372 72.4207C66.2903 72.9111 66.6173 73.4833 67.1077 73.565C67.1894 73.565 67.2712 73.565 67.2712 73.565H75.6903Z" fill="#6C0B1B"/>
<path fill-rule="evenodd" clip-rule="evenodd" d="M26.32 57.7077C24.113 58.3616 19.6174 59.6694 16.0208 60.8955C13.8956 61.6312 12.0974 62.3668 11.5252 62.939C10.2991 64.0016 11.4435 67.026 12.9148 70.8677C13.3235 72.012 13.8139 73.2381 14.2226 74.3825C14.7948 76.0172 15.7756 79.0416 16.92 82.5564C19.9443 91.6294 24.113 104.381 25.3391 106.996C26.7287 110.102 34.1669 109.612 39.153 109.285H39.2347C41.6052 109.122 43.3217 108.631 44.466 107.65C45.5286 106.751 46.1008 105.443 46.346 103.645C46.5912 101.356 48.1443 92.7737 49.4521 85.172C50.5147 79.0416 51.4138 73.6468 51.5773 72.6659C51.5773 72.339 50.7599 71.6851 49.6156 71.0312C48.226 70.2138 46.346 69.3964 44.8747 68.8242C44.466 68.6607 44.0573 68.4973 43.7304 68.3338C43.3217 68.1703 42.9947 68.0068 42.7495 67.9251C42.3408 67.7616 42.1773 68.0886 41.5234 70.0503C40.2973 73.4833 39.0713 79.532 38.0904 84.1912C37.7634 85.9077 37.4365 87.379 37.1912 88.4416C37.1095 88.932 36.5373 89.259 36.0469 89.1772C35.6382 89.0955 35.3113 88.6868 35.3113 88.2781C35.1478 86.9703 31.7147 60.4868 31.3878 59.0973V59.0155C31.1426 58.1981 30.4887 57.7077 29.753 57.4625C28.8539 57.2173 27.7913 57.2173 26.8921 57.4625C26.4834 57.7077 26.4017 57.7077 26.32 57.7077ZM15.4487 59.179C19.0452 57.8712 23.6226 56.5634 25.8295 55.9094C25.9113 55.9094 26.0747 55.8277 26.1565 55.8277C27.3008 55.5825 28.7721 55.5008 29.9982 55.8277C31.3878 56.2364 32.5321 57.0538 33.0226 58.6886L33.1043 58.8521C33.3495 59.9147 35.3113 74.5459 36.3739 82.7198C37.273 78.2242 38.4991 72.8294 39.6434 69.5599C40.8695 66.1268 41.3599 65.5547 43.3217 66.2903C43.6486 66.372 43.9756 66.5355 44.3843 66.699C44.7112 66.8625 45.0382 66.9442 45.4469 67.1894C47.0817 67.8433 48.9617 68.6607 50.5147 69.5599C52.313 70.6225 53.5391 71.7668 53.3756 73.0746C53.2938 74.0555 52.313 79.532 51.2504 85.6625C49.9425 93.1824 48.4712 101.765 48.226 103.972C47.9808 106.261 47.1634 107.977 45.6921 109.203C44.2208 110.429 42.2591 111.083 39.3982 111.247H39.3165C33.7582 111.574 25.5843 112.146 23.6226 107.814C22.3965 105.035 18.1461 92.2833 15.1217 83.1285C13.9774 79.6138 12.9965 76.5894 12.4243 74.9546C12.0156 73.6468 11.5252 72.5025 11.1165 71.4399C9.39998 66.7807 8.01042 63.266 10.2991 61.3042C11.1165 60.8138 13.0782 59.9964 15.4487 59.179Z" fill="#6C0B1B"/>
<path fill-rule="evenodd" clip-rule="evenodd" d="M27.6278 13.3235C27.6278 12.9148 27.9548 12.5879 28.3635 12.5879C28.7722 12.5879 29.0991 12.9148 29.0991 13.3235V14.4679C29.0991 14.8766 28.7722 15.2035 28.3635 15.2035C27.9548 15.2035 27.6278 14.8766 27.6278 14.4679V13.3235ZM27.7096 17.1653C27.7096 16.7566 28.0365 16.4296 28.4452 16.4296C28.8539 16.4296 29.1809 16.7566 29.1809 17.1653C29.1809 19.127 29.2626 21.5792 29.2626 23.6227C29.2626 25.1757 29.3443 26.4835 29.3443 27.3009C29.3443 27.7096 29.0174 28.0366 28.6904 28.0366C28.2817 28.0366 27.9548 27.7096 27.9548 27.3827C27.9548 26.5653 27.873 25.1757 27.873 23.6227C27.7913 21.5792 27.7096 19.127 27.7096 17.1653Z" fill="white"/>
<path fill-rule="evenodd" clip-rule="evenodd" d="M53.7026 13.5685C54.1113 13.4868 54.4382 13.6503 54.6017 14.059C54.6835 14.4677 54.52 14.7946 54.1113 14.9581C54.1113 14.9581 53.8661 15.0398 53.3756 15.2851C53.0487 15.4485 52.64 15.3668 52.3948 14.9581C52.2313 14.6311 52.313 14.2224 52.7217 13.9772C53.2939 13.732 53.7026 13.5685 53.7026 13.5685ZM50.3513 15.6937C50.6783 15.4485 51.0869 15.4485 51.3322 15.7755C51.5774 16.1024 51.5774 16.5111 51.2504 16.7564C49.8609 17.9824 48.3896 19.9442 47.6539 22.8868C47.0817 25.0937 46.9183 27.9546 47.5722 31.4694C47.6539 31.8781 47.4087 32.205 47 32.2868C46.5913 32.3685 46.2643 32.1233 46.1826 31.7146C45.447 27.9546 45.6104 24.9303 46.2643 22.5598C47.1635 19.2903 48.7983 17.0833 50.3513 15.6937Z" fill="white"/>
</svg>
